<svg width="20" height="20" viewBox="0 0 20 20" fill="none" xmlns="http://www.w3.org/2000/svg">
<path d="M18.7616 5.01513C17.6202 5.01513 16.5671 4.63701 15.7214 3.99912C14.7515 3.26787 14.0546 2.19521 13.8085 0.958886C13.7476 0.653418 13.7147 0.338183 13.7116 0.0151367H10.4511V8.92451L10.4472 13.8046C10.4472 15.1093 9.59755 16.2155 8.41982 16.6046C8.07802 16.7175 7.70888 16.771 7.3245 16.7499C6.83388 16.7229 6.37411 16.5749 5.9745 16.3358C5.12411 15.8272 4.54755 14.9046 4.53193 13.8491C4.50732 12.1995 5.84091 10.8546 7.48935 10.8546C7.81474 10.8546 8.12724 10.9077 8.41982 11.0042V8.56904V7.69365C8.11122 7.64794 7.79716 7.62412 7.47958 7.62412C5.67529 7.62412 3.98779 8.37412 2.78154 9.72529C1.86982 10.7464 1.32294 12.0491 1.23857 13.4151C1.12802 15.2097 1.78466 16.9155 3.0581 18.1741C3.24521 18.3589 3.44169 18.5304 3.64716 18.6886C4.73896 19.5288 6.07372 19.9843 7.47958 19.9843C7.79716 19.9843 8.11122 19.9608 8.41982 19.9151C9.7331 19.7206 10.9448 19.1194 11.9011 18.1741C13.0761 17.0128 13.7253 15.471 13.7323 13.83L13.7155 6.54248C14.2761 6.9749 14.889 7.33271 15.5468 7.61045C16.5698 8.04209 17.6546 8.26084 18.771 8.26044V5.89287V5.01435C18.7718 5.01513 18.7624 5.01513 18.7616 5.01513Z" fill="white"/>
</svg>
