<svg width="283" height="41" fill="none" xmlns="http://www.w3.org/2000/svg"><path d="M78.695 2.78h4.666v15.982h.1L95.77 2.78h5.559L87.431 20.251l15.09 19.458h-6.056L83.46 21.839h-.099v17.87h-4.666V2.779zm28.292 11.813a15.481 15.481 0 013.673-1.688 13.763 13.763 0 013.971-.595c.993 0 1.887.099 2.681.297.794.199 1.489.398 2.085.695.595.298 1.092.497 1.489.795.397.297.695.496.893.694.596.596 1.092 1.39 1.588 2.284.497.992.695 2.382.695 4.268V35.44c0 .794 0 1.589.1 2.283 0 .695.099 1.291.198 1.787h-4.07l-.298-3.673a8.85 8.85 0 01-2.68 2.78c-1.191.794-2.78 1.29-4.865 1.29-2.184 0-4.07-.595-5.559-1.886-1.489-1.29-2.184-3.276-2.184-5.857 0-1.29.199-2.482.695-3.673.496-1.092 1.191-2.085 2.184-2.879.993-.794 2.283-1.489 3.971-1.886 1.588-.496 3.574-.695 5.956-.695h2.581V21.84c0-.993-.099-1.886-.198-2.482-.099-.596-.397-1.29-.794-1.886-.497-.596-1.092-.993-1.886-1.29-.795-.299-1.688-.398-2.582-.398-1.389 0-2.68.298-3.971.794-1.191.497-2.283 1.192-2.978 2.085l-.695-4.07zm12.906 11.913c-.397-.1-.894-.1-1.39-.1h-1.688c-2.581 0-4.566.596-5.857 1.688-1.29 1.092-1.886 2.383-1.886 3.97 0 1.49.397 2.582 1.092 3.475.695.894 1.886 1.291 3.475 1.291.992 0 1.787-.199 2.581-.596.794-.397 1.39-.893 1.985-1.489.596-.595.993-1.39 1.291-2.184.298-.794.496-1.687.496-2.58v-3.475h-.099zm22.436 12.906c-.497.198-1.092.297-1.787.496-.695.1-1.291.199-1.886.199-2.085 0-3.574-.497-4.666-1.39-1.092-.894-1.588-2.581-1.588-4.964V16.38h-4.269v-3.673h4.269V7.148l4.467-1.29v6.85h5.559v3.573h-5.559v15.983c0 1.588.198 2.68.595 3.276.398.596 1.192.993 2.184.993.596 0 1.092-.1 1.49-.199a6.905 6.905 0 001.29-.496v3.574h-.099zm7.146-11.914c0 3.177.596 5.46 1.787 6.95 1.192 1.489 3.078 2.183 5.56 2.183 1.092 0 2.283-.198 3.375-.694 1.092-.497 2.085-.993 2.879-1.49l.198 4.07a18.872 18.872 0 01-3.573 1.192c-1.291.298-2.681.397-3.971.397-1.787 0-3.376-.298-4.765-.993-1.39-.695-2.482-1.588-3.376-2.78-.893-1.19-1.588-2.68-2.085-4.367-.496-1.688-.694-3.674-.694-5.758 0-2.085.198-4.07.694-5.758.497-1.688 1.092-3.177 1.986-4.368.893-1.191 1.985-2.085 3.276-2.78 1.29-.695 2.78-.992 4.467-.992 3.078 0 5.46 1.092 7.049 3.375 1.588 2.283 2.481 5.46 2.481 9.43v2.383h-15.288zm10.821-3.375c0-5.659-1.787-8.438-5.261-8.438-.695 0-1.39.1-2.085.397-.695.298-1.191.794-1.787 1.39-.496.695-.893 1.489-1.191 2.58-.298 1.093-.497 2.383-.497 3.972h10.821v.099zm9.732-21.343h4.567v15.982h.198L187.004 2.78h5.559l-13.898 17.472 15.09 19.458h-6.056l-12.906-17.87h-.198v17.87h-4.567V2.779zm44.273 31.072c0 .992 0 1.985.1 2.978.099.993.099 1.886.099 2.879h-4.269l-.198-4.07h-.1c-.695 1.588-1.588 2.68-2.779 3.375-1.092.695-2.482.993-4.071.993-2.382 0-4.268-.695-5.757-2.085-1.489-1.39-2.184-3.574-2.184-6.552V12.706h4.467V30.18c0 2.184.397 3.673 1.092 4.665.794.993 1.886 1.49 3.276 1.49 1.787 0 3.177-.596 4.169-1.787.993-1.192 1.489-3.078 1.489-5.46v-16.38h4.468v21.145h.198zM225.622 0h-4.468v39.71h4.468V0zm12.008 6.85h-4.864V1.59h4.864v5.26zm-4.666 5.857h4.467V39.71h-4.467V12.707zm10.126 21.741c.993.595 2.085 1.092 3.077 1.489 1.092.397 2.085.596 3.276.596 1.688 0 2.978-.398 3.872-1.093.893-.794 1.29-1.687 1.29-2.68 0-.893-.297-1.687-.794-2.382-.496-.695-1.39-1.291-2.68-1.887l-2.978-1.29c-1.986-.894-3.276-1.787-4.07-2.88-.795-.992-1.192-2.382-1.192-4.07 0-1.091.199-2.084.596-3.077.397-.992.993-1.787 1.787-2.481.794-.695 1.687-1.192 2.779-1.688 1.092-.397 2.284-.596 3.574-.596 1.092 0 2.184.1 3.078.298.992.198 1.787.397 2.581.695l-.199 3.772a13.4 13.4 0 00-2.382-.794 13.482 13.482 0 00-2.879-.298c-1.489 0-2.581.397-3.375 1.092-.695.695-1.092 1.589-1.092 2.68 0 1.093.397 1.986 1.191 2.681.794.695 1.886 1.29 3.375 1.886l1.588.596c1.688.695 2.979 1.588 3.872 2.68.993 1.092 1.39 2.482 1.39 4.17 0 1.191-.199 2.283-.496 3.276a7.153 7.153 0 01-1.49 2.68c-.694.695-1.588 1.29-2.68 1.787a11.382 11.382 0 01-3.971.695c-1.39 0-2.779-.1-3.971-.397-1.191-.298-2.382-.695-3.375-1.191l.298-4.27zM263.84 0h4.467v16.38h.099c.596-1.092 1.489-2.085 2.581-2.879 1.092-.794 2.482-1.191 4.071-1.191 2.382 0 4.268.695 5.758 2.085 1.489 1.39 2.184 3.573 2.184 6.552v18.762h-4.468V22.237c0-2.184-.397-3.673-1.092-4.666-.794-.992-1.886-1.489-3.276-1.489-1.787 0-3.177.596-4.169 1.787-.993 1.191-1.489 3.078-1.489 5.46v16.28h-4.468V0h-.198z" fill="#fff"/><path d="M7.843 6.353c-1.49 1.192-2.78 2.68-3.674 4.468C1.886 8.14.496 6.056 0 5.36v-.1s0-.099.1-.099l7.743 1.191z" fill="#A39041"/><path d="M54.103 15.686c.1-.1.2-.1.2-.2-.1.1-.2.1-.2.2zm.201-.496c-.1 0-.1 0 0 0-.1 0-.1 0 0 0-.297.098 0 .098 0 0zm-.298 0c0 .1-.1.1-.2.199.1 0 .3-.1.2-.2zm-3.279-1.69c0 .1.1 0 .1 0 0-.099-.1 0-.1 0zm-.497.199c.1 0 .199-.1.398-.1-.1-.099-.298 0-.398.1zm1.69.299c-.1 0 0 .099-.1.099h.1c0-.1.099 0 0-.1zm.396-.893s.1 0 0 0c.1-.1.1-.1.1-.2 0 0 0 .1-.1.2 0-.1-.1-.2-.1-.2.1.1 0 .2-.1.2h.2c-.1 0-.1 0 0 0zm.7 2.977c.1.1.1 0 .1.1 0-.1-.1-.1 0-.1 0-.1 0-.1-.1 0 0-.1-.1 0-.2 0v.2c.1 0 0-.1.1-.1s0 .1.1.1c-.1-.1 0-.1 0-.2zm.394 0c0-.1 0-.1-.1-.1 0 0 0 .1.1.1zm.597-.298c-.1 0-.1.1-.1.1l.1-.1z" fill="#F0D878"/><path d="M53.212 15.982v.1c.1 0 0-.1.1 0 0-.1-.1 0-.1-.1zm.196-1.19h.1c0-.1-.1-.1-.1 0zm.499-.199s0 .1 0 0c0 .1.1.1 0 0zm-.695.497c0 .098.099 0 .099.098.099-.099 0-.099-.1-.099zm-.396-2.483c.1 0 .1 0 .1-.1 0 .1-.1.1-.1.1zm-1.79 15.586c0 .1.1.1 0 0 0 0 0 .1 0 0zm.894.1s.101 0 0 0c.101 0 .101 0 0 0 0-.1.101 0 0 0zm.996-12.608c-.1-.1-.1 0-.1 0s.1.1.1 0zm-2.287 13.203h.1c0-.1-.1-.1-.1 0zm.894-.198s.1 0 .1-.1c0 0-.1 0-.1.1zm1.293.695c.1-.1.2 0 .2-.1-.1 0-.1.1-.2.1zm-1.096-.597c0-.099.099-.099.099-.099-.1-.099-.198 0-.1.1zm.102-.794c-.1 0-.1 0-.199.1.1 0 0 .1.1.1-.1-.2 0-.1.1-.2zm-.598.299c0 .099 0-.099 0 0 .099-.099 0-.099 0 0zm.892 1.291c.1 0 .2 0 .2-.1h-.2c.1 0 0 0 0 .1zm1.59-16.678c-.199.099-.398 0-.398.099v-.1c-.099 0-.099.1-.198.1v-.1h-.1c0 .1.1 0 .1.1s-.1.1-.1.199c.2 0 .596 0 .696-.298zm-.79.099s-.1 0-.1-.1c0 0 0 .1.1.1z" fill="#F0D878"/><path d="M53.01 13.004c.1.1.1 0 .1 0h-.1c0-.099 0-.099 0 0zm.3-.594c-.1 0-.3.099-.3.198.1-.1.2-.1.3-.199zm-2.185 17.273c.1-.1.1-.1.1-.2-.1.1-.2.2-.1.2zm1.392-16.578s.1 0 0 0c0-.1 0-.1 0 0zm-2.682 19.058c0-.099.099-.099.099-.099-.1-.099-.198 0-.1.1zm.794.002c.1 0 .1 0 .2-.1-.1 0-.1 0-.1-.1-.1.1-.1.1-.1.2 0-.1 0-.1 0 0zm.101-19.16c0-.1.1-.1.1 0 0-.199.199 0 .199-.1-.199 0-.298 0-.298.1-.1 0-.1-.1 0 0zm1.386 15.487c0 .1 0 0 0 0h.1s-.1-.1-.1 0zm1.691-14.395c0 .1.1.1 0 0zm-2.384-1.291c-.1 0-.1 0 0 0-.1.1 0 .1 0 0zm.102 18.664c-.1 0-.1-.1-.1 0 0 0 .1.099.1 0zm-.1.198c.099.099.099 0 .099 0 .099-.1 0-.1-.1 0zm-.099.001s.1 0 0 0c.1-.1 0-.1 0-.1v.1z" fill="#F0D878"/><path d="M50.629 32.164c0 .1 0 .1 0 0 .1.1.1 0 .2 0-.1 0-.1.1-.2 0zm3.476-18.067c-.098-.099-.197-.099 0 0-.098.1-.098 0 0 0zm.796.199c0-.1-.1-.1 0 0zm.295-.1h-.1s.1.1.1 0zm-2.386.894s-.098 0-.098.098c0 0 .099 0 .099-.099.099.1-.1.1 0 0zm2.386-1.092h-.1s.1.1.1 0zm-.891.496s.1 0 .1-.1c0 .1-.1 0-.1.1zm-.2-1.688c-.299 0-.1.1 0 0zm.595 1.887s0 .1 0 0-.101 0 0 0c-.101 0-.101 0 0 0zm-.298-.695c0-.2.1-.1.1-.2-.1 0-.1 0-.1.2 0-.1 0 0 0 0zm-.201 15.487c.1-.1.2-.1.2-.299-.1.1-.2.2-.2.3zm-1.585-12.41c-.103 0 0 .102 0 0zm1.984.198c-.098 0-.098-.099-.098 0s.099.099.099 0zm-.198.199c.1 0 .1 0 0 0 .1-.1 0-.1 0-.1v.1zm-1.388-1.788c-.1 0 0 .1 0 .1v-.1zm-.599-.099c0 .1 0 .1 0 0 0 0 0 .1.1.1 0 0 0-.1-.1-.1 0 0 0 .1 0 0zm.893 1.589c0-.1.099-.1.099-.1s-.198.1-.099.1zm1.392.298c0-.1-.1 0-.1 0 0 .1 0-.1.1 0zm-1.987-1.49c-.1 0-.1 0-.1.1-.099 0-.099 0-.099.098l-.099.1h.1c.099 0 0 0 .099-.1 0 .1.198 0 .198 0-.198.1-.1-.099-.1-.198zm.297 2.085c0-.1.1-.1.1-.1-.1 0-.198.1-.1.1zm2.185.398c0-.1.1-.1.1-.199 0 0-.1.1-.1.2zm.202-3.971c-.1.1-.397.199-.596.298 0 .298-.496.099-.496.397a.752.752 0 01.496-.199c.199-.099.298-.099.397-.297h.1c0-.2.396-.2.496-.298-.199-.1-.298 0-.397.099zm0 3.773c0 .1 0 .1 0 0 0 0 .1 0 .1-.1l-.1.1zm.395-4.27c-.099 0-.198.1-.297.1 0 .099 0 .099-.1 0v.099c0 .099 0-.1-.1-.1v.199c.1 0 .1-.1.1-.1.1.1.1 0 .1 0 .099.1.198 0 .297 0 0-.099-.099-.099-.099-.099 0-.099.1 0 .1-.099 0 .1 0 .1.099.1l-.1-.1c0 .1 0-.198 0 0zm-1.487 1.589c.1-.1.199 0 .299-.1-.1-.1-.2-.1-.3.1zm-.104 2.382s.1.1.2 0h-.2zm.301 11.22c0 .1 0 0 0 0 0-.1.1-.1.1-.2-.1.1-.1.2-.1.2zm-.793-11.119c.1 0 .1 0 .2-.1-.1 0-.1 0-.1-.1-.1 0-.1.1-.1.2 0-.1 0-.1 0 0zM50.332 31.27c0-.099.099-.099.099-.099-.099-.099-.198 0-.099.1zm2.78-2.878s0 .099.099.099l-.1-.1s0-.297 0 0c-.099 0-.198.1-.297 0 0 .1 0 .1-.1 0v.1s0-.1-.099-.1v.2c.1 0 .1-.1.1-.1.099.1.099 0 .099 0 .099.1.198 0 .298.1 0-.1-.1-.1-.1-.1-.099-.199 0 0 .1-.1zm.098.398c0-.1-.099-.1-.099-.1-.099 0 0 0 .1.1-.1 0-.1 0 0 0zm-1.39-7.844s.103.102 0 0zm.496-.794c0-.1 0-.1-.1-.1 0 .1 0 .1.1.1zm-.296.894c0 .1 0-.099 0 0 .098-.099 0-.099 0 0zm.096-.894c.1.1 0 0 0 0 .1-.1 0 0 0-.1v.1zm.299.794v.1c0-.2.1 0 .2-.1h-.2zm.301 5.858c-.1.1-.2.1-.2.2.1 0 .2-.1.2-.2zm-.103-.299c-.099 0-.197 0 0 0-.099 0-.099 0 0 0-.297.198 0 0 0 0zm.202-6.551c-.1 0-.1 0 0 0-.1.1 0 .1 0 0zm-.499 6.651c0 .1-.1.1-.1.2.1-.1.2-.2.1-.2z" fill="#F0D878"/><path d="M53.01 26.605c-.099.1-.298.1-.298.299 0-.2.2-.2.299-.299zm-.393-1.29s-.1 0 0 0c-.1-.1-.1 0 0 0-.1 0-.1 0 0 0zm-.197 2.977c-.1-.1-.1 0-.1 0h.1zm-.002-1.192c-.099 0-.099.1-.099.1.1.099.1 0 .1-.1zm-.098 1.392s.1.1.1 0c0 0-.1-.1-.1 0zm.195-2.781c-.1 0-.1 0-.1.1l.1-.1zm.495-3.573s.1.1.1 0 0 0-.1 0z" fill="#F0D878"/><path d="M54.998 18.466c-.099-.1 0-.1-.099-.1 0-.099.1 0 .1 0 0-.099-.1 0-.1-.099 0 .1 0 .1-.1 0 0 .1-.099 0 0 .1.1 0 .1 0 .1.099 0 0-.1-.1-.1 0 0-.1 0-.1-.099-.1.1.1-.099 0-.099 0v-.099s-.198-.1-.198 0c-.1-.1-.199 0-.199-.1-.1.1 0 .1-.1.1v-.1c-.098-.098-.098 0-.198 0 0 .1 0 .1.1.1 0 .1-.1 0-.1.1l-.099-.1v-.1c-.1 0-.1.1-.298 0 0 .2-.099-.098-.099.1 0-.1-.1 0-.1-.1 0 0 .1-.098.2 0 0-.198.198-.098.297 0v-.198c-.1.199-.496-.099-.496.199h-.397v.1h-.1v-.1c-.099 0 0 .198-.099.1v.098l-.1-.099c-.099 0-.198-.1-.198-.1.1-.098.298 0 .199-.098h.298c0-.1-.1 0-.199 0 .1-.1.1 0 .1-.1.099.1.099 0 .198.199v-.199l.1.1c0-.1.099 0 .099-.1.099 0 0 .1.099.1 0-.1 0 0 .099 0 0-.1.1 0 .199-.1.099 0 0 .1.099.1-.1.099-.199 0-.1.099l.1-.1v.1c0-.1 0-.1.1-.1.098-.099 0-.099 0-.198.098 0 0 .1 0 .1.098.099.098 0 .098 0v-.1c.1-.1.199.1.199-.1.198 0 .298-.098.397 0 0-.098.1 0 .1-.098v-.2c-.1-.098-.1 0-.2-.098v.198s-.099 0-.198.1c-.1-.1 0-.1 0-.2 0 0-.1.1-.1-.098-.098 0-.098.198-.297 0 0-.1.1-.1.1-.1h-.1c0 .1 0 .1-.1 0-.099.199-.198 0-.297.1-.1 0 0-.1 0-.1-.1-.099-.1 0-.1 0 0 .1.1.1.2.199v.1h-.1s0-.1-.1-.1v.1h-.099c-.099-.1 0-.1 0-.1 0-.1.1 0 .1-.1-.397 0-.695.1-1.092.1.099 0 .198-.1.297-.199-.099.1-.297-.099-.297.1v-.1c-.1 0-.1.1-.1.1v-.199c.1 0 .199-.1.298-.198.1-.1.199-.1.298-.1.1-.099.1-.198.199-.198h.297s-.099-.1 0-.1c.298-.198.596-.297.795-.595-.298.298-.596.198-.894.496-.1-.1-.1.1-.198 0 0 .1.099.1 0 .1h-.1c0-.2-.099-.1-.099-.2-.298.1-.496.2-.695.299v.099c-.1 0-.1 0-.198.1 0-.1-.1-.1-.1-.2l.596-.297h.1c.099 0 .099-.1.099-.1v-.099s-.1 0-.1.1h-.099c.1-.1.298-.199.397-.199.1 0 .298 0 .298-.198v-.199c-.1 0-.199-.1-.199 0-.099-.1 0-.1-.099-.1v.2s-.1 0-.1.099c0-.1-.099 0-.099 0v-.199c-.099 0 0 0-.099.1 0 0-.099-.1-.198-.1v.199c0-.1 0-.1-.1-.199 0 .1-.099 0-.099 0v-.1c-.1.1-.298.1-.397.1 0 .1-.198 0-.198.1.297-.1.595-.298.893-.298v-.1c.1 0 .199-.1.199-.1v.1c.099 0 .099 0 .198.1 0 0-.1-.1 0-.1 0-.1-.1 0-.1 0v-.1s.1 0 .1-.098l.1-.1c.099 0 .198-.099.397-.099v.1c.099-.1.198-.2.396-.1 0 0 .1 0 .1-.1.1 0 .1-.098.198 0 0 .1 0 .1-.099.1 0 .1.199 0 .199 0 0-.1 0 0-.1-.1 0-.098.1 0 .1-.098 0 0 .099 0 .099-.1h.1c0 .1-.1 0-.1.1.1.099.1 0 .1.099-.1-.1 0-.199.098-.199v.1c.1.099.1 0 .1 0l-.1-.1c.1-.099.199 0 .199-.099 0-.1-.1 0-.1 0 .1 0 .1-.1.1-.1 0-.098-.1 0-.1 0-.099 0 0-.098-.099-.098 0-.1.1-.1 0-.2v.1h-.099v.1c-.1 0-.198 0-.198.099-.199-.1-.199 0-.298 0 0-.1.1-.1.1-.199-.1.1-.2 0-.299.199-.099-.1-.099-.1-.099 0-.1-.1-.1-.199 0-.199h-.1s0 .1.1.199c-.1-.1-.1.099-.198.099.099-.1.099-.198.099-.198-.1-.1-.199.099-.199.198 0-.1-.1 0-.1 0v.1-.1c-.098 0-.198.1-.297.199l.199-.199c-.1-.1-.199 0-.298 0 0 .1 0 0 .1.1v.099c-.1 0-.1-.1-.1-.1v.1s.1.198.1.099c.098.1 0 .1 0 .1 0-.1-.1 0-.1-.1 0 0 0 .1-.1.1-.099-.1 0-.1 0-.1 0-.1-.099-.1 0-.1-.099 0-.099.1-.099 0v-.198c-.099-.1-.099.1-.099 0 0 .1.1 0 .1.1h-.1c.1.099.1.099.1.198-.1 0 0-.1-.1-.1 0 .1-.298.1-.298 0 0 .1-.1 0 0 .1-.1 0-.1-.1-.1-.1.1 0 .1-.099.2-.099-.1-.099-.2 0-.298 0 0 0 0-.099-.1-.099 0 .1-.099.1-.198.1v.198c-.1-.1-.1.1-.1 0 .1.1-.099.1-.099.198-.099 0 0-.099-.099-.198 0 .1 0 .1-.1.1.1 0 .2-.1.2-.1v-.199h-.1c0-.099-.1-.099-.1-.198v-.1c0 .1-.099 0-.099.1-.099 0-.099 0-.198.099v.1c-.1.099-.199.099-.397 0v-.1s-.1 0-.1-.1c-.099-.098 0-.297 0-.297v.1c0 .098.1 0 .1 0s0-.1-.1-.1v-.1.1c.1-.1.2 0 .2-.1 0 0 0 .1.098.1 0-.199.298-.1.298-.199.1.1.1 0 .1.1.099 0 0 0 0-.1 0 0 .099.199.099.1 0-.1 0 0-.1 0v-.1c.1 0 .298.1.298-.099 0 .1 0 .1.1.199 0-.1 0-.1-.1-.1 0-.198.1 0 .199-.099.1 0 0 .1.1.199v-.199c0-.1.098.1.098 0v.1s.1-.1 0-.1c.1.1.1 0 .199.1.1-.1.1-.1.198 0 0 0-.099-.1 0-.1l-.099-.1s0 .1-.1 0v.1c-.098 0-.297.1-.297-.1v.1-.1c.298-.198.596-.297.894-.495.198-.1.397-.2.595-.298.199-.1.397-.1.596-.199l.1-.1c-.1 0-.2.1-.299.1-.099.1-.397.1-.496.1-.199.099-.397.198-.695.297v.1c-.397.099-.794.297-1.092.397v-.1.1h-.1v.099h-.099c-.099 0-.099 0-.198.1v-.1h-.1c0 .1-.099-.1-.198 0h.1c0 .1-.1 0-.1.1v-.1h-.1c0-.1 0-.298.1-.298-1.191.199-2.482.397-3.673.496a34.968 34.968 0 01-17.075-3.176c-1.29-.596-2.482-1.29-3.673-1.887-2.383-1.29-4.864-2.58-7.545-3.276-1.191-.297-2.482-.496-3.772-.496h-.596c-.198 0-.397 0-.595.1-.993.099-1.986.396-2.88.694-.694.298-1.39.596-1.985.993-1.886 1.191-3.375 2.879-4.368 4.964.199.297.397.496.695.794.199.198.397.496.596.695.099.099.198.298.298.397l.099.1.595.595c.795.893 1.787 1.787 2.68 2.78.398.397.894.794 1.291 1.19.1.1.298.299.497.398.198.099.298.298.496.397.199.1.298.298.496.397.298.298.596.596.993.794.199.1.298.298.496.397.2.199.398.298.596.497.298.297.596.496.993.794.198.099.298.298.496.397.199.1.397.298.497.397.198.1.397.298.496.397.199.1.397.298.496.397.199.1.397.298.596.397.198.1.397.298.596.397.198.1.397.298.595.397.397.298.794.497 1.192.795.397.297.794.496 1.19.794.596.397 1.192.695 1.887 1.092l.596.298.595.297c.1.1.199.1.397.199.1.1.298.1.398.198.198.1.397.2.595.298.1.1.298.1.397.199.298.1.596.298.894.397.198.1.397.198.496.198.1 0 .1.1.199.1.099.1.297.099.397.198.099 0 .198.1.198.1.1.099.298.099.397.198.1 0 .199.1.298.1.1 0 .199.099.298.099.1.099.298.099.397.198.1 0 .1.1.199.1.099.099.297.099.397.198.099.1.297.1.397.199.099 0 .198.099.298.099.099.1.297.1.397.1.099 0 .198.098.198.098.199.1.298.1.497.199.198.1.397.1.595.198.1 0 .298.1.397.1.1 0 .298.1.397.1.199.098.398.098.596.198.199.099.496.099.695.198.199.1.397.1.695.199.198 0 .397.099.596.099.099 0 .297.1.397.1.198.099.496.099.694.099.1 0 .298.099.398.099.198 0 .297.1.496.1.496.098 1.092.198 1.588.297.497.1 1.092.1 1.589.198.198 0 .496 0 .695.1h5.261s-.1 0-.1-.1h.2c.099-.099 0-.297.198-.297-.1.099-.1.297 0 .297.198 0 .397 0 .496-.099.199 0 .298 0 .497-.1v-.098s.099-.1.099 0v.099h.397-.1c0-.1.1-.1.2-.1v.1h.098c.1 0 .2-.1.2 0 .098 0 .297 0 .396-.1v-.099.1h.199c.099 0 .198 0 .298-.1v-.099c-.1-.1-.1.1-.199-.1 0 .2-.1-.099-.199.1 0-.1-.099 0-.099-.1 0 0 .1-.099.199 0 0-.198.198-.099.298 0v-.198c-.1.1-.398-.198-.497.199h-.298v.1l-.099.098h-.1c0-.099.1 0 .1-.099 0 0-.1 0-.1-.1v.1h-.099v-.1c-.099 0 0 .2-.099.1v.1s0 .099-.099 0c0-.2-.199-.2-.298-.2.1-.099.298 0 .298-.099h.298c0-.099-.1 0-.199-.099h.1s.099 0 .099.1v-.1c.1 0 .1 0 .198-.099v.1c0-.1 0 0 .1 0 0-.1.099 0 .198-.1.1 0 0 .1 0 .1-.1 0-.198 0-.198.099l.099-.1v.1c0-.1.1-.1.1 0 .098-.1 0-.1 0-.199.098 0 0 .1 0 .1.098.099.098 0 .098 0v-.1h.1s.099 0 .099-.1c.199 0 .298-.099.397 0 0-.099.1 0 .1-.099v-.198c-.1-.1-.1 0-.1-.1v.2c-.1 0-.1 0-.198.098-.1-.099 0-.099 0-.198 0 0-.1 0-.1-.1-.099 0-.198.1-.298 0 0-.099.1 0 .1-.099h-.1c0 .1 0 .1-.099 0-.1.199-.198 0-.298 0-.099 0 0-.099 0-.099-.099-.1-.099 0-.099 0 0 .1.1.1.1.199v.099h-.1s0-.1-.1-.1v.1h-.099c-.099-.1 0 0 0-.1 0-.099.1 0 .1 0-.397 0-.794.1-1.192 0l-.099-.099c.1-.099.1-.099.1-.198.099 0 .198.1.297.1l-.198.198c.198 0 .397-.1.496 0 0-.199.1-.199.1-.398.099 0 .198.1.297.1 0-.199-.298 0-.298-.199l.1.1c0-.1.099 0 .198-.1 0 .1 0 .1.1.199 0-.1 0-.1.099-.199.1.1.198.1.198 0 .1 0 0 .1.1.1v.099h.198c.1.1-.1.1 0 .198 0 0 0-.198.1-.099v-.1c.099-.099.099 0 .099-.099s.099.1.099 0c.1-.099-.1-.099-.1-.099h.2s-.1.1 0 .1c0-.1.099-.1.099 0 .099-.199.297-.1.496-.1v-.099c-.1 0-.1 0-.1-.1v.1c-.198.1-.297 0-.496 0 .1-.1.298 0 .397-.1h-.198c.1-.099.198 0 .198-.099.1 0 0 .1.1.1 0 0 .099 0 .099-.1.1 0 0 .1 0 .1h.1c0-.1.098-.1.098-.199.1 0 0 .1.1.199.099-.1.297-.1.297 0 .1-.1.1 0 .298-.1.1 0-.099 0-.099.1.1 0 .199-.1.397-.1v-.198c.1 0 .199-.1.199-.199.099 0 0 .1.099.1.1 0 .1-.1.199-.1.099-.099 0-.099.099-.099.1 0 0 .199 0 .199 0 .099-.1-.1-.199.099.1.1.199 0 .298-.1.1 0 .1.1.1.1.099-.1.198-.298.297-.199v-.099c.1-.1.1-.1.199-.1 0-.098.099-.098.099-.198-.1.1-.199 0-.298.1-.1 0 0-.1-.198-.1 0-.198.099-.099.198-.099 0-.1-.1 0-.1-.1 0 .1-.098.1-.098.1 0 .1-.1.1-.1.1.1 0 .1-.1.1 0 0 .099-.1 0-.1.099-.099 0 0-.1-.099-.1.1.1-.1 0-.199.1v-.1c-.099 0-.198 0-.297.1-.1-.1-.199 0-.298-.1-.1.1 0 .1-.1.199v-.1c-.099-.099-.198 0-.297 0 0 .1 0 .1.1.1 0 .1-.1.1-.1.1s-.1-.1-.1 0c-.099-.1 0 0 0-.1-.099 0-.198.1-.297 0 0 .198-.199 0-.199.1 0-.1-.1 0-.1-.1.1 0 .1-.1.2 0 0-.199.198-.1.397-.1v-.198c-.1.1-.199.1-.398.1-.099 0-.297 0-.297.198h-.298c0 .1 0 .1.1.1l-.1.098h-.199c0-.099.1 0 .1-.099-.1 0-.1 0-.199-.1l-.1.1h-.099v-.1c-.099 0 0 .2-.198.1v.1l-.1.099c0-.199-.198-.199-.297-.199.1-.1.397 0 .298-.1h.297c0-.098-.099 0-.198 0 .1-.098.1 0 .1-.098.098.198.098 0 .198.198.099-.1 0-.1 0-.198.099 0 .099.099.099.099 0-.1.1 0 .1-.1 0 .1-.1.1-.2.1l.2-.1c.099-.099 0 0 .099 0 .099-.099.198-.099.198-.099.1 0 0 .1.1.1-.1.099-.298 0-.2.198.1 0 .1-.1.1-.1l.1.1c.099-.1.099-.1.198-.1.1-.098-.1-.098 0-.198.1 0 0 .1 0 .1.1.099.1 0 .198 0v-.1c.1-.099.298 0 .298-.198.199 0 .298-.199.497-.1 0-.099.099-.099.198-.099 0-.1-.1-.1 0-.198h-.198c-.1 0-.1.099-.199.099v-.1l-.1.1c-.099 0-.198.198-.396.1 0-.1.099-.1.198-.2h-.198c0 .1 0 .1-.1 0-.099.2-.297 0-.397.1-.099 0 0-.1 0-.1h-.099c0 .1.1.1.199.2v.098h-.1s0-.099-.099-.099v.1h-.1c-.098-.1 0-.1 0-.1 0-.1.1 0 .1-.1-.1 0-.298 0-.397.1h-.993c.1-.1.199-.198.397 0 0 0 .1 0 .1-.1.099 0 .198-.098.297 0 0 .1 0 .1-.099.1 0 .1.199 0 .199 0h.099s.1 0 .1-.1h-.1c0-.098 0 0-.1-.098 0-.1.1 0 .1-.1v-.099s.1 0 .1-.1h.099c0 .1-.1 0-.1.1s.1 0 .1.1c0-.1.099-.2.099-.2v.1c.1.1.1 0 .1 0l-.1-.1c.1-.099.198 0 .298-.099 0-.099-.1 0-.1 0v-.099c.1 0 .1-.099.1-.099 0-.1-.1-.1-.1 0-.099 0 0-.1-.099-.1 0-.099.1-.099 0-.198v.1h-.1v.099c-.098 0-.198 0-.198.099-.099-.199-.198 0-.298 0 0-.1.1-.1.1-.199h-.1l.1-.099h.298s-.1-.1 0-.1c.397-.198.694-.396.893-.694-.1.198-.298.298-.496.397-.199.1-.298.1-.497.298-.099-.1-.099.1-.298 0 0 .1.1.1 0 .1h-.099c0-.2-.1-.1-.1-.2-.297.1-.495.2-.793.298v.1c-.1 0-.199 0-.298.099l.1-.1c-.1-.099-.1 0-.2 0 0 0-.099-.099 0-.198h.2v.1c.098 0 .098-.1.198-.1v.1-.1c.099 0 .198-.1.198-.1v.1c.1.1.1-.198.199-.1 0 0 0-.098-.1-.098.2-.1.298-.199.497-.199.1 0 .298 0 .298-.198v-.199h-.199c.1 0 .1-.1.199-.1-.199.1-.397-.099-.397.1v-.1c-.1 0-.1.1-.199.1v-.1h-.1c0 .1.1 0 .1.1h-.1v.1s0-.1-.099-.1c0 .1-.099 0-.099 0v-.1c-.099.1-.298 0-.397 0-.1.1-.1 0-.198 0h.099s.1-.099.1 0h.198c.099 0 .198 0 .297-.099 0 0 0 .1.1.1v-.1h-.1.2v-.099c.098 0 .098-.1.198-.1v.1c.099 0 .099 0 .099.1 0 0-.1-.1 0-.1 0-.1-.1 0-.1 0v-.1h.1l.1-.098c.098 0 .198-.1.297-.199v.1c.1-.1.199-.2.298-.1 0 0 .1 0 .1-.1.098 0 .098-.098.198-.098v.099c.099 0 .198 0 .198-.1 0-.099 0 0-.1 0 0-.099.1 0 .1-.099 0 0 0-.099.1-.099h.099c0 .1-.1 0-.1.1h.1c-.1 0 0-.2 0-.2v.1h.099s-.1 0-.1-.1c0-.099.1-.099.2-.198-.1-.1 0 0-.1 0 .1 0 0-.1 0-.1-.1-.098-.1 0 0 .1-.1 0 0-.1-.1-.1 0-.098 0-.098-.099-.198 0 0 0 .1.1.1h-.1c0 .099 0 .099.1.099-.1 0-.1.1-.1.1-.198-.1-.099.098-.198.098-.1-.099.1-.099 0-.198-.1.1-.199 0-.199.198-.099 0-.099-.099-.099 0 0 0-.1-.099 0-.099h-.1s0 .1.1.1c-.1 0-.1.099-.198.099.099-.1.099-.199.099-.199-.1-.1-.1.1-.1.199-.099-.1-.099 0-.099 0v.099-.1c-.099 0-.099.1-.198.2.099-.1.099-.1.099-.2h-.199c0 .1 0 0 .1.1v.1c-.1 0-.1-.1-.1-.1v.1s.1.198.1.099c.099.099 0 .099 0 .099 0-.1-.1 0-.1-.1 0 0 0 .1-.099.1-.1-.1 0-.1 0-.1 0-.099-.1-.099-.1-.099s-.098.1-.098 0v-.198c-.1-.1-.1.099-.1 0 0 .099 0 0 .1.099h-.1c.1.1.1.1.1.199-.1 0 0-.1-.1-.1 0 .1-.297.1-.297-.099 0 .1-.1 0 0 .1-.1 0 0-.1-.1-.2h.1v.2s0-.2.099-.1v-.199c0-.099.1.1.1 0 0-.099 0-.099-.1-.099h.1v.1c0-.1.098 0 0 0 0-.1.098-.1.198 0v-.1l-.1-.1v.1c-.099 0-.198-.1-.297-.1.099-.098.099.1.198 0 0 0-.1 0-.1-.098 0 0 .1 0 .1-.1v.1h.1c0-.1.099 0 .099-.199.099.1 0 .1.099.199 0-.1.1 0 .1.099 0-.1.098 0 .098 0v.1c.1.098.1 0 .199.098v-.198s.1 0 .1-.1v.1h.099v-.1.2c0 .098 0-.1-.1 0 0 .098.1.098.1 0v.098c0-.099.099-.099.099-.099v-.1s.1 0 .1.1c0-.1 0 0 .098-.1 0 .1-.099-.098-.099 0 0-.098 0-.098-.1-.198 0-.099.1 0 .1 0v-.099c0 .1 0 .1-.1 0v.1s.1 0 0 .099c0 0 0-.1-.098 0v-.1c0 .1 0 0-.1 0v-.099l-.099-.1c0-.099-.1-.099-.1-.099l.1-.099s.1.1.1 0c0 0 0-.099-.1-.099v-.1c0 .1-.199 0-.199.1v-.1.1h-.099v.1c0 .098-.1 0-.1.098v-.198h-.098s-.1 0-.1-.1v.1c0 .198-.099-.1-.099.1 0-.1 0 0-.1-.1h.1c0-.1.1-.1.199 0h.099v-.1c-.1.1-.199-.099-.199-.099 0-.099 0-.099.1 0v-.099.1c0 .099.099 0 .099.099v-.1c.1 0 .1.1.198 0h.199s.1 0 .1.1c0-.1.099 0 .099 0v-.199h.099v.1c0 .099 0 0 .1 0 0 0 .098 0 .098-.1.1.1.1 0 .199-.198 0 0-.1.099-.1 0v.099h-.099s0-.1 0 0c0-.1-.198-.199-.198-.1-.1-.099-.199-.099-.199 0 0 0 0-.099-.099 0v-.099h-.199.1s0-.099-.1-.099c-.099.1-.198-.1-.198 0v-.1c0-.099-.1 0-.1 0 0 .1 0 .1.1.2v-.1s.1.1.1 0h-.2l-.099-.1c0-.099 0 0-.099.1h.1-.299c-.099 0-.297 0-.397-.1 0 0 0-.099-.099-.099.1-.099 0-.099.1-.198h.099v.1-.1l.099-.1h.1v.1h.198v.1c0 .099 0 0 .1 0v-.1c.098 0 .297.198.396.1l.1.099h.099c.099.198.198 0 .298.099.099-.1.198-.1.297 0 0 .099 0 .099-.099.198.1 0 .199-.198.298-.099 0-.198 0-.198-.1-.397.1 0 .1 0 .2.1 0-.2-.2 0-.299-.2 0 0 .1 0 .1.1 0-.1.099 0 .099-.1 0 .1 0 .1.1.2v-.2c.098.1.098.1.098 0 .1 0 0 .1.1.1v.1h.099c.1.099 0 .099 0 .198 0 0 0-.199.1-.1v-.198c0-.1.099.1.099 0s0-.1-.1-.1h.1v.1c0-.1.099-.1.099 0 0-.199.198-.1.298 0v-.1c-.1 0 0 0-.1-.099v.1c-.099 0-.198 0-.297-.1.099-.099.198 0 .198 0s-.1 0-.1-.099c0-.1.1 0 .1-.1 0 0 0 .1.1.1v-.1.1h.099c0-.1.099-.1 0-.198.099 0 0 .099.099.198 0-.1.1 0 .198 0 0-.1.1 0 .1 0v.1c.099.099.099 0 .198 0v-.2s.1 0 .1-.098c.099 0 0 .099.099.099 0 0 0-.1.1 0v-.1c.098 0 0 .1 0 .2 0 .098-.1-.1-.1 0 0 .098.1 0 .1 0s0 .098.098.098c0-.099.1-.198.199-.099v-.1s.1-.098.1 0v-.098c0 .099-.1-.1-.1 0-.1-.1 0-.1-.1-.199 0-.1.1 0 .1 0 0-.1-.1-.1-.1-.1 0 .1 0 .1-.099 0v.1s.1 0 .1.1c0 0-.1-.1-.1 0 0-.1 0-.1-.099-.1.1.1 0 0-.1 0v-.1s-.099-.098-.099 0c-.099-.098-.099 0-.198-.198 0 0 0 .1-.1.1v-.1c-.099-.099-.099 0-.198-.1v.1c0 .1-.1 0 0 .1 0 0 0-.1-.1-.1v-.1c-.098 0-.098.1-.198-.098 0 .198-.099-.1-.099.099 0-.1-.1 0-.1-.1 0 0 .1-.099.1 0v-.099h.1s.099 0 .099.1v-.1h.099v.1s.1 0 .1-.1h.098s.1 0 .1.1c.099-.199.397.099.496 0-.1-.1-.199-.1-.298-.1v-.099c-.198.1-.397.1-.595.1l-.1.099h-.297c-.1 0-.199 0-.199.099h.298v.1h-.199v.198h-.099c0-.1.1 0 .1-.1 0 0-.1 0-.1-.099v.1h-.1v-.1h-.099c-.099 0 0 0 0 0s0 .1-.099.1v.099s0 .099-.1.099c0-.1-.098-.198-.198-.198.1 0 .1 0 .1-.1v-.1h.198c0-.098-.1.001-.1-.098 0-.1 0 0 .1-.1.1.199.1 0 .1.199v-.199l.099.1v-.1s0 .1.099.1c0-.1 0 0 .1 0 0-.1.099 0 .099-.1v.1s-.199 0-.1.099c0 0 0-.1.1-.1v.1c0-.1 0-.1.099 0v-.199c.1 0 0 .1 0 .1.1.099.1 0 .1.099v-.1c0-.099.198.1.198-.099.099 0 .198-.099.297 0 0 0 .1 0 .1-.099 0 .1.099 0 .099 0 .1.199.199.1.199.199.099-.1 0-.1-.1-.1.1-.099.1.1.1 0 0 0-.1.1 0 .1h.099c-.1 0 0-.1 0-.199v.1c-.1 0-.199 0-.298-.1 0 .1-.1 0-.1 0 0-.1 0-.1-.099-.1v.2-.1c-.099-.1-.099 0-.099-.1v.2h-.1s0-.1-.098 0v-.2s-.1 0-.1-.098c-.099 0-.099.099-.198 0 0-.1.1 0 .1-.1v-.099h-.2c0 .1 0 .1 0 0 0 .1-.198 0-.198 0v-.1h.1v.1c0-.1 0-.1.099-.1h-.1c0-.099-.099-.099-.099 0-.1-.099.1-.099 0-.099 0-.099.1-.099.1-.198 0 0-.1 0 0 .1 0 0 0 .098-.1.098h-.199c-.099-.198-.198 0-.297-.099 0-.1.099 0 .198-.198-.1.099-.198-.1-.397.099v-.1c.1-.099.199-.099.199-.099.099-.099.099-.099.099-.198.1 0 .1.1.198 0 0 0-.099-.1 0-.1.1 0 .1-.099.199-.099.1 0 .1 0 .1-.099.099 0 .099-.1.099-.1v.1s.198 0 .198-.1h-.1l.1-.099c-.1.1-.198.199-.298.199-.099 0-.099.1-.198.1h-.1.1l-.1-.1v-.1c-.099-.099-.198 0-.198 0h-.1v-.099c-.099 0-.198 0-.198.1v-.1h-.198c.099-.099.198-.099.297-.198h.199c.198 0 .397 0 .496-.1h-.298v-.496h.199c0-.198-.298 0-.298-.198 0 0 .1 0 .1.099 0-.1.099 0 .099-.1 0 .1 0 .1.099.2v.099s0-.1-.1-.1c0-.099 0-.099.1-.099.1.1.199.1.1 0 .099 0 .099.1.099.1v.099c.099 0 .099 0 .198-.1.1 0 0 .1 0 .199 0 0 0-.199.1-.1v-.099c.099-.099.099 0 .099-.198 0-.1.099.099.099 0 0-.1-.1-.1-.1-.1h.1v.1c0-.1.1-.1.1 0 0-.1.098-.1.098-.1v.1h.1s0 .099.099.099v-.1c.1 0 .1 0 .199.1v-.1c-.1 0 0 0-.1-.098v.099h-.198.198c-.099 0-.198-.1-.298 0h-.099c.1-.1.199 0 .298-.1-.1 0-.1 0-.199-.099h.199v-.1s0 .1.1.1l.099-.1v.1h.099c0-.1.1-.1.1-.198.098 0 0 .099.098.198 0-.1.199 0 .199 0 .1-.1.1 0 .199-.1-.1 0-.2 0-.2.1v-.1c-.098.2-.297.2-.396.299 0 .298-.397 0-.397.298.198-.199.496-.1.695-.397h.099c0-.2.198-.1.298-.2.099 0 .099-.098.198 0v-.198c.1 0 .1-.099.1-.198.099 0 0 .1.099.1 0 0 .1-.1.1 0v-.1c.098 0 0 .1 0 .198 0 .1-.1-.099-.1 0 0 .1.1 0 .198 0 .1 0 0 .1.1.1 0-.1.198-.199.198-.1.794-1.886.794-1.985.794-2.084l.1.099c0-.1.099 0 .099-.1-.1.1-.199-.099-.199 0zm-1.19-.794s-.1.099-.1 0c0 0 .1-.1.1 0zm-.2-.1v.1c-.099-.1 0 0-.099 0v-.1s0 .1.1 0zm0-.298h-.298.298zm-.198.199c0 .1-.1.1-.1 0 0 .1.1 0 .1 0zm-.496.199c.099.099 0 .099 0 0zm-.398 0s0 .099-.099.099c.1-.1.1-.199.1-.1zm1.39-3.376c.1.1 0-.1.1 0 .099 0 0 .1-.1 0 .1 0 .1 0 0 0zm-.099 0c0 .1 0 .1 0 0 0 .1 0 .1 0 0-.1.1 0 .1 0 0zm-1.489.695s-.1 0-.1.1c0-.1 0-.1.1-.1zm-.1-.595c0 .099-.099 0 0 0-.099 0-.099-.1 0 0zm-.297.694c0-.099.198.1.198-.099h.1c-.199.1-.199.199-.298.1 0 .099 0 .099 0 0 0 .099 0 0 0 0zm-.1 0c0 .1-.099.1-.099.1v-.1c-.099-.099 0 .1.1 0zm-.595.199c.1 0 .199 0 .298-.1 0 .1 0 .1.1.1-.2 0-.299.1-.398 0 0 .1 0 .1 0 0zM16.58 9.333c-.298.198-.695.496-1.092.694l-.596.298c-.1.1-.298.1-.397.1-.199 0-.397.099-.596.099h-.992c-.298 0-.596-.1-.894-.199-.198-.099-.397-.099-.496-.198-.199-.1-.298-.199-.497-.298-.297-.199-.496-.496-.694-.794 0 0 0-.1-.1-.1-.099-.099-.099-.198-.198-.198 0-.1-.1-.1-.1-.199V8.34c.298-.496.695-.893 1.192-1.091.099 0 .198-.1.298-.1h.099c.1 0 .198 0 .198-.099H14c.198 0 .297.1.496.1h.1c.098.099.297.099.396.198.1.1.298.199.397.298.1.1.199.1.199.198.298.298.596.596.794.993.397.199.397.397.199.497zm30.774 22.733zm.1.496l.099-.198h.1c0 .198-.1.298-.2.198zm2.184-.198s0 .1 0 0c0 .1 0 .198 0 0zm.992-.596s.1 0 .1.1c-.1-.1-.1 0-.1-.1zm-.099-.099c0 .1 0 .1 0 0 0 .1 0 .1 0 0-.1 0-.1.1-.1.1v-.1s0 .1.1 0zm0-.298c-.1 0-.198.1-.298.1.1-.1.298-.1.298-.1zm-.198.199c0 .099-.1.099-.1 0h.1zm-.497.099c.1.1.1.1 0 0 0 .1 0 .1 0 0 0 .1 0 .1 0 0 0 .1 0 0 0 0zm-.1.198s-.098 0 0 0c-.098 0-.098 0 0 0-.098-.099-.098 0 0 0zm-.595.596c0 .1-.099 0-.099 0h.1zm.1-.695c0 .1 0 .1 0 0 0 .1 0 .1 0 0 0 .1 0 .1 0 0zm0 .1s0 .099 0 0zm-.298.099l.099.1c-.1 0-.1.098-.199.098v-.099l.1-.1zm4.17-2.085v.1h-.1c0-.1 0-.2.1-.1zm-.497.199c.1.099.1 0 .198 0 0 0-.297.099-.198 0zm-.596 0c.1 0 0 .099.1.099-.1.198-.2 0-.298 0 0-.1.198 0 .198-.1zm-.794-.1c0 .1.1 0 .1-.099.099.1-.1.298-.2.199.1 0 .1-.1.1-.1zm1.39-1.19c.1 0 .1 0 .198-.1-.099.1-.198 0-.198.198-.1.1 0 0 0-.099zm-.497.396s.1-.1.1 0c0 0-.1.1-.1 0zm0-.1v.1c-.099-.1-.099 0-.099 0v-.1h.1c-.2.1-.2.1 0 0-.1 0-.1 0 0 0zm-.099-.297s-.1 0-.1.1c0-.1-.098 0-.098 0h.099c-.1 0-.1.099-.199 0 0-.1.199-.1.298-.1zm-.198.298l-.1.1c0-.1 0-.2.1-.1zm-.695.198c.099.1 0 0 0 0zm-.497 0l-.099.1c0-.1.1-.199.1-.1zm.497-.893c.099.1.099-.1.099 0s-.1.1-.1.1c.1 0 .1 0 0-.1 0 .1 0 .1 0 0 .1.1 0 0 0 0zm-.1 0c0 .1 0 .1 0 0 0 .1 0 .1 0 0-.099.1 0 .1 0 0zm-1.29 2.085c0-.1 0-.1 0 0 0-.1 0-.1 0 0zm-.1-.298v-.1h.1c.1.1 0 .2-.1.1.1.1.1 0 0 0zm.1.298c.1 0 .1 0 0 0 .1 0 .1 0 0 0zm.794-.199c.1 0 .1-.1 0 0 .1-.1.1-.1 0 0zm.199-.298c.099 0 .099 0 0 0 .099.1.099.1 0 0zm-.298.1c.1 0 .198-.1.198 0 0 .099 0 .099-.198 0 .1.099 0 .099 0 0zm.198.397h-.198v.099h-.199v-.199c-.099.1-.198.1-.198.1-.1-.1-.1-.1-.199-.1h.298v-.099h.1v.1c0 .099.297 0 .396.099zm-.297-.397s.099.099 0 0c0 .099 0 .099 0 0 0 .099 0 0 0 0zm-.1 0s0 .099 0 0c0 .099 0 .099 0 0 0 .099 0 .099 0 0zm-.099.198h-.1.1zm-.1-.1c.1 0 .1 0 0 0zm.398-.893v.1s.1.099 0 .099c0-.1-.1.1-.1 0 0 0 0-.1.1-.199zm-.298-.397c-.1.1-.1 0-.1 0h.1zm-.1.695c.1 0 .1.1.2.1-.1 0-.1.099-.2.099v-.199zm-.099.695c-.099.1-.099 0-.099 0h.1c-.1 0-.1 0 0 0-.1 0-.1 0 0 0-.1 0-.1 0 0 0zm-.099-1.985c0 .099 0 .099 0 0 0 .099 0 0 0 0zm0 1.29s0 .1 0 0c-.1.1-.1.1-.198.1 0 0-.1-.1 0-.1.099.1.099-.099.198 0zm-.1-.496s0 .1 0 0c-.098.1-.098 0-.098 0h.099zm.894-1.787h.199s-.1 0-.1.1c0-.2 0-.1-.099-.1zm1.49-1.588c0 .099 0 .099-.1.099v-.1c0 .1 0-.099.1 0zm-.298.099c.099 0 .099 0 0 0 .099 0 .099 0 0 0 .099 0 .099.1 0 0 0 0 .099.1 0 0zm-.298.298s0 .099 0 0c0 .099 0 0 0 0zm-.397.198s0 .1 0 0c0 .1 0 .1 0 0zm-.497.298s-.099 0-.099.1c0-.1 0-.1.1-.1zm-.099-.596c0 .1-.1 0 0 0-.1 0-.1-.099 0 0zm-.298.695c.1 0 .199 0 .1-.099h.099c0 .1-.1.1-.199.1 0 .099 0 .099 0 0zm.993-1.489c0 .1 0 .1 0 0 0 .1 0 .1 0 0zm-.199 0c0 .1 0 0 0 0 .1.199-.099.1 0 0zm-.297-.198c0 .099 0 .099.099.099-.1.198-.1 0-.1-.1 0 0 0 .1 0 0zm.794-.894c0 .1-.1 0-.1.1v-.2l.1.1zm-.596.1c0 .099 0 0 0 0 0 .099-.1.099 0 0zm-.198 0c0-.1 0-.1 0 0 0-.1 0-.1 0 0zm.099.099c0-.1 0-.1 0 0 0-.1 0-.1 0 0 0-.1 0-.1 0 0zm0-.497c0 .1 0 .1 0 0 0 0-.1.1-.199.1.1-.1.1-.1.199-.1zm-1.39-.794s0 .1 0 0zm-.298.298c0-.1 0 0 0 0 .199.1.298-.1.298 0h.1v.1c-.1 0-.1 0-.1.099h-.199v.099h-.099c0-.199-.099-.199 0-.298 0 .1 0 0 0 0 0 .1 0 0 0 0zm.397 1.588s0-.099 0 0v-.099s.1 0 0 .1zm0-1.19s0-.1 0 0zm0 .495s0 .1 0 0zm0 1.589v-.1.1zm-.198 1.886s-.1-.1 0-.1 0 0 0 .1zm0-1.985c.1 0 0 0 0 0zm0-.795s0-.198 0 0c.1-.099.1 0 0 0 .1 0 .1 0 0 0 .1-.099 0 0 0 0zm0-1.092s.1 0 0 0c.1 0 .1 0 0 0 .1 0 .1 0 0 0zm.1.497c-.1 0-.1 0 0 0-.1 0-.1 0 0 0zm-.299.992c-.099 0-.099 0 0 0zm-.099-1.886c0 .1-.1.1 0 0zm-.596 6.552s0 .1-.099.1c0 0-.1 0-.1.099.1-.1.1-.199.2-.199zm-.198 0c.1-.099.1 0 0 0 .1.1 0 .1 0 .1v-.1zm0 1.192c-.1.099-.199 0 0 0-.1 0-.1 0 0 0zm-.397 1.092s.099-.1.099 0c0 .099-.1 0-.1 0zm.297.099l-.099-.1c.1.1.1 0 .1.1zm.1-1.092c0-.1 0-.1-.1-.199.1 0 .1-.099.2-.099.098 0 .198 0 .297.1-.1 0-.1 0-.1.099 0 0-.099 0-.099-.1v.1h-.099v.099s0 .1-.1 0zm.198.695c-.099-.1 0-.1-.099-.199.199.1.199.1.1.199v-.1s.099.1 0 .1zm.199.1c-.1 0 0 .098-.1.098 0-.099 0-.099.1-.099zm-.298.595c.1 0 .1-.1.199-.1v.1c0-.1-.1 0-.199 0zm.298-.695c0 .1.1 0 .198 0 0 .198-.198.1-.198 0zm.198-.497c0-.099 0-.099 0 0 0-.099 0 0 0 0zm0-3.772v-.1h.398c0 .1-.1 0-.1 0 0 .1-.099 0-.099.1-.1-.1-.1.1-.199 0zm.1 3.177c0-.1 0-.1 0 0 0-.1 0-.1 0 0zm.099-.993v-.1.1zm.298.993s-.1 0 0 0c-.1 0-.1.1 0 0-.1.1-.1.1-.1.198 0 0-.099 0-.099-.099 0 0 .1 0 .1-.1h.099c0-.098 0-.098.1-.098l-.1.099c0 .1 0 0 0 0zm0 .198v-.099c.1 0 .1.199 0 .1zm0-.893s-.1 0 0 0c-.1 0-.1 0 0 0 0-.1.1-.1.1-.1 0 .1-.1.1-.1.1zm.198-.397c0-.1-.099-.1 0 0-.099-.1-.099-.1 0 0 0-.1 0-.1 0 0 0-.1 0-.1 0 0zm0-.298c-.099 0 0-.1 0 0-.099 0 0 0 0 0h-.099s.1-.1 0-.1l.1-.099c0 .1-.1.1 0 .199v-.199c.099.1 0 .1 0 .199zm.894-2.085c0 .1 0 .1-.1.1 0-.1 0-.1.1-.1zm-.596.1s.1.099.1 0c0-.1 0-.1 0 0v-.1c.099.1.099 0 .198 0 0 0 0 .1.1.1-.1.099-.2.099-.299.099l-.099-.1c-.1.1-.1.2-.198.2-.1 0-.1-.1-.1 0 0 0-.099-.001-.099.098v-.099c-.1 0 0 0-.1.1-.099-.1 0-.1.1-.2.199-.098.298 0 .397-.098zm.298-.894c0 .1 0 .1 0 0 0 .1-.1.1-.1.1v-.1s0 .199.1 0zm-.199.199c-.099 0-.198.099-.297.099.099 0 .198-.1.297-.1-.099 0-.099 0 0 0zm-.397-1.192c.1 0 .1 0 0 0l.1.1c0-.1 0 0-.1 0 .1 0 0-.1 0-.1zm.397 0h-.099v-.099c0 .1-.1.1-.1 0h-.098c0-.1.099 0 .099-.1 0 .1 0 .1.1.2v-.2c0 .1.098.2.098 0v.2c0-.1 0-.1 0 0zm.1-.397v.1h-.1v-.199c0 .1-.099.1-.099.1-.1-.1-.1-.1-.198-.1 0-.1.099 0 .198 0v-.1c.1 0 .1 0 .1.1 0 0 .099-.1.099.1zm-.1-.298s-.099-.099-.099 0c0-.099 0-.099.1 0-.1-.099 0-.099 0 0zm0-.099c0 .1 0 .1 0 0zm-.099.199c-.1-.1 0-.1 0 0zm.199-.199s-.1 0 0 0zm0-.1c0-.098 0 0 0 0zm.099.299c0-.1-.1 0 0 0 0-.1-.1-.1-.1-.1v-.099l.1.1v.099zm.199-.1v-.099c0 .1 0 0 .099 0 0-.1 0 0-.1.1.1 0 .1 0 0 0zm-.1-.694c0-.1 0 0 0 0zm-.099 0c0 .099 0 0 0 0 0 .099 0 .099 0 0v.099h-.1c0-.1 0 0 .1-.1zm-.199-.2c.1.1.1.1 0 0 .1.1 0 .1 0 0zm.1.299c-.1 0-.1 0 0 0-.1 0 0 0 0 0zm-.1.198c.1 0 .1-.099.1-.099l.099-.1c.1 0 .1-.098.1-.098 0-.1 0 0 0 0h.099v.099h-.1s-.099 0 0 .099l.1-.1s-.1 0-.1.1v.1h-.198v-.002s-.1 0-.1-.099v.1h-.099v-.1c.199 0 .298.199.1.1l.099.099-.1-.1s0 .1 0 0c0 .1 0 0 0 0zm0-.496v.199c0-.1 0 0-.099 0 .1-.1.1-.1.1-.2zm-.099.397h-.1.1zm-.198-.198s.099 0 0 0v.099-.1zm0 .794c0-.1 0-.1 0 0zm0-.199s-.1 0 0 0c-.1 0 0 0 0 0zm0 .298c-.1 0-.1 0 0 0-.1 0 0 .1 0 .1s0-.1-.1-.1h.1c-.1-.1 0-.1 0 0zm-.1-1.986h.1-.1zm.1.1c0-.1 0-.1 0 0 0-.1 0 0 0 0zm3.574-.596s0 .1 0 0c0 .1 0 .1 0 0 0 0 0-.1 0 0zm-.2 0c0 .1 0 0 0 0 .1.199-.098.1 0 0zm-.396-.1s0 .1.1.1c0 .199-.1 0-.1-.1-.1 0 0 .1 0 0zm-.397-.198c0 .1 0 0 0 0 .099 0 .099.199 0 .1-.1 0 0-.1 0-.1zm.992-.695s0 .1 0 0c0 .1 0 0 0 0zm-.099.1c-.1 0 0 0 0 0zm-.397 0s-.1.099 0 0c-.1 0 0-.1 0 0zm-.1 0c-.099 0-.099 0 0 0h-.099c0-.1 0 0 .1 0zm-.099-.298c-.099 0-.099.1-.198.1 0-.2.199-.2.199-.1zm-.099.1c0 .098-.099.098 0 0-.099.098-.099 0 0 0zm-.198-.299c0 .1 0 .1 0 0zm-.1.1s.1 0 0 0h.1v.099h-.1c.1 0 .1-.1 0-.1l.1.1c-.1 0-.1 0-.1-.1zm-.099 0c-.1 0-.1 0 0 0-.1 0-.1 0 0 0-.1 0-.1 0 0 0zm0 .297c.1.1 0 .1 0 0 0 .1 0 0 0 0zm-.1-.496c0 .1.1-.1.1.1l-.1.099v-.199c0 .1 0 .1 0 0-.098.1-.098 0 0 0 0 .1 0 0 0 0zm0 .1c0 .099-.098-.1-.098 0h-.1v-.1c0 .1.1.1.199.1-.1 0-.1 0 0 0zm-.198-.1c0 .1 0 .1 0 0zm0 .496s0 .1 0 0c0 0 0-.099 0 0zm.397-1.39v.1c0-.1-.099 0 0 0v-.1c-.099 0-.099 0 0 0zm-.198 0c.1.1 0 .1 0 0v.1s-.1.1-.1 0c0 .1.1.1 0 .1h-.099v-.1c.1 0 .1-.1.199-.1zm.397-1.39c-.1 0-.1 0 0 0 0-.098 0-.098 0 0zm0-1.091v.099s.1.1 0 .1c0-.1 0 .099-.1 0 .1-.1.1-.2.1-.2zm-.199.198s.1 0 .1.1c-.1 0-.1.099-.1.099v-.199zm-.397-.992s-.099-.1 0-.199c.1 0 .199.1.298 0 .1.199-.1.199-.1.199h-.198l.1.099c-.1 0-.1 0-.1.1h-.198v.098h-.1c0-.099-.099-.099-.099-.198 0 0 0-.1.1 0v-.1c.099.1.198 0 .297 0zm-.099 1.29c0-.1 0-.198.1-.1-.1 0 0 .1-.1.1zm0-.198c-.1-.1 0-.1-.1-.199 0-.1 0-.1.1-.1v.1-.1c.1.1 0 .1 0 .299v-.1c-.1 0 0 0 0 .1zm0-.497h.1v.1s0-.1-.1-.1zm-.298 2.085s0 .1 0 0c-.099.1-.099 0 0 0-.099 0 0 0 0 0zm-.099-2.383c0 .1-.1 0 0 0zm0 2.581c0 .1 0 .1 0 0 0 .1 0 0 0 0zm0 .398c0 .099 0 .099 0 0 0 .099 0 .099 0 0zm0-.398s.1 0 0 0c.1 0 .1 0 0 0zm0-.595s.1 0 0 0c.1 0 .1 0 0 0 .1.1 0 .1 0 0zm.1-.894s0 .1 0 0c0 .1 0 0 0 0zm.099-1.787s.099 0 .099-.099h.1s-.1 0-.2.1zm.297-.198c.1 0 .1 0 0 0 .1 0 .1 0 0 0 .1 0 .1 0 0 0zm.298-.1c-.1 0-.1.1-.198.1.099-.1.198-.1.198-.1zm.1-.496c0 .1 0 .1 0 0 0 .1 0 .1-.1.1 0 0 0-.1.1-.1zm-.894.199c.1 0 .298.1.397 0 0 0 .1.1.1 0-.1-.1 0-.1 0 0v-.1c.099.1.099 0 .198 0 0 0 0 .1.1.1-.1.1-.2.1-.299.198h-.099l-.1.1h-.099s-.099 0-.099.099v-.1.1c-.198-.199-.099-.298-.099-.397zm0-.695c-.1 0-.1 0 0 0zm-.1.794c.1.1 0 .1.1.1 0 0 0 .099-.1.099v-.199zm-.496.1c.1 0 .199 0 .199-.1h.1c0 .1-.1 0-.1 0 0 .1-.1 0-.1.1-.099-.1-.099.099-.198 0 .1.099.1 0 .1 0zm-.099 6.254v.099c-.1 0-.1 0 0-.1-.1 0-.1-.099 0 0zm-.298-8.538c.1 0 0 0 0 0zm0 6.155h.199l-.1.1s-.099 0-.099-.1zm.1 2.383s.099 0 0 0c.099.099 0 .198 0 .198v-.198zm0-.398s0-.099 0 0c0-.099 0-.099 0 0zm-.1 0c0-.099 0-.099 0 0zm.298.795c0-.1 0-.1 0 0h-.198c0-.1 0 0-.1-.1h.1s0-.099.099-.099c.1.1.1.1.1.199zm0-2.68v-.1.1zm0 2.084c.1 0 .1 0 0 0 .1 0 .1 0 0 0 .1 0 .1 0 0 0zm.199-2.184c0 .1 0 .1 0 0 0 .1 0 .1 0 0h-.1v-.199c.1 0 .199.1.298 0 0 0 .1.1.1 0-.1-.099 0-.099 0 0v-.099c.099.1.099 0 .198 0v.1s-.1 0-.1.099c0 0 .1-.1.1 0-.1.099-.1.099-.199.099h-.099s-.1.1-.198 0c.099.1.099 0 0 0zm.397.298c-.1 0 0 0 0 0zm-.298 1.886s0-.1 0 0l.1.1c-.1 0-.1-.1-.1-.1zm0 .893c.1 0 .1 0 0 0 .1.1 0 0 0 0zm.1-.099c-.1 0-.1 0 0 0zm.297.298s0-.1 0 0c0 0 0-.1 0 0 0-.1 0 0 0 0 0 .1-.1 0 0 0-.1.1-.1.1-.199 0v-.1h-.099v-.099c0-.099.1 0 .1 0-.1-.099-.1 0-.1-.099v-.099c0-.1.1 0 .1-.1l.099.1v-.1c.198.299.099.398.099.497zm-.199-1.588c.1.099 0 .099 0 .198v-.198.198l-.099-.1c.1 0 .1.001.1-.098-.1 0 0-.1 0 0zm0-.199c.1 0 .1-.1 0 0 .1 0 .1 0 0 0 .1 0 .1 0 0 0zm0 .199s0-.1 0 0c0-.1 0 0 0 0zm.1.297c-.1 0 0 .1-.1.1 0-.1 0-.1.1-.1zm.099.497c-.1 0-.1.1-.199.1.1 0 .1-.2.199-.1zm-.199-1.688s.1-.1 0 0c.1-.1.199-.1.199-.1s-.1.1-.199.1zm.1 1.092c.099.1.099 0 .099 0 .1.199-.1.1-.1 0zm.198.695c0-.1 0-.1 0 0v-.1.1c0-.1 0-.1 0 0zm0-.1s0 .1 0 0c0 .1 0 .1 0 0 0 .1 0 0 0 0zm0 .894v-.099.1zm0-.595c0 .099.1.099.1.099-.1 0-.1-.1-.1-.1 0-.099.1-.099 0 0 0 0 0-.099 0 0zm.1-.695c0-.1 0-.1 0 0v-.199s.099 0 .099.1c-.1 0-.1 0-.1.099zm.198.298c0 .099-.1 0-.1 0h.1zm-.198.198v.1-.1c-.1 0 0 0 0 0zm.496-.298c0 .1 0 .1 0 0zm-.1.1c.1 0 .1 0 0 0 0 .099.1.099.1.198h-.1c0-.1-.099-.1-.099-.1 0-.098 0-.098.1-.098h-.1.1zm.1.397c-.1 0 0 0 0 0l-.1.099h-.099v-.199c0 .1-.099.1-.099.1-.1-.1-.1-.1-.198-.1 0-.099.099-.099.198 0v-.099c.1 0 .1 0 .1.1 0 0 .099 0 .198.099zm-.199-.298c-.099 0 0 0 0 0zm0-.1s-.099 0-.099.1c0-.1 0-.1.1-.1zm-.099.298c0-.099 0 0 0 0-.1-.198 0-.099 0 0zm-.1-.595c0-.1.1-.1 0 0 .1 0 0 0 0 0zm.1-.497v.199c0-.1 0 .1-.1 0 .1 0 0-.1.1-.199zm-.1-.297h-.198s.1-.1.199 0zm-.099-1.092c.1 0 .1 0 0 0 .1 0 .1 0 0 0 .1.099 0 .099 0 0l-.198.198h.1c-.1 0-.1.1-.2.1v.099c-.099 0-.099 0-.198.099 0-.1-.1-.1-.1-.199h.2s-.1 0-.1.1c.1 0 .1-.199.199-.1 0 0 0-.099.099-.099v-.1l.199-.098zm-.099-.398c.1 0 .1 0 0 0 .1 0 .1 0 0 0zm.199-.099c0-.1-.1 0-.1 0v-.198l.1.198c.1 0 .1 0 0 0zm0-.1s.1 0 0 0c.1 0 .1 0 0 0 .1 0 0 0 0 0zm.298-.198c-.1 0 0-.099 0 0l-.1-.099s0 .1.1.1c-.1.099-.199 0 0 0-.1.099-.199.099-.199.099s.1 0 0-.1h-.198v-.099c0-.1.099 0 .099 0-.1-.1-.1 0-.199-.1h.1s.099 0 .099.1c0 0-.1-.1 0-.1 0 .1.1.1.1.1h.098c.1 0 .1 0 .1.1zm-.1-.297c.1 0 .1 0 0 0 .1.099.1.099 0 0 .1.099.1.099 0 0zm.199.595s-.1 0-.1.1c0-.1 0-.1.1-.1zm-.1-.198s-.099-.1 0-.1c.1 0 .1.1 0 .1zm0-1.589c.1.1.1 0 .2 0-.1.199-.299.199-.2 0zm.1 1.092c0-.099 0-.099 0 0 .1-.099.1-.099 0 0zm.695 0h-.1v-.198c0 .099-.099.099-.198.198-.1-.099-.1-.099-.298-.099h.596v.1zm0-.198h-.199c.1-.1.199-.1.199 0zm0-.298c.1 0 0 0 0 0v-.1c.1.1 0 0 .1 0 0 .1 0 .1-.1.1.1 0 0 0 0 0zm.298-.199s-.1 0 0 0c-.1 0-.1 0 0 0-.1-.099 0 0 0-.099v.1zm0-.099c.099-.1.099-.1 0 0zm.297.199s-.099 0 0 0c-.198 0-.099-.1 0 0v-.1.1c0-.1 0-.1 0 0zm.497.198l-.1-.1c0-.098.1.1.1-.098v.198zm.397-.1s0 .1 0 0h.1c0 .1-.2.1-.1 0zm.298 0c-.1-.098 0-.198 0-.098 0 .099.099.099 0 .099z" fill="#F0D878"/><mask id="a" style="mask-type:alpha" maskUnits="userSpaceOnUse" x="4" y="5" width="52" height="29"><path d="M54.998 18.466c-.099-.1 0-.1-.099-.1 0-.099.1 0 .1 0 0-.099-.1 0-.1-.099 0 .1 0 .1-.1 0 0 .1-.099 0 0 .1.1 0 .1 0 .1.099 0 0-.1-.1-.1 0 0-.1 0-.1-.099-.1.1.1-.099 0-.099 0v-.099s-.198-.1-.198 0c-.1-.1-.199 0-.199-.1-.1.1 0 .1-.1.1v-.1c-.098-.098-.098 0-.198 0 0 .1 0 .1.1.1 0 .1-.1 0-.1.1l-.099-.1v-.1c-.1 0-.1.1-.298 0 0 .2-.099-.098-.099.1 0-.1-.1 0-.1-.1 0 0 .1-.098.2 0 0-.198.198-.098.297 0v-.198c-.1.199-.496-.099-.496.199h-.397v.1h-.1v-.1c-.099 0 0 .198-.099.1v.098l-.1-.099c-.099 0-.198-.1-.198-.1.1-.098.298 0 .199-.098h.298c0-.1-.1 0-.199 0 .1-.1.1 0 .1-.1.099.1.099 0 .198.199v-.199l.1.1c0-.1.099 0 .099-.1.099 0 0 .1.099.1 0-.1 0 0 .099 0 0-.1.1 0 .199-.1.099 0 0 .1.099.1-.1.099-.199 0-.1.099l.1-.1v.1c0-.1 0-.1.1-.1.098-.099 0-.099 0-.198.098 0 0 .1 0 .1.098.099.098 0 .098 0v-.1c.1-.1.199.1.199-.1.198 0 .298-.098.397 0 0-.098.1 0 .1-.098v-.2c-.1-.098-.1 0-.2-.098v.198s-.099 0-.198.1c-.1-.1 0-.1 0-.2 0 0-.1.1-.1-.098-.098 0-.098.198-.297 0 0-.1.1-.1.1-.1h-.1c0 .1 0 .1-.1 0-.099.199-.198 0-.297.1-.1 0 0-.1 0-.1-.1-.099-.1 0-.1 0 0 .1.1.1.2.199v.1h-.1s0-.1-.1-.1v.1h-.099c-.099-.1 0-.1 0-.1 0-.1.1 0 .1-.1-.397 0-.695.1-1.092.1.099 0 .198-.1.297-.199-.099.1-.297-.099-.297.1v-.1c-.1 0-.1.1-.1.1v-.199c.1 0 .199-.1.298-.198.1-.1.199-.1.298-.1.1-.099.1-.198.199-.198h.297s-.099-.1 0-.1c.298-.198.596-.297.795-.595-.298.298-.596.198-.894.496-.1-.1-.1.1-.198 0 0 .1.099.1 0 .1h-.1c0-.2-.099-.1-.099-.2-.298.1-.496.2-.695.299v.099c-.1 0-.1 0-.198.1 0-.1-.1-.1-.1-.2l.596-.297h.1c.099 0 .099-.1.099-.1v-.099s-.1 0-.1.1h-.099c.1-.1.298-.199.397-.199.1 0 .298 0 .298-.198v-.199c-.1 0-.199-.1-.199 0-.099-.1 0-.1-.099-.1v.2s-.1 0-.1.099c0-.1-.099 0-.099 0v-.199c-.099 0 0 0-.099.1 0 0-.099-.1-.198-.1v.199c0-.1 0-.1-.1-.199 0 .1-.099 0-.099 0v-.1c-.1.1-.298.1-.397.1 0 .1-.198 0-.198.1.297-.1.595-.298.893-.298v-.1c.1 0 .199-.1.199-.1v.1c.099 0 .099 0 .198.1 0 0-.1-.1 0-.1 0-.1-.1 0-.1 0v-.1s.1 0 .1-.098l.1-.1c.099 0 .198-.099.397-.099v.1c.099-.1.198-.2.396-.1 0 0 .1 0 .1-.1.1 0 .1-.098.198 0 0 .1 0 .1-.099.1 0 .1.199 0 .199 0 0-.1 0 0-.1-.1 0-.098.1 0 .1-.098 0 0 .099 0 .099-.1h.1c0 .1-.1 0-.1.1.1.099.1 0 .1.099-.1-.1 0-.199.098-.199v.1c.1.099.1 0 .1 0l-.1-.1c.1-.099.199 0 .199-.099 0-.1-.1 0-.1 0 .1 0 .1-.1.1-.1 0-.098-.1 0-.1 0-.099 0 0-.098-.099-.098 0-.1.1-.1 0-.2v.1h-.099v.1c-.1 0-.198 0-.198.099-.199-.1-.199 0-.298 0 0-.1.1-.1.1-.199-.1.1-.2 0-.299.199-.099-.1-.099-.1-.099 0-.1-.1-.1-.199 0-.199h-.1s0 .1.1.199c-.1-.1-.1.099-.198.099.099-.1.099-.198.099-.198-.1-.1-.199.099-.199.198 0-.1-.1 0-.1 0v.1-.1c-.098 0-.198.1-.297.199l.199-.199c-.1-.1-.199 0-.298 0 0 .1 0 0 .1.1v.099c-.1 0-.1-.1-.1-.1v.1s.1.198.1.099c.098.1 0 .1 0 .1 0-.1-.1 0-.1-.1 0 0 0 .1-.1.1-.099-.1 0-.1 0-.1 0-.1-.099-.1 0-.1-.099 0-.099.1-.099 0v-.198c-.099-.1-.099.1-.099 0 0 .1.1 0 .1.1h-.1c.1.099.1.099.1.198-.1 0 0-.1-.1-.1 0 .1-.298.1-.298 0 0 .1-.1 0 0 .1-.1 0-.1-.1-.1-.1.1 0 .1-.099.2-.099-.1-.099-.2 0-.298 0 0 0 0-.099-.1-.099 0 .1-.099.1-.198.1v.198c-.1-.1-.1.1-.1 0 .1.1-.099.1-.099.198-.099 0 0-.099-.099-.198 0 .1 0 .1-.1.1.1 0 .2-.1.2-.1v-.199h-.1c0-.099-.1-.099-.1-.198v-.1c0 .1-.099 0-.099.1-.099 0-.099 0-.198.099v.1c-.1.099-.199.099-.397 0v-.1s-.1 0-.1-.1c-.099-.098 0-.297 0-.297v.1c0 .098.1 0 .1 0s0-.1-.1-.1v-.1.1c.1-.1.2 0 .2-.1 0 0 0 .1.098.1 0-.199.298-.1.298-.199.1.1.1 0 .1.1.099 0 0 0 0-.1 0 0 .099.199.099.1 0-.1 0 0-.1 0v-.1c.1 0 .298.1.298-.099 0 .1 0 .1.1.199 0-.1 0-.1-.1-.1 0-.198.1 0 .199-.099.1 0 0 .1.1.199v-.199c0-.1.098.1.098 0v.1s.1-.1 0-.1c.1.1.1 0 .199.1.1-.1.1-.1.198 0 0 0-.099-.1 0-.1l-.099-.1s0 .1-.1 0v.1c-.098 0-.297.1-.297-.1v.1-.1c.298-.198.596-.297.894-.495.198-.1.397-.2.595-.298.199-.1.397-.1.596-.199l.1-.1c-.1 0-.2.1-.299.1-.099.1-.397.1-.496.1-.199.099-.397.198-.695.297v.1c-.397.099-.794.297-1.092.397v-.1.1h-.1v.099h-.099c-.099 0-.099 0-.198.1v-.1h-.1c0 .1-.099-.1-.198 0h.1c0 .1-.1 0-.1.1v-.1h-.1c0-.1 0-.298.1-.298-1.191.199-2.482.397-3.673.496a34.968 34.968 0 01-17.075-3.176c-1.29-.596-2.482-1.29-3.673-1.887-2.383-1.29-4.864-2.58-7.545-3.276-1.191-.297-2.482-.496-3.772-.496h-.596c-.198 0-.397 0-.595.1-.993.099-1.986.396-2.88.694-.694.298-1.39.596-1.985.993-1.886 1.191-3.375 2.879-4.368 4.964.199.297.397.496.695.794.199.198.397.496.596.695.099.099.198.298.298.397l.099.1.595.595c.795.893 1.787 1.787 2.68 2.78.398.397.894.794 1.291 1.19.1.1.298.299.497.398.198.099.298.298.496.397.199.1.298.298.496.397.298.298.596.596.993.794.199.1.298.298.496.397.2.199.398.298.596.497.298.297.596.496.993.794.198.099.298.298.496.397.199.1.397.298.497.397.198.1.397.298.496.397.199.1.397.298.496.397.199.1.397.298.596.397.198.1.397.298.596.397.198.1.397.298.595.397.397.298.794.497 1.192.795.397.297.794.496 1.19.794.596.397 1.192.695 1.887 1.092l.596.298.595.297c.1.1.199.1.397.199.1.1.298.1.398.198.198.1.397.2.595.298.1.1.298.1.397.199.298.1.596.298.894.397.198.1.397.198.496.198.1 0 .1.1.199.1.099.1.297.099.397.198.099 0 .198.1.198.1.1.099.298.099.397.198.1 0 .199.1.298.1.1 0 .199.099.298.099.1.099.298.099.397.198.1 0 .1.1.199.1.099.099.297.099.397.198.099.1.297.1.397.199.099 0 .198.099.298.099.099.1.297.1.397.1.099 0 .198.098.198.098.199.1.298.1.497.199.198.1.397.1.595.198.1 0 .298.1.397.1.1 0 .298.1.397.1.199.098.398.098.596.198.199.099.496.099.695.198.199.1.397.1.695.199.198 0 .397.099.596.099.099 0 .297.1.397.1.198.099.496.099.694.099.1 0 .298.099.398.099.198 0 .297.1.496.1.496.098 1.092.198 1.588.297.497.1 1.092.1 1.589.198.198 0 .496 0 .695.1h5.261s-.1 0-.1-.1h.2c.099-.099 0-.297.198-.297-.1.099-.1.297 0 .297.198 0 .397 0 .496-.099.199 0 .298 0 .497-.1v-.098s.099-.1.099 0v.099h.397-.1c0-.1.1-.1.2-.1v.1h.098c.1 0 .2-.1.2 0 .098 0 .297 0 .396-.1v-.099.1h.199c.099 0 .198 0 .298-.1v-.099c-.1-.1-.1.1-.199-.1 0 .2-.1-.099-.199.1 0-.1-.099 0-.099-.1 0 0 .1-.099.199 0 0-.198.198-.099.298 0v-.198c-.1.1-.398-.198-.497.199h-.298v.1l-.099.098h-.1c0-.099.1 0 .1-.099 0 0-.1 0-.1-.1v.1h-.099v-.1c-.099 0 0 .2-.099.1v.1s0 .099-.099 0c0-.2-.199-.2-.298-.2.1-.099.298 0 .298-.099h.298c0-.099-.1 0-.199-.099h.1s.099 0 .099.1v-.1c.1 0 .1 0 .198-.099v.1c0-.1 0 0 .1 0 0-.1.099 0 .198-.1.1 0 0 .1 0 .1-.1 0-.198 0-.198.099l.099-.1v.1c0-.1.1-.1.1 0 .098-.1 0-.1 0-.199.098 0 0 .1 0 .1.098.099.098 0 .098 0v-.1h.1s.099 0 .099-.1c.199 0 .298-.099.397 0 0-.099.1 0 .1-.099v-.198c-.1-.1-.1 0-.1-.1v.2c-.1 0-.1 0-.198.098-.1-.099 0-.099 0-.198 0 0-.1 0-.1-.1-.099 0-.198.1-.298 0 0-.099.1 0 .1-.099h-.1c0 .1 0 .1-.099 0-.1.199-.198 0-.298 0-.099 0 0-.099 0-.099-.099-.1-.099 0-.099 0 0 .1.1.1.1.199v.099h-.1s0-.1-.1-.1v.1h-.099c-.099-.1 0 0 0-.1 0-.099.1 0 .1 0-.397 0-.794.1-1.192 0l-.099-.099c.1-.099.1-.099.1-.198.099 0 .198.1.297.1l-.198.198c.198 0 .397-.1.496 0 0-.199.1-.199.1-.398.099 0 .198.1.297.1 0-.199-.298 0-.298-.199l.1.1c0-.1.099 0 .198-.1 0 .1 0 .1.1.199 0-.1 0-.1.099-.199.1.1.198.1.198 0 .1 0 0 .1.1.1v.099h.198c.1.1-.1.1 0 .198 0 0 0-.198.1-.099v-.1c.099-.099.099 0 .099-.099s.099.1.099 0c.1-.099-.1-.099-.1-.099h.2s-.1.1 0 .1c0-.1.099-.1.099 0 .099-.199.297-.1.496-.1v-.099c-.1 0-.1 0-.1-.1v.1c-.198.1-.297 0-.496 0 .1-.1.298 0 .397-.1h-.198c.1-.099.198 0 .198-.099.1 0 0 .1.1.1 0 0 .099 0 .099-.1.1 0 0 .1 0 .1h.1c0-.1.098-.1.098-.199.1 0 0 .1.1.199.099-.1.297-.1.297 0 .1-.1.1 0 .298-.1.1 0-.099 0-.099.1.1 0 .199-.1.397-.1v-.198c.1 0 .199-.1.199-.199.099 0 0 .1.099.1.1 0 .1-.1.199-.1.099-.099 0-.099.099-.099.1 0 0 .199 0 .199 0 .099-.1-.1-.199.099.1.1.199 0 .298-.1.1 0 .1.1.1.1.099-.1.198-.298.297-.199v-.099c.1-.1.1-.1.199-.1 0-.098.099-.098.099-.198-.1.1-.199 0-.298.1-.1 0 0-.1-.198-.1 0-.198.099-.099.198-.099 0-.1-.1 0-.1-.1 0 .1-.098.1-.098.1 0 .1-.1.1-.1.1.1 0 .1-.1.1 0 0 .099-.1 0-.1.099-.099 0 0-.1-.099-.1.1.1-.1 0-.199.1v-.1c-.099 0-.198 0-.297.1-.1-.1-.199 0-.298-.1-.1.1 0 .1-.1.199v-.1c-.099-.099-.198 0-.297 0 0 .1 0 .1.1.1 0 .1-.1.1-.1.1s-.1-.1-.1 0c-.099-.1 0 0 0-.1-.099 0-.198.1-.297 0 0 .198-.199 0-.199.1 0-.1-.1 0-.1-.1.1 0 .1-.1.2 0 0-.199.198-.1.397-.1v-.198c-.1.1-.199.1-.398.1-.099 0-.297 0-.297.198h-.298c0 .1 0 .1.1.1l-.1.098h-.199c0-.099.1 0 .1-.099-.1 0-.1 0-.199-.1l-.1.1h-.099v-.1c-.099 0 0 .2-.198.1v.1l-.1.099c0-.199-.198-.199-.297-.199.1-.1.397 0 .298-.1h.297c0-.098-.099 0-.198 0 .1-.098.1 0 .1-.098.098.198.098 0 .198.198.099-.1 0-.1 0-.198.099 0 .099.099.099.099 0-.1.1 0 .1-.1 0 .1-.1.1-.2.1l.2-.1c.099-.099 0 0 .099 0 .099-.099.198-.099.198-.099.1 0 0 .1.1.1-.1.099-.298 0-.2.198.1 0 .1-.1.1-.1l.1.1c.099-.1.099-.1.198-.1.1-.098-.1-.098 0-.198.1 0 0 .1 0 .1.1.099.1 0 .198 0v-.1c.1-.099.298 0 .298-.198.199 0 .298-.199.497-.1 0-.099.099-.099.198-.099 0-.1-.1-.1 0-.198h-.198c-.1 0-.1.099-.199.099v-.1l-.1.1c-.099 0-.198.198-.396.1 0-.1.099-.1.198-.2h-.198c0 .1 0 .1-.1 0-.099.2-.297 0-.397.1-.099 0 0-.1 0-.1h-.099c0 .1.1.1.199.2v.098h-.1s0-.099-.099-.099v.1h-.1c-.098-.1 0-.1 0-.1 0-.1.1 0 .1-.1-.1 0-.298 0-.397.1h-.993c.1-.1.199-.198.397 0 0 0 .1 0 .1-.1.099 0 .198-.098.297 0 0 .1 0 .1-.099.1 0 .1.199 0 .199 0h.099s.1 0 .1-.1h-.1c0-.098 0 0-.1-.098 0-.1.1 0 .1-.1v-.099s.1 0 .1-.1h.099c0 .1-.1 0-.1.1s.1 0 .1.1c0-.1.099-.2.099-.2v.1c.1.1.1 0 .1 0l-.1-.1c.1-.099.198 0 .298-.099 0-.099-.1 0-.1 0v-.099c.1 0 .1-.099.1-.099 0-.1-.1-.1-.1 0-.099 0 0-.1-.099-.1 0-.099.1-.099 0-.198v.1h-.1v.099c-.098 0-.198 0-.198.099-.099-.199-.198 0-.298 0 0-.1.1-.1.1-.199h-.1l.1-.099h.298s-.1-.1 0-.1c.397-.198.694-.396.893-.694-.1.198-.298.298-.496.397-.199.1-.298.1-.497.298-.099-.1-.099.1-.298 0 0 .1.1.1 0 .1h-.099c0-.2-.1-.1-.1-.2-.297.1-.495.2-.793.298v.1c-.1 0-.199 0-.298.099l.1-.1c-.1-.099-.1 0-.2 0 0 0-.099-.099 0-.198h.2v.1c.098 0 .098-.1.198-.1v.1-.1c.099 0 .198-.1.198-.1v.1c.1.1.1-.198.199-.1 0 0 0-.098-.1-.098.2-.1.298-.199.497-.199.1 0 .298 0 .298-.198v-.199h-.199c.1 0 .1-.1.199-.1-.199.1-.397-.099-.397.1v-.1c-.1 0-.1.1-.199.1v-.1h-.1c0 .1.1 0 .1.1h-.1v.1s0-.1-.099-.1c0 .1-.099 0-.099 0v-.1c-.099.1-.298 0-.397 0-.1.1-.1 0-.198 0h.099s.1-.099.1 0h.198c.099 0 .198 0 .297-.099 0 0 0 .1.1.1v-.1h-.1.2v-.099c.098 0 .098-.1.198-.1v.1c.099 0 .099 0 .099.1 0 0-.1-.1 0-.1 0-.1-.1 0-.1 0v-.1h.1l.1-.098c.098 0 .198-.1.297-.199v.1c.1-.1.199-.2.298-.1 0 0 .1 0 .1-.1.098 0 .098-.098.198-.098v.099c.099 0 .198 0 .198-.1 0-.099 0 0-.1 0 0-.099.1 0 .1-.099 0 0 0-.099.1-.099h.099c0 .1-.1 0-.1.1h.1c-.1 0 0-.2 0-.2v.1h.099s-.1 0-.1-.1c0-.099.1-.099.2-.198-.1-.1 0 0-.1 0 .1 0 0-.1 0-.1-.1-.098-.1 0 0 .1-.1 0 0-.1-.1-.1 0-.098 0-.098-.099-.198 0 0 0 .1.1.1h-.1c0 .099 0 .099.1.099-.1 0-.1.1-.1.1-.198-.1-.099.098-.198.098-.1-.099.1-.099 0-.198-.1.1-.199 0-.199.198-.099 0-.099-.099-.099 0 0 0-.1-.099 0-.099h-.1s0 .1.1.1c-.1 0-.1.099-.198.099.099-.1.099-.199.099-.199-.1-.1-.1.1-.1.199-.099-.1-.099 0-.099 0v.099-.1c-.099 0-.099.1-.198.2.099-.1.099-.1.099-.2h-.199c0 .1 0 0 .1.1v.1c-.1 0-.1-.1-.1-.1v.1s.1.198.1.099c.099.099 0 .099 0 .099 0-.1-.1 0-.1-.1 0 0 0 .1-.099.1-.1-.1 0-.1 0-.1 0-.099-.1-.099-.1-.099s-.098.1-.098 0v-.198c-.1-.1-.1.099-.1 0 0 .099 0 0 .1.099h-.1c.1.1.1.1.1.199-.1 0 0-.1-.1-.1 0 .1-.297.1-.297-.099 0 .1-.1 0 0 .1-.1 0 0-.1-.1-.2h.1v.2s0-.2.099-.1v-.199c0-.099.1.1.1 0 0-.099 0-.099-.1-.099h.1v.1c0-.1.098 0 0 0 0-.1.098-.1.198 0v-.1l-.1-.1v.1c-.099 0-.198-.1-.297-.1.099-.098.099.1.198 0 0 0-.1 0-.1-.098 0 0 .1 0 .1-.1v.1h.1c0-.1.099 0 .099-.199.099.1 0 .1.099.199 0-.1.1 0 .1.099 0-.1.098 0 .098 0v.1c.1.098.1 0 .199.098v-.198s.1 0 .1-.1v.1h.099v-.1.2c0 .098 0-.1-.1 0 0 .098.1.098.1 0v.098c0-.099.099-.099.099-.099v-.1s.1 0 .1.1c0-.1 0 0 .098-.1 0 .1-.099-.098-.099 0 0-.098 0-.098-.1-.198 0-.099.1 0 .1 0v-.099c0 .1 0 .1-.1 0v.1s.1 0 0 .099c0 0 0-.1-.098 0v-.1c0 .1 0 0-.1 0v-.099l-.099-.1c0-.099-.1-.099-.1-.099l.1-.099s.1.1.1 0c0 0 0-.099-.1-.099v-.1c0 .1-.199 0-.199.1v-.1.1h-.099v.1c0 .098-.1 0-.1.098v-.198h-.098s-.1 0-.1-.1v.1c0 .198-.099-.1-.099.1 0-.1 0 0-.1-.1h.1c0-.1.1-.1.199 0h.099v-.1c-.1.1-.199-.099-.199-.099 0-.099 0-.099.1 0v-.099.1c0 .099.099 0 .099.099v-.1c.1 0 .1.1.198 0h.199s.1 0 .1.1c0-.1.099 0 .099 0v-.199h.099v.1c0 .099 0 0 .1 0 0 0 .098 0 .098-.1.1.1.1 0 .199-.198 0 0-.1.099-.1 0v.099h-.099s0-.1 0 0c0-.1-.198-.199-.198-.1-.1-.099-.199-.099-.199 0 0 0 0-.099-.099 0v-.099h-.199.1s0-.099-.1-.099c-.099.1-.198-.1-.198 0v-.1c0-.099-.1 0-.1 0 0 .1 0 .1.1.2v-.1s.1.1.1 0h-.2l-.099-.1c0-.099 0 0-.099.1h.1-.299c-.099 0-.297 0-.397-.1 0 0 0-.099-.099-.099.1-.099 0-.099.1-.198h.099v.1-.1l.099-.1h.1v.1h.198v.1c0 .099 0 0 .1 0v-.1c.098 0 .297.198.396.1l.1.099h.099c.099.198.198 0 .298.099.099-.1.198-.1.297 0 0 .099 0 .099-.099.198.1 0 .199-.198.298-.099 0-.198 0-.198-.1-.397.1 0 .1 0 .2.1 0-.2-.2 0-.299-.2 0 0 .1 0 .1.1 0-.1.099 0 .099-.1 0 .1 0 .1.1.2v-.2c.098.1.098.1.098 0 .1 0 0 .1.1.1v.1h.099c.1.099 0 .099 0 .198 0 0 0-.199.1-.1v-.198c0-.1.099.1.099 0s0-.1-.1-.1h.1v.1c0-.1.099-.1.099 0 0-.199.198-.1.298 0v-.1c-.1 0 0 0-.1-.099v.1c-.099 0-.198 0-.297-.1.099-.099.198 0 .198 0s-.1 0-.1-.099c0-.1.1 0 .1-.1 0 0 0 .1.1.1v-.1.1h.099c0-.1.099-.1 0-.198.099 0 0 .099.099.198 0-.1.1 0 .198 0 0-.1.1 0 .1 0v.1c.099.099.099 0 .198 0v-.2s.1 0 .1-.098c.099 0 0 .099.099.099 0 0 0-.1.1 0v-.1c.098 0 0 .1 0 .2 0 .098-.1-.1-.1 0 0 .098.1 0 .1 0s0 .098.098.098c0-.099.1-.198.199-.099v-.1s.1-.098.1 0v-.098c0 .099-.1-.1-.1 0-.1-.1 0-.1-.1-.199 0-.1.1 0 .1 0 0-.1-.1-.1-.1-.1 0 .1 0 .1-.099 0v.1s.1 0 .1.1c0 0-.1-.1-.1 0 0-.1 0-.1-.099-.1.1.1 0 0-.1 0v-.1s-.099-.098-.099 0c-.099-.098-.099 0-.198-.198 0 0 0 .1-.1.1v-.1c-.099-.099-.099 0-.198-.1v.1c0 .1-.1 0 0 .1 0 0 0-.1-.1-.1v-.1c-.098 0-.098.1-.198-.098 0 .198-.099-.1-.099.099 0-.1-.1 0-.1-.1 0 0 .1-.099.1 0v-.099h.1s.099 0 .099.1v-.1h.099v.1s.1 0 .1-.1h.098s.1 0 .1.1c.099-.199.397.099.496 0-.1-.1-.199-.1-.298-.1v-.099c-.198.1-.397.1-.595.1l-.1.099h-.297c-.1 0-.199 0-.199.099h.298v.1h-.199v.198h-.099c0-.1.1 0 .1-.1 0 0-.1 0-.1-.099v.1h-.1v-.1h-.099c-.099 0 0 0 0 0s0 .1-.099.1v.099s0 .099-.1.099c0-.1-.098-.198-.198-.198.1 0 .1 0 .1-.1v-.1h.198c0-.098-.1.001-.1-.098 0-.1 0 0 .1-.1.1.199.1 0 .1.199v-.199l.099.1v-.1s0 .1.099.1c0-.1 0 0 .1 0 0-.1.099 0 .099-.1v.1s-.199 0-.1.099c0 0 0-.1.1-.1v.1c0-.1 0-.1.099 0v-.199c.1 0 0 .1 0 .1.1.099.1 0 .1.099v-.1c0-.099.198.1.198-.099.099 0 .198-.099.297 0 0 0 .1 0 .1-.099 0 .1.099 0 .099 0 .1.199.199.1.199.199.099-.1 0-.1-.1-.1.1-.099.1.1.1 0 0 0-.1.1 0 .1h.099c-.1 0 0-.1 0-.199v.1c-.1 0-.199 0-.298-.1 0 .1-.1 0-.1 0 0-.1 0-.1-.099-.1v.2-.1c-.099-.1-.099 0-.099-.1v.2h-.1s0-.1-.098 0v-.2s-.1 0-.1-.098c-.099 0-.099.099-.198 0 0-.1.1 0 .1-.1v-.099h-.2c0 .1 0 .1 0 0 0 .1-.198 0-.198 0v-.1h.1v.1c0-.1 0-.1.099-.1h-.1c0-.099-.099-.099-.099 0-.1-.099.1-.099 0-.099 0-.099.1-.099.1-.198 0 0-.1 0 0 .1 0 0 0 .098-.1.098h-.199c-.099-.198-.198 0-.297-.099 0-.1.099 0 .198-.198-.1.099-.198-.1-.397.099v-.1c.1-.099.199-.099.199-.099.099-.099.099-.099.099-.198.1 0 .1.1.198 0 0 0-.099-.1 0-.1.1 0 .1-.099.199-.099.1 0 .1 0 .1-.099.099 0 .099-.1.099-.1v.1s.198 0 .198-.1h-.1l.1-.099c-.1.1-.198.199-.298.199-.099 0-.099.1-.198.1h-.1.1l-.1-.1v-.1c-.099-.099-.198 0-.198 0h-.1v-.099c-.099 0-.198 0-.198.1v-.1h-.198c.099-.099.198-.099.297-.198h.199c.198 0 .397 0 .496-.1h-.298v-.496h.199c0-.198-.298 0-.298-.198 0 0 .1 0 .1.099 0-.1.099 0 .099-.1 0 .1 0 .1.099.2v.099s0-.1-.1-.1c0-.099 0-.099.1-.099.1.1.199.1.1 0 .099 0 .099.1.099.1v.099c.099 0 .099 0 .198-.1.1 0 0 .1 0 .199 0 0 0-.199.1-.1v-.099c.099-.099.099 0 .099-.198 0-.1.099.099.099 0 0-.1-.1-.1-.1-.1h.1v.1c0-.1.1-.1.1 0 0-.1.098-.1.098-.1v.1h.1s0 .099.099.099v-.1c.1 0 .1 0 .199.1v-.1c-.1 0 0 0-.1-.098v.099h-.198.198c-.099 0-.198-.1-.298 0h-.099c.1-.1.199 0 .298-.1-.1 0-.1 0-.199-.099h.199v-.1s0 .1.1.1l.099-.1v.1h.099c0-.1.1-.1.1-.198.098 0 0 .099.098.198 0-.1.199 0 .199 0 .1-.1.1 0 .199-.1-.1 0-.2 0-.2.1v-.1c-.098.2-.297.2-.396.299 0 .298-.397 0-.397.298.198-.199.496-.1.695-.397h.099c0-.2.198-.1.298-.2.099 0 .099-.098.198 0v-.198c.1 0 .1-.099.1-.198.099 0 0 .1.099.1 0 0 .1-.1.1 0v-.1c.098 0 0 .1 0 .198 0 .1-.1-.099-.1 0 0 .1.1 0 .198 0 .1 0 0 .1.1.1 0-.1.198-.199.198-.1.794-1.886.794-1.985.794-2.084l.1.099c0-.1.099 0 .099-.1-.1.1-.199-.099-.199 0zm-1.19-.794s-.1.099-.1 0c0 0 .1-.1.1 0zm-.2-.1v.1c-.099-.1 0 0-.099 0v-.1s0 .1.1 0zm0-.298h-.298.298zm-.198.199c0 .1-.1.1-.1 0 0 .1.1 0 .1 0zm-.496.199c.099.099 0 .099 0 0zm-.398 0s0 .099-.099.099c.1-.1.1-.199.1-.1zm1.39-3.376c.1.1 0-.1.1 0 .099 0 0 .1-.1 0 .1 0 .1 0 0 0zm-.099 0c0 .1 0 .1 0 0 0 .1 0 .1 0 0-.1.1 0 .1 0 0zm-1.489.695s-.1 0-.1.1c0-.1 0-.1.1-.1zm-.1-.595c0 .099-.099 0 0 0-.099 0-.099-.1 0 0zm-.297.694c0-.099.198.1.198-.099h.1c-.199.1-.199.199-.298.1 0 .099 0 .099 0 0 0 .099 0 0 0 0zm-.1 0c0 .1-.099.1-.099.1v-.1c-.099-.099 0 .1.1 0zm-.595.199c.1 0 .199 0 .298-.1 0 .1 0 .1.1.1-.2 0-.299.1-.398 0 0 .1 0 .1 0 0zM16.58 9.333c-.298.198-.695.496-1.092.694l-.596.298c-.1.1-.298.1-.397.1-.199 0-.397.099-.596.099h-.992c-.298 0-.596-.1-.894-.199-.198-.099-.397-.099-.496-.198-.199-.1-.298-.199-.497-.298-.297-.199-.496-.496-.694-.794 0 0 0-.1-.1-.1-.099-.099-.099-.198-.198-.198 0-.1-.1-.1-.1-.199V8.34c.298-.496.695-.893 1.192-1.091.099 0 .198-.1.298-.1h.099c.1 0 .198 0 .198-.099H14c.198 0 .297.1.496.1h.1c.098.099.297.099.396.198.1.1.298.199.397.298.1.1.199.1.199.198.298.298.596.596.794.993.397.199.397.397.199.497zm30.774 22.733zm.1.496l.099-.198h.1c0 .198-.1.298-.2.198zm2.184-.198s0 .1 0 0c0 .1 0 .198 0 0zm.992-.596s.1 0 .1.1c-.1-.1-.1 0-.1-.1zm-.099-.099c0 .1 0 .1 0 0 0 .1 0 .1 0 0-.1 0-.1.1-.1.1v-.1s0 .1.1 0zm0-.298c-.1 0-.198.1-.298.1.1-.1.298-.1.298-.1zm-.198.199c0 .099-.1.099-.1 0h.1zm-.497.099c.1.1.1.1 0 0 0 .1 0 .1 0 0 0 .1 0 .1 0 0 0 .1 0 0 0 0zm-.1.198s-.098 0 0 0c-.098 0-.098 0 0 0-.098-.099-.098 0 0 0zm-.595.596c0 .1-.099 0-.099 0h.1zm.1-.695c0 .1 0 .1 0 0 0 .1 0 .1 0 0 0 .1 0 .1 0 0zm0 .1s0 .099 0 0zm-.298.099l.099.1c-.1 0-.1.098-.199.098v-.099l.1-.1zm4.17-2.085v.1h-.1c0-.1 0-.2.1-.1zm-.497.199c.1.099.1 0 .198 0 0 0-.297.099-.198 0zm-.596 0c.1 0 0 .099.1.099-.1.198-.2 0-.298 0 0-.1.198 0 .198-.1zm-.794-.1c0 .1.1 0 .1-.099.099.1-.1.298-.2.199.1 0 .1-.1.1-.1zm1.39-1.19c.1 0 .1 0 .198-.1-.099.1-.198 0-.198.198-.1.1 0 0 0-.099zm-.497.396s.1-.1.1 0c0 0-.1.1-.1 0zm0-.1v.1c-.099-.1-.099 0-.099 0v-.1h.1c-.2.1-.2.1 0 0-.1 0-.1 0 0 0zm-.099-.297s-.1 0-.1.1c0-.1-.098 0-.098 0h.099c-.1 0-.1.099-.199 0 0-.1.199-.1.298-.1zm-.198.298l-.1.1c0-.1 0-.2.1-.1zm-.695.198c.099.1 0 0 0 0zm-.497 0l-.099.1c0-.1.1-.199.1-.1zm.497-.893c.099.1.099-.1.099 0s-.1.1-.1.1c.1 0 .1 0 0-.1 0 .1 0 .1 0 0 .1.1 0 0 0 0zm-.1 0c0 .1 0 .1 0 0 0 .1 0 .1 0 0-.099.1 0 .1 0 0zm-1.29 2.085c0-.1 0-.1 0 0 0-.1 0-.1 0 0zm-.1-.298v-.1h.1c.1.1 0 .2-.1.1.1.1.1 0 0 0zm.1.298c.1 0 .1 0 0 0 .1 0 .1 0 0 0zm.794-.199c.1 0 .1-.1 0 0 .1-.1.1-.1 0 0zm.199-.298c.099 0 .099 0 0 0 .099.1.099.1 0 0zm-.298.1c.1 0 .198-.1.198 0 0 .099 0 .099-.198 0 .1.099 0 .099 0 0zm.198.397h-.198v.099h-.199v-.199c-.099.1-.198.1-.198.1-.1-.1-.1-.1-.199-.1h.298v-.099h.1v.1c0 .099.297 0 .396.099zm-.297-.397s.099.099 0 0c0 .099 0 .099 0 0 0 .099 0 0 0 0zm-.1 0s0 .099 0 0c0 .099 0 .099 0 0 0 .099 0 .099 0 0zm-.099.198h-.1.1zm-.1-.1c.1 0 .1 0 0 0zm.398-.893v.1s.1.099 0 .099c0-.1-.1.1-.1 0 0 0 0-.1.1-.199zm-.298-.397c-.1.1-.1 0-.1 0h.1zm-.1.695c.1 0 .1.1.2.1-.1 0-.1.099-.2.099v-.199zm-.099.695c-.099.1-.099 0-.099 0h.1c-.1 0-.1 0 0 0-.1 0-.1 0 0 0-.1 0-.1 0 0 0zm-.099-1.985c0 .099 0 .099 0 0 0 .099 0 0 0 0zm0 1.29s0 .1 0 0c-.1.1-.1.1-.198.1 0 0-.1-.1 0-.1.099.1.099-.099.198 0zm-.1-.496s0 .1 0 0c-.098.1-.098 0-.098 0h.099zm.894-1.787h.199s-.1 0-.1.1c0-.2 0-.1-.099-.1zm1.49-1.588c0 .099 0 .099-.1.099v-.1c0 .1 0-.099.1 0zm-.298.099c.099 0 .099 0 0 0 .099 0 .099 0 0 0 .099 0 .099.1 0 0 0 0 .099.1 0 0zm-.298.298s0 .099 0 0c0 .099 0 0 0 0zm-.397.198s0 .1 0 0c0 .1 0 .1 0 0zm-.497.298s-.099 0-.099.1c0-.1 0-.1.1-.1zm-.099-.596c0 .1-.1 0 0 0-.1 0-.1-.099 0 0zm-.298.695c.1 0 .199 0 .1-.099h.099c0 .1-.1.1-.199.1 0 .099 0 .099 0 0zm.993-1.489c0 .1 0 .1 0 0 0 .1 0 .1 0 0zm-.199 0c0 .1 0 0 0 0 .1.199-.099.1 0 0zm-.297-.198c0 .099 0 .099.099.099-.1.198-.1 0-.1-.1 0 0 0 .1 0 0zm.794-.894c0 .1-.1 0-.1.1v-.2l.1.1zm-.596.1c0 .099 0 0 0 0 0 .099-.1.099 0 0zm-.198 0c0-.1 0-.1 0 0 0-.1 0-.1 0 0zm.099.099c0-.1 0-.1 0 0 0-.1 0-.1 0 0 0-.1 0-.1 0 0zm0-.497c0 .1 0 .1 0 0 0 0-.1.1-.199.1.1-.1.1-.1.199-.1zm-1.39-.794s0 .1 0 0zm-.298.298c0-.1 0 0 0 0 .199.1.298-.1.298 0h.1v.1c-.1 0-.1 0-.1.099h-.199v.099h-.099c0-.199-.099-.199 0-.298 0 .1 0 0 0 0 0 .1 0 0 0 0zm.397 1.588s0-.099 0 0v-.099s.1 0 0 .1zm0-1.19s0-.1 0 0zm0 .495s0 .1 0 0zm0 1.589v-.1.1zm-.198 1.886s-.1-.1 0-.1 0 0 0 .1zm0-1.985c.1 0 0 0 0 0zm0-.795s0-.198 0 0c.1-.099.1 0 0 0 .1 0 .1 0 0 0 .1-.099 0 0 0 0zm0-1.092s.1 0 0 0c.1 0 .1 0 0 0 .1 0 .1 0 0 0zm.1.497c-.1 0-.1 0 0 0-.1 0-.1 0 0 0zm-.299.992c-.099 0-.099 0 0 0zm-.099-1.886c0 .1-.1.1 0 0zm-.596 6.552s0 .1-.099.1c0 0-.1 0-.1.099.1-.1.1-.199.2-.199zm-.198 0c.1-.099.1 0 0 0 .1.1 0 .1 0 .1v-.1zm0 1.192c-.1.099-.199 0 0 0-.1 0-.1 0 0 0zm-.397 1.092s.099-.1.099 0c0 .099-.1 0-.1 0zm.297.099l-.099-.1c.1.1.1 0 .1.1zm.1-1.092c0-.1 0-.1-.1-.199.1 0 .1-.099.2-.099.098 0 .198 0 .297.1-.1 0-.1 0-.1.099 0 0-.099 0-.099-.1v.1h-.099v.099s0 .1-.1 0zm.198.695c-.099-.1 0-.1-.099-.199.199.1.199.1.1.199v-.1s.099.1 0 .1zm.199.1c-.1 0 0 .098-.1.098 0-.099 0-.099.1-.099zm-.298.595c.1 0 .1-.1.199-.1v.1c0-.1-.1 0-.199 0zm.298-.695c0 .1.1 0 .198 0 0 .198-.198.1-.198 0zm.198-.497c0-.099 0-.099 0 0 0-.099 0 0 0 0zm0-3.772v-.1h.398c0 .1-.1 0-.1 0 0 .1-.099 0-.099.1-.1-.1-.1.1-.199 0zm.1 3.177c0-.1 0-.1 0 0 0-.1 0-.1 0 0zm.099-.993v-.1.1zm.298.993s-.1 0 0 0c-.1 0-.1.1 0 0-.1.1-.1.1-.1.198 0 0-.099 0-.099-.099 0 0 .1 0 .1-.1h.099c0-.098 0-.098.1-.098l-.1.099c0 .1 0 0 0 0zm0 .198v-.099c.1 0 .1.199 0 .1zm0-.893s-.1 0 0 0c-.1 0-.1 0 0 0 0-.1.1-.1.1-.1 0 .1-.1.1-.1.1zm.198-.397c0-.1-.099-.1 0 0-.099-.1-.099-.1 0 0 0-.1 0-.1 0 0 0-.1 0-.1 0 0zm0-.298c-.099 0 0-.1 0 0-.099 0 0 0 0 0h-.099s.1-.1 0-.1l.1-.099c0 .1-.1.1 0 .199v-.199c.099.1 0 .1 0 .199zm.894-2.085c0 .1 0 .1-.1.1 0-.1 0-.1.1-.1zm-.596.1s.1.099.1 0c0-.1 0-.1 0 0v-.1c.099.1.099 0 .198 0 0 0 0 .1.1.1-.1.099-.2.099-.299.099l-.099-.1c-.1.1-.1.2-.198.2-.1 0-.1-.1-.1 0 0 0-.099-.001-.099.098v-.099c-.1 0 0 0-.1.1-.099-.1 0-.1.1-.2.199-.098.298 0 .397-.098zm.298-.894c0 .1 0 .1 0 0 0 .1-.1.1-.1.1v-.1s0 .199.1 0zm-.199.199c-.099 0-.198.099-.297.099.099 0 .198-.1.297-.1-.099 0-.099 0 0 0zm-.397-1.192c.1 0 .1 0 0 0l.1.1c0-.1 0 0-.1 0 .1 0 0-.1 0-.1zm.397 0h-.099v-.099c0 .1-.1.1-.1 0h-.098c0-.1.099 0 .099-.1 0 .1 0 .1.1.2v-.2c0 .1.098.2.098 0v.2c0-.1 0-.1 0 0zm.1-.397v.1h-.1v-.199c0 .1-.099.1-.099.1-.1-.1-.1-.1-.198-.1 0-.1.099 0 .198 0v-.1c.1 0 .1 0 .1.1 0 0 .099-.1.099.1zm-.1-.298s-.099-.099-.099 0c0-.099 0-.099.1 0-.1-.099 0-.099 0 0zm0-.099c0 .1 0 .1 0 0zm-.099.199c-.1-.1 0-.1 0 0zm.199-.199s-.1 0 0 0zm0-.1c0-.098 0 0 0 0zm.099.299c0-.1-.1 0 0 0 0-.1-.1-.1-.1-.1v-.099l.1.1v.099zm.199-.1v-.099c0 .1 0 0 .099 0 0-.1 0 0-.1.1.1 0 .1 0 0 0zm-.1-.694c0-.1 0 0 0 0zm-.099 0c0 .099 0 0 0 0 0 .099 0 .099 0 0v.099h-.1c0-.1 0 0 .1-.1zm-.199-.2c.1.1.1.1 0 0 .1.1 0 .1 0 0zm.1.299c-.1 0-.1 0 0 0-.1 0 0 0 0 0zm-.1.198c.1 0 .1-.099.1-.099l.099-.1c.1 0 .1-.098.1-.098 0-.1 0 0 0 0h.099v.099h-.1s-.099 0 0 .099l.1-.1s-.1 0-.1.1v.1h-.198v-.002s-.1 0-.1-.099v.1h-.099v-.1c.199 0 .298.199.1.1l.099.099-.1-.1s0 .1 0 0c0 .1 0 0 0 0zm0-.496v.199c0-.1 0 0-.099 0 .1-.1.1-.1.1-.2zm-.099.397h-.1.1zm-.198-.198s.099 0 0 0v.099-.1zm0 .794c0-.1 0-.1 0 0zm0-.199s-.1 0 0 0c-.1 0 0 0 0 0zm0 .298c-.1 0-.1 0 0 0-.1 0 0 .1 0 .1s0-.1-.1-.1h.1c-.1-.1 0-.1 0 0zm-.1-1.986h.1-.1zm.1.1c0-.1 0-.1 0 0 0-.1 0 0 0 0zm3.574-.596s0 .1 0 0c0 .1 0 .1 0 0 0 0 0-.1 0 0zm-.2 0c0 .1 0 0 0 0 .1.199-.098.1 0 0zm-.396-.1s0 .1.1.1c0 .199-.1 0-.1-.1-.1 0 0 .1 0 0zm-.397-.198c0 .1 0 0 0 0 .099 0 .099.199 0 .1-.1 0 0-.1 0-.1zm.992-.695s0 .1 0 0c0 .1 0 0 0 0zm-.099.1c-.1 0 0 0 0 0zm-.397 0s-.1.099 0 0c-.1 0 0-.1 0 0zm-.1 0c-.099 0-.099 0 0 0h-.099c0-.1 0 0 .1 0zm-.099-.298c-.099 0-.099.1-.198.1 0-.2.199-.2.199-.1zm-.099.1c0 .098-.099.098 0 0-.099.098-.099 0 0 0zm-.198-.299c0 .1 0 .1 0 0zm-.1.1s.1 0 0 0h.1v.099h-.1c.1 0 .1-.1 0-.1l.1.1c-.1 0-.1 0-.1-.1zm-.099 0c-.1 0-.1 0 0 0-.1 0-.1 0 0 0-.1 0-.1 0 0 0zm0 .297c.1.1 0 .1 0 0 0 .1 0 0 0 0zm-.1-.496c0 .1.1-.1.1.1l-.1.099v-.199c0 .1 0 .1 0 0-.098.1-.098 0 0 0 0 .1 0 0 0 0zm0 .1c0 .099-.098-.1-.098 0h-.1v-.1c0 .1.1.1.199.1-.1 0-.1 0 0 0zm-.198-.1c0 .1 0 .1 0 0zm0 .496s0 .1 0 0c0 0 0-.099 0 0zm.397-1.39v.1c0-.1-.099 0 0 0v-.1c-.099 0-.099 0 0 0zm-.198 0c.1.1 0 .1 0 0v.1s-.1.1-.1 0c0 .1.1.1 0 .1h-.099v-.1c.1 0 .1-.1.199-.1zm.397-1.39c-.1 0-.1 0 0 0 0-.098 0-.098 0 0zm0-1.091v.099s.1.1 0 .1c0-.1 0 .099-.1 0 .1-.1.1-.2.1-.2zm-.199.198s.1 0 .1.1c-.1 0-.1.099-.1.099v-.199zm-.397-.992s-.099-.1 0-.199c.1 0 .199.1.298 0 .1.199-.1.199-.1.199h-.198l.1.099c-.1 0-.1 0-.1.1h-.198v.098h-.1c0-.099-.099-.099-.099-.198 0 0 0-.1.1 0v-.1c.099.1.198 0 .297 0zm-.099 1.29c0-.1 0-.198.1-.1-.1 0 0 .1-.1.1zm0-.198c-.1-.1 0-.1-.1-.199 0-.1 0-.1.1-.1v.1-.1c.1.1 0 .1 0 .299v-.1c-.1 0 0 0 0 .1zm0-.497h.1v.1s0-.1-.1-.1zm-.298 2.085s0 .1 0 0c-.099.1-.099 0 0 0-.099 0 0 0 0 0zm-.099-2.383c0 .1-.1 0 0 0zm0 2.581c0 .1 0 .1 0 0 0 .1 0 0 0 0zm0 .398c0 .099 0 .099 0 0 0 .099 0 .099 0 0zm0-.398s.1 0 0 0c.1 0 .1 0 0 0zm0-.595s.1 0 0 0c.1 0 .1 0 0 0 .1.1 0 .1 0 0zm.1-.894s0 .1 0 0c0 .1 0 0 0 0zm.099-1.787s.099 0 .099-.099h.1s-.1 0-.2.1zm.297-.198c.1 0 .1 0 0 0 .1 0 .1 0 0 0 .1 0 .1 0 0 0zm.298-.1c-.1 0-.1.1-.198.1.099-.1.198-.1.198-.1zm.1-.496c0 .1 0 .1 0 0 0 .1 0 .1-.1.1 0 0 0-.1.1-.1zm-.894.199c.1 0 .298.1.397 0 0 0 .1.1.1 0-.1-.1 0-.1 0 0v-.1c.099.1.099 0 .198 0 0 0 0 .1.1.1-.1.1-.2.1-.299.198h-.099l-.1.1h-.099s-.099 0-.099.099v-.1.1c-.198-.199-.099-.298-.099-.397zm0-.695c-.1 0-.1 0 0 0zm-.1.794c.1.1 0 .1.1.1 0 0 0 .099-.1.099v-.199zm-.496.1c.1 0 .199 0 .199-.1h.1c0 .1-.1 0-.1 0 0 .1-.1 0-.1.1-.099-.1-.099.099-.198 0 .1.099.1 0 .1 0zm-.099 6.254v.099c-.1 0-.1 0 0-.1-.1 0-.1-.099 0 0zm-.298-8.538c.1 0 0 0 0 0zm0 6.155h.199l-.1.1s-.099 0-.099-.1zm.1 2.383s.099 0 0 0c.099.099 0 .198 0 .198v-.198zm0-.398s0-.099 0 0c0-.099 0-.099 0 0zm-.1 0c0-.099 0-.099 0 0zm.298.795c0-.1 0-.1 0 0h-.198c0-.1 0 0-.1-.1h.1s0-.099.099-.099c.1.1.1.1.1.199zm0-2.68v-.1.1zm0 2.084c.1 0 .1 0 0 0 .1 0 .1 0 0 0 .1 0 .1 0 0 0zm.199-2.184c0 .1 0 .1 0 0 0 .1 0 .1 0 0h-.1v-.199c.1 0 .199.1.298 0 0 0 .1.1.1 0-.1-.099 0-.099 0 0v-.099c.099.1.099 0 .198 0v.1s-.1 0-.1.099c0 0 .1-.1.1 0-.1.099-.1.099-.199.099h-.099s-.1.1-.198 0c.099.1.099 0 0 0zm.397.298c-.1 0 0 0 0 0zm-.298 1.886s0-.1 0 0l.1.1c-.1 0-.1-.1-.1-.1zm0 .893c.1 0 .1 0 0 0 .1.1 0 0 0 0zm.1-.099c-.1 0-.1 0 0 0zm.297.298s0-.1 0 0c0 0 0-.1 0 0 0-.1 0 0 0 0 0 .1-.1 0 0 0-.1.1-.1.1-.199 0v-.1h-.099v-.099c0-.099.1 0 .1 0-.1-.099-.1 0-.1-.099v-.099c0-.1.1 0 .1-.1l.099.1v-.1c.198.299.099.398.099.497zm-.199-1.588c.1.099 0 .099 0 .198v-.198.198l-.099-.1c.1 0 .1.001.1-.098-.1 0 0-.1 0 0zm0-.199c.1 0 .1-.1 0 0 .1 0 .1 0 0 0 .1 0 .1 0 0 0zm0 .199s0-.1 0 0c0-.1 0 0 0 0zm.1.297c-.1 0 0 .1-.1.1 0-.1 0-.1.1-.1zm.099.497c-.1 0-.1.1-.199.1.1 0 .1-.2.199-.1zm-.199-1.688s.1-.1 0 0c.1-.1.199-.1.199-.1s-.1.1-.199.1zm.1 1.092c.099.1.099 0 .099 0 .1.199-.1.1-.1 0zm.198.695c0-.1 0-.1 0 0v-.1.1c0-.1 0-.1 0 0zm0-.1s0 .1 0 0c0 .1 0 .1 0 0 0 .1 0 0 0 0zm0 .894v-.099.1zm0-.595c0 .099.1.099.1.099-.1 0-.1-.1-.1-.1 0-.099.1-.099 0 0 0 0 0-.099 0 0zm.1-.695c0-.1 0-.1 0 0v-.199s.099 0 .099.1c-.1 0-.1 0-.1.099zm.198.298c0 .099-.1 0-.1 0h.1zm-.198.198v.1-.1c-.1 0 0 0 0 0zm.496-.298c0 .1 0 .1 0 0zm-.1.1c.1 0 .1 0 0 0 0 .099.1.099.1.198h-.1c0-.1-.099-.1-.099-.1 0-.098 0-.098.1-.098h-.1.1zm.1.397c-.1 0 0 0 0 0l-.1.099h-.099v-.199c0 .1-.099.1-.099.1-.1-.1-.1-.1-.198-.1 0-.099.099-.099.198 0v-.099c.1 0 .1 0 .1.1 0 0 .099 0 .198.099zm-.199-.298c-.099 0 0 0 0 0zm0-.1s-.099 0-.099.1c0-.1 0-.1.1-.1zm-.099.298c0-.099 0 0 0 0-.1-.198 0-.099 0 0zm-.1-.595c0-.1.1-.1 0 0 .1 0 0 0 0 0zm.1-.497v.199c0-.1 0 .1-.1 0 .1 0 0-.1.1-.199zm-.1-.297h-.198s.1-.1.199 0zm-.099-1.092c.1 0 .1 0 0 0 .1 0 .1 0 0 0 .1.099 0 .099 0 0l-.198.198h.1c-.1 0-.1.1-.2.1v.099c-.099 0-.099 0-.198.099 0-.1-.1-.1-.1-.199h.2s-.1 0-.1.1c.1 0 .1-.199.199-.1 0 0 0-.099.099-.099v-.1l.199-.098zm-.099-.398c.1 0 .1 0 0 0 .1 0 .1 0 0 0zm.199-.099c0-.1-.1 0-.1 0v-.198l.1.198c.1 0 .1 0 0 0zm0-.1s.1 0 0 0c.1 0 .1 0 0 0 .1 0 0 0 0 0zm.298-.198c-.1 0 0-.099 0 0l-.1-.099s0 .1.1.1c-.1.099-.199 0 0 0-.1.099-.199.099-.199.099s.1 0 0-.1h-.198v-.099c0-.1.099 0 .099 0-.1-.1-.1 0-.199-.1h.1s.099 0 .099.1c0 0-.1-.1 0-.1 0 .1.1.1.1.1h.098c.1 0 .1 0 .1.1zm-.1-.297c.1 0 .1 0 0 0 .1.099.1.099 0 0 .1.099.1.099 0 0zm.199.595s-.1 0-.1.1c0-.1 0-.1.1-.1zm-.1-.198s-.099-.1 0-.1c.1 0 .1.1 0 .1zm0-1.589c.1.1.1 0 .2 0-.1.199-.299.199-.2 0zm.1 1.092c0-.099 0-.099 0 0 .1-.099.1-.099 0 0zm.695 0h-.1v-.198c0 .099-.099.099-.198.198-.1-.099-.1-.099-.298-.099h.596v.1zm0-.198h-.199c.1-.1.199-.1.199 0zm0-.298c.1 0 0 0 0 0v-.1c.1.1 0 0 .1 0 0 .1 0 .1-.1.1.1 0 0 0 0 0zm.298-.199s-.1 0 0 0c-.1 0-.1 0 0 0-.1-.099 0 0 0-.099v.1zm0-.099c.099-.1.099-.1 0 0zm.297.199s-.099 0 0 0c-.198 0-.099-.1 0 0v-.1.1c0-.1 0-.1 0 0zm.497.198l-.1-.1c0-.098.1.1.1-.098v.198zm.397-.1s0 .1 0 0h.1c0 .1-.2.1-.1 0zm.298 0c-.1-.098 0-.198 0-.098 0 .099.099.099 0 .099z" fill="#F0D878"/></mask><g mask="url(#a)"><path d="M56.688 3.773h-73.66v32.96h73.66V3.772z" fill="url(#paint0_linear_97_440)"/></g><path d="M51.525 17.075c-.1 0-.1.1 0 0-.1.1 0 .1 0 0zm-.001-.994s-.1 0 0 .1c0-.1.1-.1 0-.1zm1.19 3.376c0 .099-.099.099-.099.099.1 0 .198 0 .1-.099zm-1.092-.099c0 .1 0 0 0 0 0-.099 0-.099-.1-.099 0 .1.1.1.1.1zm-1.19 5.062c-.1 0-.1 0-.1.1 0-.1 0 0 .1-.1zm1.289-7.345c-.102 0 0 .102 0 0zm-.595 6.155v-.1c-.1.1 0 .1 0 .1zm2.78-.696s-.1.1-.1.2c.1-.1.1-.1.1-.2zm.098.001c0 .099 0 .099 0 0 0 0 .099 0 0 0 0-.1 0 0 0 0zm-1.091-2.383c-.1 0-.1 0 0 0-.1.1 0 0 0 0s-.1 0 0 0zm-.001-.794s-.099 0 0 0c0 .1 0 .1 0 0-.198.198 0 .1 0 0zm-.199.496c-.198-.1-.1.099 0 0zm.599 1.688s-.1-.1-.1 0h.1zm-.302-.099s.1.1.1 0c-.1-.099-.1-.099-.1 0zm.2-1.787c-.1 0-.2 0-.2.1 0-.1.2 0 .2-.1zm-.294.099c-.1 0-.1 0-.1.1.1 0 .1 0 .1-.1zm-1.096 5.858c0-.102 0 0 0 0s.103 0 0 0zm-1.586-.1s0 .1-.1.1c.1-.1.199 0 .1-.1zm1.786.596s.1 0 .1-.1c-.1 0-.1.1-.1.1zm-.497.496c0 .1.1 0 .199.1 0-.1-.1-.1-.2-.1zm-.693-1.985s.098.1.098 0l-.099-.1s.1 0 0 .1c0 0 0-.1 0 0zm.297-.298s-.1.1 0 0c-.1.1 0 .1 0 0zm.396.099c.197-.099.098-.197 0 0zm.197 1.091s.1 0 .1-.1c-.1 0-.1 0-.1.1zm-.197 1.986v.099c.098 0 0-.099.098-.099.1 0 0 .099-.099 0zm-.199-3.078c-.1.101.1.101 0 0zm-.992 2.582c.1.1.1 0 .1 0h-.1zm1.192-.099c-.299 0-.1.2 0 0zm-.893-2.978s0-.1 0 0c-.1-.1-.1-.1 0 0zm.396 2.779s-.1 0-.1.1c.1 0 .2-.1.1-.1.1 0 0 0 0 0zm-.001.894c-.199.099-.298.099-.397.198h.1c.099 0 0 0 .098-.1 0 .1.199 0 .199.1-.1.1 0-.1 0-.198zm.397 0c.1.1.1 0 .1.1 0-.1-.1-.1 0-.1h-.1c-.1-.1-.1 0-.298 0v.198c.1 0 0-.099.1-.099.099 0 0 .1.099.1-.1-.1 0-.1.099-.2z" fill="#F0D878"/><path d="M51.819 27.597c0-.099 0-.099-.1-.099-.098 0 0 .099.1.099zm-.096-1.39s-.1 0-.1.1c.1 0 .1 0 .1-.1zm-.499.993c-.099-.099-.099 0-.099 0 0 .1.099.1.099 0zm.102.1c.1-.1 0-.1 0-.1v.1zm1.986 1.192c-.1 0-.2 0-.2.1.1 0 .2 0 .2-.1zm-.6-2.582c.099 0 0 0 0 0 .099-.1.099 0 .099-.1 0-.098-.1.1-.1.1zm-3.077-2.284h.1s0-.1-.1 0zm3.278 1.39c-.1 0-.1 0 0 0-.1.1 0 .1 0 0zm.101.199s-.1 0 0 0c-.1.1 0 .1 0 0zm.296.1c-.099.099-.099.198-.198.297-.099.1-.099.199-.198.199 0 .1-.1.198-.199.298-.1.099-.198.099-.198.298a.775.775 0 01.397-.398c.099-.099.198-.297.297-.496 0 0 .1 0 .1-.1-.1-.198.198-.396.198-.495-.099.099-.198.297-.198.397zm-.598.099h.1s0-.1-.1 0c.1-.1 0-.1 0 0zm.298-.398c.1.1 0 .1.1.199.1 0 0-.1 0-.199.1 0 .1-.1.1-.1.198 0 .198-.198.198-.198 0-.099-.1 0-.1 0-.099-.099.1-.099 0-.198 0 0 .1.099.1 0v-.1c0 .1-.298-.198-.1 0-.099.1-.099.199-.198.298.1.298 0 .298-.1.298h.1c0 .1 0 0-.1 0zm-2.18-1.289c0 .1 0 0 0 0 .1-.1.199 0 .199-.1-.1-.1-.1 0-.2-.1v.2s-.1-.1 0 0zm2.58 4.863c0-.1-.1 0-.1.1s0-.1.1-.1zm-1.49-4.566c-.1 0-.1 0-.1.1 0 0 .1 0 .1-.1zm-1.189-.297c0-.1 0 0 0 0 0-.1-.1-.1 0 0zm1.385.398c0-.102 0 0 0 0 .103 0 0 0 0 0zm.1.991c-.1 0-.1.1-.1.1h.1c-.1 0 0 0 0-.1zm-1.686 2.679c.098.1.098-.099.098-.099s-.099 0-.099.1zm1.49-2.282s-.103 0 0 0c0 .103-.103 0 0 0z" fill="#F0D878"/><path d="M16.679 8.935c-.199-.398-.397-.695-.794-.993-.199-.199-.397-.298-.695-.397-.397-.199-.794-.298-1.191-.397-.298-.1-.596-.1-.993-.1h-.397c-.497 0-.993.199-1.39.298-.496.199-.993.596-1.191 1.092-.1.1-.1.298 0 .397.198.298.496.794.893 1.092.298.199.695.397.993.596.298.1.595.198.893.198.497.1.993 0 1.589-.099.397-.1.694-.298 1.092-.496.397-.199.794-.497 1.092-.695.198-.199.198-.397.099-.496zm-.199.297c-.297.199-.595.397-.893.695a3.67 3.67 0 01-1.092.497c-.794.198-1.688.198-2.383-.1a4.634 4.634 0 01-.992-.496c-.397-.298-.695-.695-.894-.993v-.198a2.152 2.152 0 011.092-.993 2.748 2.748 0 011.29-.298c-.099 1.092.1 2.283.398 2.383.298 0 .695-1.192.893-2.284.397.1.794.199 1.192.398.297.099.496.297.694.496.298.198.497.496.596.893v.1c.1-.199.1-.199.1-.1z" fill="#A39041"/><path d="M16.48 9.034s0 .099-.099.099c-.298.198-.595.397-.893.695-.397.198-.695.397-1.092.496-.795.199-1.688.199-2.383-.1a4.64 4.64 0 01-.993-.496c-.397-.297-.694-.694-.893-.992v-.199a2.152 2.152 0 011.092-.993 2.748 2.748 0 011.29-.297c-.099 1.092.1 2.283.398 2.382.297 0 .694-1.191.893-2.283.397.1.794.198 1.191.397.298.1.497.298.695.496.497.1.695.397.794.794 0 0 .1 0 0 0z" fill="#fff"/><path d="M39.311 40.106c1.291-2.581 2.482-5.261 3.773-7.842.099-.298.099-.596-.199-.695-.198-.1-.595-.1-.695.198-1.39 2.78-2.68 5.56-4.07 8.438h1.191v-.099zm-3.077 0c1.29-2.581 2.482-5.261 3.773-7.842.099-.298.099-.596-.199-.695-.199-.1-.596-.1-.695.198l-4.07 8.438h1.191v-.099z" fill="#F0D878"/><defs><linearGradient id="paint0_linear_97_440" x1="-16.987" y1="20.22" x2="56.633" y2="20.22" gradientUnits="userSpaceOnUse"><stop stop-color="#F0D878"/><stop offset=".156" stop-color="#F0D878"/><stop offset=".391" stop-color="#EDD576"/><stop offset=".57" stop-color="#E3CC6F"/><stop offset=".729" stop-color="#D3BD63"/><stop offset=".877" stop-color="#BCA853"/><stop offset="1" stop-color="#A39041"/></linearGradient></defs></svg>