<svg width="260" height="37" fill="none" xmlns="http://www.w3.org/2000/svg"><path d="M72.242 2.551h4.283v14.673h.091l11.3-14.673h5.104l-12.758 16.04 13.852 17.861h-5.56L76.617 20.05h-.09v16.404h-4.284V2.55zm25.972 10.846a14.195 14.195 0 013.372-1.55 12.63 12.63 0 013.645-.546c.912 0 1.732.09 2.461.273.729.182 1.367.365 1.914.638.547.274 1.002.456 1.367.73.364.272.638.455.82.637.547.547 1.002 1.276 1.458 2.096.456.911.638 2.187.638 3.919v12.94c0 .73 0 1.459.091 2.097 0 .638.091 1.184.182 1.64h-3.736l-.273-3.372a8.128 8.128 0 01-2.461 2.552c-1.094.729-2.552 1.185-4.465 1.185-2.005 0-3.737-.547-5.104-1.732s-2.005-3.007-2.005-5.377c0-1.184.182-2.278.638-3.372.456-1.002 1.094-1.913 2.005-2.643.911-.729 2.096-1.367 3.645-1.731 1.458-.456 3.281-.638 5.468-.638h2.37V20.05c0-.91-.091-1.731-.183-2.278-.091-.547-.364-1.184-.729-1.731-.455-.547-1.002-.912-1.731-1.185-.729-.274-1.549-.365-2.37-.365-1.275 0-2.46.274-3.645.73-1.093.455-2.096 1.093-2.734 1.913l-.638-3.736zm11.847 10.936c-.364-.091-.82-.091-1.275-.091h-1.55c-2.369 0-4.192.546-5.376 1.549-1.185 1.002-1.732 2.187-1.732 3.645 0 1.367.365 2.37 1.002 3.19.638.82 1.732 1.184 3.19 1.184.911 0 1.64-.182 2.37-.546.729-.365 1.275-.82 1.822-1.367.547-.547.912-1.276 1.185-2.005.273-.73.456-1.55.456-2.37v-3.19h-.092zm20.597 11.847c-.456.182-1.003.273-1.64.455-.638.092-1.185.183-1.732.183-1.914 0-3.281-.456-4.283-1.276-1.003-.82-1.458-2.37-1.458-4.557V15.037h-3.919v-3.372h3.919V6.562l4.101-1.185v6.288h5.103v3.28h-5.103v14.673c0 1.458.182 2.46.546 3.008.365.546 1.094.91 2.005.91.547 0 1.003-.09 1.367-.181.365-.091.82-.274 1.185-.456v3.28h-.091zm6.56-10.936c0 2.916.547 5.012 1.64 6.38 1.094 1.366 2.825 2.004 5.104 2.004 1.002 0 2.096-.182 3.098-.638 1.003-.455 1.914-.911 2.643-1.367l.182 3.737c-1.002.455-2.096.82-3.281 1.093-1.184.274-2.46.365-3.645.365-1.64 0-3.098-.274-4.374-.911-1.276-.638-2.279-1.459-3.099-2.552-.82-1.094-1.458-2.46-1.913-4.01-.456-1.55-.638-3.372-.638-5.286 0-1.914.182-3.736.638-5.285.455-1.55 1.002-2.917 1.822-4.01.82-1.094 1.823-1.914 3.008-2.552 1.184-.638 2.551-.911 4.1-.911 2.826 0 5.013 1.002 6.471 3.098 1.458 2.096 2.278 5.013 2.278 8.658v2.187h-14.034zm9.933-3.099c0-5.194-1.64-7.746-4.83-7.746-.638 0-1.276.091-1.914.365-.637.273-1.093.729-1.64 1.276-.456.638-.82 1.367-1.094 2.37-.273 1.002-.455 2.186-.455 3.644h9.933v.091zm8.934-19.594h4.192v14.673h.182l11.21-14.673h5.103l-12.759 16.04 13.853 17.861h-5.559L160.459 20.05h-.182v16.404h-4.192V2.55zm40.642 28.525c0 .911 0 1.822.091 2.734.091.911.091 1.731.091 2.642h-3.918l-.182-3.736h-.092c-.638 1.458-1.458 2.46-2.551 3.099-1.003.638-2.279.91-3.737.91-2.187 0-3.918-.637-5.285-1.913s-2.005-3.28-2.005-6.015V11.665h4.101v16.039c0 2.005.364 3.372 1.002 4.283.729.911 1.732 1.367 3.007 1.367 1.641 0 2.917-.547 3.828-1.64.911-1.094 1.367-2.825 1.367-5.013V11.665h4.101v19.41h.182zM207.119 0h-4.101v36.453h4.101V0zm11.025 6.288h-4.465v-4.83h4.465v4.83zm-4.283 5.377h4.101v24.788h-4.101V11.665zm9.294 19.958c.912.547 1.914 1.003 2.825 1.367 1.003.365 1.914.547 3.008.547 1.549 0 2.734-.364 3.554-1.002.82-.73 1.185-1.55 1.185-2.46 0-.821-.274-1.55-.729-2.188-.456-.638-1.276-1.185-2.461-1.732l-2.734-1.184c-1.823-.82-3.007-1.64-3.736-2.643-.73-.911-1.094-2.187-1.094-3.736 0-1.003.182-1.914.547-2.826.364-.91.911-1.64 1.64-2.278.729-.638 1.549-1.093 2.552-1.55 1.002-.364 2.096-.546 3.281-.546 1.002 0 2.005.091 2.825.274.911.182 1.64.364 2.369.637l-.182 3.463a12.296 12.296 0 00-2.187-.729 12.372 12.372 0 00-2.643-.273c-1.367 0-2.37.365-3.099 1.002-.638.638-1.002 1.459-1.002 2.461 0 1.003.364 1.823 1.094 2.46.729.639 1.731 1.185 3.098 1.732l1.458.547c1.549.638 2.734 1.458 3.554 2.46.912 1.003 1.276 2.279 1.276 3.828 0 1.094-.182 2.096-.456 3.007a6.557 6.557 0 01-1.367 2.461c-.637.638-1.458 1.185-2.46 1.64a10.453 10.453 0 01-3.645.638c-1.276 0-2.552-.09-3.646-.364-1.093-.274-2.187-.638-3.098-1.094l.273-3.919zM242.206 0h4.101v15.037h.091c.547-1.003 1.367-1.914 2.37-2.643 1.002-.73 2.278-1.094 3.736-1.094 2.187 0 3.919.638 5.286 1.914 1.367 1.276 2.005 3.281 2.005 6.015v17.224h-4.101v-16.04c0-2.004-.365-3.371-1.003-4.283-.729-.91-1.731-1.367-3.007-1.367-1.641 0-2.916.547-3.828 1.64-.911 1.094-1.367 2.826-1.367 5.013v14.946h-4.101V0h-.182z" fill="#fff"/><path d="M7.2 5.832c-1.368 1.094-2.552 2.46-3.372 4.101C1.732 7.473.456 5.56 0 4.921V4.83s0-.091.091-.091L7.2 5.832z" fill="#A39041"/><path d="M49.667 14.4c.091-.092.183-.092.183-.184-.092.092-.183.092-.183.183zm.184-.457c-.091 0-.091 0 0 0-.091 0-.091 0 0 0-.273.091 0 .091 0 0zm-.273 0c0 .092-.092.092-.184.183.092 0 .275-.091.184-.183zm-3.011-1.549c0 .092.092 0 .092 0 0-.092-.092 0-.092 0zm-.455.182c.091 0 .183-.091.365-.091-.091-.092-.274 0-.365.09zm1.549.274c-.09 0 0 .09-.09.09h.09c0-.09.092 0 0-.09zm.364-.82s.091 0 0 0c.091-.091.091-.091.091-.183 0 0 0 .092-.091.183 0-.091-.092-.183-.092-.183.092.092 0 .183-.091.183h.183c-.092 0-.092 0 0 0zm.643 2.733c.092.092.092 0 .092.092 0-.092-.092-.092 0-.092 0-.091 0-.091-.092 0 0-.091-.091 0-.183 0v.183c.092 0 0-.091.092-.091.091 0 0 .091.091.091-.091-.091 0-.091 0-.183zm.362 0c0-.092 0-.092-.092-.092 0 0 0 .092.092.092zm.547-.273c-.092 0-.092.092-.092.092l.092-.092z" fill="#F0D878"/><path d="M48.848 14.671v.092c.092 0 0-.092.092 0 0-.092-.092 0-.092-.092zm.182-1.092h.091c0-.092-.092-.092-.092 0zm.455-.183s0 .092 0 0c0 .092.092.092 0 0zm-.637.456c0 .09.09 0 .09.09.092-.09 0-.09-.09-.09zm-.363-2.278c.092 0 .092 0 .092-.092 0 .092-.092.092-.092.092zm-1.643 14.308c0 .092.092.092 0 0 0 0 0 .092 0 0zm.821.091s.092 0 0 0c.092 0 .092 0 0 0 0-.092.092 0 0 0zm.914-11.574c-.092-.092-.092 0-.092 0s.092.092.092 0zm-2.1 12.121h.091c0-.092-.091-.092-.091 0zm.821-.183s.092 0 .092-.091c0 0-.092 0-.092.091zm1.187.639c.092-.092.183 0 .183-.092-.091 0-.091.092-.183.092zm-1.005-.548c0-.091.09-.091.09-.091-.09-.092-.182 0-.09.09zm.093-.729c-.092 0-.092 0-.183.091.091 0 0 .092.091.092-.091-.183 0-.092.092-.183zm-.55.273c0 .091 0-.091 0 0 .092-.091 0-.091 0 0zm.819 1.185c.091 0 .183 0 .183-.091h-.183c.091 0 0 0 0 .091zm1.459-15.31c-.182.091-.364 0-.364.091v-.09c-.092 0-.092.09-.183.09v-.09h-.09c0 .09.09 0 .09.09 0 .091-.09.091-.09.183.181 0 .546 0 .637-.274zm-.724.092s-.092 0-.092-.092c0 0 0 .092.092.092z" fill="#F0D878"/><path d="M48.663 11.938c.091.092.091 0 .091 0h-.09c0-.09 0-.09 0 0zm.275-.546c-.092 0-.275.092-.275.183.092-.091.183-.091.275-.183zm-2.005 15.857c.092-.092.092-.092.092-.183-.092.091-.183.183-.092.183zM48.21 12.03s.093 0 0 0c0-.092 0-.092 0 0zm-2.461 17.497c0-.091.09-.091.09-.091-.09-.091-.181 0-.09.09zm.728.001c.091 0 .091 0 .183-.092-.092 0-.092 0-.092-.091-.091.091-.091.091-.091.183 0-.092 0-.092 0 0zm.093-17.59c0-.09.091-.09.091 0 0-.182.183 0 .183-.09-.183 0-.274 0-.274.09-.09 0-.09-.09 0 0zm1.272 14.217c0 .092 0 0 0 0h.092s-.092-.092-.092 0zm1.553-13.215c0 .093.091.093 0 0zm-2.188-1.184c-.092 0-.092 0 0 0-.092.092 0 .092 0 0zm.092 17.133c-.092 0-.092-.092-.092 0 0 0 .092.092.092 0zm-.092.181c.091.092.091 0 .091 0 .091-.09 0-.09-.091 0zm-.09.002s.092 0 0 0c.092-.092 0-.092 0-.092v.092z" fill="#F0D878"/><path d="M46.477 29.527c0 .091 0 .091 0 0 .091.091.091 0 .183 0-.092 0-.092.091-.183 0zm3.192-16.586c-.091-.09-.183-.09 0 0-.091.091-.091 0 0 0zm.729.182c0-.092-.092-.092 0 0zm.272-.091h-.092s.092.092.092 0zm-2.19.82s-.09 0-.09.09c0 0 .09 0 .09-.09.092.09-.09.09 0 0zm2.19-1.002h-.092s.092.091.092 0zm-.82.456s.092 0 .092-.092c0 .092-.091 0-.091.092zm-.182-1.55c-.274 0-.091.091 0 0zm.545 1.732s0 .092 0 0-.091 0 0 0c-.091 0-.091 0 0 0zm-.273-.638c0-.183.092-.091.092-.183-.092 0-.092 0-.092.183 0-.091 0 0 0 0zm-.183 14.217c.091-.091.183-.091.183-.274-.092.091-.183.183-.183.274zM48.3 15.675c-.094 0 0 .095 0 0zm1.823.181c-.09 0-.09-.09-.09 0 0 .092.09.092.09 0zm-.183.184c.092 0 .092 0 0 0 .092-.092 0-.092 0-.092v.092zm-1.273-1.642c-.092 0 0 .092 0 .092v-.092zm-.55-.09c0 .091 0 .091 0 0 0 0 0 .091.092.091 0 0 0-.091-.092-.091 0 0 0 .091 0 0zm.82 1.458c0-.091.09-.091.09-.091s-.181.09-.09.09zm1.278.274c0-.092-.092 0-.092 0 0 .091 0-.092.092 0zm-1.825-1.369c-.09 0-.09 0-.09.091-.092 0-.092 0-.092.092l-.09.09h.09c.092 0 0 0 .092-.09 0 .09.182 0 .182 0-.183.09-.091-.091-.091-.183zm.274 1.915c0-.091.09-.091.09-.091-.09 0-.181.09-.09.09zm2.006.365c0-.091.091-.091.091-.183 0 0-.091.092-.091.183zm.183-3.646c-.091.091-.364.182-.547.274 0 .273-.455.09-.455.364a.696.696 0 01.455-.182c.183-.091.274-.091.365-.274h.09c0-.182.365-.182.457-.273-.183-.091-.274 0-.365.091zm0 3.464c0 .091 0 .091 0 0 0 0 .092 0 .092-.092l-.092.092zm.365-3.919c-.09 0-.182.09-.273.09 0 .092 0 .092-.091 0v.092c0 .09 0-.091-.091-.091v.182c.09 0 .09-.091.09-.091.092.09.092 0 .092 0 .091.09.182 0 .273 0 0-.091-.09-.091-.09-.091 0-.092.09 0 .09-.092 0 .091 0 .091.091.091l-.09-.09c0 .09 0-.183 0 0zm-1.368 1.458c.092-.091.184 0 .275-.091-.091-.092-.183-.092-.274.091zm-.093 2.187s.091.091.183 0h-.183zm.275 10.299c0 .091 0 0 0 0 0-.092.092-.092.092-.183-.092.091-.092.183-.092.183zm-.727-10.207c.091 0 .091 0 .183-.092-.092 0-.092 0-.092-.091-.091 0-.091.091-.091.183 0-.092 0-.092 0 0zm-3.1 12.119c0-.091.09-.091.09-.091-.09-.091-.181 0-.09.091zm2.551-2.643s0 .091.092.091l-.092-.09s0-.274 0 0c-.09 0-.182.09-.273 0 0 .09 0 .09-.091 0v.09s0-.09-.091-.09v.182c.09 0 .09-.091.09-.091.092.09.092 0 .092 0 .091.09.182 0 .273.09 0-.09-.09-.09-.09-.09-.092-.183 0 0 .09-.092zm.092.365c0-.09-.091-.09-.091-.09-.092 0 0 0 .09.09-.09 0-.09 0 0 0zm-1.278-7.199s.095.094 0 0zm.457-.729c0-.092 0-.092-.092-.092 0 .092 0 .092.092.092zm-.273.82c0 .091 0-.09 0 0 .091-.09 0-.09 0 0zm.088-.82c.09.09 0 0 0 0 .09-.092 0 0 0-.092v.091zm.275.729v.091c0-.183.092 0 .183-.091h-.183zm.277 5.377c-.092.091-.183.091-.183.183a.197.197 0 00.183-.183zm-.094-.275c-.092 0-.183 0 0 0-.092 0-.092 0 0 0-.274.183 0 0 0 0zm.184-6.013c-.092 0-.092 0 0 0-.092.092 0 .092 0 0zm-.457 6.105c0 .092-.092.092-.092.183.092-.091.183-.183.092-.183z" fill="#F0D878"/><path d="M48.664 24.423c-.091.092-.274.092-.274.275 0-.183.183-.183.274-.275zm-.362-1.183s-.092 0 0 0c-.092-.093-.092 0 0 0-.092 0-.092 0 0 0zm-.181 2.733c-.092-.092-.092 0-.092 0h.092zm-.001-1.095c-.09 0-.09.092-.09.092.09.09.09 0 .09-.092zm-.09 1.277s.091.092.091 0c0 0-.092-.092-.092 0zm.179-2.552c-.092 0-.092 0-.092.092l.092-.092zm.454-3.28s.092.091.092 0c0-.092 0 0-.092 0z" fill="#F0D878"/><path d="M50.49 16.95c-.092-.09 0-.09-.092-.09 0-.092.091 0 .091 0 0-.092-.09 0-.09-.092 0 .091 0 .091-.092 0 0 .091-.091 0 0 .091.091 0 .091 0 .091.091 0 0-.091-.09-.091 0 0-.09 0-.09-.091-.09.091.09-.091 0-.091 0v-.092s-.183-.09-.183 0c-.09-.09-.182 0-.182-.09-.091.09 0 .09-.091.09v-.09c-.091-.092-.091 0-.182 0 0 .09 0 .09.09.09 0 .091-.09 0-.09.091l-.091-.09v-.092c-.092 0-.092.091-.274 0 0 .182-.09-.091-.09.091 0-.09-.092 0-.092-.09 0 0 .091-.092.182 0 0-.183.182-.092.274 0v-.183c-.092.182-.456-.091-.456.182h-.365v.091h-.09v-.09c-.092 0 0 .181-.092.09v.091l-.09-.09c-.092 0-.183-.092-.183-.092.09-.091.273 0 .182-.091h.273c0-.091-.09 0-.182 0 .091-.091.091 0 .091-.091.091.091.091 0 .183.182v-.182l.09.091c0-.091.092 0 .092-.091.091 0 0 .091.091.091 0-.091 0 0 .091 0 0-.091.091 0 .182-.091.091 0 0 .091.091.091-.09.091-.182 0-.09.091l.09-.091v.091c0-.091 0-.091.092-.091.09-.091 0-.091 0-.182.09 0 0 .09 0 .09.09.092.09 0 .09 0v-.09c.092-.091.183.09.183-.091.182 0 .273-.091.365 0 0-.091.09 0 .09-.092v-.182c-.09-.09-.09 0-.182-.091v.182s-.09 0-.182.091c-.091-.09 0-.09 0-.182 0 0-.091.091-.091-.091-.091 0-.091.182-.273 0 0-.091.09-.091.09-.091h-.09c0 .091 0 .091-.092 0-.09.182-.182 0-.273.091-.091 0 0-.091 0-.091-.091-.091-.091 0-.091 0 0 .091.091.091.182.182v.091h-.09s0-.09-.092-.09v.09h-.091c-.091-.09 0-.09 0-.09 0-.092.091 0 .091-.092-.365 0-.638.091-1.002.091.09 0 .182-.09.273-.182-.091.091-.273-.091-.273.091v-.091c-.092 0-.092.091-.092.091v-.182c.092 0 .183-.091.274-.182.09-.092.182-.092.273-.092.091-.09.091-.182.182-.182h.274s-.091-.091 0-.091c.273-.182.547-.273.729-.547-.274.274-.547.182-.82.456-.091-.091-.091.091-.183 0 0 .091.092.091 0 .091h-.09c0-.182-.092-.091-.092-.182a4.45 4.45 0 00-.638.273v.091c-.09 0-.09 0-.182.091 0-.09-.091-.09-.091-.182l.547-.273h.09c.092 0 .092-.091.092-.091v-.091s-.091 0-.091.09h-.091c.09-.09.273-.182.364-.182.091 0 .274 0 .274-.182V14.4c-.092 0-.183-.091-.183 0-.09-.091 0-.091-.09-.091v.182s-.092 0-.092.091c0-.091-.091 0-.091 0V14.4c-.091 0 0 0-.091.09 0 0-.091-.09-.182-.09v.182c0-.091 0-.091-.092-.182 0 .09-.09 0-.09 0v-.091c-.092.09-.274.09-.365.09 0 .092-.182 0-.182.092.273-.091.546-.274.82-.274v-.09c.09 0 .182-.092.182-.092v.091c.091 0 .091 0 .182.091 0 0-.09-.09 0-.09 0-.092-.09 0-.09 0v-.092s.09 0 .09-.09l.091-.092c.091 0 .183-.091.365-.091v.091c.091-.091.182-.182.364-.091 0 0 .091 0 .091-.091.092 0 .092-.091.183 0 0 .09 0 .09-.091.09 0 .092.182 0 .182 0 0-.09 0 0-.091-.09 0-.091.09 0 .09-.091 0 0 .092 0 .092-.091h.091c0 .09-.091 0-.091.09.091.092.091 0 .091.092-.091-.091 0-.182.091-.182v.09c.091.092.091 0 .091 0l-.09-.09c.09-.092.182 0 .182-.092 0-.09-.092 0-.092 0 .092 0 .092-.09.092-.09 0-.092-.092 0-.092 0-.09 0 0-.092-.09-.092 0-.091.09-.091 0-.182v.091h-.092v.091c-.091 0-.182 0-.182.091-.182-.09-.182 0-.274 0 0-.09.092-.09.092-.182-.092.091-.183 0-.274.182-.09-.09-.09-.09-.09 0-.092-.09-.092-.182 0-.182h-.092s0 .091.091.182c-.091-.09-.091.091-.182.091.091-.09.091-.182.091-.182-.091-.091-.182.091-.182.182 0-.09-.091 0-.091 0v.091-.09c-.092 0-.183.09-.274.182l.182-.183c-.09-.09-.182 0-.273 0 0 .091 0 0 .091.091v.092c-.09 0-.09-.091-.09-.091v.09s.09.183.09.092c.091.09 0 .09 0 .09 0-.09-.09 0-.09-.09 0 0-.001.09-.092.09-.091-.09 0-.09 0-.09 0-.091-.091-.091 0-.091-.091 0-.091.09-.091 0v-.183c-.091-.09-.091.091-.091 0 0 .091.09 0 .09.091h-.09c.09.092.09.092.09.183-.09 0 0-.091-.09-.091 0 .09-.274.09-.274 0 0 .09-.09 0 0 .09-.09 0-.09-.09-.09-.09.09 0 .09-.091.181-.091-.09-.092-.182 0-.273 0 0 0 0-.092-.091-.092 0 .091-.091.091-.182.091v.183c-.091-.091-.091.09-.091 0 .09.09-.092.09-.092.182-.09 0 0-.091-.09-.182 0 .09 0 .09-.092.09.091 0 .182-.09.182-.09v-.182h-.09c0-.092-.092-.092-.092-.183v-.09c0 .09-.091 0-.091.09-.091 0-.091 0-.182.091v.091c-.091.092-.183.092-.365 0v-.09s-.091 0-.091-.092c-.091-.09 0-.273 0-.273v.091c0 .091.091 0 .091 0s0-.091-.091-.091v-.091.09c.091-.09.182 0 .182-.09 0 0 0 .09.091.09 0-.181.274-.09.274-.181.09.09.09 0 .09.09.092 0 0 0 0-.09 0 0 .092.182.092.09 0-.09 0 0-.091 0v-.09c.091 0 .273.09.273-.092 0 .092 0 .092.092.183 0-.091 0-.091-.092-.091 0-.183.092 0 .183-.092.09 0 0 .092.09.183v-.183c0-.09.092.092.092 0v.092s.091-.092 0-.092c.091.092.091 0 .182.092.091-.092.091-.092.182 0 0 0-.09-.092 0-.092l-.09-.09s0 .09-.092 0v.09c-.091 0-.273.092-.273-.09v.09-.09c.273-.183.547-.274.82-.456l.547-.274c.182-.09.364-.09.546-.182l.092-.091c-.092 0-.183.091-.274.091-.09.091-.364.091-.455.091-.183.091-.365.182-.638.274v.09c-.365.092-.73.274-1.003.365v-.091.091h-.09v.091h-.092c-.091 0-.091 0-.182.091v-.09h-.091c0 .09-.092-.092-.183 0h.091c0 .09-.09 0-.09.09v-.09h-.092c0-.092 0-.274.091-.274-1.093.182-2.278.364-3.372.456a32.102 32.102 0 01-15.674-2.917c-1.185-.546-2.279-1.184-3.372-1.731-2.188-1.185-4.466-2.37-6.926-3.008-1.094-.273-2.279-.455-3.463-.455h-.547c-.182 0-.365 0-.547.09-.911.092-1.823.365-2.643.639-.638.273-1.276.547-1.822.911-1.732 1.094-3.099 2.643-4.01 4.557.182.273.364.455.638.729.182.182.364.456.546.638.092.09.183.273.274.364l.091.091.547.547c.729.82 1.64 1.64 2.46 2.552.365.364.82.729 1.185 1.094.091.09.273.273.456.364.182.091.273.273.455.365.183.09.274.273.456.364.273.273.547.547.911.73.183.09.274.273.456.364.182.182.365.273.547.455.273.274.547.456.911.73.182.09.274.273.456.364.182.091.364.273.456.364.182.092.364.274.455.365.182.091.365.273.456.364.182.092.364.274.547.365.182.091.364.273.546.365.183.09.365.273.547.364.365.274.73.456 1.094.73.364.273.729.455 1.093.728.547.365 1.094.638 1.732 1.003l.547.273.547.273c.09.092.182.092.364.183.091.09.273.09.364.182l.547.273c.091.091.274.091.365.183.273.09.547.273.82.364.182.091.365.183.456.183.09 0 .09.09.182.09.091.092.273.092.365.183.09 0 .182.091.182.091.09.091.273.091.364.182.091 0 .183.091.274.091.09 0 .182.091.273.091.091.092.273.092.365.183.09 0 .09.09.182.09.091.092.273.092.364.183.091.091.274.091.365.182.091 0 .182.092.273.092.091.09.274.09.365.09.091 0 .182.092.182.092.182.091.273.091.456.182.182.091.364.091.547.182.09 0 .273.091.364.091.091 0 .273.092.365.092.182.09.364.09.546.182.183.091.456.091.638.182.183.091.365.091.638.182.182 0 .365.092.547.092.091 0 .273.09.365.09.182.092.455.092.637.092.092 0 .274.091.365.091.182 0 .274.091.456.091.455.091 1.002.182 1.458.274.456.09 1.002.09 1.458.182.182 0 .456 0 .638.09h4.829s-.091 0-.091-.09h.182c.091-.091 0-.274.182-.274-.09.091-.09.274 0 .274.183 0 .365 0 .456-.091.182 0 .273 0 .456-.091v-.092s.09-.09.09 0v.091h.365-.09c0-.09.09-.09.181-.09v.09h.092c.09 0 .182-.09.182 0 .09 0 .273 0 .364-.09v-.092.091h.183c.09 0 .182 0 .273-.09v-.092c-.091-.091-.091.091-.182-.091 0 .182-.091-.091-.182.091 0-.091-.092 0-.092-.091 0 0 .092-.091.183 0 0-.182.182-.091.273 0v-.182c-.091.09-.364-.183-.456.182h-.273v.091l-.091.091h-.091c0-.09.09 0 .09-.09 0 0-.09 0-.09-.092v.091h-.091v-.091c-.092 0 0 .182-.092.091v.091s0 .091-.09 0c0-.182-.183-.182-.274-.182.091-.091.273 0 .273-.091h.274c0-.091-.091 0-.183-.091h.092s.09 0 .09.09v-.09c.092 0 .092 0 .183-.091v.09c0-.09 0 0 .091 0 0-.09.091 0 .182-.09.092 0 0 .09 0 .09-.09 0-.182 0-.182.092l.091-.091v.09c0-.09.091-.09.091 0 .092-.09 0-.09 0-.181.092 0 0 .09 0 .09.092.092.092 0 .092 0v-.09h.09s.092 0 .092-.092c.182 0 .273-.09.364 0 0-.09.091 0 .091-.09v-.183c-.09-.091-.09 0-.09-.091v.182c-.092 0-.092 0-.183.091-.091-.09 0-.09 0-.182 0 0-.091 0-.091-.091-.091 0-.182.091-.273 0 0-.091.09 0 .09-.091h-.09c0 .09 0 .09-.092 0-.09.182-.182 0-.273 0-.091 0 0-.091 0-.091-.091-.091-.091 0-.091 0 0 .09.09.09.09.182v.091h-.09s0-.091-.091-.091v.091h-.091c-.092-.091 0 0 0-.091s.09 0 .09 0c-.364 0-.728.091-1.093 0l-.091-.091c.091-.091.091-.091.091-.183.091 0 .182.092.273.092l-.182.182c.182 0 .365-.091.456 0 0-.182.091-.182.091-.365.091 0 .182.091.273.091 0-.182-.273 0-.273-.182l.091.091c0-.09.091 0 .182-.09 0 .09 0 .09.092.181 0-.09 0-.09.09-.182.092.091.183.091.183 0 .091 0 0 .091.091.091v.091h.182c.092.092-.09.092 0 .183 0 0 0-.183.092-.091v-.091c.09-.092.09 0 .09-.092 0-.09.092.091.092 0 .09-.09-.091-.09-.091-.09h.182s-.091.09 0 .09c0-.09.091-.09.091 0 .091-.182.273-.09.456-.09v-.092c-.091 0-.091 0-.091-.091v.091c-.183.091-.274 0-.456 0 .091-.091.273 0 .364-.091h-.182c.091-.091.182 0 .182-.091.092 0 0 .091.092.091 0 0 .09 0 .09-.091.092 0 0 .091 0 .091h.092c0-.091.09-.091.09-.182.092 0 0 .09.092.182.091-.091.273-.091.273 0 .092-.091.092 0 .274-.091.091 0-.091 0-.091.091.09 0 .182-.091.364-.091v-.182a.196.196 0 00.182-.183c.092 0 0 .091.092.091.09 0 .09-.09.182-.09.091-.092 0-.092.091-.092s0 .182 0 .182c0 .092-.091-.09-.182.092.09.09.182 0 .273-.092.091 0 .091.092.091.092.091-.092.183-.274.274-.183v-.09c.09-.092.09-.092.182-.092 0-.091.091-.091.091-.182-.091.09-.182 0-.273.09-.091 0 0-.09-.183-.09 0-.183.092-.091.183-.091 0-.091-.091 0-.091-.091 0 .09-.092.09-.092.09 0 .092-.09.092-.09.092.09 0 .09-.091.09 0 0 .09-.09 0-.09.09-.092 0 0-.09-.092-.09.091.09-.091 0-.182.09v-.09c-.091 0-.182 0-.273.09-.092-.09-.183 0-.274-.09-.091.09 0 .09-.091.182v-.091c-.091-.091-.182 0-.273 0 0 .091 0 .091.09.091 0 .091-.09.091-.09.091s-.091-.091-.091 0c-.092-.091 0 0 0-.09-.092 0-.183.09-.274 0 0 .181-.182-.001-.182.09 0-.091-.091 0-.091-.09.09 0 .09-.092.182 0 0-.183.182-.092.364-.092v-.182c-.09.09-.182.09-.364.09-.091 0-.273 0-.273.183h-.274c0 .091 0 .091.091.091l-.09.091h-.183c0-.09.091 0 .091-.09-.091 0-.091 0-.182-.092l-.091.091h-.091v-.09c-.092 0 0 .181-.183.09v.091l-.09.091c0-.182-.183-.182-.274-.182.09-.091.364 0 .273-.09h.274c0-.092-.092 0-.183 0 .091-.092.091-.001.091-.092.092.182.092 0 .183.182.09-.091 0-.091 0-.182.09 0 .09.091.09.091 0-.091.092 0 .092-.091 0 .091-.091.091-.182.091l.182-.091c.091-.091 0 0 .091 0 .091-.091.182-.091.182-.091.091 0 0 .09.091.09-.09.092-.273 0-.182.183.091 0 .091-.09.091-.09l.091.09c.092-.091.092-.09.183-.09.09-.092-.091-.092 0-.183.09 0 0 .09 0 .09.09.092.09 0 .182 0v-.09c.091-.091.273 0 .273-.183.183 0 .274-.182.456-.09 0-.092.091-.092.182-.092 0-.09-.09-.09 0-.182h-.182c-.091 0-.091.091-.182.091v-.091l-.091.091c-.091 0-.183.182-.365.091 0-.09.091-.09.182-.182h-.182c0 .091 0 .091-.091 0-.091.182-.273 0-.365.091-.09 0 0-.091 0-.091h-.09c0 .091.09.091.181.182v.091h-.09s0-.09-.092-.09v.09h-.09c-.092-.09 0-.09 0-.09 0-.092.09 0 .09-.092-.09 0-.273 0-.364.091h-.912c.092-.09.183-.182.365 0 0 0 .091 0 .091-.09.091 0 .182-.092.274 0 0 .09 0 .09-.092.09 0 .091.183 0 .183 0h.09s.092 0 .092-.09h-.091c0-.092 0 0-.091-.092 0-.091.09 0 .09-.091v-.091s.092 0 .092-.091h.091c0 .09-.091 0-.091.09 0 .092.091 0 .091.092 0-.091.091-.182.091-.182v.09c.091.092.091 0 .091 0l-.09-.09c.09-.091.181 0 .273-.091 0-.092-.092 0-.092 0v-.092c.092 0 .092-.09.092-.09 0-.092-.092-.092-.092 0-.09 0 0-.092-.09-.092 0-.091.09-.091 0-.182v.09h-.092v.092c-.091 0-.182 0-.182.091-.091-.182-.182 0-.273 0 0-.09.09-.09.09-.182h-.09l.09-.091h.274s-.091-.091 0-.091c.364-.183.638-.365.82-.638-.09.182-.273.273-.456.364-.182.091-.273.091-.455.274-.091-.092-.091.09-.273 0 0 .09.09.09 0 .09h-.092c0-.182-.09-.09-.09-.182-.274.092-.456.183-.73.274v.091c-.091 0-.182 0-.273.091l.09-.09c-.09-.092-.09 0-.181 0 0 0-.092-.092 0-.183h.182v.09c.091 0 .091-.09.182-.09v.09-.09c.091 0 .182-.091.182-.091v.09c.092.092.091-.182.183-.09 0 0 0-.092-.091-.092.182-.09.273-.182.455-.182.091 0 .274 0 .274-.182v-.182h-.183c.092 0 .092-.091.183-.091-.183.09-.365-.091-.365.09v-.09c-.091 0-.091.09-.182.09v-.09h-.091c0 .09.09 0 .09.09h-.09v.092s0-.091-.091-.091c0 .09-.092 0-.092 0v-.091c-.09.09-.273 0-.364 0-.091.09-.091 0-.182 0h.09s.092-.091.092 0h.182c.091 0 .182 0 .274-.091 0 0 0 .09.09.09v-.09h-.09.182v-.092c.09 0 .09-.09.182-.09v.09c.091 0 .091 0 .091.091 0 0-.09-.09 0-.09 0-.092-.09 0-.09 0V25.7h.09l.091-.09c.092 0 .183-.092.274-.183v.09c.09-.09.182-.181.273-.09 0 0 .091 0 .091-.091.091 0 .091-.091.183-.091v.09c.09 0 .182 0 .182-.09 0-.092 0 0-.091 0 0-.092.09 0 .09-.092 0 0 0-.09.092-.09h.091c0 .09-.091 0-.091.09h.091c-.091 0 0-.182 0-.182v.091h.091s-.09 0-.09-.09c0-.092.09-.092.181-.183-.09-.091 0 0-.09 0 .09 0 0-.091 0-.091-.092-.091-.092 0 0 .09-.092 0 0-.09-.092-.09 0-.091 0-.091-.091-.182 0 0 0 .09.091.09h-.091c0 .092 0 .092.091.092-.091 0-.091.09-.091.09-.182-.09-.091.092-.182.092-.091-.091.09-.091 0-.182-.091.09-.183 0-.183.182-.09 0-.09-.091-.09 0 0 0-.092-.091 0-.091h-.092s0 .091.091.091c-.09 0-.09.091-.182.091.091-.091.091-.182.091-.182-.091-.091-.091.091-.091.182-.091-.091-.091 0-.091 0v.091-.09c-.091 0-.091.09-.182.181.09-.09.09-.09.09-.182h-.181c0 .091 0 0 .09.091v.091c-.09 0-.09-.09-.09-.09v.09s.09.183.09.091c.092.092 0 .092 0 .092 0-.091-.09 0-.09-.091 0 0 0 .09-.092.09-.09-.09 0-.09 0-.09 0-.092-.09-.092-.09-.092s-.092.092-.092 0v-.182c-.091-.091-.091.091-.091 0 0 .091 0 0 .091.091h-.091c.091.091.091.091.091.183-.091 0 0-.092-.091-.092 0 .092-.273.091-.273-.09 0 .09-.092 0 0 .09-.092 0 0-.09-.092-.182h.092v.182s0-.182.09-.09v-.183c0-.091.092.091.092 0s0-.091-.091-.091h.09v.091c0-.091.092 0 0 0 0-.091.092-.091.183 0v-.091l-.091-.091v.09c-.091 0-.182-.09-.273-.09.09-.091.09.09.182 0 0 0-.091 0-.091-.091 0 0 .09 0 .09-.091v.09h.092c0-.09.091 0 .091-.182.091.092 0 .092.091.183 0-.091.091 0 .091.09 0-.09.092 0 .092 0v.092c.09.091.09 0 .182.091v-.182s.09 0 .09-.091v.09h.092v-.09.182c0 .091 0-.091-.091 0 0 .091.091.091.091 0v.091c0-.091.091-.091.091-.091v-.091s.091 0 .091.09c0-.09 0 0 .091-.09 0 .09-.09-.091-.09 0 0-.091 0-.091-.092-.182 0-.092.091 0 .091 0v-.092c0 .092 0 .092-.09 0v.092s.09 0 0 .09c0 0 0-.09-.092 0v-.09c0 .09 0 0-.091 0v-.092l-.091-.09c0-.092-.091-.092-.091-.092l.09-.091s.092.091.092 0c0 0 0-.091-.091-.091v-.091c0 .09-.182 0-.182.09v-.09.09h-.092v.092c0 .091-.09 0-.09.091v-.182h-.092s-.091 0-.091-.091v.09c0 .183-.091-.09-.091.092 0-.091 0 0-.091-.091h.09c0-.091.092-.091.183 0h.091v-.091c-.09.09-.182-.091-.182-.091 0-.092 0-.092.091 0v-.092.092c0 .09.091 0 .091.09v-.09c.091 0 .091.09.183 0h.182s.09 0 .09.09c0-.09.092 0 .092 0v-.182h.091v.092c0 .09 0 0 .091 0 0 0 .091 0 .091-.092.092.092.092 0 .183-.182 0 0-.091.091-.091 0v.091h-.092s0-.09 0 0c0-.09-.182-.182-.182-.09-.091-.092-.182-.092-.182 0 0 0 0-.092-.091 0v-.092h-.182.09s0-.091-.09-.091c-.092.091-.183-.091-.183 0v-.091c0-.091-.09 0-.09 0 0 .09 0 .09.09.182v-.091s.091.091.091 0h-.182l-.091-.091c0-.091 0 0-.091.09h.09-.272c-.092 0-.274 0-.365-.09 0 0 0-.091-.091-.091.091-.091 0-.091.091-.183h.091v.091-.09l.091-.092h.091v.091h.183v.091c0 .092 0 0 .09 0v-.09c.092 0 .274.182.365.09l.092.092h.09c.092.182.183 0 .274.09.091-.09.182-.09.273 0 0 .092 0 .092-.09.183.09 0 .181-.182.273-.091 0-.182 0-.182-.091-.365.09 0 .09 0 .182.091 0-.182-.182 0-.274-.182 0 0 .092 0 .092.091 0-.09.09 0 .09-.09 0 .09 0 .09.092.181v-.182c.09.091.09.091.09 0 .092 0 0 .091.092.091v.091h.091c.091.092 0 .092 0 .183 0 0 0-.182.091-.091v-.183c0-.09.092.091.092 0 0-.09 0-.09-.092-.09h.092v.09c0-.09.09-.09.09 0 0-.182.183-.09.274 0v-.09c-.091 0 0 0-.091-.092v.091c-.091 0-.182 0-.273-.09.09-.092.182 0 .182 0s-.091 0-.091-.092c0-.091.09 0 .09-.091 0 0 0 .091.092.091v-.091.091h.091c0-.091.091-.091 0-.182.091 0 0 .09.091.182 0-.091.091 0 .182 0 0-.091.092 0 .092 0v.091c.09.091.09 0 .182 0v-.182s.09 0 .09-.091c.092 0 0 .09.092.09 0 0 0-.09.091 0v-.09c.091 0 0 .09 0 .182 0 .091-.09-.091-.09 0s.09 0 .09 0 0 .091.091.091c0-.091.091-.182.183-.091v-.091s.09-.091.09 0V22.6c0 .09-.09-.091-.09 0-.092-.091 0-.091-.092-.183 0-.09.092 0 .092 0 0-.09-.092-.09-.092-.09 0 .09 0 .09-.09 0v.09s.09 0 .09.092c0 0-.09-.092-.09 0 0-.092 0-.092-.092-.092.091.092 0 0-.09 0v-.09s-.092-.092-.092 0c-.091-.092-.091 0-.182-.183 0 0 0 .091-.092.091v-.091c-.09-.091-.09 0-.182-.091v.091c0 .091-.09 0 0 .091 0 0 0-.091-.09-.091v-.091c-.092 0-.092.091-.183-.091 0 .182-.091-.091-.091.09 0-.09-.091 0-.091-.09 0 0 .09-.091.09 0v-.091h.092s.091 0 .091.09v-.09h.091v.09s.091 0 .091-.09h.091s.092 0 .092.09c.09-.181.364.092.455 0-.09-.09-.182-.09-.273-.09v-.091c-.182.09-.365.09-.547.09l-.091.092h-.273c-.092 0-.183 0-.183.09h.182v.003h.092v.091h-.183v.182h-.09c0-.09.09 0 .09-.09 0 0-.09 0-.09-.092v.091h-.092v-.091h-.091c-.091 0 0 0 0 0s0 .091-.091.091v.091s0 .091-.091.091a.196.196 0 00-.183-.182c.092 0 .092 0 .092-.091v-.091h.182c0-.091-.091 0-.091-.091s0 0 .09-.091c.092.182.092 0 .092.182v-.182l.091.09v-.09s0 .09.091.09c0-.09 0 0 .091 0 0-.09.092 0 .092-.09v.09s-.183 0-.092.092c0 0 0-.091.092-.091v.09c0-.09 0-.09.09 0v-.181c.092 0 0 .09 0 .09.092.092.092 0 .092.092v-.091c0-.091.182.09.182-.091.091 0 .182-.091.273 0 0 0 .092 0 .092-.091 0 .09.09 0 .09 0 .092.182.183.09.183.182.091-.091 0-.091-.091-.091.09-.091.09.09.09 0 0 0-.09.09 0 .09h.092c-.091 0 0-.09 0-.181v.09c-.091 0-.182 0-.273-.09 0 .09-.092 0-.092 0 0-.092 0-.092-.09-.092v.183-.091c-.092-.092-.092 0-.092-.092v.183h-.09s0-.091-.092 0v-.183s-.091 0-.091-.09c-.091 0-.091.09-.182 0 0-.092.09 0 .09-.092v-.091h-.181c0 .091 0 .091 0 0 0 .091-.183 0-.183 0v-.091h.091v.091c0-.091 0-.091.092-.091h-.092c0-.091-.09-.091-.09 0-.092-.091.09-.091 0-.091 0-.091.09-.091.09-.183 0 0-.09 0 0 .092 0 0 0 .09-.09.09h-.183c-.091-.181-.182 0-.273-.09 0-.091.09 0 .182-.183-.091.091-.182-.09-.365.091v-.09c.091-.092.183-.092.183-.092.09-.09.09-.09.09-.182.092 0 .092.091.183 0 0 0-.091-.091 0-.091s.091-.091.182-.091.091 0 .091-.091c.091 0 .092-.092.092-.092v.091s.182 0 .182-.09h-.09l.09-.092c-.09.091-.182.182-.273.182-.09 0-.09.092-.182.092h-.091.091l-.091-.091v-.092c-.091-.09-.182 0-.182 0h-.091v-.09c-.092 0-.183 0-.183.09v-.09h-.182c.091-.092.182-.092.273-.183h.183c.182 0 .364 0 .455-.091h-.273v-.456h.182c0-.182-.273 0-.273-.182 0 0 .09 0 .09.091 0-.091.092 0 .092-.091 0 .091 0 .091.091.182v.091s0-.09-.09-.09c0-.092 0-.092.09-.092.091.091.182.091.091 0 .091 0 .092.091.092.091v.091c.09 0 .09 0 .182-.09.09 0 0 .09 0 .181 0 0 0-.182.09-.09v-.092c.092-.09.092 0 .092-.182 0-.091.091.091.091 0s-.091-.091-.091-.091h.091v.09c0-.09.091-.09.091 0 0-.09.091-.09.091-.09v.09h.092s0 .092.09.092v-.091c.092 0 .092 0 .183.091v-.091c-.091 0 0 0-.091-.091v.09h-.182.182c-.091 0-.182-.09-.274 0h-.09c.09-.09.181 0 .273-.09-.092 0-.092 0-.183-.091h.182v-.091s0 .09.092.09l.09-.09v.09h.092c0-.09.091-.09.091-.182.091 0 0 .092.091.183 0-.091.183 0 .183 0 .09-.091.09 0 .182-.091-.091 0-.182 0-.182.09v-.09c-.092.182-.274.182-.365.273 0 .273-.364 0-.364.273.182-.182.455-.09.637-.364h.092c0-.182.182-.091.273-.182.091 0 .091-.092.182 0v-.183c.091 0 .091-.09.091-.182.091 0 0 .091.091.091 0 0 .092-.091.092 0v-.091c.09 0 0 .091 0 .182s-.092-.09-.092 0c0 .091.092 0 .183 0 .09 0 0 .091.09.091 0-.09.183-.182.183-.09.73-1.732.73-1.823.73-1.914l.09.09c0-.09.092 0 .092-.09-.092.09-.183-.092-.183 0zm-1.094-.729s-.092.092-.092 0c0 0 .092-.09.092 0zm-.183-.09v.09c-.09-.09 0 0-.09 0v-.09s0 .09.09 0zm0-.274h-.273.273zm-.182.182c0 .091-.091.091-.091 0 0 .091.091 0 .091 0zm-.456.182c.092.092 0 .092 0 0zm-.364 0s0 .092-.091.092c.09-.091.09-.183.09-.092zm1.276-3.098c.09.091 0-.091.09 0 .092 0 0 .091-.09 0 .09 0 .09 0 0 0zm-.091 0c0 .091 0 .091 0 0 0 .091 0 .091 0 0-.092.091 0 .091 0 0zm-1.367.638s-.092 0-.092.091c0-.091 0-.091.092-.091zm-.092-.547c0 .091-.09 0 0 0-.09 0-.09-.091 0 0zm-.273.638c0-.091.182.091.182-.091h.092c-.183.091-.183.182-.274.091 0 .091 0 .091 0 0 0 .091 0 0 0 0zm-.091 0c0 .091-.091.091-.091.091v-.091c-.091-.091 0 .091.091 0zm-.547.182c.091 0 .182 0 .274-.09 0 .09 0 .09.09.09-.181 0-.273.091-.364 0 0 .091 0 .091 0 0zM15.221 8.566c-.273.183-.638.456-1.002.638l-.547.274c-.091.09-.274.09-.365.09-.182 0-.364.092-.547.092h-.91c-.274 0-.548-.091-.821-.182-.182-.091-.365-.091-.456-.183-.182-.09-.273-.182-.455-.273-.274-.182-.456-.456-.638-.73 0 0 0-.09-.091-.09-.092-.091-.092-.182-.183-.182 0-.092-.09-.092-.09-.183v-.182c.273-.456.637-.82 1.093-1.002.09 0 .182-.092.273-.092h.091c.091 0 .182 0 .182-.09h2.097c.182 0 .273.09.455.09h.091c.091.092.274.092.365.183.091.09.273.182.364.273.091.091.183.091.183.182.273.274.546.547.729.912.364.182.364.364.182.455zm28.251 20.87zm.091.455l.091-.182h.091c0 .182-.09.273-.182.182zm2.005-.182s0 .091 0 0c0 .091 0 .182 0 0zm.911-.547s.092 0 .092.091c-.092-.09-.092 0-.092-.09zm-.09-.09c0 .09 0 .09 0 0 0 .09 0 .09 0 0-.092 0-.092.09-.092.09v-.09s0 .09.091 0zm0-.274c-.092 0-.183.09-.274.09.091-.09.273-.09.273-.09zm-.183.182c0 .091-.091.091-.091 0h.091zm-.456.091c.092.091.092.091 0 0 0 .091 0 .091 0 0 0 .091 0 .091 0 0 0 .091 0 0 0 0zm-.09.182s-.092 0 0 0c-.092 0-.092 0 0 0-.092-.09-.092 0 0 0zm-.548.547c0 .091-.09 0-.09 0h.09zm.092-.638c0 .091 0 .091 0 0 0 .091 0 .091 0 0 0 .091 0 .091 0 0zm0 .091s0 .091 0 0zm-.274.091l.091.092c-.09 0-.09.09-.182.09v-.09l.091-.091zm3.828-1.913v.09h-.091c0-.09 0-.181.09-.09zm-.456.182c.091.091.091 0 .182 0 0 0-.273.091-.182 0zm-.547 0c.091 0 0 .091.091.091-.09.182-.182 0-.273 0 0-.091.182 0 .182-.091zm-.729-.091c0 .091.091 0 .091-.091.091.09-.09.273-.182.182.091 0 .091-.091.091-.091zm1.276-1.094c.091 0 .091 0 .182-.09-.09.09-.182 0-.182.181-.091.091 0 0 0-.09zm-.456.365s.092-.091.092 0c0 0-.092.09-.092 0zm0-.091v.09c-.09-.09-.09 0-.09 0v-.09h.09c-.182.09-.182.09 0 0-.09 0-.09 0 0 0zm-.09-.274s-.092 0-.092.091c0-.09-.091 0-.091 0h.091c-.091 0-.091.091-.182 0 0-.09.182-.09.273-.09zm-.183.274l-.091.09c0-.09 0-.182.091-.09zm-.638.182c.091.091 0 0 0 0zm-.456 0l-.09.091c0-.091.09-.182.09-.091zm.456-.82c.091.09.091-.091.091 0 0 .09-.09.09-.09.09.09 0 .09 0 0-.09 0 .09 0 .09 0 0 .09.09 0 0 0 0zm-.091 0c0 .09 0 .09 0 0 0 .09 0 .09 0 0-.091.09 0 .09 0 0zm-1.185 1.913c0-.09 0-.09 0 0 0-.09 0-.09 0 0zm-.09-.273v-.091h.09c.091.091 0 .182-.09.091.09.091.09 0 0 0zm.09.273c.091 0 .091 0 0 0 .091 0 .091 0 0 0zm.73-.182c.09 0 .09-.09 0 0 .09-.09.09-.09 0 0zm.181-.273c.092 0 .092 0 0 0 .092.091.092.091 0 0zm-.273.091c.091 0 .182-.091.182 0s0 .091-.182 0c.091.091 0 .091 0 0zm.182.364h-.182v.092h-.182v-.183c-.091.091-.182.091-.182.091-.091-.09-.091-.09-.183-.09h.274v-.092h.09v.091c0 .091.274 0 .365.091zm-.273-.364s.091.091 0 0c0 .091 0 .091 0 0 0 .091 0 0 0 0zm-.091 0s0 .091 0 0c0 .091 0 .091 0 0 0 .091 0 .091 0 0zm-.091.182h-.091.09zm-.091-.09c.09 0 .09 0 0 0zm.364-.821v.091s.091.091 0 .091c0-.09-.091.091-.091 0 0 0 0-.09.091-.182zm-.273-.365c-.091.091-.091 0-.091 0h.09zm-.091.638c.09 0 .09.091.182.091-.091 0-.091.092-.182.092v-.183zm-.091.638c-.092.091-.092 0-.092 0h.092c-.092 0-.092 0 0 0-.092 0-.092 0 0 0-.092 0-.092 0 0 0zm-.092-1.822c0 .09 0 .09 0 0 0 .09 0 0 0 0zm0 1.184s0 .091 0 0c-.09.091-.09.091-.182.091 0 0-.091-.09 0-.09.091.09.091-.092.182 0zm-.09-.455s0 .09 0 0c-.092.09-.092 0-.092 0h.091zm.82-1.64h.182s-.091 0-.091.09c0-.182 0-.09-.092-.09zm1.366-1.459c0 .091 0 .091-.09.091v-.09c0 .09 0-.092.09 0zm-.273.091c.091 0 .091 0 0 0 .091 0 .091 0 0 0 .091 0 .091.091 0 0 0 0 .091.091 0 0zm-.273.274s0 .09 0 0c0 .09 0 0 0 0zm-.365.182s0 .091 0 0c0 .091 0 .091 0 0zm-.456.273s-.09 0-.09.092c0-.092 0-.092.09-.092zm-.09-.546c0 .09-.092 0 0 0-.092 0-.092-.092 0 0zm-.274.638c.091 0 .182 0 .091-.092h.091c0 .092-.091.092-.182.092 0 .09 0 .09 0 0zm.911-1.367c0 .09 0 .09 0 0 0 .09 0 .09 0 0zm-.182 0c0 .09 0 0 0 0 .091.182-.091.09 0 0zm-.273-.183c0 .091 0 .091.09.091-.09.183-.09 0-.09-.09 0 0 0 .09 0 0zm.729-.82c0 .091-.091 0-.091.091v-.182l.09.091zm-.547.091c0 .091 0 0 0 0 0 .091-.091.091 0 0zm-.182 0c0-.09 0-.09 0 0 0-.09 0-.09 0 0zm.09.091c0-.09 0-.09 0 0 0-.09 0-.09 0 0 0-.09 0-.09 0 0zm0-.455c0 .09 0 .09 0 0 0 0-.09.09-.182.09.092-.09.092-.09.183-.09zm-1.275-.73s0 .092 0 0zm-.274.274c0-.091 0 0 0 0 .183.091.274-.091.274 0h.09v.091c-.09 0-.09 0-.09.091h-.182v.091h-.092c0-.182-.09-.182 0-.273 0 .091 0 0 0 0 0 .091 0 0 0 0zm.365 1.458s0-.091 0 0v-.091s.091 0 0 .091zm0-1.093s0-.092 0 0zm0 .455s0 .091 0 0v.001zm0 1.458v-.09.09zm-.182 1.732s-.092-.091 0-.091c.09 0 0 0 0 .09zm0-1.823c.09 0 0 0 0 0zm0-.729s0-.182 0 0c.09-.091.09 0 0 0 .09 0 .09 0 0 0 .09-.091 0 0 0 0zm0-1.002s.09 0 0 0c.09 0 .09 0 0 0 .09 0 .09 0 0 0zm.09.455c-.09 0-.09 0 0 0-.09 0-.09 0 0 0zm-.273.912c-.09 0-.09 0 0 0zm-.09-1.732c0 .091-.092.091 0 0zm-.547 6.015s0 .091-.092.091c0 0-.09 0-.09.091.09-.091.09-.182.181-.182zm-.183 0c.091-.091.091 0 0 0 .091.091 0 .091 0 .091v-.091zm0 1.093c-.09.092-.182 0 0 0-.09 0-.09 0 0 0zm-.364 1.003s.09-.091.09 0-.09 0-.09 0zm.273.091l-.091-.091c.091.091.091 0 .091.091zm.091-1.002c0-.092 0-.092-.09-.183.09 0 .09-.09.181-.09s.183 0 .274.09c-.091 0-.091 0-.091.091 0 0-.092 0-.092-.09v.09h-.09v.092s0 .09-.092 0zm.182.637c-.09-.09 0-.09-.09-.182v.001c.182.09.182.09.09.181v-.09s.092.09 0 .09zm.183.092c-.091 0 0 .09-.091.09 0-.09 0-.09.09-.09zm-.274.546c.091 0 .091-.09.183-.09v.09c0-.09-.092 0-.183 0zm.274-.637c0 .09.09 0 .182 0 0 .182-.182.09-.182 0zm.182-.456c0-.091 0-.091 0 0 0-.091 0 0 0 0zm0-3.463v-.091h.365c0 .09-.092 0-.092 0 0 .09-.09 0-.09.09-.092-.09-.092.092-.183 0zm.091 2.916c0-.091 0-.091 0 0 0-.091 0-.091 0 0zm.091-.911v-.091.09zm.274.911s-.092 0 0 0c-.092 0-.092.091 0 0-.092.091-.091.091-.091.182 0 0-.092 0-.092-.09 0 0 .092 0 .092-.092h.09c0-.091 0-.091.092-.091l-.091.091c0 .091 0 0 0 0zm0 .182v-.09c.09 0 .09.181 0 .09zm0-.82s-.092 0 0 0c-.092 0-.092 0 0 0 0-.091.09-.091.09-.091 0 .091-.09.091-.09.091zm.182-.364c0-.091-.091-.091 0 0-.091-.091-.091-.091 0 0 0-.091 0-.091 0 0 0-.091 0-.091 0 0zm0-.274c-.091 0 0-.09 0 0-.091 0 0 0 0 0h-.091s.09-.09 0-.09l.09-.092c0 .091-.09.091 0 .182v-.182c.092.091 0 .091 0 .182zm.82-1.914c0 .092 0 .091-.091.091 0-.09 0-.09.091-.09zm-.547.091s.092.092.092 0c0-.09 0-.09 0 0v-.09c.09.09.09 0 .182 0 0 0 0 .09.09.09-.09.092-.181.092-.272.092l-.092-.091c-.09.09-.09.182-.182.182-.091 0-.091-.091-.091 0 0 0-.091 0-.091.09v-.09c-.091 0 0 0-.091.09-.092-.09 0-.09.09-.181.183-.091.274 0 .365-.091zm.274-.82c0 .092 0 .092 0 0 0 .092-.091.092-.091.092v-.092s0 .183.09 0zm-.182.183c-.092 0-.183.09-.274.09.091 0 .182-.09.274-.09-.092 0-.092 0 0 0zm-.365-1.094c.091 0 .091 0 0 0l.091.091c0-.091 0 0-.091 0 .091 0 0-.091 0-.091zm.365 0h-.092v-.091c0 .091-.09.091-.09 0h-.092c0-.091.091 0 .091-.091 0 .09 0 .09.091.182v-.182c0 .09.092.182.092 0v.182c0-.091 0-.091 0 0zm.09-.364v.09h-.09v-.182c0 .091-.092.091-.092.091-.09-.09-.09-.09-.182-.09 0-.092.091 0 .182 0v-.092c.092 0 .092 0 .092.091 0 0 .09-.09.09.091zm-.09-.274s-.092-.091-.092 0c0-.091 0-.091.092 0-.092-.091 0-.091 0 0zm0-.091c0 .091 0 .091 0 0zm-.092.182c-.09-.09 0-.09 0 0zm.183-.182s-.091 0 0 0zm0-.091c0-.091 0 0 0 0zm.09.273c0-.09-.09 0 0 0 0-.09-.09-.09-.09-.09v-.092l.09.091v.091zm.183-.09v-.092c0 .091 0 0 .091 0 0-.091 0 0-.091.091.091 0 .091 0 0 0zm-.091-.639c0-.09 0 0 0 0zm-.091 0c0 .091 0 0 0 0 0 .091 0 .091 0 0v.091h-.091c0-.09 0 0 .09-.09zm-.182-.182c.09.091.09.091 0 0 .09.091 0 .091 0 0zm.09.273c-.09 0-.09 0 0 0-.09 0 0 0 0 0zm-.09.183c.09 0 .09-.092.09-.092l.092-.09c.09 0 .09-.092.09-.092 0-.09 0 0 0 0h.092v.091h-.091s-.091 0 0 .091l.091-.09s-.091 0-.091.09v.092h-.182s-.091 0-.091-.092v.092h-.092v-.092c.183 0 .274.183.092.092l.09.09-.09-.09s0 .09 0 0c0 .09 0 0 0 0zm0-.456v.182c0-.09 0 0-.092 0 .092-.09.092-.091.092-.182zm-.092.364h-.09.09zm-.182-.182s.091 0 0 0v.091-.09zm0 .73c0-.092 0-.092 0 0zm0-.183s-.091 0 0 0c-.091 0 0 0 0 0zm0 .273c-.091 0-.091 0 0 0-.091 0 0 .091 0 .091s0-.09-.091-.09h.091c-.091-.092 0-.092 0 0zm-.091-1.822h.091-.091zm.091.09c0-.09 0-.09 0 0 0-.09 0 0 0 0zm3.28-.546s0 .091 0 0c0 .091 0 .091 0 0 0 0 0-.091 0 0zm-.181 0c0 .091 0 0 0 0 .09.182-.092.091 0 0zm-.365-.091s0 .091.091.091c0 .182-.09 0-.09-.091-.092 0 0 .091 0 0zm-.364-.182c0 .09 0 0 0 0 .09 0 .09.182 0 .09-.092 0 0-.09 0-.09zm.91-.638s0 .09 0 0c0 .09 0 0 0 0zm-.09.09c-.091 0 0 0 0 0zm-.365 0s-.09.092 0 0c-.09 0 0-.09 0 0zm-.09 0c-.092 0-.092 0 0 0h-.092c0-.09 0 0 .091 0zm-.092-.273c-.091 0-.091.092-.182.092 0-.183.182-.183.182-.091zm-.091.092c0 .09-.091.09 0 0-.091.09-.091 0 0 0zm-.182-.274c0 .091 0 .091 0 0zm-.092.091s.092 0 0 0h.092v.091h-.092c.092 0 .092-.09 0-.09l.092.09c-.092 0-.092 0-.092-.09zm-.09 0c-.092 0-.092 0 0 0-.092 0-.092 0 0 0-.092 0-.092 0 0 0zm0 .274c.09.09 0 .09 0 0 0 .09 0 0 0 0zm-.092-.456c0 .091.091-.091.091.091l-.09.091v-.182c0 .091 0 .091 0 0-.092.091-.092 0 0 0 0 .091 0 0 0 0zm0 .091c0 .091-.091-.09-.091 0h-.091v-.09c0 .09.091.09.182.09-.091 0-.091 0 0 0zm-.182-.09c0 .09 0 .09 0 0zm0 .455s0 .09 0 0c0 0 0-.091 0 0zm.364-1.276v.091c0-.091-.09 0 0 0v-.091c-.09 0-.09 0 0 0zm-.182 0c.091.091 0 .091 0 0v.091s-.091.091-.091 0c0 .091.091.091 0 .091h-.091v-.091c.091 0 .091-.091.182-.091zm.365-1.276c-.092 0-.092 0 0 0 0-.091 0-.091 0 0zm0-1.002v.09s.09.092 0 .092c0-.091 0 .091-.092 0 .092-.091.092-.182.092-.182zm-.183.182s.092 0 .092.091c-.092 0-.092.091-.092.091v-.182zm-.364-.912s-.091-.09 0-.182c.091 0 .182.091.273 0 .091.183-.09.183-.09.183h-.183l.091.09c-.091 0-.091 0-.091.092H47.3v.09h-.091c0-.09-.092-.09-.092-.181 0 0 0-.091.092 0v-.091c.09.09.182 0 .273 0zm-.091 1.185c0-.09 0-.182.09-.09-.09 0 0 .09-.09.09zm0-.182c-.091-.091 0-.091-.091-.182 0-.091 0-.091.09-.091v.09-.09c.092.09 0 .09 0 .273v-.091c-.09 0 0 0 0 .091zm0-.456h.09v.091s0-.09-.09-.09zm-.274 1.914s0 .091 0 0c-.09.091-.09 0 0 0-.09 0 0 0 0 0zm-.09-2.187c0 .091-.092 0 0 0zm0 2.37c0 .09 0 .09 0 0 0 .09 0 0 0 0zm0 .364c0 .091 0 .091 0 0 0 .091 0 .091 0 0zm0-.365s.09 0 0 0c.09 0 .09 0 0 0zm0-.546s.09 0 0 0c.09 0 .09 0 0 0 .09.09 0 .09 0 0zm.09-.82s0 .09 0 0c0 .09 0 0 0 0zm.092-1.641s.09 0 .09-.091h.092s-.091 0-.182.091zm.273-.182c.091 0 .091 0 0 0 .091 0 .091 0 0 0 .091 0 .091 0 0 0zm.273-.091c-.09 0-.09.09-.182.09.091-.09.182-.09.182-.09zm.091-.456c0 .091 0 .091 0 0 0 .091 0 .091-.09.091 0 0 0-.091.09-.091zm-.82.182c.091 0 .274.091.365 0 0 0 .09.091.09 0-.09-.09 0-.09 0 0v-.09c.092.09.092 0 .183 0 0 0 0 .09.091.09-.09.091-.182.091-.273.182h-.091l-.091.092h-.091s-.092 0-.092.09v-.09.09c-.182-.181-.09-.273-.09-.364zm0-.638c-.09 0-.09 0 0 0zm-.09.73c.09.09 0 .09.09.09 0 0 0 .092-.09.092v-.183zm-.457.09c.092 0 .183 0 .183-.09h.09c0 .09-.09 0-.09 0 0 .09-.091 0-.091.09-.092-.09-.092.092-.183 0 .091.092.091 0 .091 0zm-.09 5.742v.09c-.092 0-.092 0 0-.09-.092 0-.092-.091 0 0zm-.274-7.838c.091 0 0 0 0 0zm0 5.65h.182l-.091.092s-.091 0-.091-.091zm.091 2.188s.091 0 0 0c.091.09 0 .182 0 .182v-.182zm0-.365s0-.09 0 0c0-.09 0-.09 0 0zm-.091 0c0-.09 0-.09 0 0zm.273.73c0-.092 0-.092 0 0h-.182c0-.092 0 0-.091-.092h.091s0-.09.091-.09c.091.09.091.09.091.181zm0-2.461v-.091.09zm0 1.913c.091 0 .091 0 0 0 .091 0 .091 0 0 0 .091 0 .091 0 0 0zm.183-2.004c0 .09 0 .09 0 0 0 .09 0 .09 0 0h-.092v-.183c.092 0 .183.091.274 0 0 0 .09.091.09 0-.09-.09 0-.09 0 0v-.09c.092.09.092 0 .183 0v.09s-.09 0-.09.091c0 0 .09-.09.09 0-.09.092-.09.092-.182.092h-.091s-.091.09-.182 0c.09.09.09 0 0 0zm.364.273c-.091 0 0 0 0 0zm-.273 1.732s0-.092 0 0l.09.09c-.09 0-.09-.09-.09-.09zm0 .82c.09 0 .09 0 0 0 .09.09 0 0 0 0zm.09-.091c-.09 0-.09 0 0 0zm.274.273s0-.091 0 0c0 0 0-.091 0 0 0-.091 0 0 0 0 0 .091-.09 0 0 0-.09.091-.09.091-.182 0v-.091h-.091v-.091c0-.091.09 0 .09 0-.09-.091-.09 0-.09-.091v-.091c0-.092.09 0 .09-.092l.092.091v-.09c.182.273.091.364.091.455zm-.182-1.458c.091.091 0 .091 0 .182v-.182.182l-.091-.091c.09 0 .09 0 .09-.091-.09 0 0-.091 0 0zm0-.182c.091 0 .091-.091 0 0 .091 0 .091 0 0 0 .091 0 .091 0 0 0zm0 .182s0-.091 0 0c0-.091 0 0 0 0zm.091.273c-.091 0 0 .091-.091.091 0-.09 0-.09.091-.09zm.091.456c-.09 0-.09.091-.182.091.091 0 .091-.182.182-.091zm-.182-1.55s.091-.09 0 0c.091-.09.182-.09.182-.09s-.09.09-.182.09zm.091 1.003c.091.091.091 0 .091 0 .091.182-.09.091-.09 0zm.182.638c0-.091 0-.091 0 0v-.091.091c0-.091 0-.091 0 0zm0-.091s0 .091 0 0c0 .091 0 .091 0 0 0 .091 0 0 0 0zm0 .82v-.091.091zm0-.547c0 .091.092.091.092.091-.092 0-.092-.09-.092-.09 0-.092.091-.092 0 0 0 0 0-.092 0 0zm.092-.638c0-.09 0-.09 0 0v-.182s.09 0 .09.091c-.09 0-.09 0-.09.091zm.182.274c0 .09-.091 0-.091 0h.09zm-.182.182v.091-.09c-.092 0 0 0 0 0zm.455-.273c0 .09 0 .09 0 0zm-.091.09c.091 0 .091 0 0 0 0 .092.091.092.091.183h-.091c0-.091-.091-.091-.091-.091 0-.091 0-.091.091-.091h-.091.091zm.091.365c-.091 0 0 0 0 0l-.091.091h-.091v-.182c0 .091-.091.091-.091.091-.091-.09-.091-.09-.182-.09 0-.092.09-.092.182 0v-.092c.09 0 .09 0 .09.091 0 0 .092 0 .183.091zm-.182-.273c-.091 0 0 0 0 0zm0-.091s-.091 0-.091.09c0-.09 0-.09.09-.09zm-.091.273c0-.09 0 0 0 0-.091-.182 0-.09 0 0zm-.091-.547c0-.09.09-.09 0 0 .09 0 0 0 0 0zm.09-.455v.182c0-.091 0 .091-.09 0 .09 0 0-.091.09-.182zm-.09-.274h-.183s.092-.09.183 0zm-.091-1.002c.09 0 .09 0 0 0 .09 0 .09 0 0 0 .09.091 0 .091 0 0l-.183.182h.091c-.09 0-.09.091-.182.091v.091c-.091 0-.091 0-.182.092 0-.092-.091-.092-.091-.183h.182s-.091 0-.091.091c.09 0 .09-.182.182-.09 0 0 0-.092.091-.092v-.091l.182-.091zm-.092-.365c.091 0 .091 0 0 0 .091 0 .091 0 0 0zm.183-.09c0-.092-.091 0-.091 0v-.183l.09.182c.092 0 .092 0 0 0zm0-.092s.09 0 0 0c.09 0 .09 0 0 0 .09 0 0 0 0 0zm.273-.182c-.091 0 0-.091 0 0l-.091-.091s0 .09.091.09c-.091.092-.182 0 0 0-.091.092-.182.092-.182.092s.09 0 0-.091h-.182v-.091c0-.091.09 0 .09 0-.09-.091-.09 0-.182-.091h.092s.09 0 .09.09c0 0-.09-.09 0-.09 0 .09.092.09.092.09h.09c.092 0 .092 0 .092.092zm-.091-.274c.091 0 .091 0 0 0 .091.092.091.092 0 0 .091.092.091.092 0 0zm.182.547s-.091 0-.091.091c0-.09 0-.09.091-.09zm-.091-.182s-.091-.091 0-.091.091.091 0 .091zm0-1.458c.091.091.091 0 .182 0-.09.182-.273.182-.182 0zm.091 1.002c0-.09 0-.09 0 0 .091-.09.091-.09 0 0zm.638 0h-.091v-.182c0 .091-.091.091-.182.182-.092-.09-.092-.09-.274-.09h.547v.09zm0-.182h-.182c.09-.091.182-.091.182 0zm0-.273c.091 0 0 0 0 0v-.091c.091.09 0 0 .091 0 0 .09 0 .09-.09.09.09 0 0 0 0 0zm.273-.183s-.09 0 0 0c-.09 0-.09 0 0 0-.09-.09 0 0 0-.09v.09zm0-.09c.092-.092.092-.092 0 0zm.274.182s-.091 0 0 0c-.182 0-.091-.092 0 0v-.092.091c0-.09 0-.09 0 0zm.456.182l-.092-.091c0-.091.091.09.091-.091v.182zm.364-.091s0 .09 0 0h.091c0 .09-.182.09-.091 0zm.273 0c-.09-.091 0-.183 0-.091 0 .09.092.09 0 .09z" fill="#F0D878"/><mask id="a" style="mask-type:alpha" maskUnits="userSpaceOnUse" x="4" y="4" width="47" height="27"><path d="M50.49 16.95c-.092-.09 0-.09-.092-.09 0-.092.091 0 .091 0 0-.092-.09 0-.09-.092 0 .091 0 .091-.092 0 0 .091-.091 0 0 .091.091 0 .091 0 .091.091 0 0-.091-.09-.091 0 0-.09 0-.09-.091-.09.091.09-.091 0-.091 0v-.092s-.183-.09-.183 0c-.09-.09-.182 0-.182-.09-.091.09 0 .09-.091.09v-.09c-.091-.092-.091 0-.182 0 0 .09 0 .09.09.09 0 .091-.09 0-.09.091l-.091-.09v-.092c-.092 0-.092.091-.274 0 0 .182-.09-.091-.09.091 0-.09-.092 0-.092-.09 0 0 .091-.092.182 0 0-.183.182-.092.274 0v-.183c-.092.182-.456-.091-.456.182h-.365v.091h-.09v-.09c-.092 0 0 .181-.092.09v.091l-.09-.09c-.092 0-.183-.092-.183-.092.09-.091.273 0 .182-.091h.273c0-.091-.09 0-.182 0 .091-.091.091 0 .091-.091.091.091.091 0 .183.182v-.182l.09.091c0-.091.092 0 .092-.091.091 0 0 .091.091.091 0-.091 0 0 .091 0 0-.091.091 0 .182-.091.091 0 0 .091.091.091-.09.091-.182 0-.09.091l.09-.091v.091c0-.091 0-.091.092-.091.09-.091 0-.091 0-.182.09 0 0 .09 0 .09.09.092.09 0 .09 0v-.09c.092-.091.183.09.183-.091.182 0 .273-.091.365 0 0-.091.09 0 .09-.092v-.182c-.09-.09-.09 0-.182-.091v.182s-.09 0-.182.091c-.091-.09 0-.09 0-.182 0 0-.091.091-.091-.091-.091 0-.091.182-.273 0 0-.091.09-.091.09-.091h-.09c0 .091 0 .091-.092 0-.09.182-.182 0-.273.091-.091 0 0-.091 0-.091-.091-.091-.091 0-.091 0 0 .091.091.091.182.182v.091h-.09s0-.09-.092-.09v.09h-.091c-.091-.09 0-.09 0-.09 0-.092.091 0 .091-.092-.365 0-.638.091-1.002.091.09 0 .182-.09.273-.182-.091.091-.273-.091-.273.091v-.091c-.092 0-.092.091-.092.091v-.182c.092 0 .183-.091.274-.182.09-.092.182-.092.273-.092.091-.09.091-.182.182-.182h.274s-.091-.091 0-.091c.273-.182.547-.273.729-.547-.274.274-.547.182-.82.456-.091-.091-.091.091-.183 0 0 .091.092.091 0 .091h-.09c0-.182-.092-.091-.092-.182a4.45 4.45 0 00-.638.273v.091c-.09 0-.09 0-.182.091 0-.09-.091-.09-.091-.182l.547-.273h.09c.092 0 .092-.091.092-.091v-.091s-.091 0-.091.09h-.091c.09-.09.273-.182.364-.182.091 0 .274 0 .274-.182V14.4c-.092 0-.183-.091-.183 0-.09-.091 0-.091-.09-.091v.182s-.092 0-.092.091c0-.091-.091 0-.091 0V14.4c-.091 0 0 0-.091.09 0 0-.091-.09-.182-.09v.182c0-.091 0-.091-.092-.182 0 .09-.09 0-.09 0v-.091c-.092.09-.274.09-.365.09 0 .092-.182 0-.182.092.273-.091.546-.274.82-.274v-.09c.09 0 .182-.092.182-.092v.091c.091 0 .091 0 .182.091 0 0-.09-.09 0-.09 0-.092-.09 0-.09 0v-.092s.09 0 .09-.09l.091-.092c.091 0 .183-.091.365-.091v.091c.091-.091.182-.182.364-.091 0 0 .091 0 .091-.091.092 0 .092-.091.183 0 0 .09 0 .09-.091.09 0 .092.182 0 .182 0 0-.09 0 0-.091-.09 0-.091.09 0 .09-.091 0 0 .092 0 .092-.091h.091c0 .09-.091 0-.091.09.091.092.091 0 .091.092-.091-.091 0-.182.091-.182v.09c.091.092.091 0 .091 0l-.09-.09c.09-.092.182 0 .182-.092 0-.09-.092 0-.092 0 .092 0 .092-.09.092-.09 0-.092-.092 0-.092 0-.09 0 0-.092-.09-.092 0-.091.09-.091 0-.182v.091h-.092v.091c-.091 0-.182 0-.182.091-.182-.09-.182 0-.274 0 0-.09.092-.09.092-.182-.092.091-.183 0-.274.182-.09-.09-.09-.09-.09 0-.092-.09-.092-.182 0-.182h-.092s0 .091.091.182c-.091-.09-.091.091-.182.091.091-.09.091-.182.091-.182-.091-.091-.182.091-.182.182 0-.09-.091 0-.091 0v.091-.09c-.092 0-.183.09-.274.182l.182-.183c-.09-.09-.182 0-.273 0 0 .091 0 0 .091.091v.092c-.09 0-.09-.091-.09-.091v.09s.09.183.09.092c.091.09 0 .09 0 .09 0-.09-.09 0-.09-.09 0 0-.001.09-.092.09-.091-.09 0-.09 0-.09 0-.091-.091-.091 0-.091-.091 0-.091.09-.091 0v-.183c-.091-.09-.091.091-.091 0 0 .091.09 0 .09.091h-.09c.09.092.09.092.09.183-.09 0 0-.091-.09-.091 0 .09-.274.09-.274 0 0 .09-.09 0 0 .09-.09 0-.09-.09-.09-.09.09 0 .09-.091.181-.091-.09-.092-.182 0-.273 0 0 0 0-.092-.091-.092 0 .091-.091.091-.182.091v.183c-.091-.091-.091.09-.091 0 .09.09-.092.09-.092.182-.09 0 0-.091-.09-.182 0 .09 0 .09-.092.09.091 0 .182-.09.182-.09v-.182h-.09c0-.092-.092-.092-.092-.183v-.09c0 .09-.091 0-.091.09-.091 0-.091 0-.182.091v.091c-.091.092-.183.092-.365 0v-.09s-.091 0-.091-.092c-.091-.09 0-.273 0-.273v.091c0 .091.091 0 .091 0s0-.091-.091-.091v-.091.09c.091-.09.182 0 .182-.09 0 0 0 .09.091.09 0-.181.274-.09.274-.181.09.09.09 0 .09.09.092 0 0 0 0-.09 0 0 .092.182.092.09 0-.09 0 0-.091 0v-.09c.091 0 .273.09.273-.092 0 .092 0 .092.092.183 0-.091 0-.091-.092-.091 0-.183.092 0 .183-.092.09 0 0 .092.09.183v-.183c0-.09.092.092.092 0v.092s.091-.092 0-.092c.091.092.091 0 .182.092.091-.092.091-.092.182 0 0 0-.09-.092 0-.092l-.09-.09s0 .09-.092 0v.09c-.091 0-.273.092-.273-.09v.09-.09c.273-.183.547-.274.82-.456l.547-.274c.182-.09.364-.09.546-.182l.092-.091c-.092 0-.183.091-.274.091-.09.091-.364.091-.455.091-.183.091-.365.182-.638.274v.09c-.365.092-.73.274-1.003.365v-.091.091h-.09v.091h-.092c-.091 0-.091 0-.182.091v-.09h-.091c0 .09-.092-.092-.183 0h.091c0 .09-.09 0-.09.09v-.09h-.092c0-.092 0-.274.091-.274-1.093.182-2.278.364-3.372.456a32.102 32.102 0 01-15.674-2.917c-1.185-.546-2.279-1.184-3.372-1.731-2.188-1.185-4.466-2.37-6.926-3.008-1.094-.273-2.279-.455-3.463-.455h-.547c-.182 0-.365 0-.547.09-.911.092-1.823.365-2.643.639-.638.273-1.276.547-1.822.911-1.732 1.094-3.099 2.643-4.01 4.557.182.273.364.455.638.729.182.182.364.456.546.638.092.09.183.273.274.364l.091.091.547.547c.729.82 1.64 1.64 2.46 2.552.365.364.82.729 1.185 1.094.091.09.273.273.456.364.182.091.273.273.455.365.183.09.274.273.456.364.273.273.547.547.911.73.183.09.274.273.456.364.182.182.365.273.547.455.273.274.547.456.911.73.182.09.274.273.456.364.182.091.364.273.456.364.182.092.364.274.455.365.182.091.365.273.456.364.182.092.364.274.547.365.182.091.364.273.546.365.183.09.365.273.547.364.365.274.73.456 1.094.73.364.273.729.455 1.093.728.547.365 1.094.638 1.732 1.003l.547.273.547.273c.09.092.182.092.364.183.091.09.273.09.364.182l.547.273c.091.091.274.091.365.183.273.09.547.273.82.364.182.091.365.183.456.183.09 0 .09.09.182.09.091.092.273.092.365.183.09 0 .182.091.182.091.09.091.273.091.364.182.091 0 .183.091.274.091.09 0 .182.091.273.091.091.092.273.092.365.183.09 0 .09.09.182.09.091.092.273.092.364.183.091.091.274.091.365.182.091 0 .182.092.273.092.091.09.274.09.365.09.091 0 .182.092.182.092.182.091.273.091.456.182.182.091.364.091.547.182.09 0 .273.091.364.091.091 0 .273.092.365.092.182.09.364.09.546.182.183.091.456.091.638.182.183.091.365.091.638.182.182 0 .365.092.547.092.091 0 .273.09.365.09.182.092.455.092.637.092.092 0 .274.091.365.091.182 0 .274.091.456.091.455.091 1.002.182 1.458.274.456.09 1.002.09 1.458.182.182 0 .456 0 .638.09h4.829s-.091 0-.091-.09h.182c.091-.091 0-.274.182-.274-.09.091-.09.274 0 .274.183 0 .365 0 .456-.091.182 0 .273 0 .456-.091v-.092s.09-.09.09 0v.091h.365-.09c0-.09.09-.09.181-.09v.09h.092c.09 0 .182-.09.182 0 .09 0 .273 0 .364-.09v-.092.091h.183c.09 0 .182 0 .273-.09v-.092c-.091-.091-.091.091-.182-.091 0 .182-.091-.091-.182.091 0-.091-.092 0-.092-.091 0 0 .092-.091.183 0 0-.182.182-.091.273 0v-.182c-.091.09-.364-.183-.456.182h-.273v.091l-.091.091h-.091c0-.09.09 0 .09-.09 0 0-.09 0-.09-.092v.091h-.091v-.091c-.092 0 0 .182-.092.091v.091s0 .091-.09 0c0-.182-.183-.182-.274-.182.091-.091.273 0 .273-.091h.274c0-.091-.091 0-.183-.091h.092s.09 0 .09.09v-.09c.092 0 .092 0 .183-.091v.09c0-.09 0 0 .091 0 0-.09.091 0 .182-.09.092 0 0 .09 0 .09-.09 0-.182 0-.182.092l.091-.091v.09c0-.09.091-.09.091 0 .092-.09 0-.09 0-.181.092 0 0 .09 0 .09.092.092.092 0 .092 0v-.09h.09s.092 0 .092-.092c.182 0 .273-.09.364 0 0-.09.091 0 .091-.09v-.183c-.09-.091-.09 0-.09-.091v.182c-.092 0-.092 0-.183.091-.091-.09 0-.09 0-.182 0 0-.091 0-.091-.091-.091 0-.182.091-.273 0 0-.091.09 0 .09-.091h-.09c0 .09 0 .09-.092 0-.09.182-.182 0-.273 0-.091 0 0-.091 0-.091-.091-.091-.091 0-.091 0 0 .09.09.09.09.182v.091h-.09s0-.091-.091-.091v.091h-.091c-.092-.091 0 0 0-.091s.09 0 .09 0c-.364 0-.728.091-1.093 0l-.091-.091c.091-.091.091-.091.091-.183.091 0 .182.092.273.092l-.182.182c.182 0 .365-.091.456 0 0-.182.091-.182.091-.365.091 0 .182.091.273.091 0-.182-.273 0-.273-.182l.091.091c0-.09.091 0 .182-.09 0 .09 0 .09.092.181 0-.09 0-.09.09-.182.092.091.183.091.183 0 .091 0 0 .091.091.091v.091h.182c.092.092-.09.092 0 .183 0 0 0-.183.092-.091v-.091c.09-.092.09 0 .09-.092 0-.09.092.091.092 0 .09-.09-.091-.09-.091-.09h.182s-.091.09 0 .09c0-.09.091-.09.091 0 .091-.182.273-.09.456-.09v-.092c-.091 0-.091 0-.091-.091v.091c-.183.091-.274 0-.456 0 .091-.091.273 0 .364-.091h-.182c.091-.091.182 0 .182-.091.092 0 0 .091.092.091 0 0 .09 0 .09-.091.092 0 0 .091 0 .091h.092c0-.091.09-.091.09-.182.092 0 0 .09.092.182.091-.091.273-.091.273 0 .092-.091.092 0 .274-.091.091 0-.091 0-.091.091.09 0 .182-.091.364-.091v-.182a.196.196 0 00.182-.183c.092 0 0 .091.092.091.09 0 .09-.09.182-.09.091-.092 0-.092.091-.092s0 .182 0 .182c0 .092-.091-.09-.182.092.09.09.182 0 .273-.092.091 0 .091.092.091.092.091-.092.183-.274.274-.183v-.09c.09-.092.09-.092.182-.092 0-.091.091-.091.091-.182-.091.09-.182 0-.273.09-.091 0 0-.09-.183-.09 0-.183.092-.091.183-.091 0-.091-.091 0-.091-.091 0 .09-.092.09-.092.09 0 .092-.09.092-.09.092.09 0 .09-.091.09 0 0 .09-.09 0-.09.09-.092 0 0-.09-.092-.09.091.09-.091 0-.182.09v-.09c-.091 0-.182 0-.273.09-.092-.09-.183 0-.274-.09-.091.09 0 .09-.091.182v-.091c-.091-.091-.182 0-.273 0 0 .091 0 .091.09.091 0 .091-.09.091-.09.091s-.091-.091-.091 0c-.092-.091 0 0 0-.09-.092 0-.183.09-.274 0 0 .181-.182-.001-.182.09 0-.091-.091 0-.091-.09.09 0 .09-.092.182 0 0-.183.182-.092.364-.092v-.182c-.09.09-.182.09-.364.09-.091 0-.273 0-.273.183h-.274c0 .091 0 .091.091.091l-.09.091h-.183c0-.09.091 0 .091-.09-.091 0-.091 0-.182-.092l-.091.091h-.091v-.09c-.092 0 0 .181-.183.09v.091l-.09.091c0-.182-.183-.182-.274-.182.09-.091.364 0 .273-.09h.274c0-.092-.092 0-.183 0 .091-.092.091-.001.091-.092.092.182.092 0 .183.182.09-.091 0-.091 0-.182.09 0 .09.091.09.091 0-.091.092 0 .092-.091 0 .091-.091.091-.182.091l.182-.091c.091-.091 0 0 .091 0 .091-.091.182-.091.182-.091.091 0 0 .09.091.09-.09.092-.273 0-.182.183.091 0 .091-.09.091-.09l.091.09c.092-.091.092-.09.183-.09.09-.092-.091-.092 0-.183.09 0 0 .09 0 .09.09.092.09 0 .182 0v-.09c.091-.091.273 0 .273-.183.183 0 .274-.182.456-.09 0-.092.091-.092.182-.092 0-.09-.09-.09 0-.182h-.182c-.091 0-.091.091-.182.091v-.091l-.091.091c-.091 0-.183.182-.365.091 0-.09.091-.09.182-.182h-.182c0 .091 0 .091-.091 0-.091.182-.273 0-.365.091-.09 0 0-.091 0-.091h-.09c0 .091.09.091.181.182v.091h-.09s0-.09-.092-.09v.09h-.09c-.092-.09 0-.09 0-.09 0-.092.09 0 .09-.092-.09 0-.273 0-.364.091h-.912c.092-.09.183-.182.365 0 0 0 .091 0 .091-.09.091 0 .182-.092.274 0 0 .09 0 .09-.092.09 0 .091.183 0 .183 0h.09s.092 0 .092-.09h-.091c0-.092 0 0-.091-.092 0-.091.09 0 .09-.091v-.091s.092 0 .092-.091h.091c0 .09-.091 0-.091.09 0 .092.091 0 .091.092 0-.091.091-.182.091-.182v.09c.091.092.091 0 .091 0l-.09-.09c.09-.091.181 0 .273-.091 0-.092-.092 0-.092 0v-.092c.092 0 .092-.09.092-.09 0-.092-.092-.092-.092 0-.09 0 0-.092-.09-.092 0-.091.09-.091 0-.182v.09h-.092v.092c-.091 0-.182 0-.182.091-.091-.182-.182 0-.273 0 0-.09.09-.09.09-.182h-.09l.09-.091h.274s-.091-.091 0-.091c.364-.183.638-.365.82-.638-.09.182-.273.273-.456.364-.182.091-.273.091-.455.274-.091-.092-.091.09-.273 0 0 .09.09.09 0 .09h-.092c0-.182-.09-.09-.09-.182-.274.092-.456.183-.73.274v.091c-.091 0-.182 0-.273.091l.09-.09c-.09-.092-.09 0-.181 0 0 0-.092-.092 0-.183h.182v.09c.091 0 .091-.09.182-.09v.09-.09c.091 0 .182-.091.182-.091v.09c.092.092.091-.182.183-.09 0 0 0-.092-.091-.092.182-.09.273-.182.455-.182.091 0 .274 0 .274-.182v-.182h-.183c.092 0 .092-.091.183-.091-.183.09-.365-.091-.365.09v-.09c-.091 0-.091.09-.182.09v-.09h-.091c0 .09.09 0 .09.09h-.09v.092s0-.091-.091-.091c0 .09-.092 0-.092 0v-.091c-.09.09-.273 0-.364 0-.091.09-.091 0-.182 0h.09s.092-.091.092 0h.182c.091 0 .182 0 .274-.091 0 0 0 .09.09.09v-.09h-.09.182v-.092c.09 0 .09-.09.182-.09v.09c.091 0 .091 0 .091.091 0 0-.09-.09 0-.09 0-.092-.09 0-.09 0V25.7h.09l.091-.09c.092 0 .183-.092.274-.183v.09c.09-.09.182-.181.273-.09 0 0 .091 0 .091-.091.091 0 .091-.091.183-.091v.09c.09 0 .182 0 .182-.09 0-.092 0 0-.091 0 0-.092.09 0 .09-.092 0 0 0-.09.092-.09h.091c0 .09-.091 0-.091.09h.091c-.091 0 0-.182 0-.182v.091h.091s-.09 0-.09-.09c0-.092.09-.092.181-.183-.09-.091 0 0-.09 0 .09 0 0-.091 0-.091-.092-.091-.092 0 0 .09-.092 0 0-.09-.092-.09 0-.091 0-.091-.091-.182 0 0 0 .09.091.09h-.091c0 .092 0 .092.091.092-.091 0-.091.09-.091.09-.182-.09-.091.092-.182.092-.091-.091.09-.091 0-.182-.091.09-.183 0-.183.182-.09 0-.09-.091-.09 0 0 0-.092-.091 0-.091h-.092s0 .091.091.091c-.09 0-.09.091-.182.091.091-.091.091-.182.091-.182-.091-.091-.091.091-.091.182-.091-.091-.091 0-.091 0v.091-.09c-.091 0-.091.09-.182.181.09-.09.09-.09.09-.182h-.181c0 .091 0 0 .09.091v.091c-.09 0-.09-.09-.09-.09v.09s.09.183.09.091c.092.092 0 .092 0 .092 0-.091-.09 0-.09-.091 0 0 0 .09-.092.09-.09-.09 0-.09 0-.09 0-.092-.09-.092-.09-.092s-.092.092-.092 0v-.182c-.091-.091-.091.091-.091 0 0 .091 0 0 .091.091h-.091c.091.091.091.091.091.183-.091 0 0-.092-.091-.092 0 .092-.273.091-.273-.09 0 .09-.092 0 0 .09-.092 0 0-.09-.092-.182h.092v.182s0-.182.09-.09v-.183c0-.091.092.091.092 0s0-.091-.091-.091h.09v.091c0-.091.092 0 0 0 0-.091.092-.091.183 0v-.091l-.091-.091v.09c-.091 0-.182-.09-.273-.09.09-.091.09.09.182 0 0 0-.091 0-.091-.091 0 0 .09 0 .09-.091v.09h.092c0-.09.091 0 .091-.182.091.092 0 .092.091.183 0-.091.091 0 .091.09 0-.09.092 0 .092 0v.092c.09.091.09 0 .182.091v-.182s.09 0 .09-.091v.09h.092v-.09.182c0 .091 0-.091-.091 0 0 .091.091.091.091 0v.091c0-.091.091-.091.091-.091v-.091s.091 0 .091.09c0-.09 0 0 .091-.09 0 .09-.09-.091-.09 0 0-.091 0-.091-.092-.182 0-.092.091 0 .091 0v-.092c0 .092 0 .092-.09 0v.092s.09 0 0 .09c0 0 0-.09-.092 0v-.09c0 .09 0 0-.091 0v-.092l-.091-.09c0-.092-.091-.092-.091-.092l.09-.091s.092.091.092 0c0 0 0-.091-.091-.091v-.091c0 .09-.182 0-.182.09v-.09.09h-.092v.092c0 .091-.09 0-.09.091v-.182h-.092s-.091 0-.091-.091v.09c0 .183-.091-.09-.091.092 0-.091 0 0-.091-.091h.09c0-.091.092-.091.183 0h.091v-.091c-.09.09-.182-.091-.182-.091 0-.092 0-.092.091 0v-.092.092c0 .09.091 0 .091.09v-.09c.091 0 .091.09.183 0h.182s.09 0 .09.09c0-.09.092 0 .092 0v-.182h.091v.092c0 .09 0 0 .091 0 0 0 .091 0 .091-.092.092.092.092 0 .183-.182 0 0-.091.091-.091 0v.091h-.092s0-.09 0 0c0-.09-.182-.182-.182-.09-.091-.092-.182-.092-.182 0 0 0 0-.092-.091 0v-.092h-.182.09s0-.091-.09-.091c-.092.091-.183-.091-.183 0v-.091c0-.091-.09 0-.09 0 0 .09 0 .09.09.182v-.091s.091.091.091 0h-.182l-.091-.091c0-.091 0 0-.091.09h.09-.272c-.092 0-.274 0-.365-.09 0 0 0-.091-.091-.091.091-.091 0-.091.091-.183h.091v.091-.09l.091-.092h.091v.091h.183v.091c0 .092 0 0 .09 0v-.09c.092 0 .274.182.365.09l.092.092h.09c.092.182.183 0 .274.09.091-.09.182-.09.273 0 0 .092 0 .092-.09.183.09 0 .181-.182.273-.091 0-.182 0-.182-.091-.365.09 0 .09 0 .182.091 0-.182-.182 0-.274-.182 0 0 .092 0 .092.091 0-.09.09 0 .09-.09 0 .09 0 .09.092.181v-.182c.09.091.09.091.09 0 .092 0 0 .091.092.091v.091h.091c.091.092 0 .092 0 .183 0 0 0-.182.091-.091v-.183c0-.09.092.091.092 0 0-.09 0-.09-.092-.09h.092v.09c0-.09.09-.09.09 0 0-.182.183-.09.274 0v-.09c-.091 0 0 0-.091-.092v.091c-.091 0-.182 0-.273-.09.09-.092.182 0 .182 0s-.091 0-.091-.092c0-.091.09 0 .09-.091 0 0 0 .091.092.091v-.091.091h.091c0-.091.091-.091 0-.182.091 0 0 .09.091.182 0-.091.091 0 .182 0 0-.091.092 0 .092 0v.091c.09.091.09 0 .182 0v-.182s.09 0 .09-.091c.092 0 0 .09.092.09 0 0 0-.09.091 0v-.09c.091 0 0 .09 0 .182 0 .091-.09-.091-.09 0s.09 0 .09 0 0 .091.091.091c0-.091.091-.182.183-.091v-.091s.09-.091.09 0V22.6c0 .09-.09-.091-.09 0-.092-.091 0-.091-.092-.183 0-.09.092 0 .092 0 0-.09-.092-.09-.092-.09 0 .09 0 .09-.09 0v.09s.09 0 .09.092c0 0-.09-.092-.09 0 0-.092 0-.092-.092-.092.091.092 0 0-.09 0v-.09s-.092-.092-.092 0c-.091-.092-.091 0-.182-.183 0 0 0 .091-.092.091v-.091c-.09-.091-.09 0-.182-.091v.091c0 .091-.09 0 0 .091 0 0 0-.091-.09-.091v-.091c-.092 0-.092.091-.183-.091 0 .182-.091-.091-.091.09 0-.09-.091 0-.091-.09 0 0 .09-.091.09 0v-.091h.092s.091 0 .091.09v-.09h.091v.09s.091 0 .091-.09h.091s.092 0 .092.09c.09-.181.364.092.455 0-.09-.09-.182-.09-.273-.09v-.091c-.182.09-.365.09-.547.09l-.091.092h-.273c-.092 0-.183 0-.183.09h.182v.003h.092v.091h-.183v.182h-.09c0-.09.09 0 .09-.09 0 0-.09 0-.09-.092v.091h-.092v-.091h-.091c-.091 0 0 0 0 0s0 .091-.091.091v.091s0 .091-.091.091a.196.196 0 00-.183-.182c.092 0 .092 0 .092-.091v-.091h.182c0-.091-.091 0-.091-.091s0 0 .09-.091c.092.182.092 0 .092.182v-.182l.091.09v-.09s0 .09.091.09c0-.09 0 0 .091 0 0-.09.092 0 .092-.09v.09s-.183 0-.092.092c0 0 0-.091.092-.091v.09c0-.09 0-.09.09 0v-.181c.092 0 0 .09 0 .09.092.092.092 0 .092.092v-.091c0-.091.182.09.182-.091.091 0 .182-.091.273 0 0 0 .092 0 .092-.091 0 .09.09 0 .09 0 .092.182.183.09.183.182.091-.091 0-.091-.091-.091.09-.091.09.09.09 0 0 0-.09.09 0 .09h.092c-.091 0 0-.09 0-.181v.09c-.091 0-.182 0-.273-.09 0 .09-.092 0-.092 0 0-.092 0-.092-.09-.092v.183-.091c-.092-.092-.092 0-.092-.092v.183h-.09s0-.091-.092 0v-.183s-.091 0-.091-.09c-.091 0-.091.09-.182 0 0-.092.09 0 .09-.092v-.091h-.181c0 .091 0 .091 0 0 0 .091-.183 0-.183 0v-.091h.091v.091c0-.091 0-.091.092-.091h-.092c0-.091-.09-.091-.09 0-.092-.091.09-.091 0-.091 0-.091.09-.091.09-.183 0 0-.09 0 0 .092 0 0 0 .09-.09.09h-.183c-.091-.181-.182 0-.273-.09 0-.091.09 0 .182-.183-.091.091-.182-.09-.365.091v-.09c.091-.092.183-.092.183-.092.09-.09.09-.09.09-.182.092 0 .092.091.183 0 0 0-.091-.091 0-.091s.091-.091.182-.091.091 0 .091-.091c.091 0 .092-.092.092-.092v.091s.182 0 .182-.09h-.09l.09-.092c-.09.091-.182.182-.273.182-.09 0-.09.092-.182.092h-.091.091l-.091-.091v-.092c-.091-.09-.182 0-.182 0h-.091v-.09c-.092 0-.183 0-.183.09v-.09h-.182c.091-.092.182-.092.273-.183h.183c.182 0 .364 0 .455-.091h-.273v-.456h.182c0-.182-.273 0-.273-.182 0 0 .09 0 .09.091 0-.091.092 0 .092-.091 0 .091 0 .091.091.182v.091s0-.09-.09-.09c0-.092 0-.092.09-.092.091.091.182.091.091 0 .091 0 .092.091.092.091v.091c.09 0 .09 0 .182-.09.09 0 0 .09 0 .181 0 0 0-.182.09-.09v-.092c.092-.09.092 0 .092-.182 0-.091.091.091.091 0s-.091-.091-.091-.091h.091v.09c0-.09.091-.09.091 0 0-.09.091-.09.091-.09v.09h.092s0 .092.09.092v-.091c.092 0 .092 0 .183.091v-.091c-.091 0 0 0-.091-.091v.09h-.182.182c-.091 0-.182-.09-.274 0h-.09c.09-.09.181 0 .273-.09-.092 0-.092 0-.183-.091h.182v-.091s0 .09.092.09l.09-.09v.09h.092c0-.09.091-.09.091-.182.091 0 0 .092.091.183 0-.091.183 0 .183 0 .09-.091.09 0 .182-.091-.091 0-.182 0-.182.09v-.09c-.092.182-.274.182-.365.273 0 .273-.364 0-.364.273.182-.182.455-.09.637-.364h.092c0-.182.182-.091.273-.182.091 0 .091-.092.182 0v-.183c.091 0 .091-.09.091-.182.091 0 0 .091.091.091 0 0 .092-.091.092 0v-.091c.09 0 0 .091 0 .182s-.092-.09-.092 0c0 .091.092 0 .183 0 .09 0 0 .091.09.091 0-.09.183-.182.183-.09.73-1.732.73-1.823.73-1.914l.09.09c0-.09.092 0 .092-.09-.092.09-.183-.092-.183 0zm-1.094-.729s-.092.092-.092 0c0 0 .092-.09.092 0zm-.183-.09v.09c-.09-.09 0 0-.09 0v-.09s0 .09.09 0zm0-.274h-.273.273zm-.182.182c0 .091-.091.091-.091 0 0 .091.091 0 .091 0zm-.456.182c.092.092 0 .092 0 0zm-.364 0s0 .092-.091.092c.09-.091.09-.183.09-.092zm1.276-3.098c.09.091 0-.091.09 0 .092 0 0 .091-.09 0 .09 0 .09 0 0 0zm-.091 0c0 .091 0 .091 0 0 0 .091 0 .091 0 0-.092.091 0 .091 0 0zm-1.367.638s-.092 0-.092.091c0-.091 0-.091.092-.091zm-.092-.547c0 .091-.09 0 0 0-.09 0-.09-.091 0 0zm-.273.638c0-.091.182.091.182-.091h.092c-.183.091-.183.182-.274.091 0 .091 0 .091 0 0 0 .091 0 0 0 0zm-.091 0c0 .091-.091.091-.091.091v-.091c-.091-.091 0 .091.091 0zm-.547.182c.091 0 .182 0 .274-.09 0 .09 0 .09.09.09-.181 0-.273.091-.364 0 0 .091 0 .091 0 0zM15.221 8.566c-.273.183-.638.456-1.002.638l-.547.274c-.091.09-.274.09-.365.09-.182 0-.364.092-.547.092h-.91c-.274 0-.548-.091-.821-.182-.182-.091-.365-.091-.456-.183-.182-.09-.273-.182-.455-.273-.274-.182-.456-.456-.638-.73 0 0 0-.09-.091-.09-.092-.091-.092-.182-.183-.182 0-.092-.09-.092-.09-.183v-.182c.273-.456.637-.82 1.093-1.002.09 0 .182-.092.273-.092h.091c.091 0 .182 0 .182-.09h2.097c.182 0 .273.09.455.09h.091c.091.092.274.092.365.183.091.09.273.182.364.273.091.091.183.091.183.182.273.274.546.547.729.912.364.182.364.364.182.455zm28.251 20.87zm.091.455l.091-.182h.091c0 .182-.09.273-.182.182zm2.005-.182s0 .091 0 0c0 .091 0 .182 0 0zm.911-.547s.092 0 .092.091c-.092-.09-.092 0-.092-.09zm-.09-.09c0 .09 0 .09 0 0 0 .09 0 .09 0 0-.092 0-.092.09-.092.09v-.09s0 .09.091 0zm0-.274c-.092 0-.183.09-.274.09.091-.09.273-.09.273-.09zm-.183.182c0 .091-.091.091-.091 0h.091zm-.456.091c.092.091.092.091 0 0 0 .091 0 .091 0 0 0 .091 0 .091 0 0 0 .091 0 0 0 0zm-.09.182s-.092 0 0 0c-.092 0-.092 0 0 0-.092-.09-.092 0 0 0zm-.548.547c0 .091-.09 0-.09 0h.09zm.092-.638c0 .091 0 .091 0 0 0 .091 0 .091 0 0 0 .091 0 .091 0 0zm0 .091s0 .091 0 0zm-.274.091l.091.092c-.09 0-.09.09-.182.09v-.09l.091-.091zm3.828-1.913v.09h-.091c0-.09 0-.181.09-.09zm-.456.182c.091.091.091 0 .182 0 0 0-.273.091-.182 0zm-.547 0c.091 0 0 .091.091.091-.09.182-.182 0-.273 0 0-.091.182 0 .182-.091zm-.729-.091c0 .091.091 0 .091-.091.091.09-.09.273-.182.182.091 0 .091-.091.091-.091zm1.276-1.094c.091 0 .091 0 .182-.09-.09.09-.182 0-.182.181-.091.091 0 0 0-.09zm-.456.365s.092-.091.092 0c0 0-.092.09-.092 0zm0-.091v.09c-.09-.09-.09 0-.09 0v-.09h.09c-.182.09-.182.09 0 0-.09 0-.09 0 0 0zm-.09-.274s-.092 0-.092.091c0-.09-.091 0-.091 0h.091c-.091 0-.091.091-.182 0 0-.09.182-.09.273-.09zm-.183.274l-.091.09c0-.09 0-.182.091-.09zm-.638.182c.091.091 0 0 0 0zm-.456 0l-.09.091c0-.091.09-.182.09-.091zm.456-.82c.091.09.091-.091.091 0 0 .09-.09.09-.09.09.09 0 .09 0 0-.09 0 .09 0 .09 0 0 .09.09 0 0 0 0zm-.091 0c0 .09 0 .09 0 0 0 .09 0 .09 0 0-.091.09 0 .09 0 0zm-1.185 1.913c0-.09 0-.09 0 0 0-.09 0-.09 0 0zm-.09-.273v-.091h.09c.091.091 0 .182-.09.091.09.091.09 0 0 0zm.09.273c.091 0 .091 0 0 0 .091 0 .091 0 0 0zm.73-.182c.09 0 .09-.09 0 0 .09-.09.09-.09 0 0zm.181-.273c.092 0 .092 0 0 0 .092.091.092.091 0 0zm-.273.091c.091 0 .182-.091.182 0s0 .091-.182 0c.091.091 0 .091 0 0zm.182.364h-.182v.092h-.182v-.183c-.091.091-.182.091-.182.091-.091-.09-.091-.09-.183-.09h.274v-.092h.09v.091c0 .091.274 0 .365.091zm-.273-.364s.091.091 0 0c0 .091 0 .091 0 0 0 .091 0 0 0 0zm-.091 0s0 .091 0 0c0 .091 0 .091 0 0 0 .091 0 .091 0 0zm-.091.182h-.091.09zm-.091-.09c.09 0 .09 0 0 0zm.364-.821v.091s.091.091 0 .091c0-.09-.091.091-.091 0 0 0 0-.09.091-.182zm-.273-.365c-.091.091-.091 0-.091 0h.09zm-.091.638c.09 0 .09.091.182.091-.091 0-.091.092-.182.092v-.183zm-.091.638c-.092.091-.092 0-.092 0h.092c-.092 0-.092 0 0 0-.092 0-.092 0 0 0-.092 0-.092 0 0 0zm-.092-1.822c0 .09 0 .09 0 0 0 .09 0 0 0 0zm0 1.184s0 .091 0 0c-.09.091-.09.091-.182.091 0 0-.091-.09 0-.09.091.09.091-.092.182 0zm-.09-.455s0 .09 0 0c-.092.09-.092 0-.092 0h.091zm.82-1.64h.182s-.091 0-.091.09c0-.182 0-.09-.092-.09zm1.366-1.459c0 .091 0 .091-.09.091v-.09c0 .09 0-.092.09 0zm-.273.091c.091 0 .091 0 0 0 .091 0 .091 0 0 0 .091 0 .091.091 0 0 0 0 .091.091 0 0zm-.273.274s0 .09 0 0c0 .09 0 0 0 0zm-.365.182s0 .091 0 0c0 .091 0 .091 0 0zm-.456.273s-.09 0-.09.092c0-.092 0-.092.09-.092zm-.09-.546c0 .09-.092 0 0 0-.092 0-.092-.092 0 0zm-.274.638c.091 0 .182 0 .091-.092h.091c0 .092-.091.092-.182.092 0 .09 0 .09 0 0zm.911-1.367c0 .09 0 .09 0 0 0 .09 0 .09 0 0zm-.182 0c0 .09 0 0 0 0 .091.182-.091.09 0 0zm-.273-.183c0 .091 0 .091.09.091-.09.183-.09 0-.09-.09 0 0 0 .09 0 0zm.729-.82c0 .091-.091 0-.091.091v-.182l.09.091zm-.547.091c0 .091 0 0 0 0 0 .091-.091.091 0 0zm-.182 0c0-.09 0-.09 0 0 0-.09 0-.09 0 0zm.09.091c0-.09 0-.09 0 0 0-.09 0-.09 0 0 0-.09 0-.09 0 0zm0-.455c0 .09 0 .09 0 0 0 0-.09.09-.182.09.092-.09.092-.09.183-.09zm-1.275-.73s0 .092 0 0zm-.274.274c0-.091 0 0 0 0 .183.091.274-.091.274 0h.09v.091c-.09 0-.09 0-.09.091h-.182v.091h-.092c0-.182-.09-.182 0-.273 0 .091 0 0 0 0 0 .091 0 0 0 0zm.365 1.458s0-.091 0 0v-.091s.091 0 0 .091zm0-1.093s0-.092 0 0zm0 .455s0 .091 0 0v.001zm0 1.458v-.09.09zm-.182 1.732s-.092-.091 0-.091c.09 0 0 0 0 .09zm0-1.823c.09 0 0 0 0 0zm0-.729s0-.182 0 0c.09-.091.09 0 0 0 .09 0 .09 0 0 0 .09-.091 0 0 0 0zm0-1.002s.09 0 0 0c.09 0 .09 0 0 0 .09 0 .09 0 0 0zm.09.455c-.09 0-.09 0 0 0-.09 0-.09 0 0 0zm-.273.912c-.09 0-.09 0 0 0zm-.09-1.732c0 .091-.092.091 0 0zm-.547 6.015s0 .091-.092.091c0 0-.09 0-.09.091.09-.091.09-.182.181-.182zm-.183 0c.091-.091.091 0 0 0 .091.091 0 .091 0 .091v-.091zm0 1.093c-.09.092-.182 0 0 0-.09 0-.09 0 0 0zm-.364 1.003s.09-.091.09 0-.09 0-.09 0zm.273.091l-.091-.091c.091.091.091 0 .091.091zm.091-1.002c0-.092 0-.092-.09-.183.09 0 .09-.09.181-.09s.183 0 .274.09c-.091 0-.091 0-.091.091 0 0-.092 0-.092-.09v.09h-.09v.092s0 .09-.092 0zm.182.637c-.09-.09 0-.09-.09-.182v.001c.182.09.182.09.09.181v-.09s.092.09 0 .09zm.183.092c-.091 0 0 .09-.091.09 0-.09 0-.09.09-.09zm-.274.546c.091 0 .091-.09.183-.09v.09c0-.09-.092 0-.183 0zm.274-.637c0 .09.09 0 .182 0 0 .182-.182.09-.182 0zm.182-.456c0-.091 0-.091 0 0 0-.091 0 0 0 0zm0-3.463v-.091h.365c0 .09-.092 0-.092 0 0 .09-.09 0-.09.09-.092-.09-.092.092-.183 0zm.091 2.916c0-.091 0-.091 0 0 0-.091 0-.091 0 0zm.091-.911v-.091.09zm.274.911s-.092 0 0 0c-.092 0-.092.091 0 0-.092.091-.091.091-.091.182 0 0-.092 0-.092-.09 0 0 .092 0 .092-.092h.09c0-.091 0-.091.092-.091l-.091.091c0 .091 0 0 0 0zm0 .182v-.09c.09 0 .09.181 0 .09zm0-.82s-.092 0 0 0c-.092 0-.092 0 0 0 0-.091.09-.091.09-.091 0 .091-.09.091-.09.091zm.182-.364c0-.091-.091-.091 0 0-.091-.091-.091-.091 0 0 0-.091 0-.091 0 0 0-.091 0-.091 0 0zm0-.274c-.091 0 0-.09 0 0-.091 0 0 0 0 0h-.091s.09-.09 0-.09l.09-.092c0 .091-.09.091 0 .182v-.182c.092.091 0 .091 0 .182zm.82-1.914c0 .092 0 .091-.091.091 0-.09 0-.09.091-.09zm-.547.091s.092.092.092 0c0-.09 0-.09 0 0v-.09c.09.09.09 0 .182 0 0 0 0 .09.09.09-.09.092-.181.092-.272.092l-.092-.091c-.09.09-.09.182-.182.182-.091 0-.091-.091-.091 0 0 0-.091 0-.091.09v-.09c-.091 0 0 0-.091.09-.092-.09 0-.09.09-.181.183-.091.274 0 .365-.091zm.274-.82c0 .092 0 .092 0 0 0 .092-.091.092-.091.092v-.092s0 .183.09 0zm-.182.183c-.092 0-.183.09-.274.09.091 0 .182-.09.274-.09-.092 0-.092 0 0 0zm-.365-1.094c.091 0 .091 0 0 0l.091.091c0-.091 0 0-.091 0 .091 0 0-.091 0-.091zm.365 0h-.092v-.091c0 .091-.09.091-.09 0h-.092c0-.091.091 0 .091-.091 0 .09 0 .09.091.182v-.182c0 .09.092.182.092 0v.182c0-.091 0-.091 0 0zm.09-.364v.09h-.09v-.182c0 .091-.092.091-.092.091-.09-.09-.09-.09-.182-.09 0-.092.091 0 .182 0v-.092c.092 0 .092 0 .092.091 0 0 .09-.09.09.091zm-.09-.274s-.092-.091-.092 0c0-.091 0-.091.092 0-.092-.091 0-.091 0 0zm0-.091c0 .091 0 .091 0 0zm-.092.182c-.09-.09 0-.09 0 0zm.183-.182s-.091 0 0 0zm0-.091c0-.091 0 0 0 0zm.09.273c0-.09-.09 0 0 0 0-.09-.09-.09-.09-.09v-.092l.09.091v.091zm.183-.09v-.092c0 .091 0 0 .091 0 0-.091 0 0-.091.091.091 0 .091 0 0 0zm-.091-.639c0-.09 0 0 0 0zm-.091 0c0 .091 0 0 0 0 0 .091 0 .091 0 0v.091h-.091c0-.09 0 0 .09-.09zm-.182-.182c.09.091.09.091 0 0 .09.091 0 .091 0 0zm.09.273c-.09 0-.09 0 0 0-.09 0 0 0 0 0zm-.09.183c.09 0 .09-.092.09-.092l.092-.09c.09 0 .09-.092.09-.092 0-.09 0 0 0 0h.092v.091h-.091s-.091 0 0 .091l.091-.09s-.091 0-.091.09v.092h-.182s-.091 0-.091-.092v.092h-.092v-.092c.183 0 .274.183.092.092l.09.09-.09-.09s0 .09 0 0c0 .09 0 0 0 0zm0-.456v.182c0-.09 0 0-.092 0 .092-.09.092-.091.092-.182zm-.092.364h-.09.09zm-.182-.182s.091 0 0 0v.091-.09zm0 .73c0-.092 0-.092 0 0zm0-.183s-.091 0 0 0c-.091 0 0 0 0 0zm0 .273c-.091 0-.091 0 0 0-.091 0 0 .091 0 .091s0-.09-.091-.09h.091c-.091-.092 0-.092 0 0zm-.091-1.822h.091-.091zm.091.09c0-.09 0-.09 0 0 0-.09 0 0 0 0zm3.28-.546s0 .091 0 0c0 .091 0 .091 0 0 0 0 0-.091 0 0zm-.181 0c0 .091 0 0 0 0 .09.182-.092.091 0 0zm-.365-.091s0 .091.091.091c0 .182-.09 0-.09-.091-.092 0 0 .091 0 0zm-.364-.182c0 .09 0 0 0 0 .09 0 .09.182 0 .09-.092 0 0-.09 0-.09zm.91-.638s0 .09 0 0c0 .09 0 0 0 0zm-.09.09c-.091 0 0 0 0 0zm-.365 0s-.09.092 0 0c-.09 0 0-.09 0 0zm-.09 0c-.092 0-.092 0 0 0h-.092c0-.09 0 0 .091 0zm-.092-.273c-.091 0-.091.092-.182.092 0-.183.182-.183.182-.091zm-.091.092c0 .09-.091.09 0 0-.091.09-.091 0 0 0zm-.182-.274c0 .091 0 .091 0 0zm-.092.091s.092 0 0 0h.092v.091h-.092c.092 0 .092-.09 0-.09l.092.09c-.092 0-.092 0-.092-.09zm-.09 0c-.092 0-.092 0 0 0-.092 0-.092 0 0 0-.092 0-.092 0 0 0zm0 .274c.09.09 0 .09 0 0 0 .09 0 0 0 0zm-.092-.456c0 .091.091-.091.091.091l-.09.091v-.182c0 .091 0 .091 0 0-.092.091-.092 0 0 0 0 .091 0 0 0 0zm0 .091c0 .091-.091-.09-.091 0h-.091v-.09c0 .09.091.09.182.09-.091 0-.091 0 0 0zm-.182-.09c0 .09 0 .09 0 0zm0 .455s0 .09 0 0c0 0 0-.091 0 0zm.364-1.276v.091c0-.091-.09 0 0 0v-.091c-.09 0-.09 0 0 0zm-.182 0c.091.091 0 .091 0 0v.091s-.091.091-.091 0c0 .091.091.091 0 .091h-.091v-.091c.091 0 .091-.091.182-.091zm.365-1.276c-.092 0-.092 0 0 0 0-.091 0-.091 0 0zm0-1.002v.09s.09.092 0 .092c0-.091 0 .091-.092 0 .092-.091.092-.182.092-.182zm-.183.182s.092 0 .092.091c-.092 0-.092.091-.092.091v-.182zm-.364-.912s-.091-.09 0-.182c.091 0 .182.091.273 0 .091.183-.09.183-.09.183h-.183l.091.09c-.091 0-.091 0-.091.092H47.3v.09h-.091c0-.09-.092-.09-.092-.181 0 0 0-.091.092 0v-.091c.09.09.182 0 .273 0zm-.091 1.185c0-.09 0-.182.09-.09-.09 0 0 .09-.09.09zm0-.182c-.091-.091 0-.091-.091-.182 0-.091 0-.091.09-.091v.09-.09c.092.09 0 .09 0 .273v-.091c-.09 0 0 0 0 .091zm0-.456h.09v.091s0-.09-.09-.09zm-.274 1.914s0 .091 0 0c-.09.091-.09 0 0 0-.09 0 0 0 0 0zm-.09-2.187c0 .091-.092 0 0 0zm0 2.37c0 .09 0 .09 0 0 0 .09 0 0 0 0zm0 .364c0 .091 0 .091 0 0 0 .091 0 .091 0 0zm0-.365s.09 0 0 0c.09 0 .09 0 0 0zm0-.546s.09 0 0 0c.09 0 .09 0 0 0 .09.09 0 .09 0 0zm.09-.82s0 .09 0 0c0 .09 0 0 0 0zm.092-1.641s.09 0 .09-.091h.092s-.091 0-.182.091zm.273-.182c.091 0 .091 0 0 0 .091 0 .091 0 0 0 .091 0 .091 0 0 0zm.273-.091c-.09 0-.09.09-.182.09.091-.09.182-.09.182-.09zm.091-.456c0 .091 0 .091 0 0 0 .091 0 .091-.09.091 0 0 0-.091.09-.091zm-.82.182c.091 0 .274.091.365 0 0 0 .09.091.09 0-.09-.09 0-.09 0 0v-.09c.092.09.092 0 .183 0 0 0 0 .09.091.09-.09.091-.182.091-.273.182h-.091l-.091.092h-.091s-.092 0-.092.09v-.09.09c-.182-.181-.09-.273-.09-.364zm0-.638c-.09 0-.09 0 0 0zm-.09.73c.09.09 0 .09.09.09 0 0 0 .092-.09.092v-.183zm-.457.09c.092 0 .183 0 .183-.09h.09c0 .09-.09 0-.09 0 0 .09-.091 0-.091.09-.092-.09-.092.092-.183 0 .091.092.091 0 .091 0zm-.09 5.742v.09c-.092 0-.092 0 0-.09-.092 0-.092-.091 0 0zm-.274-7.838c.091 0 0 0 0 0zm0 5.65h.182l-.091.092s-.091 0-.091-.091zm.091 2.188s.091 0 0 0c.091.09 0 .182 0 .182v-.182zm0-.365s0-.09 0 0c0-.09 0-.09 0 0zm-.091 0c0-.09 0-.09 0 0zm.273.73c0-.092 0-.092 0 0h-.182c0-.092 0 0-.091-.092h.091s0-.09.091-.09c.091.09.091.09.091.181zm0-2.461v-.091.09zm0 1.913c.091 0 .091 0 0 0 .091 0 .091 0 0 0 .091 0 .091 0 0 0zm.183-2.004c0 .09 0 .09 0 0 0 .09 0 .09 0 0h-.092v-.183c.092 0 .183.091.274 0 0 0 .09.091.09 0-.09-.09 0-.09 0 0v-.09c.092.09.092 0 .183 0v.09s-.09 0-.09.091c0 0 .09-.09.09 0-.09.092-.09.092-.182.092h-.091s-.091.09-.182 0c.09.09.09 0 0 0zm.364.273c-.091 0 0 0 0 0zm-.273 1.732s0-.092 0 0l.09.09c-.09 0-.09-.09-.09-.09zm0 .82c.09 0 .09 0 0 0 .09.09 0 0 0 0zm.09-.091c-.09 0-.09 0 0 0zm.274.273s0-.091 0 0c0 0 0-.091 0 0 0-.091 0 0 0 0 0 .091-.09 0 0 0-.09.091-.09.091-.182 0v-.091h-.091v-.091c0-.091.09 0 .09 0-.09-.091-.09 0-.09-.091v-.091c0-.092.09 0 .09-.092l.092.091v-.09c.182.273.091.364.091.455zm-.182-1.458c.091.091 0 .091 0 .182v-.182.182l-.091-.091c.09 0 .09 0 .09-.091-.09 0 0-.091 0 0zm0-.182c.091 0 .091-.091 0 0 .091 0 .091 0 0 0 .091 0 .091 0 0 0zm0 .182s0-.091 0 0c0-.091 0 0 0 0zm.091.273c-.091 0 0 .091-.091.091 0-.09 0-.09.091-.09zm.091.456c-.09 0-.09.091-.182.091.091 0 .091-.182.182-.091zm-.182-1.55s.091-.09 0 0c.091-.09.182-.09.182-.09s-.09.09-.182.09zm.091 1.003c.091.091.091 0 .091 0 .091.182-.09.091-.09 0zm.182.638c0-.091 0-.091 0 0v-.091.091c0-.091 0-.091 0 0zm0-.091s0 .091 0 0c0 .091 0 .091 0 0 0 .091 0 0 0 0zm0 .82v-.091.091zm0-.547c0 .091.092.091.092.091-.092 0-.092-.09-.092-.09 0-.092.091-.092 0 0 0 0 0-.092 0 0zm.092-.638c0-.09 0-.09 0 0v-.182s.09 0 .09.091c-.09 0-.09 0-.09.091zm.182.274c0 .09-.091 0-.091 0h.09zm-.182.182v.091-.09c-.092 0 0 0 0 0zm.455-.273c0 .09 0 .09 0 0zm-.091.09c.091 0 .091 0 0 0 0 .092.091.092.091.183h-.091c0-.091-.091-.091-.091-.091 0-.091 0-.091.091-.091h-.091.091zm.091.365c-.091 0 0 0 0 0l-.091.091h-.091v-.182c0 .091-.091.091-.091.091-.091-.09-.091-.09-.182-.09 0-.092.09-.092.182 0v-.092c.09 0 .09 0 .09.091 0 0 .092 0 .183.091zm-.182-.273c-.091 0 0 0 0 0zm0-.091s-.091 0-.091.09c0-.09 0-.09.09-.09zm-.091.273c0-.09 0 0 0 0-.091-.182 0-.09 0 0zm-.091-.547c0-.09.09-.09 0 0 .09 0 0 0 0 0zm.09-.455v.182c0-.091 0 .091-.09 0 .09 0 0-.091.09-.182zm-.09-.274h-.183s.092-.09.183 0zm-.091-1.002c.09 0 .09 0 0 0 .09 0 .09 0 0 0 .09.091 0 .091 0 0l-.183.182h.091c-.09 0-.09.091-.182.091v.091c-.091 0-.091 0-.182.092 0-.092-.091-.092-.091-.183h.182s-.091 0-.091.091c.09 0 .09-.182.182-.09 0 0 0-.092.091-.092v-.091l.182-.091zm-.092-.365c.091 0 .091 0 0 0 .091 0 .091 0 0 0zm.183-.09c0-.092-.091 0-.091 0v-.183l.09.182c.092 0 .092 0 0 0zm0-.092s.09 0 0 0c.09 0 .09 0 0 0 .09 0 0 0 0 0zm.273-.182c-.091 0 0-.091 0 0l-.091-.091s0 .09.091.09c-.091.092-.182 0 0 0-.091.092-.182.092-.182.092s.09 0 0-.091h-.182v-.091c0-.091.09 0 .09 0-.09-.091-.09 0-.182-.091h.092s.09 0 .09.09c0 0-.09-.09 0-.09 0 .09.092.09.092.09h.09c.092 0 .092 0 .092.092zm-.091-.274c.091 0 .091 0 0 0 .091.092.091.092 0 0 .091.092.091.092 0 0zm.182.547s-.091 0-.091.091c0-.09 0-.09.091-.09zm-.091-.182s-.091-.091 0-.091.091.091 0 .091zm0-1.458c.091.091.091 0 .182 0-.09.182-.273.182-.182 0zm.091 1.002c0-.09 0-.09 0 0 .091-.09.091-.09 0 0zm.638 0h-.091v-.182c0 .091-.091.091-.182.182-.092-.09-.092-.09-.274-.09h.547v.09zm0-.182h-.182c.09-.091.182-.091.182 0zm0-.273c.091 0 0 0 0 0v-.091c.091.09 0 0 .091 0 0 .09 0 .09-.09.09.09 0 0 0 0 0zm.273-.183s-.09 0 0 0c-.09 0-.09 0 0 0-.09-.09 0 0 0-.09v.09zm0-.09c.092-.092.092-.092 0 0zm.274.182s-.091 0 0 0c-.182 0-.091-.092 0 0v-.092.091c0-.09 0-.09 0 0zm.456.182l-.092-.091c0-.091.091.09.091-.091v.182zm.364-.091s0 .09 0 0h.091c0 .09-.182.09-.091 0zm.273 0c-.09-.091 0-.183 0-.091 0 .09.092.09 0 .09z" fill="#F0D878"/></mask><g mask="url(#a)"><path d="M52.04 3.463h-67.621v30.256h67.62V3.463z" fill="url(#paint0_linear_97_14052)"/></g><path d="M47.298 15.675c-.092 0-.092.092 0 0-.092.092 0 .092 0 0zm.001-.912s-.092 0 0 .091c0-.091.092-.091 0-.091zm1.093 3.098c0 .091-.091.091-.091.091.09 0 .182 0 .09-.09zm-1.003-.09c0 .091 0 0 0 0 0-.09 0-.09-.091-.09 0 .09.091.09.091.09zm-1.093 4.648c-.092 0-.092 0-.092.091 0-.092 0 0 .092-.091zm1.185-6.744c-.094 0 0 .095 0 0zm-.548 5.65v-.092c-.091.092 0 .092 0 .092zm2.553-.639s-.091.092-.091.183c.091-.091.091-.091.091-.183zm.09 0c0 .092 0 .092 0 0 0 0 .091 0 0 0 0-.09 0 0 0 0zM48.574 18.5c-.092 0-.092 0 0 0-.092.091 0 0 0 0s-.092 0 0 0zm-.001-.729s-.09 0 0 0c0 .091 0 .091 0 0-.182.182 0 .091 0 0zm-.182.455c-.182-.091-.09.091 0 0zm.549 1.55s-.092-.092-.092 0h.092zm-.277-.091s.091.09.091 0c-.09-.092-.09-.092-.09 0zm.183-1.641c-.091 0-.183 0-.183.091 0-.091.183 0 .183-.091zm-.269.091c-.092 0-.092 0-.092.092.092 0 .092 0 .092-.092zm-1.007 5.379c0-.095 0 0 0 0s.095 0 0 0zm-1.455-.094s0 .092-.092.092c.092-.091.183 0 .092-.091zm1.639.548s.092 0 .092-.091c-.092 0-.092.091-.092.091zm-.456.455c0 .092.091 0 .183.092 0-.092-.092-.092-.183-.092zM46.66 22.6s.091.092.091 0l-.09-.09s.09 0 0 .09c0 0 0-.09 0 0zm.273-.272s-.091.091 0 0c-.091.091 0 .091 0 0zm.365.091c.182-.091.091-.183 0 0zm.182 1.001s.091 0 .091-.09c-.091 0-.091 0-.091.09zm-.182 1.824v.09c.091 0 0-.09.091-.09s0 .09-.091 0zm-.182-2.825c-.091.091.092.091 0 0zm-.912 2.369c.092.092.092 0 .092 0h-.092zm1.096-.091c-.275 0-.092.183 0 0zm-.823-2.734s0-.091 0 0c-.092-.091-.092-.091 0 0zm.366 2.552s-.091 0-.091.09c.091 0 .182-.09.091-.09.091 0 0 0 0 0zm-.002.82c-.182.091-.273.091-.364.182h.09c.092 0 0 0 .092-.09 0 .09.182 0 .182.09-.091.091 0-.09 0-.182zm.366 0c.091.091.091 0 .091.091 0-.091-.091-.091 0-.091h-.091c-.091-.091-.091 0-.273 0v.182c.09 0 0-.09.09-.09.092 0 0 .09.092.09-.091-.09 0-.09.091-.182z" fill="#F0D878"/><path d="M47.57 25.335c0-.091 0-.091-.09-.091-.092 0 0 .09.09.09zm-.089-1.276s-.091 0-.091.091c.091 0 .091 0 .091-.091zm-.456.911c-.091-.09-.091 0-.091 0 0 .091.09.091.09 0zm.092.092c.092-.092 0-.092 0-.092v.092zm1.823 1.093c-.092 0-.183 0-.183.091.091 0 .183 0 .183-.091zm-.55-2.37c.09 0 0 0 0 0 .09-.091.09 0 .09-.091s-.09.091-.09.091zm-2.825-2.095h.091s0-.093-.091 0zm3.009 1.275c-.092 0-.092 0 0 0-.092.092 0 .092 0 0zm.093.183s-.092 0 0 0c-.092.092 0 .092 0 0zm.273.09c-.091.092-.091.183-.182.274-.091.091-.091.182-.183.182 0 .091-.09.183-.182.274-.09.09-.182.09-.182.273a.711.711 0 01.364-.364c.092-.092.183-.274.274-.456 0 0 .091 0 .091-.091-.091-.183.182-.365.182-.456-.09.091-.182.273-.182.364zm-.55.092h.091s0-.092-.091 0c.091-.092 0-.092 0 0zm.273-.365c.091.091 0 .091.091.182.091 0 0-.09 0-.182.091 0 .091-.091.091-.091.183 0 .183-.182.183-.182 0-.092-.091 0-.091 0-.092-.092.09-.092 0-.183 0 0 .09.091.09 0v-.09c0 .09-.273-.183-.09 0-.092.09-.092.181-.183.273.091.273 0 .273-.09.273h.09c0 .091 0 0-.09 0zm-2.001-1.183c0 .091 0 0 0 0 .091-.092.183 0 .183-.092-.092-.091-.092 0-.183-.091v.183s-.092-.092 0 0zm2.368 4.464c0-.092-.092 0-.092.091 0 .092 0-.091.092-.091zm-1.368-4.192c-.092 0-.092 0-.092.092 0 0 .092 0 .092-.092zm-1.092-.274c0-.091 0 0 0 0 0-.091-.092-.091 0 0zm1.272.367c0-.095 0 0 0 0 .095 0 0 0 0 0zm.092.91c-.092 0-.092.091-.092.091h.092c-.092 0 0 0 0-.091zm-1.548 2.459c.09.092.09-.09.09-.09s-.09 0-.09.09zm1.367-2.096s-.095 0 0 0c0 .096-.095 0 0 0z" fill="#F0D878"/><path d="M15.31 8.202c-.181-.365-.364-.638-.728-.912-.182-.182-.365-.273-.638-.364-.365-.182-.73-.274-1.094-.365-.273-.09-.546-.09-.911-.09h-.364c-.456 0-.912.181-1.276.273-.456.182-.912.546-1.094 1.002a.277.277 0 000 .365c.182.273.456.729.82 1.002.274.182.638.365.912.547.273.091.546.182.82.182.455.091.911 0 1.458-.091.364-.091.638-.273 1.002-.456.365-.182.73-.455 1.003-.638.182-.182.182-.364.09-.455zm-.181.273c-.274.182-.547.365-.82.638a3.368 3.368 0 01-1.003.456c-.729.182-1.55.182-2.187-.091a4.257 4.257 0 01-.912-.456c-.364-.273-.637-.638-.82-.911v-.183a1.979 1.979 0 011.003-.911 2.522 2.522 0 011.184-.273c-.09 1.002.092 2.096.365 2.187.273 0 .638-1.094.82-2.096.365.09.73.182 1.094.364.273.091.456.274.638.456.273.182.455.456.546.82v.091c.092-.182.092-.182.092-.09z" fill="#A39041"/><path d="M15.13 8.293s0 .09-.09.09c-.274.183-.548.365-.821.639-.364.182-.638.364-1.002.455-.73.183-1.55.183-2.188-.09a4.256 4.256 0 01-.91-.456c-.365-.274-.639-.638-.821-.912v-.182a1.977 1.977 0 011.002-.911c.365-.183.73-.274 1.185-.274-.091 1.003.091 2.096.365 2.188.273 0 .638-1.094.82-2.097.364.092.729.183 1.093.365.274.091.456.273.638.456.456.09.638.364.73.729 0 0 .09 0 0 0z" fill="#fff"/><path d="M36.088 36.817c1.184-2.37 2.278-4.83 3.463-7.2.09-.273.09-.546-.183-.637-.182-.091-.546-.091-.637.182-1.276 2.552-2.461 5.104-3.737 7.746h1.094v-.09zm-2.824 0c1.184-2.37 2.278-4.83 3.462-7.2.092-.273.092-.546-.182-.637-.182-.091-.546-.091-.638.182l-3.736 7.746h1.093v-.09z" fill="#F0D878"/><defs><linearGradient id="paint0_linear_97_14052" x1="-15.594" y1="18.56" x2="51.989" y2="18.56" gradientUnits="userSpaceOnUse"><stop stop-color="#F0D878"/><stop offset=".156" stop-color="#F0D878"/><stop offset=".391" stop-color="#EDD576"/><stop offset=".57" stop-color="#E3CC6F"/><stop offset=".729" stop-color="#D3BD63"/><stop offset=".877" stop-color="#BCA853"/><stop offset="1" stop-color="#A39041"/></linearGradient></defs></svg>