<svg width="207" height="30" fill="none" xmlns="http://www.w3.org/2000/svg"><path d="M57.562 2.033h3.412v11.69h.073l9.004-11.69h4.066l-10.166 12.78L74.99 29.045h-4.43l-9.512-13.07h-.073v13.07h-3.412V2.033zm20.695 8.641a11.314 11.314 0 012.687-1.234c.944-.29 1.96-.436 2.904-.436a8.1 8.1 0 011.96.218c.582.145 1.09.29 1.526.508.435.218.798.363 1.089.58.29.219.508.364.653.51.436.435.8 1.016 1.162 1.67.363.726.508 1.742.508 3.122v10.31c0 .582 0 1.163.073 1.67 0 .51.073.945.145 1.308h-2.977l-.218-2.687a6.477 6.477 0 01-1.96 2.033c-.872.581-2.033.944-3.558.944-1.598 0-2.977-.435-4.067-1.38-1.089-.943-1.597-2.395-1.597-4.284 0-.943.145-1.815.508-2.686.363-.799.872-1.525 1.598-2.106.726-.58 1.67-1.09 2.904-1.38 1.162-.363 2.614-.508 4.357-.508h1.888v-.871c0-.726-.073-1.38-.145-1.816-.073-.435-.29-.944-.581-1.38-.363-.435-.799-.725-1.38-.943-.58-.218-1.234-.29-1.888-.29-1.016 0-1.96.217-2.904.58-.872.363-1.67.872-2.179 1.525l-.508-2.977zm9.44 8.714c-.29-.073-.654-.073-1.017-.073h-1.234c-1.888 0-3.34.436-4.284 1.234-.944.8-1.38 1.743-1.38 2.905 0 1.09.29 1.888.799 2.541.508.654 1.38.944 2.541.944.726 0 1.307-.145 1.888-.435.581-.29 1.017-.654 1.452-1.09.436-.435.726-1.016.944-1.597a5.45 5.45 0 00.363-1.888v-2.541h-.072zm16.41 9.439c-.363.145-.798.218-1.307.363-.508.073-.944.145-1.379.145-1.525 0-2.615-.363-3.413-1.016-.799-.654-1.162-1.888-1.162-3.631V11.981h-3.122V9.294h3.122V5.228l3.268-.944v5.01h4.066v2.614h-4.066v11.69c0 1.163.145 1.961.435 2.397.291.436.872.726 1.598.726.435 0 .798-.073 1.089-.145a5.07 5.07 0 00.944-.363v2.614h-.073zm5.227-8.713c0 2.323.435 3.993 1.307 5.083.871 1.089 2.251 1.597 4.066 1.597.799 0 1.67-.145 2.469-.508.799-.363 1.525-.726 2.106-1.09l.145 2.978a13.81 13.81 0 01-2.614.871c-.944.218-1.961.29-2.905.29-1.307 0-2.468-.217-3.485-.726-1.017-.508-1.815-1.161-2.469-2.033-.653-.871-1.162-1.96-1.525-3.195-.363-1.234-.508-2.686-.508-4.211 0-1.525.145-2.977.508-4.212.363-1.234.799-2.323 1.452-3.195.654-.871 1.453-1.525 2.397-2.033.944-.508 2.033-.726 3.267-.726 2.251 0 3.994.799 5.156 2.469 1.162 1.67 1.815 3.993 1.815 6.898v1.743h-11.182zm7.915-2.47c0-4.138-1.308-6.171-3.849-6.171a3.79 3.79 0 00-1.525.29c-.508.218-.871.581-1.307 1.017-.363.508-.653 1.089-.871 1.888-.218.799-.363 1.742-.363 2.904h7.915v.073zm7.116-15.611h3.34v11.69h.146l8.931-11.69h4.066l-10.165 12.78 11.037 14.232h-4.43l-9.439-13.07h-.146v13.07h-3.34V2.033zm32.385 22.728c0 .726 0 1.452.072 2.178.073.727.073 1.38.073 2.106h-3.122l-.146-2.977h-.072c-.509 1.162-1.162 1.96-2.033 2.469-.799.508-1.816.726-2.978.726-1.742 0-3.122-.508-4.211-1.525-1.089-1.016-1.598-2.614-1.598-4.792V9.294h3.268v12.78c0 1.598.29 2.687.799 3.413.581.726 1.379 1.09 2.396 1.09 1.307 0 2.324-.436 3.05-1.308.726-.871 1.089-2.25 1.089-3.993V9.294h3.267v15.467h.146zM165.029 0h-3.267v29.045h3.267V0zm8.786 5.011h-3.558V1.163h3.558V5.01zm-3.413 4.284h3.268v19.751h-3.268V9.296zm7.407 15.902c.726.435 1.525.799 2.251 1.089.798.29 1.525.436 2.396.436 1.234 0 2.178-.29 2.832-.8.653-.58.944-1.233.944-1.96 0-.653-.218-1.234-.581-1.742-.363-.509-1.017-.944-1.961-1.38l-2.178-.944c-1.452-.654-2.396-1.307-2.977-2.106-.581-.726-.872-1.742-.872-2.977 0-.799.146-1.525.436-2.25a4.668 4.668 0 011.307-1.816c.581-.508 1.235-.872 2.033-1.235.799-.29 1.67-.435 2.614-.435.799 0 1.598.072 2.251.217.727.146 1.307.29 1.888.509l-.145 2.76a9.78 9.78 0 00-1.743-.582 9.85 9.85 0 00-2.105-.218c-1.09 0-1.888.29-2.469.8-.509.507-.799 1.16-.799 1.96 0 .798.29 1.452.871 1.96s1.38.944 2.469 1.38l1.162.436c1.234.508 2.178 1.161 2.832 1.96.726.799 1.017 1.815 1.017 3.05 0 .871-.146 1.67-.364 2.396a5.207 5.207 0 01-1.089 1.96c-.508.509-1.162.945-1.96 1.308a8.331 8.331 0 01-2.905.508c-1.016 0-2.033-.073-2.904-.29-.872-.218-1.743-.509-2.469-.872l.218-3.122zM192.985 0h3.268v11.981h.073c.435-.799 1.089-1.525 1.887-2.106.799-.58 1.816-.871 2.978-.871 1.742 0 3.122.508 4.211 1.525 1.089 1.017 1.598 2.614 1.598 4.792v13.724h-3.268v-12.78c0-1.597-.29-2.686-.799-3.413-.581-.726-1.379-1.089-2.396-1.089-1.307 0-2.324.436-3.05 1.307-.726.872-1.089 2.251-1.089 3.994v11.909h-3.267V0h-.146z" fill="#fff"/><path d="M5.736 4.647c-1.089.871-2.033 1.96-2.686 3.267C1.38 5.954.363 4.43 0 3.921v-.073s0-.073.073-.073l5.663.872z" fill="#A39041"/><path d="M39.573 11.473c.073-.073.146-.073.146-.146-.073.073-.146.073-.146.146zm.147-.363c-.072 0-.072 0 0 0-.072 0-.072 0 0 0-.216.072 0 .072 0 0zm-.218 0c0 .073-.073.073-.146.146.073 0 .22-.073.146-.146zm-2.397-1.235c0 .072.072 0 .072 0 0-.072-.072 0-.072 0zm-.363.145c.073 0 .145-.072.29-.072-.072-.073-.217 0-.29.072zm1.235.219c-.073 0 0 .072-.073.072h.073c0-.072.073 0 0-.072zm.289-.654s.073 0 0 0c.073-.073.073-.073.073-.146 0 0 0 .073-.073.146 0-.073-.073-.146-.073-.146.073.073 0 .146-.073.146h.146c-.073 0-.073 0 0 0zm.512 2.179c.072.073.072 0 .072.073 0-.073-.072-.073 0-.073 0-.073 0-.073-.072 0 0-.073-.073 0-.146 0v.146c.073 0 0-.073.073-.073s0 .073.073.073c-.073-.073 0-.073 0-.146zm.288-.001c0-.073 0-.073-.073-.073 0 0 0 .073.073.073zm.436-.218c-.072 0-.072.073-.072.073l.072-.073z" fill="#F0D878"/><path d="M38.922 11.69v.073c.072 0 0-.073.072 0 0-.073-.072 0-.072-.073zm.143-.87h.073c0-.073-.073-.073-.073 0zm.365-.146s0 .075 0 0c0 .075.075.075 0 0zm-.508.363c0 .071.072 0 .072.071.072-.071 0-.071-.072-.071zm-.29-1.815c.072 0 .072 0 .072-.073 0 .073-.072.073-.072.073zm-1.309 11.4c0 .075.075.075 0 0 0 0 0 .075 0 0zm.654.073s.075 0 0 0c.075 0 .075 0 0 0 0-.075.075 0 0 0zm.727-9.222c-.072-.072-.072 0-.072 0s.072.073.072 0zm-1.672 9.657h.073c0-.072-.073-.072-.073 0zm.656-.145s.072 0 .072-.073c0 0-.072 0-.072.073zm.944.509c.073-.073.146 0 .146-.073-.073 0-.073.073-.146.073zm-.802-.438c0-.072.073-.072.073-.072-.072-.072-.144 0-.072.072zm.075-.579c-.073 0-.073 0-.146.073.073 0 0 .073.073.073-.073-.146 0-.073.073-.146zm-.438.217c0 .072 0-.072 0 0 .072-.072 0-.072 0 0zm.653.946c.073 0 .146 0 .146-.074h-.146c.073 0 0 0 0 .073zm1.163-12.201c-.145.073-.29 0-.29.073v-.073c-.073 0-.073.073-.146.073v-.073h-.073c0 .073.073 0 .073.073 0 .072-.073.072-.073.145.146 0 .436 0 .509-.218zm-.579.072s-.072 0-.072-.072c0 0 0 .072.072.072z" fill="#F0D878"/><path d="M38.774 9.512c.072.072.072 0 .072 0h-.072c0-.072 0-.072 0 0zm.219-.435c-.073 0-.219.073-.219.145.073-.072.146-.072.22-.145zm-1.598 12.635c.073-.073.073-.073.073-.146-.073.073-.146.146-.073.146zm1.018-12.126s.075 0 0 0c0-.075 0-.075 0 0zm-1.961 13.94c0-.072.072-.072.072-.072-.072-.072-.144 0-.072.072zm.58.001c.073 0 .073 0 .146-.073-.073 0-.073 0-.073-.073-.073.073-.073.073-.073.146 0-.073 0-.073 0 0zm.074-14.015c0-.073.073-.073.073 0 0-.146.145 0 .145-.073-.145 0-.218 0-.218.073-.072 0-.072-.073 0 0zM38.12 20.84c0 .072 0 0 0 0h.073s-.073-.073-.073 0zm1.236-10.528c0 .074.075.074 0 0zm-1.741-.945c-.075 0-.075 0 0 0-.075.075 0 .075 0 0zm.071 13.651c-.073 0-.073-.072-.073 0 0 0 .073.072.073 0zm-.073.144c.072.072.072 0 .072 0 .072-.072 0-.072-.072 0zm-.071.002s.072 0 0 0c.072-.072 0-.072 0-.072v.072zm-.51.363c0 .073 0 .073 0 0 .073.073.073 0 .146 0-.073 0-.073.073-.146 0zm2.542-13.217c-.072-.071-.144-.071 0 0-.072.073-.072 0 0 0zm.584.147c0-.074-.075-.074 0 0zm.213-.073H40.3s.072.072.072 0zm-1.742.653s-.072 0-.072.071c0 0 .072 0 .072-.071.071.071-.072.071 0 0zm1.742-.798H40.3s.072.072.072 0zm-.651.362s.072 0 .072-.072c0 .072-.072 0-.072.072zm-.145-1.234c-.22 0-.073.073 0 0zm.438 1.38s0 .075 0 0-.075 0 0 0c-.075 0-.075 0 0 0zm-.22-.507c0-.146.073-.073.073-.146-.073 0-.073 0-.073.146 0-.073 0 0 0 0zm-.146 11.327c.072-.073.145-.073.145-.219-.073.073-.145.146-.145.219zm-1.161-9.077c-.078 0 0 .078 0 0zm1.45.144c-.072 0-.072-.072-.072 0s.072.072.072 0zm-.143.146c.072 0 .072 0 0 0 .072-.072 0-.072 0-.072v.072zm-1.016-1.307c-.072 0 0 .073 0 .073v-.073zm-.438-.073c0 .072 0 .072 0 0 0 0 0 .072.072.072 0 0 0-.072-.072-.072 0 0 0 .072 0 0zm.653 1.162c0-.072.072-.072.072-.072s-.144.072-.072.072zm1.018.218c0-.072-.072 0-.072 0 0 .073 0-.072.072 0zm-1.453-1.09c-.073 0-.073 0-.073.073-.073 0-.073 0-.073.073l-.072.072h.072c.073 0 0 0 .073-.072 0 .072.145 0 .145 0-.145.072-.072-.073-.072-.146zm.218 1.524c0-.071.072-.071.072-.071-.072 0-.144.071-.072.071zm1.598.292c0-.073.073-.073.073-.146 0 0-.073.073-.073.146zm.146-2.905c-.073.073-.291.145-.436.218 0 .218-.363.073-.363.29a.555.555 0 01.363-.145c.145-.072.218-.072.29-.218h.073c0-.145.29-.145.363-.217-.145-.073-.218 0-.29.072zm0 2.759c0 .073 0 .073 0 0 0 0 .073 0 .073-.072l-.073.072zm.291-3.122c-.072 0-.145.073-.218.073 0 .072 0 .072-.072 0v.072c0 .073 0-.072-.073-.072v.145c.073 0 .073-.073.073-.073.072.073.072 0 .072 0 .073.073.146 0 .218 0 0-.072-.072-.072-.072-.072 0-.073.072 0 .072-.073 0 .073 0 .073.073.073l-.073-.073c0 .073 0-.145 0 0zm-1.09 1.163c.073-.073.145 0 .218-.073-.073-.073-.145-.073-.218.073zm-.073 1.742s.072.072.145 0h-.145zm.217 8.205c0 .073 0 0 0 0 0-.072.073-.072.073-.145-.073.073-.073.145-.073.145zm-.58-8.132c.073 0 .073 0 .146-.073-.073 0-.073 0-.073-.073-.073 0-.073.073-.073.146 0-.073 0-.073 0 0zm-2.469 9.656c0-.072.072-.072.072-.072-.072-.072-.144 0-.072.072zm2.033-2.105s0 .073.073.073l-.073-.073s0-.218 0 0c-.072 0-.145.073-.217 0 0 .073 0 .073-.073 0v.073s0-.073-.073-.073v.146c.073 0 .073-.073.073-.073.073.072.073 0 .073 0 .072.072.145 0 .217.073 0-.073-.072-.073-.072-.073-.073-.145 0 0 .072-.073zm.073.29c0-.072-.072-.072-.072-.072-.072 0 0 0 .072.072-.072 0-.072 0 0 0zm-1.017-5.735s.079.078 0 0zm.362-.582c0-.072 0-.072-.073-.072 0 .072 0 .072.073.072zm-.216.654c0 .072 0-.072 0 0 .073-.072 0-.072 0 0zm.07-.654c.073.073 0 0 0 0 .073-.072 0 0 0-.072v.072zm.219.582v.073c0-.146.073 0 .146-.073h-.146zm.22 4.284c-.073.073-.146.073-.146.146a.157.157 0 00.146-.146zm-.076-.218c-.072 0-.144 0 0 0-.072 0-.072 0 0 0-.216.144 0 0 0 0zm.15-4.793c-.075 0-.075 0 0 0-.075.075 0 .075 0 0zm-.367 4.865c0 .074-.073.074-.073.147.073-.073.146-.146.073-.146z" fill="#F0D878"/><path d="M38.775 19.46c-.073.074-.218.074-.218.22 0-.146.145-.146.218-.22zm-.287-.943s-.075 0 0 0c-.075-.075-.075 0 0 0-.075 0-.075 0 0 0zm-.146 2.177c-.072-.072-.072 0-.072 0h.072zm-.001-.871c-.072 0-.072.072-.072.072.072.072.072 0 .072-.072zm-.071 1.017s.072.072.072 0c0 0-.072-.073-.072 0zm.141-2.033c-.072 0-.072 0-.072.072l.072-.072zm.363-2.615s.073.073.073 0c0-.072 0 0-.073 0z" fill="#F0D878"/><path d="M40.227 13.506c-.073-.073 0-.073-.073-.073 0-.072.073 0 .073 0 0-.072-.073 0-.073-.072 0 .072 0 .072-.072 0 0 .072-.073 0 0 .072.072 0 .072 0 .072.073 0 0-.072-.073-.072 0 0-.073 0-.073-.073-.073.073.073-.072 0-.072 0v-.072s-.146-.073-.146 0c-.072-.073-.145 0-.145-.073-.072.073 0 .073-.072.073v-.073c-.073-.072-.073 0-.146 0 0 .073 0 .073.073.073 0 .072-.073 0-.073.072l-.072-.072v-.073c-.073 0-.073.073-.218 0 0 .145-.073-.072-.073.073 0-.073-.072 0-.072-.073 0 0 .072-.072.145 0 0-.145.145-.072.218 0v-.145c-.073.145-.363-.073-.363.145h-.291v.073h-.072v-.073c-.073 0 0 .145-.073.073v.072l-.073-.072c-.072 0-.145-.073-.145-.073.073-.072.218 0 .145-.072h.218c0-.073-.072 0-.145 0 .072-.073.072 0 .072-.073.073.073.073 0 .146.145v-.145l.072.073c0-.073.073 0 .073-.073.073 0 0 .073.073.073 0-.073 0 0 .072 0 0-.073.073 0 .145-.073.073 0 0 .073.073.073-.073.072-.145 0-.073.072l.073-.072v.072c0-.072 0-.072.073-.072.072-.073 0-.073 0-.146.072 0 0 .073 0 .073.072.073.072 0 .072 0v-.073c.073-.072.146.073.146-.072.145 0 .217-.073.29 0 0-.073.073 0 .073-.073v-.145c-.073-.073-.073 0-.146-.073v.145s-.072 0-.145.073c-.072-.073 0-.073 0-.145 0 0-.072.072-.072-.073-.073 0-.073.145-.218 0 0-.072.072-.072.072-.072h-.072c0 .072 0 .072-.073 0-.073.145-.145 0-.218.072-.072 0 0-.072 0-.072-.072-.073-.072 0-.072 0 0 .072.072.072.145.145v.072h-.073s0-.072-.072-.072v.072h-.073c-.073-.072 0-.072 0-.072 0-.073.073 0 .073-.073-.29 0-.509.073-.8.073.074 0 .146-.073.219-.145-.073.072-.218-.073-.218.072v-.072c-.073 0-.073.072-.073.072v-.145c.073 0 .145-.072.218-.145.073-.073.145-.073.218-.073.072-.072.072-.145.145-.145h.218s-.073-.073 0-.073c.218-.145.436-.217.58-.435-.217.217-.435.145-.653.363-.072-.073-.072.072-.145 0 0 .072.073.072 0 .072h-.072c0-.145-.073-.072-.073-.145a3.541 3.541 0 00-.508.218v.073c-.073 0-.073 0-.146.072 0-.072-.072-.072-.072-.145l.435-.218h.073c.073 0 .073-.072.073-.072v-.073s-.073 0-.073.072h-.072c.072-.072.217-.145.29-.145.072 0 .218 0 .218-.145v-.145c-.073 0-.145-.073-.145 0-.073-.073 0-.073-.073-.073v.146s-.073 0-.073.072c0-.072-.072 0-.072 0v-.145c-.073 0 0 0-.073.072 0 0-.072-.072-.145-.072v.145c0-.072 0-.072-.073-.145 0 .072-.072 0-.072 0V11.4c-.073.073-.218.073-.29.073 0 .072-.146 0-.146.072.218-.072.436-.217.654-.217v-.073c.072 0 .145-.073.145-.073v.073c.072 0 .072 0 .145.073 0 0-.073-.073 0-.073 0-.073-.073 0-.073 0v-.073s.073 0 .073-.072l.072-.073c.073 0 .146-.072.291-.072v.072c.073-.072.145-.145.29-.072 0 0 .073 0 .073-.073.073 0 .073-.073.145 0 0 .073 0 .073-.072.073 0 .072.145 0 .145 0 0-.073 0 0-.073-.073 0-.073.073 0 .073-.073 0 0 .073 0 .073-.072h.072c0 .072-.072 0-.072.072.072.073.072 0 .072.073-.072-.073 0-.145.073-.145v.072c.072.073.072 0 .072 0l-.072-.072c.072-.073.145 0 .145-.073 0-.072-.073 0-.073 0 .073 0 .073-.072.073-.072 0-.073-.073 0-.073 0-.072 0 0-.073-.072-.073 0-.073.072-.073 0-.145v.072h-.073v.073c-.072 0-.145 0-.145.072-.145-.072-.145 0-.218 0 0-.072.073-.072.073-.145-.073.073-.146 0-.218.146-.073-.073-.073-.073-.073 0-.072-.073-.072-.146 0-.146h-.072s0 .073.072.146c-.072-.073-.072.072-.145.072.073-.072.073-.145.073-.145-.073-.073-.146.072-.146.145 0-.072-.072 0-.072 0v.073-.073c-.073 0-.145.073-.218.145l.145-.145c-.072-.072-.145 0-.218 0 0 .073 0 0 .073.073v.072c-.073 0-.073-.072-.073-.072v.072s.073.146.073.073c.072.073 0 .073 0 .073 0-.073-.073 0-.073-.073 0 0 0 .073-.072.073-.073-.073 0-.073 0-.073 0-.073-.073-.073 0-.073-.073 0-.073.073-.073 0v-.145c-.072-.072-.072.073-.072 0 0 .073.072 0 .072.073h-.072c.072.072.072.072.072.145-.072 0 0-.073-.072-.073 0 .073-.218.073-.218 0 0 .073-.073 0 0 .073-.073 0-.073-.073-.073-.073.073 0 .073-.072.145-.072-.072-.073-.145 0-.218 0 0 0 0-.073-.072-.073 0 .073-.073.073-.145.073v.145c-.073-.073-.073.073-.073 0 .073.073-.073.073-.073.145-.072 0 0-.072-.072-.145 0 .073 0 .073-.073.073.073 0 .145-.073.145-.073v-.145h-.072c0-.073-.073-.073-.073-.146v-.072c0 .072-.073 0-.073.072-.072 0-.072 0-.145.073v.073c-.072.072-.145.072-.29 0v-.073s-.073 0-.073-.072c-.072-.073 0-.218 0-.218v.072c0 .073.073 0 .073 0s0-.072-.073-.072v-.073.073c.073-.073.145 0 .145-.073 0 0 0 .073.073.073 0-.146.218-.073.218-.146.072.073.072 0 .072.073.073 0 0 0 0-.073 0 0 .073.146.073.073s0 0-.073 0v-.073c.073 0 .218.073.218-.072 0 .072 0 .072.073.145 0-.073 0-.073-.073-.073 0-.145.073 0 .146-.072.072 0 0 .072.072.145v-.145c0-.073.073.072.073 0v.072s.072-.072 0-.072c.072.072.072 0 .145.072.073-.072.073-.072.145 0 0 0-.072-.072 0-.072l-.072-.073s0 .073-.073 0v.073c-.073 0-.218.072-.218-.073v.073-.073c.218-.145.436-.218.654-.363l.435-.218c.146-.072.29-.072.436-.145l.073-.073c-.073 0-.146.073-.218.073-.073.073-.29.073-.363.073-.145.072-.29.145-.508.218v.072c-.291.073-.581.218-.8.29v-.072.073h-.072v.072h-.073c-.072 0-.072 0-.145.073v-.073h-.072c0 .073-.073-.072-.146 0h.073c0 .073-.073 0-.073.073v-.073h-.072c0-.072 0-.218.072-.218a33.8 33.8 0 01-2.686.363 25.577 25.577 0 01-12.49-2.323c-.944-.436-1.815-.944-2.686-1.38-1.743-.944-3.558-1.888-5.519-2.396a11.493 11.493 0 00-2.76-.363h-.434c-.145 0-.29 0-.436.072-.726.073-1.452.29-2.105.509-.509.218-1.017.435-1.453.726-1.38.871-2.469 2.106-3.195 3.63.146.218.29.364.509.581.145.146.29.364.435.509.073.072.146.218.218.29l.073.073.435.435c.581.654 1.307 1.307 1.961 2.034.29.29.654.58.944.871.073.073.218.218.363.29.145.073.218.218.363.29.145.074.218.219.363.291.218.218.436.436.726.581.146.073.218.218.363.29.146.146.29.219.436.364.218.218.436.363.726.58.145.073.218.219.363.291.146.073.29.218.363.29.145.073.29.218.363.291.146.073.29.218.363.29.146.073.29.218.436.291.145.073.29.218.436.29.145.073.29.218.435.29.29.219.581.364.872.582.29.218.58.363.871.58.436.291.872.509 1.38.8l.436.217.435.218c.073.073.145.073.29.145.073.073.218.073.291.146l.436.217c.072.073.218.073.29.146.218.072.436.218.654.29.145.073.29.145.363.145.072 0 .072.073.145.073.073.073.218.073.29.145.073 0 .146.073.146.073.072.072.218.072.29.145.073 0 .145.073.218.073.073 0 .145.072.218.072.073.073.218.073.29.145.073 0 .073.073.145.073.073.073.218.073.291.145.073.073.218.073.29.145.073 0 .146.073.218.073.073.073.218.073.29.073.073 0 .146.072.146.072.145.073.218.073.363.146.145.072.29.072.436.145.072 0 .218.072.29.072.073 0 .218.073.29.073.146.073.291.073.436.145.145.073.363.073.509.145.145.073.29.073.508.146.145 0 .29.072.435.072.073 0 .218.073.291.073.145.073.363.073.508.073.073 0 .218.072.29.072.146 0 .219.073.364.073.363.072.799.145 1.162.218.363.072.798.072 1.161.145.146 0 .364 0 .509.072h3.848s-.072 0-.072-.072h.145c.072-.073 0-.218.145-.218-.073.073-.073.218 0 .218.145 0 .29 0 .363-.073.145 0 .218 0 .363-.072v-.073s.073-.073.073 0v.073h.29-.072c0-.073.072-.073.145-.073v.073h.073c.072 0 .145-.073.145 0 .072 0 .218 0 .29-.073v-.073.073h.145c.073 0 .146 0 .218-.073v-.072c-.072-.073-.072.072-.145-.073 0 .145-.073-.072-.145.073 0-.073-.073 0-.073-.073 0 0 .073-.072.145 0 0-.145.146-.072.218 0v-.145c-.072.073-.29-.145-.363.145h-.218v.073l-.072.072h-.073c0-.072.073 0 .073-.072 0 0-.073 0-.073-.073v.073h-.072v-.073c-.073 0 0 .145-.073.073v.072s0 .073-.073 0c0-.145-.145-.145-.218-.145.073-.072.218 0 .218-.072h.218c0-.073-.072 0-.145-.073h.073s.072 0 .072.073v-.073c.073 0 .073 0 .145-.073v.073c0-.073 0 0 .073 0 0-.073.073 0 .145-.073.073 0 0 .073 0 .073-.072 0-.145 0-.145.073l.073-.073v.073c0-.073.072-.073.072 0 .073-.073 0-.073 0-.146.073 0 0 .073 0 .073.073.073.073 0 .073 0v-.073h.072s.073 0 .073-.072c.145 0 .218-.073.29 0 0-.073.073 0 .073-.073v-.145c-.073-.073-.073 0-.073-.073v.145c-.072 0-.072 0-.145.073-.072-.073 0-.073 0-.145 0 0-.072 0-.072-.073-.073 0-.146.073-.218 0 0-.072.072 0 .072-.072h-.072c0 .072 0 .072-.073 0-.072.145-.145 0-.218 0-.072 0 0-.073 0-.073-.072-.073-.072 0-.072 0 0 .073.072.073.072.145v.073h-.072s0-.073-.073-.073v.073h-.072c-.073-.073 0 0 0-.073 0-.072.072 0 .072 0-.29 0-.58.073-.871 0l-.073-.072c.073-.073.073-.073.073-.146.072 0 .145.073.218.073l-.146.145c.146 0 .29-.072.363 0 0-.145.073-.145.073-.29.073 0 .145.072.218.072 0-.145-.218 0-.218-.145l.073.073c0-.073.072 0 .145-.073 0 .073 0 .073.073.145 0-.072 0-.072.072-.145.073.073.145.073.145 0 .073 0 0 .073.073.073v.072h.145c.073.073-.072.073 0 .146 0 0 0-.146.073-.073v-.073c.072-.072.072 0 .072-.072 0-.073.073.072.073 0 .073-.073-.073-.073-.073-.073h.146s-.073.073 0 .073c0-.073.072-.073.072 0 .073-.145.218-.073.363-.073v-.072c-.072 0-.072 0-.072-.073v.073c-.146.072-.218 0-.363 0 .072-.073.217 0 .29-.073h-.145c.072-.073.145 0 .145-.073.073 0 0 .073.073.073 0 0 .072 0 .072-.073.073 0 0 .073 0 .073h.073c0-.073.072-.073.072-.145.073 0 0 .072.073.145.073-.073.218-.073.218 0 .073-.073.073 0 .218-.073.072 0-.073 0-.073.073.073 0 .145-.073.29-.073v-.145a.156.156 0 00.146-.145c.072 0 0 .072.072.072.073 0 .073-.072.146-.072.072-.073 0-.073.072-.073.073 0 0 .145 0 .145 0 .073-.072-.072-.145.073.073.073.145 0 .218-.073.072 0 .072.073.072.073.073-.073.146-.218.218-.145v-.073c.073-.072.073-.072.146-.072 0-.073.072-.073.072-.146-.072.073-.145 0-.218.073-.072 0 0-.073-.145-.073 0-.145.073-.072.145-.072 0-.073-.072 0-.072-.073 0 .073-.073.073-.073.073 0 .072-.072.072-.072.072.072 0 .072-.072.072 0 0 .073-.072 0-.072.073-.073 0 0-.073-.073-.073.072.073-.073 0-.145.073v-.073c-.073 0-.145 0-.218.073-.073-.073-.145 0-.218-.073-.073.073 0 .073-.073.146v-.073c-.072-.073-.145 0-.217 0 0 .073 0 .073.072.073 0 .072-.072.072-.072.072s-.073-.072-.073 0c-.073-.072 0 0 0-.072-.073 0-.145.072-.218 0 0 .145-.145 0-.145.072 0-.072-.073 0-.073-.072.073 0 .073-.073.145 0 0-.146.146-.073.29-.073v-.145c-.072.072-.144.072-.29.072-.072 0-.217 0-.217.146h-.218c0 .072 0 .072.072.072l-.072.073h-.145c0-.073.072 0 .072-.073-.072 0-.072 0-.145-.072l-.073.072h-.072v-.072c-.073 0 0 .145-.145.072v.073l-.073.072c0-.145-.145-.145-.218-.145.073-.072.29 0 .218-.072h.218c0-.073-.073 0-.145 0 .072-.073.072 0 .072-.073.073.145.073 0 .145.145.073-.072 0-.072 0-.145.073 0 .073.073.073.073 0-.073.073 0 .073-.073 0 .073-.073.073-.146.073l.146-.073c.072-.073 0 0 .072 0 .073-.073.145-.073.145-.073.073 0 0 .073.073.073-.073.073-.218 0-.145.145.072 0 .072-.072.072-.072l.073.072c.073-.072.073-.072.145-.072.073-.073-.072-.073 0-.146.073 0 0 .073 0 .073.073.073.073 0 .145 0v-.073c.073-.072.218 0 .218-.145.145 0 .218-.145.363-.072 0-.073.073-.073.146-.073 0-.073-.073-.073 0-.145h-.146c-.072 0-.072.072-.145.072v-.072l-.072.072c-.073 0-.146.146-.29.073 0-.073.072-.073.144-.145h-.145c0 .072 0 .072-.073 0-.072.145-.217 0-.29.072-.073 0 0-.072 0-.072h-.073c0 .072.073.072.146.145v.073h-.073s0-.073-.073-.073v.073h-.072c-.073-.073 0-.073 0-.073 0-.073.072 0 .072-.073-.072 0-.217 0-.29.073h-.726c.073-.073.145-.145.29 0 0 0 .073 0 .073-.073.073 0 .145-.072.218 0 0 .073 0 .073-.073.073 0 .073.145 0 .145 0h.073s.073 0 .073-.073h-.073c0-.072 0 0-.073-.072 0-.073.073 0 .073-.073v-.072s.073 0 .073-.073h.072c0 .073-.072 0-.072.073 0 .072.072 0 .072.072 0-.072.073-.145.073-.145v.073c.072.072.072 0 .072 0l-.072-.073c.072-.073.145 0 .218-.073 0-.072-.073 0-.073 0v-.072c.073 0 .073-.073.073-.073 0-.072-.073-.072-.073 0-.073 0 0-.072-.073-.072 0-.073.073-.073 0-.146v.073h-.072v.073c-.073 0-.145 0-.145.072-.073-.145-.146 0-.218 0 0-.072.072-.072.072-.145h-.072l.072-.073h.218s-.072-.072 0-.072c.29-.146.508-.29.654-.509-.073.146-.218.218-.363.29-.146.073-.218.073-.363.219-.073-.073-.073.072-.218 0 0 .072.072.072 0 .072h-.073c0-.145-.072-.072-.072-.145-.218.073-.364.145-.581.218v.073c-.073 0-.146 0-.218.072l.072-.072c-.072-.073-.072 0-.145 0 0 0-.072-.073 0-.146h.145v.073c.073 0 .073-.073.146-.073v.073-.073c.072 0 .145-.072.145-.072v.072c.073.073.072-.145.145-.072 0 0 0-.073-.072-.073.145-.073.217-.145.363-.145.072 0 .217 0 .217-.145v-.146h-.145c.073 0 .073-.072.145-.072-.145.072-.29-.073-.29.072v-.072c-.073 0-.073.072-.145.072v-.072h-.073c0 .072.073 0 .073.072h-.073v.073s0-.073-.072-.073c0 .073-.073 0-.073 0v-.072c-.073.072-.218 0-.29 0-.073.072-.073 0-.146 0h.073s.072-.073.072 0h.146c.072 0 .145 0 .218-.073 0 0 0 .073.072.073v-.073h-.072.145v-.073c.072 0 .072-.072.145-.072v.072c.073 0 .073 0 .073.073 0 0-.073-.073 0-.073 0-.072-.073 0-.073 0v-.072h.073l.072-.073c.073 0 .145-.072.218-.145v.073c.073-.073.145-.146.218-.073 0 0 .072 0 .072-.073.073 0 .073-.072.146-.072v.072c.072 0 .145 0 .145-.072 0-.073 0 0-.073 0 0-.073.073 0 .073-.073 0 0 0-.072.072-.072h.073c0 .072-.073 0-.073.072h.073c-.073 0 0-.145 0-.145v.073h.073s-.073 0-.073-.073.073-.073.145-.145c-.072-.073 0 0-.072 0 .072 0 0-.073 0-.073-.073-.073-.073 0 0 .073-.073 0 0-.073-.073-.073 0-.073 0-.073-.073-.145 0 0 0 .072.073.072h-.073c0 .073 0 .073.073.073-.073 0-.073.073-.073.073-.145-.073-.072.072-.145.072-.072-.072.073-.072 0-.145-.072.073-.145 0-.145.145-.073 0-.073-.072-.073 0 0 0-.072-.072 0-.072h-.072s0 .072.072.072c-.072 0-.072.073-.145.073.073-.073.073-.145.073-.145-.073-.073-.073.072-.073.145-.072-.073-.072 0-.072 0v.073-.073c-.073 0-.073.073-.146.145.073-.072.073-.072.073-.145h-.145c0 .073 0 0 .072.073v.072c-.072 0-.072-.072-.072-.072v.072s.072.145.072.073c.073.072 0 .072 0 .072 0-.072-.072 0-.072-.072 0 0 0 .072-.073.072-.072-.072 0-.072 0-.072 0-.073-.072-.073-.072-.073s-.073.073-.073 0v-.145c-.073-.073-.073.073-.073 0 0 .073 0 0 .073.073h-.073c.073.072.073.072.073.145-.073 0 0-.073-.073-.073 0 .073-.217.073-.217-.072 0 .072-.073 0 0 .072-.073 0 0-.072-.073-.145h.073v.145s0-.145.072-.072v-.146c0-.072.073.073.073 0 0-.072 0-.072-.073-.072h.073v.072c0-.072.072 0 0 0 0-.072.072-.072.145 0v-.072l-.073-.073v.073c-.072 0-.145-.073-.217-.073.072-.073.072.073.145 0 0 0-.073 0-.073-.073 0 0 .073 0 .073-.072v.072h.072c0-.072.073 0 .073-.145.073.073 0 .073.073.145 0-.072.072 0 .072.073 0-.073.073 0 .073 0v.073c.072.072.072 0 .145.072v-.145s.073 0 .073-.073v.073h.072v-.073.146c0 .072 0-.073-.072 0 0 .072.072.072.072 0v.072c0-.072.073-.072.073-.072v-.073s.072 0 .072.073c0-.073 0 0 .073-.073 0 .073-.073-.073-.073 0 0-.073 0-.073-.072-.145 0-.073.072 0 .072 0v-.073c0 .073 0 .073-.072 0v.073s.072 0 0 .072c0 0 0-.072-.073 0v-.072c0 .072 0 0-.072 0v-.073l-.073-.072c0-.073-.073-.073-.073-.073l.073-.073s.073.073.073 0c0 0 0-.072-.073-.072v-.073c0 .073-.145 0-.145.073v-.073.073h-.073v.072c0 .073-.072 0-.072.073v-.145h-.073s-.073 0-.073-.073v.073c0 .145-.072-.073-.072.072 0-.072 0 0-.073-.072h.073c0-.073.072-.073.145 0h.073v-.073c-.073.073-.146-.072-.146-.072 0-.073 0-.073.073 0v-.073.073c0 .072.073 0 .073.072v-.072c.072 0 .072.072.145 0h.145s.073 0 .073.072c0-.072.072 0 .072 0v-.145h.073v.073c0 .072 0 0 .072 0 0 0 .073 0 .073-.073.073.073.073 0 .145-.145 0 0-.072.072-.072 0v.072h-.073s0-.072 0 0c0-.072-.145-.145-.145-.072-.073-.073-.145-.073-.145 0 0 0 0-.073-.073 0v-.073h-.145.072s0-.072-.072-.072c-.073.072-.145-.073-.145 0v-.073c0-.073-.073 0-.073 0 0 .073 0 .073.073.145v-.072s.072.072.072 0h-.145l-.073-.073c0-.073 0 0-.072.073h.072-.217c-.073 0-.218 0-.291-.073 0 0 0-.073-.073-.073.073-.072 0-.072.073-.145h.073v.073-.073l.072-.072h.073v.072h.145v.073c0 .072 0 0 .073 0v-.073c.072 0 .218.145.29.073l.073.072h.072c.073.146.146 0 .218.073.073-.073.145-.073.218 0 0 .073 0 .073-.073.145.073 0 .146-.145.218-.072 0-.146 0-.146-.072-.29.072 0 .072 0 .145.072 0-.145-.145 0-.218-.145 0 0 .073 0 .073.072 0-.072.072 0 .072-.072 0 .072 0 .072.073.145v-.145c.072.072.072.072.072 0 .073 0 0 .072.073.072v.073h.073c.072.072 0 .072 0 .145 0 0 0-.145.072-.073v-.145c0-.072.073.073.073 0 0-.072 0-.072-.073-.072h.073v.072c0-.072.073-.072.073 0 0-.145.145-.072.217 0V18.3c-.072 0 0 0-.072-.073v.073c-.073 0-.145 0-.218-.073.073-.073.145 0 .145 0s-.072 0-.072-.073c0-.072.072 0 .072-.072 0 0 0 .072.073.072v-.072.072h.072c0-.072.073-.072 0-.145.073 0 0 .073.073.145 0-.072.073 0 .145 0 0-.072.073 0 .073 0v.073c.072.073.072 0 .145 0v-.145s.073 0 .073-.073c.072 0 0 .073.072.073 0 0 0-.073.073 0v-.073c.072 0 0 .073 0 .145 0 .073-.073-.072-.073 0 0 .073.073 0 .073 0s0 .073.072.073c0-.073.073-.145.146-.073v-.072s.072-.073.072 0v-.073c0 .073-.072-.073-.072 0-.073-.073 0-.073-.073-.145 0-.073.073 0 .073 0 0-.073-.073-.073-.073-.073 0 .073 0 .073-.072 0v.073s.072 0 .072.072c0 0-.072-.072-.072 0 0-.072 0-.072-.073-.072.072.072 0 0-.073 0v-.073s-.072-.072-.072 0c-.073-.072-.073 0-.145-.145 0 0 0 .073-.073.073v-.073c-.073-.073-.073 0-.145-.073v.073c0 .073-.073 0 0 .073 0 0 0-.073-.073-.073v-.073c-.073 0-.073.073-.145-.072 0 .145-.073-.073-.073.072 0-.072-.072 0-.072-.072 0 0 .072-.073.072 0v-.073h.073s.072 0 .072.073v-.073h.073v.073s.073 0 .073-.073h.072s.073 0 .073.073c.072-.145.29.072.363 0-.073-.073-.145-.073-.218-.073v-.072c-.145.072-.29.072-.436.072l-.072.073h-.219c-.073 0-.145 0-.145.072h.218v.073h-.146v.145h-.072c0-.072.072 0 .072-.072 0 0-.072 0-.072-.073v.073h-.073v-.073h-.073c-.072 0 0 0 0 0s0 .073-.072.073v.072s0 .073-.073.073a.156.156 0 00-.145-.145c.073 0 .073 0 .073-.073v-.073h.145c0-.072-.073 0-.073-.072 0-.073 0 0 .073-.073.072.145.072 0 .072.145v-.145l.073.073v-.073s0 .073.073.073c0-.073 0 0 .072 0 0-.073.073 0 .073-.073v.073s-.145 0-.073.072c0 0 0-.072.073-.072v.072c0-.072 0-.072.073 0v-.145c.072 0 0 .073 0 .073.072.072.072 0 .072.072V17.5c0-.073.145.072.145-.073.073 0 .146-.072.218 0 0 0 .073 0 .073-.072 0 .072.072 0 .072 0 .073.145.146.072.146.145.072-.073 0-.073-.073-.073.073-.072.073.073.073 0 0 0-.073.073 0 .073h.072c-.072 0 0-.073 0-.145v.072c-.072 0-.145 0-.218-.072 0 .072-.072 0-.072 0 0-.073 0-.073-.073-.073v.145-.072c-.072-.073-.072 0-.072-.073v.145h-.073s0-.072-.073 0v-.145s-.072 0-.072-.073c-.073 0-.073.073-.145 0 0-.072.072 0 .072-.072v-.073h-.145c0 .073 0 .073 0 0 0 .073-.145 0-.145 0v-.073h.072v.073c0-.073 0-.073.073-.073h-.073c0-.072-.072-.072-.072 0-.073-.072.072-.072 0-.072 0-.073.072-.073.072-.145 0 0-.072 0 0 .072 0 0 0 .073-.072.073h-.146c-.072-.145-.145 0-.217-.073 0-.072.072 0 .145-.145-.073.073-.145-.073-.29.073V16.7c.072-.073.145-.073.145-.073.072-.072.072-.072.072-.145.073 0 .073.073.145 0 0 0-.072-.072 0-.072.073 0 .073-.073.146-.073.072 0 .072 0 .072-.073.073 0 .073-.072.073-.072v.072s.145 0 .145-.072h-.072l.072-.073c-.072.073-.145.145-.218.145-.072 0-.072.073-.145.073h-.073.073l-.073-.073v-.072c-.072-.073-.145 0-.145 0h-.072v-.073c-.073 0-.146 0-.146.073v-.073h-.145c.073-.073.145-.073.218-.145h.145c.145 0 .29 0 .363-.073h-.218v-.362h.146c0-.146-.218 0-.218-.146 0 0 .072 0 .072.073 0-.073.073 0 .073-.073 0 .073 0 .073.073.145v.073s0-.073-.073-.073c0-.072 0-.072.073-.072.072.072.145.072.072 0 .073 0 .073.072.073.072v.073c.073 0 .073 0 .145-.073.073 0 0 .073 0 .145 0 0 0-.145.073-.072v-.073c.072-.072.072 0 .072-.145 0-.073.073.073.073 0s-.073-.073-.073-.073h.073v.073c0-.073.073-.073.073 0 0-.073.072-.073.072-.073v.073h.073s0 .073.072.073v-.073c.073 0 .073 0 .146.073v-.073c-.073 0 0 0-.073-.073v.073h-.145.145c-.072 0-.145-.073-.218 0h-.072c.072-.073.145 0 .218-.073-.073 0-.073 0-.146-.072h.145v-.073s0 .073.073.073l.073-.073v.073h.072c0-.073.073-.073.073-.146.072 0 0 .073.072.146 0-.073.146 0 .146 0 .072-.073.072 0 .145-.073-.073 0-.145 0-.145.073v-.073c-.073.145-.218.145-.29.218 0 .218-.291 0-.291.218.145-.145.363-.073.508-.29h.073c0-.146.145-.073.218-.146.072 0 .072-.072.145 0v-.145c.072 0 .072-.073.072-.145.073 0 0 .072.073.072 0 0 .073-.072.073 0v-.072c.072 0 0 .072 0 .145 0 .072-.073-.073-.073 0 0 .072.073 0 .145 0 .073 0 0 .072.073.072 0-.072.145-.145.145-.072.581-1.38.581-1.452.581-1.525l.073.073c0-.073.072 0 .072-.073-.072.073-.145-.073-.145 0zm-.871-.58s-.073.072-.073 0c0 0 .073-.074.073 0zm-.146-.074v.073c-.072-.073 0 0-.072 0v-.073s0 .073.072 0zm0-.217h-.217.217zm-.145.145c0 .072-.072.072-.072 0 0 .072.072 0 .072 0zm-.363.145c.073.073 0 .073 0 0zm-.29 0s0 .073-.073.073c.073-.073.073-.146.073-.073zm1.016-2.469c.073.073 0-.072.073 0 .073 0 0 .073-.073 0 .073 0 .073 0 0 0zm-.072 0c0 .073 0 .073 0 0 0 .073 0 .073 0 0-.073.073 0 .073 0 0zm-1.09.509s-.072 0-.072.072c0-.072 0-.072.072-.072zm-.072-.436c0 .072-.073 0 0 0-.073 0-.073-.073 0 0zm-.218.508c0-.072.145.073.145-.072h.073c-.145.072-.145.145-.218.072 0 .073 0 .073 0 0 0 .073 0 0 0 0zm-.073 0c0 .073-.072.073-.072.073v-.073c-.073-.072 0 .073.072 0zm-.435.145c.072 0 .145 0 .218-.072 0 .072 0 .072.072.072-.145 0-.218.073-.29 0 0 .073 0 .073 0 0zM12.126 6.826c-.218.145-.508.363-.799.508l-.436.218c-.072.072-.217.072-.29.072-.145 0-.29.073-.436.073H9.44c-.218 0-.436-.073-.653-.145-.146-.073-.29-.073-.364-.145-.145-.073-.217-.146-.363-.218-.217-.146-.363-.363-.508-.581 0 0 0-.073-.072-.073-.073-.072-.073-.145-.146-.145 0-.073-.072-.073-.072-.145V6.1c.218-.364.508-.654.871-.8.073 0 .145-.072.218-.072h.072c.073 0 .146 0 .146-.072h1.67c.145 0 .218.072.363.072h.072c.073.073.218.073.29.145.074.073.219.146.291.218.073.073.146.073.146.145.217.218.435.436.58.727.291.145.291.29.146.363zm22.51 16.628zm.072.363l.073-.145h.073c0 .145-.073.218-.146.145zm1.598-.145s0 .072 0 0c0 .072 0 .145 0 0zm.726-.436s.073 0 .073.073c-.073-.073-.073 0-.073-.073zm-.073-.072c0 .072 0 .072 0 0 0 .072 0 .072 0 0-.072 0-.072.072-.072.072v-.072s0 .072.072 0zm0-.218c-.072 0-.145.072-.217.072.072-.072.217-.072.217-.072zm-.145.145c0 .073-.072.073-.072 0h.072zm-.363.073c.073.072.073.072 0 0 0 .072 0 .072 0 0 0 .072 0 .072 0 0 0 .072 0 0 0 0zm-.072.145s-.073 0 0 0c-.073 0-.073 0 0 0-.073-.073-.073 0 0 0zm-.436.435c0 .073-.073 0-.073 0h.073zm.073-.508c0 .073 0 .073 0 0 0 .073 0 .073 0 0 0 .073 0 .073 0 0zm0 .073s0 .072 0 0zm-.218.072l.072.073c-.072 0-.072.073-.145.073v-.073l.073-.073zm3.05-1.524v.072h-.073c0-.072 0-.145.072-.072zm-.364.145c.073.072.073 0 .145 0 0 0-.217.072-.145 0zm-.435 0c.072 0 0 .072.072.072-.072.146-.145 0-.218 0 0-.072.146 0 .146-.072zm-.581-.073c0 .073.072 0 .072-.072.073.072-.072.217-.145.145.073 0 .073-.073.073-.073zm1.016-.871c.073 0 .073 0 .145-.073-.072.073-.145 0-.145.145-.072.073 0 0 0-.072zm-.363.29s.073-.072.073 0c0 0-.073.073-.073 0zm0-.072v.072c-.072-.072-.072 0-.072 0v-.072h.072c-.145.072-.145.072 0 0-.072 0-.072 0 0 0zm-.072-.218s-.073 0-.073.072c0-.072-.073 0-.073 0h.073c-.073 0-.073.073-.145 0 0-.072.145-.072.218-.072zm-.146.218l-.072.072c0-.072 0-.145.072-.072zm-.508.145c.073.073 0 0 0 0zm-.363 0l-.073.073c0-.073.073-.146.073-.073zm.363-.654c.073.073.073-.072.073 0 0 .073-.073.073-.073.073.073 0 .073 0 0-.073 0 .073 0 .073 0 0 .073.073 0 0 0 0zm-.073 0c0 .073 0 .073 0 0 0 .073 0 .073 0 0-.072.073 0 .073 0 0zm-.944 1.525c0-.072 0-.072 0 0 0-.072 0-.072 0 0zm-.072-.218v-.072h.073c.072.072 0 .145-.073.072.073.073.073 0 0 0zm.073.218c.072 0 .072 0 0 0 .072 0 .072 0 0 0zm.58-.145c.073 0 .073-.073 0 0 .073-.073.073-.073 0 0zm.146-.218c.072 0 .072 0 0 0 .072.073.072.073 0 0zm-.218.073c.072 0 .145-.073.145 0 0 .072 0 .072-.145 0 .072.072 0 .072 0 0zm.145.29h-.145v.073h-.145v-.145c-.073.072-.146.072-.146.072-.072-.072-.072-.072-.145-.072h.218v-.073h.073v.073c0 .072.217 0 .29.072zm-.218-.29s.073.072 0 0c0 .072 0 .072 0 0 0 .072 0 0 0 0zm-.072 0s0 .072 0 0c0 .072 0 .072 0 0 0 .072 0 .072 0 0zm-.073.145h-.073.073zm-.073-.073c.073 0 .073 0 0 0zm.29-.653v.073s.073.072 0 .072c0-.072-.072.073-.072 0 0 0 0-.072.073-.145zm-.217-.29c-.073.072-.073 0-.073 0h.073zm-.073.508c.073 0 .073.072.146.072-.073 0-.073.073-.146.073v-.145zm-.072.508c-.073.073-.073 0-.073 0h.073c-.073 0-.073 0 0 0-.073 0-.073 0 0 0-.073 0-.073 0 0 0zm-.073-1.452c0 .072 0 .072 0 0 0 .072 0 0 0 0zm0 .944s0 .072 0 0c-.072.072-.072.072-.145.072 0 0-.073-.072 0-.072.073.072.073-.073.145 0zm-.072-.363s0 .072 0 0c-.073.072-.073 0-.073 0h.073zm.653-1.307h.145s-.072 0-.072.072c0-.145 0-.072-.073-.072zm1.09-1.162c0 .072 0 .072-.073.072v-.072c0 .072 0-.073.072 0zm-.219.072c.073 0 .073 0 0 0 .073 0 .073 0 0 0 .073 0 .073.073 0 0 0 0 .073.073 0 0zm-.217.218s0 .073 0 0c0 .073 0 0 0 0zm-.29.145s0 .073 0 0c0 .073 0 .073 0 0zm-.364.218s-.073 0-.073.073c0-.073 0-.073.073-.073zm-.073-.435c0 .072-.072 0 0 0-.072 0-.072-.073 0 0zm-.217.508c.072 0 .145 0 .072-.073h.073c0 .073-.073.073-.145.073 0 .072 0 .072 0 0zm.726-1.09c0 .073 0 .073 0 0 0 .073 0 .073 0 0zm-.146 0c0 .073 0 0 0 0 .073.146-.072.073 0 0zm-.217-.145c0 .073 0 .073.072.073-.072.145-.072 0-.072-.072 0 0 0 .072 0 0zm.58-.653c0 .073-.072 0-.072.073v-.146l.073.073zm-.435.073c0 .072 0 0 0 0 0 .072-.073.072 0 0zm-.145 0c0-.073 0-.073 0 0 0-.073 0-.073 0 0zm.072.072c0-.072 0-.072 0 0 0-.072 0-.072 0 0 0-.072 0-.072 0 0zm0-.363c0 .073 0 .073 0 0 0 0-.072.073-.145.073.073-.073.073-.073.145-.073zm-1.016-.58s0 .072 0 0zm-.218.217c0-.073 0 0 0 0 .145.073.218-.073.218 0h.072v.073c-.072 0-.072 0-.072.072h-.145v.073h-.073c0-.145-.073-.145 0-.218 0 .073 0 0 0 0 0 .073 0 0 0 0zm.29 1.162s0-.073 0 0v-.073s.073 0 0 .073zm0-.871s0-.073 0 0zm0 .363s0 .072 0 0zm0 1.161v-.072.072zm-.145 1.38s-.073-.073 0-.073 0 0 0 .073zm0-1.452c.073 0 0 0 0 0zm0-.581s0-.145 0 0c.073-.073.073 0 0 0 .073 0 .073 0 0 0 .073-.073 0 0 0 0zm0-.799s.073 0 0 0c.073 0 .073 0 0 0 .073 0 .073 0 0 0zm.073.363c-.073 0-.073 0 0 0-.073 0-.073 0 0 0zm-.218.726c-.073 0-.073 0 0 0zm-.073-1.38c0 .073-.072.073 0 0zm-.435 4.793s0 .073-.073.073c0 0-.073 0-.073.072.073-.072.073-.145.145-.145zm-.146 0c.073-.072.073 0 0 0 .073.073 0 .073 0 .073v-.073zm0 .872c-.072.072-.145 0 0 0-.072 0-.072 0 0 0zm-.29.798s.072-.072.072 0c0 .073-.072 0-.072 0zm.218.073l-.073-.073c.073.073.073 0 .073.073zm.072-.799c0-.073 0-.073-.072-.145.072 0 .072-.073.145-.073.072 0 .145 0 .218.073-.073 0-.073 0-.073.072 0 0-.072 0-.072-.072v.072h-.073v.073s0 .073-.073 0zm.145.508c-.072-.072 0-.072-.072-.145.145.073.145.073.072.145v-.072s.073.072 0 .072zm.146.073c-.073 0 0 .073-.073.073 0-.073 0-.073.073-.073zm-.218.436c.072 0 .073-.073.145-.073v.073c0-.073-.072 0-.145 0zm.218-.509c0 .073.072 0 .145 0 0 .146-.145.073-.145 0zm.145-.363c0-.072 0-.072 0 0 0-.072 0 0 0 0zm0-2.759v-.073h.291c0 .073-.073 0-.073 0 0 .073-.073 0-.073.073-.072-.073-.072.073-.145 0zm.073 2.324c0-.073 0-.073 0 0 0-.073 0-.073 0 0zm.072-.726v-.073.073zm.218.726s-.073 0 0 0c-.073 0-.073.072 0 0-.073.072-.072.072-.072.145 0 0-.073 0-.073-.073 0 0 .073 0 .073-.072h.072c0-.073 0-.073.073-.073l-.073.073c0 .072 0 0 0 0zm0 .145v-.073c.073 0 .073.145 0 .073zm0-.654s-.073 0 0 0c-.073 0-.073 0 0 0 0-.072.073-.072.073-.072 0 .072-.073.072-.073.072zm.145-.29c0-.073-.072-.073 0 0-.072-.073-.072-.073 0 0 0-.073 0-.073 0 0 0-.073 0-.073 0 0zm0-.218c-.072 0 0-.072 0 0-.072 0 0 0 0 0h-.072s.072-.072 0-.072l.072-.073c0 .073-.072.073 0 .145v-.145c.073.073 0 .073 0 .145zm.654-1.525c0 .073 0 .073-.073.073 0-.073 0-.073.073-.073zm-.436.073s.073.072.073 0c0-.073 0-.073 0 0v-.073c.072.073.072 0 .145 0 0 0 0 .073.073.073-.073.072-.146.072-.218.072l-.073-.072c-.072.072-.072.145-.145.145s-.073-.073-.073 0c0 0-.072 0-.072.073v-.073c-.073 0 0 0-.073.073-.073-.073 0-.073.073-.146.145-.072.218 0 .29-.072zm.218-.654c0 .073 0 .073 0 0 0 .073-.073.073-.073.073v-.073s0 .145.073 0zm-.145.145c-.073 0-.145.073-.218.073.073 0 .145-.073.218-.073-.073 0-.073 0 0 0zm-.29-.87c.072 0 .072 0 0 0l.072.072c0-.073 0 0-.073 0 .073 0 0-.073 0-.073zm.29 0h-.073v-.073c0 .072-.072.072-.072 0h-.073c0-.073.073 0 .073-.073 0 .073 0 .073.072.145v-.145c0 .073.073.145.073 0v.145c0-.072 0-.072 0 0zm.072-.291v.072h-.072v-.145c0 .073-.073.073-.073.073-.072-.073-.072-.073-.145-.073 0-.072.073 0 .145 0V18.3c.073 0 .073 0 .073.072 0 0 .072-.072.072.073zm-.072-.218s-.073-.073-.073 0c0-.073 0-.073.073 0-.073-.073 0-.073 0 0zm0-.073c0 .073 0 .073 0 0zm-.073.146c-.072-.073 0-.073 0 0zm.145-.146s-.072 0 0 0zm0-.072c0-.073 0 0 0 0zm.073.218c0-.073-.073 0 0 0 0-.073-.073-.073-.073-.073v-.073l.073.073v.073zm.145-.073v-.073c0 .073 0 0 .073 0 0-.072 0 0-.073.073.073 0 .073 0 0 0zm-.072-.508c0-.073 0 0 0 0zm-.073 0c0 .072 0 0 0 0 0 .072 0 .072 0 0v.072h-.073c0-.072 0 0 .073-.072zm-.145-.146c.072.073.072.073 0 0 .072.073 0 .073 0 0zm.072.218c-.072 0-.072 0 0 0-.072 0 0 0 0 0zm-.072.145c.072 0 .072-.072.072-.072l.073-.073c.073 0 .073-.072.073-.072 0-.073 0 0 0 0h.072v.072h-.072s-.073 0 0 .073l.072-.073s-.072 0-.072.073v.072h-.146s-.072 0-.072-.072v.072h-.073v-.072c.145 0 .218.145.073.072l.072.073-.072-.073s0 .073 0 0c0 .073 0 0 0 0zm0-.363v.146c0-.073 0 0-.073 0 .073-.073.073-.073.073-.146zm-.073.29h-.072.072zm-.145-.144s.073 0 0 0v.072-.072zm0 .58c0-.072 0-.072 0 0zm0-.145s-.073 0 0 0c-.073 0 0 0 0 0zm0 .218c-.073 0-.073 0 0 0-.073 0 0 .073 0 .073s0-.073-.073-.073h.073c-.073-.072 0-.072 0 0zm-.073-1.452h.073-.073zm.073.072c0-.072 0-.072 0 0 0-.072 0 0 0 0zm2.614-.435s0 .072 0 0c0 .072 0 .072 0 0 0 0 0-.073 0 0zm-.145 0c0 .072 0 0 0 0 .072.145-.073.072 0 0zm-.29-.073s0 .073.072.073c0 .145-.073 0-.073-.073-.072 0 0 .073 0 0zm-.291-.145c0 .073 0 0 0 0 .072 0 .072.145 0 .073-.073 0 0-.073 0-.073zm.726-.508s0 .072 0 0c0 .072 0 0 0 0zm-.073.072c-.072 0 0 0 0 0zm-.29 0s-.073.073 0 0c-.073 0 0-.072 0 0zm-.073 0c-.072 0-.072 0 0 0h-.072c0-.072 0 0 .072 0zm-.072-.218c-.073 0-.073.073-.145.073 0-.145.145-.145.145-.073zm-.073.073c0 .073-.072.073 0 0-.072.073-.072 0 0 0zm-.145-.218c0 .073 0 .073 0 0zm-.073.073s.073 0 0 0h.073v.072h-.073c.073 0 .073-.072 0-.072l.073.072c-.073 0-.073 0-.073-.072zm-.072 0c-.073 0-.073 0 0 0-.073 0-.073 0 0 0-.073 0-.073 0 0 0zm0 .218c.072.072 0 .072 0 0 0 .072 0 0 0 0zm-.073-.363c0 .072.073-.073.073.072l-.073.073v-.145c0 .072 0 .072 0 0-.073.072-.073 0 0 0 0 .072 0 0 0 0zm0 .072c0 .073-.073-.072-.073 0h-.072v-.072c0 .072.072.072.145.072-.073 0-.073 0 0 0zm-.145-.072c0 .072 0 .072 0 0zm0 .363s0 .072 0 0c0 0 0-.073 0 0zm.29-1.017v.073c0-.073-.072 0 0 0v-.073c-.072 0-.072 0 0 0zm-.145 0c.073.073 0 .073 0 0v.073s-.073.072-.073 0c0 .072.073.072 0 .072h-.072v-.072c.072 0 .072-.073.145-.073zm.29-1.017c-.072 0-.072 0 0 0 0-.072 0-.072 0 0zm0-.798v.072s.073.073 0 .073c0-.073 0 .073-.072 0 .072-.073.072-.145.072-.145zm-.145.145s.073 0 .073.073c-.073 0-.073.072-.073.072v-.145zm-.29-.726s-.073-.073 0-.145c.072 0 .145.072.218 0 .072.145-.073.145-.073.145h-.145l.072.072c-.072 0-.072 0-.072.073h-.145v.073h-.073c0-.073-.073-.073-.073-.146 0 0 0-.072.073 0v-.072c.073.072.145 0 .218 0zm-.073.944c0-.073 0-.145.073-.073-.073 0 0 .073-.073.073zm0-.145c-.072-.073 0-.073-.072-.146 0-.072 0-.072.072-.072v.072-.072c.073.072 0 .072 0 .218v-.073c-.072 0 0 0 0 .073zm0-.364h.073v.073s0-.073-.073-.073zm-.218 1.525s0 .073 0 0c-.072.073-.072 0 0 0-.072 0 0 0 0 0zm-.072-1.742c0 .072-.073 0 0 0zm0 1.888c0 .072 0 .072 0 0 0 .072 0 0 0 0zm0 .29c0 .073 0 .073 0 0 0 .073 0 .073 0 0zm0-.29s.072 0 0 0c.072 0 .072 0 0 0zm0-.436s.072 0 0 0c.072 0 .072 0 0 0 .072.073 0 .073 0 0zm.072-.654s0 .073 0 0c0 .073 0 0 0 0zm.073-1.307s.073 0 .073-.072h.072s-.072 0-.145.072zm.218-.145c.072 0 .072 0 0 0 .072 0 .072 0 0 0 .072 0 .072 0 0 0zm.218-.072c-.073 0-.073.072-.146.072.073-.072.146-.072.146-.072zm.072-.364c0 .073 0 .073 0 0 0 .073 0 .073-.072.073 0 0 0-.072.072-.072zm-.653.146c.072 0 .218.072.29 0 0 0 .073.072.073 0-.073-.073 0-.073 0 0v-.073c.072.073.072 0 .145 0 0 0 0 .073.073.073-.073.072-.146.072-.218.145h-.073l-.072.072h-.073s-.073 0-.073.073v-.072.072c-.145-.145-.072-.218-.072-.29zm0-.509c-.073 0-.073 0 0 0zm-.073.581c.073.073 0 .073.073.073 0 0 0 .072-.073.072v-.145zm-.363.073c.073 0 .145 0 .145-.073h.073c0 .073-.073 0-.073 0 0 .073-.072 0-.072.073-.073-.073-.073.072-.146 0 .073.072.073 0 .073 0zm-.073 4.575v.072c-.072 0-.072 0 0-.072-.072 0-.072-.073 0 0zm-.217-6.245c.072 0 0 0 0 0zm0 4.502h.145l-.073.073s-.072 0-.072-.073zm.072 1.743s.073 0 0 0c.073.072 0 .145 0 .145v-.145zm0-.29s0-.073 0 0c0-.073 0-.073 0 0zm-.072 0c0-.073 0-.073 0 0zm.217.58c0-.073 0-.073 0 0h-.145c0-.073 0 0-.072-.073h.072s0-.072.073-.072c.072.072.072.072.072.145zm0-1.96v-.073.073zm0 1.524c.073 0 .073 0 0 0 .073 0 .073 0 0 0 .073 0 .073 0 0 0zm.146-1.597c0 .073 0 .073 0 0 0 .073 0 .073 0 0h-.073v-.145c.073 0 .145.072.218 0 0 0 .072.072.072 0-.072-.073 0-.073 0 0v-.073c.073.073.073 0 .146 0v.073s-.073 0-.073.072c0 0 .073-.072.073 0-.073.073-.073.073-.146.073h-.072s-.073.073-.145 0c.072.073.072 0 0 0zm.29.218c-.073 0 0 0 0 0zm-.218 1.38s0-.073 0 0l.073.072c-.073 0-.073-.073-.073-.073zm0 .653c.073 0 .073 0 0 0 .073.072 0 0 0 0zm.073-.073c-.073 0-.073 0 0 0zm.218.218s0-.073 0 0c0 0 0-.073 0 0 0-.073 0 0 0 0 0 .073-.073 0 0 0-.073.073-.073.073-.146 0v-.073h-.072v-.072c0-.073.072 0 .072 0-.072-.073-.072 0-.072-.073v-.072c0-.073.072 0 .072-.073l.073.073V16.7c.145.218.073.29.073.363zm-.146-1.162c.073.073 0 .073 0 .146v-.146.146l-.072-.073c.072 0 .072 0 .072-.073-.072 0 0-.072 0 0zm0-.145c.073 0 .073-.073 0 0 .073 0 .073 0 0 0 .073 0 .073 0 0 0zm0 .145s0-.072 0 0c0-.072 0 0 0 0zm.073.218c-.073 0 0 .073-.073.073 0-.073 0-.073.073-.073zm.073.363c-.073 0-.073.073-.146.073.073 0 .073-.145.146-.073zm-.146-1.234s.073-.073 0 0c.073-.073.146-.073.146-.073s-.073.073-.146.073zm.073.798c.073.073.073 0 .073 0 .072.146-.073.073-.073 0zm.145.509c0-.073 0-.073 0 0v-.073.073c0-.073 0-.073 0 0zm0-.073s0 .073 0 0c0 .073 0 .073 0 0 0 .073 0 0 0 0zm0 .654v-.073.073zm0-.436c0 .073.073.073.073.073-.073 0-.073-.073-.073-.073 0-.073.073-.073 0 0 0 0 0-.073 0 0zm.073-.508c0-.073 0-.073 0 0v-.146s.073 0 .073.073c-.073 0-.073 0-.073.073zm.145.218c0 .072-.072 0-.072 0h.072zm-.145.145v.072-.072c-.073 0 0 0 0 0zm.363-.218c0 .073 0 .073 0 0zm-.073.073c.073 0 .073 0 0 0 0 .072.073.072.073.145h-.073c0-.073-.072-.073-.072-.073 0-.072 0-.072.072-.072h-.072.072zm.073.29c-.073 0 0 0 0 0l-.073.073h-.072v-.146c0 .073-.073.073-.073.073-.072-.073-.072-.073-.145-.073 0-.072.073-.072.145 0v-.072c.073 0 .073 0 .073.072 0 0 .072 0 .145.073zm-.145-.218c-.073 0 0 0 0 0zm0-.072s-.073 0-.073.072c0-.072 0-.072.073-.072zm-.073.217c0-.072 0 0 0 0-.072-.145 0-.072 0 0zm-.072-.435c0-.073.072-.073 0 0 .072 0 0 0 0 0zm.072-.363v.145c0-.073 0 .072-.072 0 .072 0 0-.073.072-.145zm-.072-.218h-.146s.073-.073.146 0zm-.073-.799c.073 0 .073 0 0 0 .073 0 .073 0 0 0 .073.073 0 .073 0 0l-.145.145h.072c-.072 0-.072.073-.145.073v.072c-.073 0-.073 0-.145.073 0-.072-.073-.072-.073-.145h.145s-.072 0-.072.072c.072 0 .072-.145.145-.072 0 0 0-.073.073-.073v-.072l.145-.073zm-.073-.29c.073 0 .073 0 0 0 .073 0 .073 0 0 0zm.146-.073c0-.073-.073 0-.073 0v-.145l.073.145c.072 0 .072 0 0 0zm0-.073s.072 0 0 0c.072 0 .072 0 0 0 .072 0 0 0 0 0zm.217-.145c-.072 0 0-.072 0 0l-.072-.072s0 .072.072.072c-.072.073-.145 0 0 0-.072.073-.145.073-.145.073s.073 0 0-.073h-.145v-.072c0-.073.073 0 .073 0-.073-.073-.073 0-.146-.073h.073s.073 0 .073.072c0 0-.073-.072 0-.072 0 .073.072.072.072.072h.073c.072 0 .072 0 .072.073zm-.072-.218c.072 0 .072 0 0 0 .072.073.072.073 0 0 .072.073.072.073 0 0zm.145.436s-.073 0-.073.073c0-.073 0-.073.073-.073zm-.073-.145s-.072-.073 0-.073c.073 0 .073.073 0 .073zm0-1.162c.073.073.073 0 .146 0-.073.145-.218.145-.146 0zm.073.799c0-.073 0-.073 0 0 .073-.073.073-.073 0 0zm.508 0h-.072v-.146c0 .073-.073.073-.145.146-.073-.073-.073-.073-.218-.073h.435v.073zm0-.146h-.145c.073-.072.145-.072.145 0zm0-.217c.073 0 0 0 0 0v-.073c.073.073 0 0 .073 0 0 .073 0 .073-.073.073.073 0 0 0 0 0zm.218-.146s-.072 0 0 0c-.072 0-.072 0 0 0-.072-.072 0 0 0-.072v.072zm0-.072c.073-.073.073-.073 0 0zm.218.145s-.073 0 0 0c-.145 0-.073-.073 0 0v-.073.073c0-.073 0-.073 0 0zm.363.145l-.073-.072c0-.073.073.072.073-.073v.145zm.29-.072s0 .072 0 0h.073c0 .072-.145.072-.072 0zm.218 0c-.072-.073 0-.146 0-.073s.073.073 0 .073z" fill="#F0D878"/><mask id="a" style="mask-type:alpha" maskUnits="userSpaceOnUse" x="3" y="3" width="38" height="22"><path d="M40.227 13.506c-.073-.073 0-.073-.073-.073 0-.072.073 0 .073 0 0-.072-.073 0-.073-.072 0 .072 0 .072-.072 0 0 .072-.073 0 0 .072.072 0 .072 0 .072.073 0 0-.072-.073-.072 0 0-.073 0-.073-.073-.073.073.073-.072 0-.072 0v-.072s-.146-.073-.146 0c-.072-.073-.145 0-.145-.073-.072.073 0 .073-.072.073v-.073c-.073-.072-.073 0-.146 0 0 .073 0 .073.073.073 0 .072-.073 0-.073.072l-.072-.072v-.073c-.073 0-.073.073-.218 0 0 .145-.073-.072-.073.073 0-.073-.072 0-.072-.073 0 0 .072-.072.145 0 0-.145.145-.072.218 0v-.145c-.073.145-.363-.073-.363.145h-.291v.073h-.072v-.073c-.073 0 0 .145-.073.073v.072l-.073-.072c-.072 0-.145-.073-.145-.073.073-.072.218 0 .145-.072h.218c0-.073-.072 0-.145 0 .072-.073.072 0 .072-.073.073.073.073 0 .146.145v-.145l.072.073c0-.073.073 0 .073-.073.073 0 0 .073.073.073 0-.073 0 0 .072 0 0-.073.073 0 .145-.073.073 0 0 .073.073.073-.073.072-.145 0-.073.072l.073-.072v.072c0-.072 0-.072.073-.072.072-.073 0-.073 0-.146.072 0 0 .073 0 .073.072.073.072 0 .072 0v-.073c.073-.072.146.073.146-.072.145 0 .217-.073.29 0 0-.073.073 0 .073-.073v-.145c-.073-.073-.073 0-.146-.073v.145s-.072 0-.145.073c-.072-.073 0-.073 0-.145 0 0-.072.072-.072-.073-.073 0-.073.145-.218 0 0-.072.072-.072.072-.072h-.072c0 .072 0 .072-.073 0-.073.145-.145 0-.218.072-.072 0 0-.072 0-.072-.072-.073-.072 0-.072 0 0 .072.072.072.145.145v.072h-.073s0-.072-.072-.072v.072h-.073c-.073-.072 0-.072 0-.072 0-.073.073 0 .073-.073-.29 0-.509.073-.8.073.074 0 .146-.073.219-.145-.073.072-.218-.073-.218.072v-.072c-.073 0-.073.072-.073.072v-.145c.073 0 .145-.072.218-.145.073-.073.145-.073.218-.073.072-.072.072-.145.145-.145h.218s-.073-.073 0-.073c.218-.145.436-.217.58-.435-.217.217-.435.145-.653.363-.072-.073-.072.072-.145 0 0 .072.073.072 0 .072h-.072c0-.145-.073-.072-.073-.145a3.541 3.541 0 00-.508.218v.073c-.073 0-.073 0-.146.072 0-.072-.072-.072-.072-.145l.435-.218h.073c.073 0 .073-.072.073-.072v-.073s-.073 0-.073.072h-.072c.072-.072.217-.145.29-.145.072 0 .218 0 .218-.145v-.145c-.073 0-.145-.073-.145 0-.073-.073 0-.073-.073-.073v.146s-.073 0-.073.072c0-.072-.072 0-.072 0v-.145c-.073 0 0 0-.073.072 0 0-.072-.072-.145-.072v.145c0-.072 0-.072-.073-.145 0 .072-.072 0-.072 0V11.4c-.073.073-.218.073-.29.073 0 .072-.146 0-.146.072.218-.072.436-.217.654-.217v-.073c.072 0 .145-.073.145-.073v.073c.072 0 .072 0 .145.073 0 0-.073-.073 0-.073 0-.073-.073 0-.073 0v-.073s.073 0 .073-.072l.072-.073c.073 0 .146-.072.291-.072v.072c.073-.072.145-.145.29-.072 0 0 .073 0 .073-.073.073 0 .073-.073.145 0 0 .073 0 .073-.072.073 0 .072.145 0 .145 0 0-.073 0 0-.073-.073 0-.073.073 0 .073-.073 0 0 .073 0 .073-.072h.072c0 .072-.072 0-.072.072.072.073.072 0 .072.073-.072-.073 0-.145.073-.145v.072c.072.073.072 0 .072 0l-.072-.072c.072-.073.145 0 .145-.073 0-.072-.073 0-.073 0 .073 0 .073-.072.073-.072 0-.073-.073 0-.073 0-.072 0 0-.073-.072-.073 0-.073.072-.073 0-.145v.072h-.073v.073c-.072 0-.145 0-.145.072-.145-.072-.145 0-.218 0 0-.072.073-.072.073-.145-.073.073-.146 0-.218.146-.073-.073-.073-.073-.073 0-.072-.073-.072-.146 0-.146h-.072s0 .073.072.146c-.072-.073-.072.072-.145.072.073-.072.073-.145.073-.145-.073-.073-.146.072-.146.145 0-.072-.072 0-.072 0v.073-.073c-.073 0-.145.073-.218.145l.145-.145c-.072-.072-.145 0-.218 0 0 .073 0 0 .073.073v.072c-.073 0-.073-.072-.073-.072v.072s.073.146.073.073c.072.073 0 .073 0 .073 0-.073-.073 0-.073-.073 0 0 0 .073-.072.073-.073-.073 0-.073 0-.073 0-.073-.073-.073 0-.073-.073 0-.073.073-.073 0v-.145c-.072-.072-.072.073-.072 0 0 .073.072 0 .072.073h-.072c.072.072.072.072.072.145-.072 0 0-.073-.072-.073 0 .073-.218.073-.218 0 0 .073-.073 0 0 .073-.073 0-.073-.073-.073-.073.073 0 .073-.072.145-.072-.072-.073-.145 0-.218 0 0 0 0-.073-.072-.073 0 .073-.073.073-.145.073v.145c-.073-.073-.073.073-.073 0 .073.073-.073.073-.073.145-.072 0 0-.072-.072-.145 0 .073 0 .073-.073.073.073 0 .145-.073.145-.073v-.145h-.072c0-.073-.073-.073-.073-.146v-.072c0 .072-.073 0-.073.072-.072 0-.072 0-.145.073v.073c-.072.072-.145.072-.29 0v-.073s-.073 0-.073-.072c-.072-.073 0-.218 0-.218v.072c0 .073.073 0 .073 0s0-.072-.073-.072v-.073.073c.073-.073.145 0 .145-.073 0 0 0 .073.073.073 0-.146.218-.073.218-.146.072.073.072 0 .072.073.073 0 0 0 0-.073 0 0 .073.146.073.073s0 0-.073 0v-.073c.073 0 .218.073.218-.072 0 .072 0 .072.073.145 0-.073 0-.073-.073-.073 0-.145.073 0 .146-.072.072 0 0 .072.072.145v-.145c0-.073.073.072.073 0v.072s.072-.072 0-.072c.072.072.072 0 .145.072.073-.072.073-.072.145 0 0 0-.072-.072 0-.072l-.072-.073s0 .073-.073 0v.073c-.073 0-.218.072-.218-.073v.073-.073c.218-.145.436-.218.654-.363l.435-.218c.146-.072.29-.072.436-.145l.073-.073c-.073 0-.146.073-.218.073-.073.073-.29.073-.363.073-.145.072-.29.145-.508.218v.072c-.291.073-.581.218-.8.29v-.072.073h-.072v.072h-.073c-.072 0-.072 0-.145.073v-.073h-.072c0 .073-.073-.072-.146 0h.073c0 .073-.073 0-.073.073v-.073h-.072c0-.072 0-.218.072-.218a33.8 33.8 0 01-2.686.363 25.577 25.577 0 01-12.49-2.323c-.944-.436-1.815-.944-2.686-1.38-1.743-.944-3.558-1.888-5.519-2.396a11.493 11.493 0 00-2.76-.363h-.434c-.145 0-.29 0-.436.072-.726.073-1.452.29-2.105.509-.509.218-1.017.435-1.453.726-1.38.871-2.469 2.106-3.195 3.63.146.218.29.364.509.581.145.146.29.364.435.509.073.072.146.218.218.29l.073.073.435.435c.581.654 1.307 1.307 1.961 2.034.29.29.654.58.944.871.073.073.218.218.363.29.145.073.218.218.363.29.145.074.218.219.363.291.218.218.436.436.726.581.146.073.218.218.363.29.146.146.29.219.436.364.218.218.436.363.726.58.145.073.218.219.363.291.146.073.29.218.363.29.145.073.29.218.363.291.146.073.29.218.363.29.146.073.29.218.436.291.145.073.29.218.436.29.145.073.29.218.435.29.29.219.581.364.872.582.29.218.58.363.871.58.436.291.872.509 1.38.8l.436.217.435.218c.073.073.145.073.29.145.073.073.218.073.291.146l.436.217c.072.073.218.073.29.146.218.072.436.218.654.29.145.073.29.145.363.145.072 0 .072.073.145.073.073.073.218.073.29.145.073 0 .146.073.146.073.072.072.218.072.29.145.073 0 .145.073.218.073.073 0 .145.072.218.072.073.073.218.073.29.145.073 0 .073.073.145.073.073.073.218.073.291.145.073.073.218.073.29.145.073 0 .146.073.218.073.073.073.218.073.29.073.073 0 .146.072.146.072.145.073.218.073.363.146.145.072.29.072.436.145.072 0 .218.072.29.072.073 0 .218.073.29.073.146.073.291.073.436.145.145.073.363.073.509.145.145.073.29.073.508.146.145 0 .29.072.435.072.073 0 .218.073.291.073.145.073.363.073.508.073.073 0 .218.072.29.072.146 0 .219.073.364.073.363.072.799.145 1.162.218.363.072.798.072 1.161.145.146 0 .364 0 .509.072h3.848s-.072 0-.072-.072h.145c.072-.073 0-.218.145-.218-.073.073-.073.218 0 .218.145 0 .29 0 .363-.073.145 0 .218 0 .363-.072v-.073s.073-.073.073 0v.073h.29-.072c0-.073.072-.073.145-.073v.073h.073c.072 0 .145-.073.145 0 .072 0 .218 0 .29-.073v-.073.073h.145c.073 0 .146 0 .218-.073v-.072c-.072-.073-.072.072-.145-.073 0 .145-.073-.072-.145.073 0-.073-.073 0-.073-.073 0 0 .073-.072.145 0 0-.145.146-.072.218 0v-.145c-.072.073-.29-.145-.363.145h-.218v.073l-.072.072h-.073c0-.072.073 0 .073-.072 0 0-.073 0-.073-.073v.073h-.072v-.073c-.073 0 0 .145-.073.073v.072s0 .073-.073 0c0-.145-.145-.145-.218-.145.073-.072.218 0 .218-.072h.218c0-.073-.072 0-.145-.073h.073s.072 0 .072.073v-.073c.073 0 .073 0 .145-.073v.073c0-.073 0 0 .073 0 0-.073.073 0 .145-.073.073 0 0 .073 0 .073-.072 0-.145 0-.145.073l.073-.073v.073c0-.073.072-.073.072 0 .073-.073 0-.073 0-.146.073 0 0 .073 0 .073.073.073.073 0 .073 0v-.073h.072s.073 0 .073-.072c.145 0 .218-.073.29 0 0-.073.073 0 .073-.073v-.145c-.073-.073-.073 0-.073-.073v.145c-.072 0-.072 0-.145.073-.072-.073 0-.073 0-.145 0 0-.072 0-.072-.073-.073 0-.146.073-.218 0 0-.072.072 0 .072-.072h-.072c0 .072 0 .072-.073 0-.072.145-.145 0-.218 0-.072 0 0-.073 0-.073-.072-.073-.072 0-.072 0 0 .073.072.073.072.145v.073h-.072s0-.073-.073-.073v.073h-.072c-.073-.073 0 0 0-.073 0-.072.072 0 .072 0-.29 0-.58.073-.871 0l-.073-.072c.073-.073.073-.073.073-.146.072 0 .145.073.218.073l-.146.145c.146 0 .29-.072.363 0 0-.145.073-.145.073-.29.073 0 .145.072.218.072 0-.145-.218 0-.218-.145l.073.073c0-.073.072 0 .145-.073 0 .073 0 .073.073.145 0-.072 0-.072.072-.145.073.073.145.073.145 0 .073 0 0 .073.073.073v.072h.145c.073.073-.072.073 0 .146 0 0 0-.146.073-.073v-.073c.072-.072.072 0 .072-.072 0-.073.073.072.073 0 .073-.073-.073-.073-.073-.073h.146s-.073.073 0 .073c0-.073.072-.073.072 0 .073-.145.218-.073.363-.073v-.072c-.072 0-.072 0-.072-.073v.073c-.146.072-.218 0-.363 0 .072-.073.217 0 .29-.073h-.145c.072-.073.145 0 .145-.073.073 0 0 .073.073.073 0 0 .072 0 .072-.073.073 0 0 .073 0 .073h.073c0-.073.072-.073.072-.145.073 0 0 .072.073.145.073-.073.218-.073.218 0 .073-.073.073 0 .218-.073.072 0-.073 0-.073.073.073 0 .145-.073.29-.073v-.145a.156.156 0 00.146-.145c.072 0 0 .072.072.072.073 0 .073-.072.146-.072.072-.073 0-.073.072-.073.073 0 0 .145 0 .145 0 .073-.072-.072-.145.073.073.073.145 0 .218-.073.072 0 .072.073.072.073.073-.073.146-.218.218-.145v-.073c.073-.072.073-.072.146-.072 0-.073.072-.073.072-.146-.072.073-.145 0-.218.073-.072 0 0-.073-.145-.073 0-.145.073-.072.145-.072 0-.073-.072 0-.072-.073 0 .073-.073.073-.073.073 0 .072-.072.072-.072.072.072 0 .072-.072.072 0 0 .073-.072 0-.072.073-.073 0 0-.073-.073-.073.072.073-.073 0-.145.073v-.073c-.073 0-.145 0-.218.073-.073-.073-.145 0-.218-.073-.073.073 0 .073-.073.146v-.073c-.072-.073-.145 0-.217 0 0 .073 0 .073.072.073 0 .072-.072.072-.072.072s-.073-.072-.073 0c-.073-.072 0 0 0-.072-.073 0-.145.072-.218 0 0 .145-.145 0-.145.072 0-.072-.073 0-.073-.072.073 0 .073-.073.145 0 0-.146.146-.073.29-.073v-.145c-.072.072-.144.072-.29.072-.072 0-.217 0-.217.146h-.218c0 .072 0 .072.072.072l-.072.073h-.145c0-.073.072 0 .072-.073-.072 0-.072 0-.145-.072l-.073.072h-.072v-.072c-.073 0 0 .145-.145.072v.073l-.073.072c0-.145-.145-.145-.218-.145.073-.072.29 0 .218-.072h.218c0-.073-.073 0-.145 0 .072-.073.072 0 .072-.073.073.145.073 0 .145.145.073-.072 0-.072 0-.145.073 0 .073.073.073.073 0-.073.073 0 .073-.073 0 .073-.073.073-.146.073l.146-.073c.072-.073 0 0 .072 0 .073-.073.145-.073.145-.073.073 0 0 .073.073.073-.073.073-.218 0-.145.145.072 0 .072-.072.072-.072l.073.072c.073-.072.073-.072.145-.072.073-.073-.072-.073 0-.146.073 0 0 .073 0 .073.073.073.073 0 .145 0v-.073c.073-.072.218 0 .218-.145.145 0 .218-.145.363-.072 0-.073.073-.073.146-.073 0-.073-.073-.073 0-.145h-.146c-.072 0-.072.072-.145.072v-.072l-.072.072c-.073 0-.146.146-.29.073 0-.073.072-.073.144-.145h-.145c0 .072 0 .072-.073 0-.072.145-.217 0-.29.072-.073 0 0-.072 0-.072h-.073c0 .072.073.072.146.145v.073h-.073s0-.073-.073-.073v.073h-.072c-.073-.073 0-.073 0-.073 0-.073.072 0 .072-.073-.072 0-.217 0-.29.073h-.726c.073-.073.145-.145.29 0 0 0 .073 0 .073-.073.073 0 .145-.072.218 0 0 .073 0 .073-.073.073 0 .073.145 0 .145 0h.073s.073 0 .073-.073h-.073c0-.072 0 0-.073-.072 0-.073.073 0 .073-.073v-.072s.073 0 .073-.073h.072c0 .073-.072 0-.072.073 0 .072.072 0 .072.072 0-.072.073-.145.073-.145v.073c.072.072.072 0 .072 0l-.072-.073c.072-.073.145 0 .218-.073 0-.072-.073 0-.073 0v-.072c.073 0 .073-.073.073-.073 0-.072-.073-.072-.073 0-.073 0 0-.072-.073-.072 0-.073.073-.073 0-.146v.073h-.072v.073c-.073 0-.145 0-.145.072-.073-.145-.146 0-.218 0 0-.072.072-.072.072-.145h-.072l.072-.073h.218s-.072-.072 0-.072c.29-.146.508-.29.654-.509-.073.146-.218.218-.363.29-.146.073-.218.073-.363.219-.073-.073-.073.072-.218 0 0 .072.072.072 0 .072h-.073c0-.145-.072-.072-.072-.145-.218.073-.364.145-.581.218v.073c-.073 0-.146 0-.218.072l.072-.072c-.072-.073-.072 0-.145 0 0 0-.072-.073 0-.146h.145v.073c.073 0 .073-.073.146-.073v.073-.073c.072 0 .145-.072.145-.072v.072c.073.073.072-.145.145-.072 0 0 0-.073-.072-.073.145-.073.217-.145.363-.145.072 0 .217 0 .217-.145v-.146h-.145c.073 0 .073-.072.145-.072-.145.072-.29-.073-.29.072v-.072c-.073 0-.073.072-.145.072v-.072h-.073c0 .072.073 0 .073.072h-.073v.073s0-.073-.072-.073c0 .073-.073 0-.073 0v-.072c-.073.072-.218 0-.29 0-.073.072-.073 0-.146 0h.073s.072-.073.072 0h.146c.072 0 .145 0 .218-.073 0 0 0 .073.072.073v-.073h-.072.145v-.073c.072 0 .072-.072.145-.072v.072c.073 0 .073 0 .073.073 0 0-.073-.073 0-.073 0-.072-.073 0-.073 0v-.072h.073l.072-.073c.073 0 .145-.072.218-.145v.073c.073-.073.145-.146.218-.073 0 0 .072 0 .072-.073.073 0 .073-.072.146-.072v.072c.072 0 .145 0 .145-.072 0-.073 0 0-.073 0 0-.073.073 0 .073-.073 0 0 0-.072.072-.072h.073c0 .072-.073 0-.073.072h.073c-.073 0 0-.145 0-.145v.073h.073s-.073 0-.073-.073.073-.073.145-.145c-.072-.073 0 0-.072 0 .072 0 0-.073 0-.073-.073-.073-.073 0 0 .073-.073 0 0-.073-.073-.073 0-.073 0-.073-.073-.145 0 0 0 .072.073.072h-.073c0 .073 0 .073.073.073-.073 0-.073.073-.073.073-.145-.073-.072.072-.145.072-.072-.072.073-.072 0-.145-.072.073-.145 0-.145.145-.073 0-.073-.072-.073 0 0 0-.072-.072 0-.072h-.072s0 .072.072.072c-.072 0-.072.073-.145.073.073-.073.073-.145.073-.145-.073-.073-.073.072-.073.145-.072-.073-.072 0-.072 0v.073-.073c-.073 0-.073.073-.146.145.073-.072.073-.072.073-.145h-.145c0 .073 0 0 .072.073v.072c-.072 0-.072-.072-.072-.072v.072s.072.145.072.073c.073.072 0 .072 0 .072 0-.072-.072 0-.072-.072 0 0 0 .072-.073.072-.072-.072 0-.072 0-.072 0-.073-.072-.073-.072-.073s-.073.073-.073 0v-.145c-.073-.073-.073.073-.073 0 0 .073 0 0 .073.073h-.073c.073.072.073.072.073.145-.073 0 0-.073-.073-.073 0 .073-.217.073-.217-.072 0 .072-.073 0 0 .072-.073 0 0-.072-.073-.145h.073v.145s0-.145.072-.072v-.146c0-.072.073.073.073 0 0-.072 0-.072-.073-.072h.073v.072c0-.072.072 0 0 0 0-.072.072-.072.145 0v-.072l-.073-.073v.073c-.072 0-.145-.073-.217-.073.072-.073.072.073.145 0 0 0-.073 0-.073-.073 0 0 .073 0 .073-.072v.072h.072c0-.072.073 0 .073-.145.073.073 0 .073.073.145 0-.072.072 0 .072.073 0-.073.073 0 .073 0v.073c.072.072.072 0 .145.072v-.145s.073 0 .073-.073v.073h.072v-.073.146c0 .072 0-.073-.072 0 0 .072.072.072.072 0v.072c0-.072.073-.072.073-.072v-.073s.072 0 .072.073c0-.073 0 0 .073-.073 0 .073-.073-.073-.073 0 0-.073 0-.073-.072-.145 0-.073.072 0 .072 0v-.073c0 .073 0 .073-.072 0v.073s.072 0 0 .072c0 0 0-.072-.073 0v-.072c0 .072 0 0-.072 0v-.073l-.073-.072c0-.073-.073-.073-.073-.073l.073-.073s.073.073.073 0c0 0 0-.072-.073-.072v-.073c0 .073-.145 0-.145.073v-.073.073h-.073v.072c0 .073-.072 0-.072.073v-.145h-.073s-.073 0-.073-.073v.073c0 .145-.072-.073-.072.072 0-.072 0 0-.073-.072h.073c0-.073.072-.073.145 0h.073v-.073c-.073.073-.146-.072-.146-.072 0-.073 0-.073.073 0v-.073.073c0 .072.073 0 .073.072v-.072c.072 0 .072.072.145 0h.145s.073 0 .073.072c0-.072.072 0 .072 0v-.145h.073v.073c0 .072 0 0 .072 0 0 0 .073 0 .073-.073.073.073.073 0 .145-.145 0 0-.072.072-.072 0v.072h-.073s0-.072 0 0c0-.072-.145-.145-.145-.072-.073-.073-.145-.073-.145 0 0 0 0-.073-.073 0v-.073h-.145.072s0-.072-.072-.072c-.073.072-.145-.073-.145 0v-.073c0-.073-.073 0-.073 0 0 .073 0 .073.073.145v-.072s.072.072.072 0h-.145l-.073-.073c0-.073 0 0-.072.073h.072-.217c-.073 0-.218 0-.291-.073 0 0 0-.073-.073-.073.073-.072 0-.072.073-.145h.073v.073-.073l.072-.072h.073v.072h.145v.073c0 .072 0 0 .073 0v-.073c.072 0 .218.145.29.073l.073.072h.072c.073.146.146 0 .218.073.073-.073.145-.073.218 0 0 .073 0 .073-.073.145.073 0 .146-.145.218-.072 0-.146 0-.146-.072-.29.072 0 .072 0 .145.072 0-.145-.145 0-.218-.145 0 0 .073 0 .073.072 0-.072.072 0 .072-.072 0 .072 0 .072.073.145v-.145c.072.072.072.072.072 0 .073 0 0 .072.073.072v.073h.073c.072.072 0 .072 0 .145 0 0 0-.145.072-.073v-.145c0-.072.073.073.073 0 0-.072 0-.072-.073-.072h.073v.072c0-.072.073-.072.073 0 0-.145.145-.072.217 0V18.3c-.072 0 0 0-.072-.073v.073c-.073 0-.145 0-.218-.073.073-.073.145 0 .145 0s-.072 0-.072-.073c0-.072.072 0 .072-.072 0 0 0 .072.073.072v-.072.072h.072c0-.072.073-.072 0-.145.073 0 0 .073.073.145 0-.072.073 0 .145 0 0-.072.073 0 .073 0v.073c.072.073.072 0 .145 0v-.145s.073 0 .073-.073c.072 0 0 .073.072.073 0 0 0-.073.073 0v-.073c.072 0 0 .073 0 .145 0 .073-.073-.072-.073 0 0 .073.073 0 .073 0s0 .073.072.073c0-.073.073-.145.146-.073v-.072s.072-.073.072 0v-.073c0 .073-.072-.073-.072 0-.073-.073 0-.073-.073-.145 0-.073.073 0 .073 0 0-.073-.073-.073-.073-.073 0 .073 0 .073-.072 0v.073s.072 0 .072.072c0 0-.072-.072-.072 0 0-.072 0-.072-.073-.072.072.072 0 0-.073 0v-.073s-.072-.072-.072 0c-.073-.072-.073 0-.145-.145 0 0 0 .073-.073.073v-.073c-.073-.073-.073 0-.145-.073v.073c0 .073-.073 0 0 .073 0 0 0-.073-.073-.073v-.073c-.073 0-.073.073-.145-.072 0 .145-.073-.073-.073.072 0-.072-.072 0-.072-.072 0 0 .072-.073.072 0v-.073h.073s.072 0 .072.073v-.073h.073v.073s.073 0 .073-.073h.072s.073 0 .073.073c.072-.145.29.072.363 0-.073-.073-.145-.073-.218-.073v-.072c-.145.072-.29.072-.436.072l-.072.073h-.219c-.073 0-.145 0-.145.072h.218v.073h-.146v.145h-.072c0-.072.072 0 .072-.072 0 0-.072 0-.072-.073v.073h-.073v-.073h-.073c-.072 0 0 0 0 0s0 .073-.072.073v.072s0 .073-.073.073a.156.156 0 00-.145-.145c.073 0 .073 0 .073-.073v-.073h.145c0-.072-.073 0-.073-.072 0-.073 0 0 .073-.073.072.145.072 0 .072.145v-.145l.073.073v-.073s0 .073.073.073c0-.073 0 0 .072 0 0-.073.073 0 .073-.073v.073s-.145 0-.073.072c0 0 0-.072.073-.072v.072c0-.072 0-.072.073 0v-.145c.072 0 0 .073 0 .073.072.072.072 0 .072.072V17.5c0-.073.145.072.145-.073.073 0 .146-.072.218 0 0 0 .073 0 .073-.072 0 .072.072 0 .072 0 .073.145.146.072.146.145.072-.073 0-.073-.073-.073.073-.072.073.073.073 0 0 0-.073.073 0 .073h.072c-.072 0 0-.073 0-.145v.072c-.072 0-.145 0-.218-.072 0 .072-.072 0-.072 0 0-.073 0-.073-.073-.073v.145-.072c-.072-.073-.072 0-.072-.073v.145h-.073s0-.072-.073 0v-.145s-.072 0-.072-.073c-.073 0-.073.073-.145 0 0-.072.072 0 .072-.072v-.073h-.145c0 .073 0 .073 0 0 0 .073-.145 0-.145 0v-.073h.072v.073c0-.073 0-.073.073-.073h-.073c0-.072-.072-.072-.072 0-.073-.072.072-.072 0-.072 0-.073.072-.073.072-.145 0 0-.072 0 0 .072 0 0 0 .073-.072.073h-.146c-.072-.145-.145 0-.217-.073 0-.072.072 0 .145-.145-.073.073-.145-.073-.29.073V16.7c.072-.073.145-.073.145-.073.072-.072.072-.072.072-.145.073 0 .073.073.145 0 0 0-.072-.072 0-.072.073 0 .073-.073.146-.073.072 0 .072 0 .072-.073.073 0 .073-.072.073-.072v.072s.145 0 .145-.072h-.072l.072-.073c-.072.073-.145.145-.218.145-.072 0-.072.073-.145.073h-.073.073l-.073-.073v-.072c-.072-.073-.145 0-.145 0h-.072v-.073c-.073 0-.146 0-.146.073v-.073h-.145c.073-.073.145-.073.218-.145h.145c.145 0 .29 0 .363-.073h-.218v-.362h.146c0-.146-.218 0-.218-.146 0 0 .072 0 .072.073 0-.073.073 0 .073-.073 0 .073 0 .073.073.145v.073s0-.073-.073-.073c0-.072 0-.072.073-.072.072.072.145.072.072 0 .073 0 .073.072.073.072v.073c.073 0 .073 0 .145-.073.073 0 0 .073 0 .145 0 0 0-.145.073-.072v-.073c.072-.072.072 0 .072-.145 0-.073.073.073.073 0s-.073-.073-.073-.073h.073v.073c0-.073.073-.073.073 0 0-.073.072-.073.072-.073v.073h.073s0 .073.072.073v-.073c.073 0 .073 0 .146.073v-.073c-.073 0 0 0-.073-.073v.073h-.145.145c-.072 0-.145-.073-.218 0h-.072c.072-.073.145 0 .218-.073-.073 0-.073 0-.146-.072h.145v-.073s0 .073.073.073l.073-.073v.073h.072c0-.073.073-.073.073-.146.072 0 0 .073.072.146 0-.073.146 0 .146 0 .072-.073.072 0 .145-.073-.073 0-.145 0-.145.073v-.073c-.073.145-.218.145-.29.218 0 .218-.291 0-.291.218.145-.145.363-.073.508-.29h.073c0-.146.145-.073.218-.146.072 0 .072-.072.145 0v-.145c.072 0 .072-.073.072-.145.073 0 0 .072.073.072 0 0 .073-.072.073 0v-.072c.072 0 0 .072 0 .145 0 .072-.073-.073-.073 0 0 .072.073 0 .145 0 .073 0 0 .072.073.072 0-.072.145-.145.145-.072.581-1.38.581-1.452.581-1.525l.073.073c0-.073.072 0 .072-.073-.072.073-.145-.073-.145 0zm-.871-.58s-.073.072-.073 0c0 0 .073-.074.073 0zm-.146-.074v.073c-.072-.073 0 0-.072 0v-.073s0 .073.072 0zm0-.217h-.217.217zm-.145.145c0 .072-.072.072-.072 0 0 .072.072 0 .072 0zm-.363.145c.073.073 0 .073 0 0zm-.29 0s0 .073-.073.073c.073-.073.073-.146.073-.073zm1.016-2.469c.073.073 0-.072.073 0 .073 0 0 .073-.073 0 .073 0 .073 0 0 0zm-.072 0c0 .073 0 .073 0 0 0 .073 0 .073 0 0-.073.073 0 .073 0 0zm-1.09.509s-.072 0-.072.072c0-.072 0-.072.072-.072zm-.072-.436c0 .072-.073 0 0 0-.073 0-.073-.073 0 0zm-.218.508c0-.072.145.073.145-.072h.073c-.145.072-.145.145-.218.072 0 .073 0 .073 0 0 0 .073 0 0 0 0zm-.073 0c0 .073-.072.073-.072.073v-.073c-.073-.072 0 .073.072 0zm-.435.145c.072 0 .145 0 .218-.072 0 .072 0 .072.072.072-.145 0-.218.073-.29 0 0 .073 0 .073 0 0zM12.126 6.826c-.218.145-.508.363-.799.508l-.436.218c-.072.072-.217.072-.29.072-.145 0-.29.073-.436.073H9.44c-.218 0-.436-.073-.653-.145-.146-.073-.29-.073-.364-.145-.145-.073-.217-.146-.363-.218-.217-.146-.363-.363-.508-.581 0 0 0-.073-.072-.073-.073-.072-.073-.145-.146-.145 0-.073-.072-.073-.072-.145V6.1c.218-.364.508-.654.871-.8.073 0 .145-.072.218-.072h.072c.073 0 .146 0 .146-.072h1.67c.145 0 .218.072.363.072h.072c.073.073.218.073.29.145.074.073.219.146.291.218.073.073.146.073.146.145.217.218.435.436.58.727.291.145.291.29.146.363zm22.51 16.628zm.072.363l.073-.145h.073c0 .145-.073.218-.146.145zm1.598-.145s0 .072 0 0c0 .072 0 .145 0 0zm.726-.436s.073 0 .073.073c-.073-.073-.073 0-.073-.073zm-.073-.072c0 .072 0 .072 0 0 0 .072 0 .072 0 0-.072 0-.072.072-.072.072v-.072s0 .072.072 0zm0-.218c-.072 0-.145.072-.217.072.072-.072.217-.072.217-.072zm-.145.145c0 .073-.072.073-.072 0h.072zm-.363.073c.073.072.073.072 0 0 0 .072 0 .072 0 0 0 .072 0 .072 0 0 0 .072 0 0 0 0zm-.072.145s-.073 0 0 0c-.073 0-.073 0 0 0-.073-.073-.073 0 0 0zm-.436.435c0 .073-.073 0-.073 0h.073zm.073-.508c0 .073 0 .073 0 0 0 .073 0 .073 0 0 0 .073 0 .073 0 0zm0 .073s0 .072 0 0zm-.218.072l.072.073c-.072 0-.072.073-.145.073v-.073l.073-.073zm3.05-1.524v.072h-.073c0-.072 0-.145.072-.072zm-.364.145c.073.072.073 0 .145 0 0 0-.217.072-.145 0zm-.435 0c.072 0 0 .072.072.072-.072.146-.145 0-.218 0 0-.072.146 0 .146-.072zm-.581-.073c0 .073.072 0 .072-.072.073.072-.072.217-.145.145.073 0 .073-.073.073-.073zm1.016-.871c.073 0 .073 0 .145-.073-.072.073-.145 0-.145.145-.072.073 0 0 0-.072zm-.363.29s.073-.072.073 0c0 0-.073.073-.073 0zm0-.072v.072c-.072-.072-.072 0-.072 0v-.072h.072c-.145.072-.145.072 0 0-.072 0-.072 0 0 0zm-.072-.218s-.073 0-.073.072c0-.072-.073 0-.073 0h.073c-.073 0-.073.073-.145 0 0-.072.145-.072.218-.072zm-.146.218l-.072.072c0-.072 0-.145.072-.072zm-.508.145c.073.073 0 0 0 0zm-.363 0l-.073.073c0-.073.073-.146.073-.073zm.363-.654c.073.073.073-.072.073 0 0 .073-.073.073-.073.073.073 0 .073 0 0-.073 0 .073 0 .073 0 0 .073.073 0 0 0 0zm-.073 0c0 .073 0 .073 0 0 0 .073 0 .073 0 0-.072.073 0 .073 0 0zm-.944 1.525c0-.072 0-.072 0 0 0-.072 0-.072 0 0zm-.072-.218v-.072h.073c.072.072 0 .145-.073.072.073.073.073 0 0 0zm.073.218c.072 0 .072 0 0 0 .072 0 .072 0 0 0zm.58-.145c.073 0 .073-.073 0 0 .073-.073.073-.073 0 0zm.146-.218c.072 0 .072 0 0 0 .072.073.072.073 0 0zm-.218.073c.072 0 .145-.073.145 0 0 .072 0 .072-.145 0 .072.072 0 .072 0 0zm.145.29h-.145v.073h-.145v-.145c-.073.072-.146.072-.146.072-.072-.072-.072-.072-.145-.072h.218v-.073h.073v.073c0 .072.217 0 .29.072zm-.218-.29s.073.072 0 0c0 .072 0 .072 0 0 0 .072 0 0 0 0zm-.072 0s0 .072 0 0c0 .072 0 .072 0 0 0 .072 0 .072 0 0zm-.073.145h-.073.073zm-.073-.073c.073 0 .073 0 0 0zm.29-.653v.073s.073.072 0 .072c0-.072-.072.073-.072 0 0 0 0-.072.073-.145zm-.217-.29c-.073.072-.073 0-.073 0h.073zm-.073.508c.073 0 .073.072.146.072-.073 0-.073.073-.146.073v-.145zm-.072.508c-.073.073-.073 0-.073 0h.073c-.073 0-.073 0 0 0-.073 0-.073 0 0 0-.073 0-.073 0 0 0zm-.073-1.452c0 .072 0 .072 0 0 0 .072 0 0 0 0zm0 .944s0 .072 0 0c-.072.072-.072.072-.145.072 0 0-.073-.072 0-.072.073.072.073-.073.145 0zm-.072-.363s0 .072 0 0c-.073.072-.073 0-.073 0h.073zm.653-1.307h.145s-.072 0-.072.072c0-.145 0-.072-.073-.072zm1.09-1.162c0 .072 0 .072-.073.072v-.072c0 .072 0-.073.072 0zm-.219.072c.073 0 .073 0 0 0 .073 0 .073 0 0 0 .073 0 .073.073 0 0 0 0 .073.073 0 0zm-.217.218s0 .073 0 0c0 .073 0 0 0 0zm-.29.145s0 .073 0 0c0 .073 0 .073 0 0zm-.364.218s-.073 0-.073.073c0-.073 0-.073.073-.073zm-.073-.435c0 .072-.072 0 0 0-.072 0-.072-.073 0 0zm-.217.508c.072 0 .145 0 .072-.073h.073c0 .073-.073.073-.145.073 0 .072 0 .072 0 0zm.726-1.09c0 .073 0 .073 0 0 0 .073 0 .073 0 0zm-.146 0c0 .073 0 0 0 0 .073.146-.072.073 0 0zm-.217-.145c0 .073 0 .073.072.073-.072.145-.072 0-.072-.072 0 0 0 .072 0 0zm.58-.653c0 .073-.072 0-.072.073v-.146l.073.073zm-.435.073c0 .072 0 0 0 0 0 .072-.073.072 0 0zm-.145 0c0-.073 0-.073 0 0 0-.073 0-.073 0 0zm.072.072c0-.072 0-.072 0 0 0-.072 0-.072 0 0 0-.072 0-.072 0 0zm0-.363c0 .073 0 .073 0 0 0 0-.072.073-.145.073.073-.073.073-.073.145-.073zm-1.016-.58s0 .072 0 0zm-.218.217c0-.073 0 0 0 0 .145.073.218-.073.218 0h.072v.073c-.072 0-.072 0-.072.072h-.145v.073h-.073c0-.145-.073-.145 0-.218 0 .073 0 0 0 0 0 .073 0 0 0 0zm.29 1.162s0-.073 0 0v-.073s.073 0 0 .073zm0-.871s0-.073 0 0zm0 .363s0 .072 0 0zm0 1.161v-.072.072zm-.145 1.38s-.073-.073 0-.073 0 0 0 .073zm0-1.452c.073 0 0 0 0 0zm0-.581s0-.145 0 0c.073-.073.073 0 0 0 .073 0 .073 0 0 0 .073-.073 0 0 0 0zm0-.799s.073 0 0 0c.073 0 .073 0 0 0 .073 0 .073 0 0 0zm.073.363c-.073 0-.073 0 0 0-.073 0-.073 0 0 0zm-.218.726c-.073 0-.073 0 0 0zm-.073-1.38c0 .073-.072.073 0 0zm-.435 4.793s0 .073-.073.073c0 0-.073 0-.073.072.073-.072.073-.145.145-.145zm-.146 0c.073-.072.073 0 0 0 .073.073 0 .073 0 .073v-.073zm0 .872c-.072.072-.145 0 0 0-.072 0-.072 0 0 0zm-.29.798s.072-.072.072 0c0 .073-.072 0-.072 0zm.218.073l-.073-.073c.073.073.073 0 .073.073zm.072-.799c0-.073 0-.073-.072-.145.072 0 .072-.073.145-.073.072 0 .145 0 .218.073-.073 0-.073 0-.073.072 0 0-.072 0-.072-.072v.072h-.073v.073s0 .073-.073 0zm.145.508c-.072-.072 0-.072-.072-.145.145.073.145.073.072.145v-.072s.073.072 0 .072zm.146.073c-.073 0 0 .073-.073.073 0-.073 0-.073.073-.073zm-.218.436c.072 0 .073-.073.145-.073v.073c0-.073-.072 0-.145 0zm.218-.509c0 .073.072 0 .145 0 0 .146-.145.073-.145 0zm.145-.363c0-.072 0-.072 0 0 0-.072 0 0 0 0zm0-2.759v-.073h.291c0 .073-.073 0-.073 0 0 .073-.073 0-.073.073-.072-.073-.072.073-.145 0zm.073 2.324c0-.073 0-.073 0 0 0-.073 0-.073 0 0zm.072-.726v-.073.073zm.218.726s-.073 0 0 0c-.073 0-.073.072 0 0-.073.072-.072.072-.072.145 0 0-.073 0-.073-.073 0 0 .073 0 .073-.072h.072c0-.073 0-.073.073-.073l-.073.073c0 .072 0 0 0 0zm0 .145v-.073c.073 0 .073.145 0 .073zm0-.654s-.073 0 0 0c-.073 0-.073 0 0 0 0-.072.073-.072.073-.072 0 .072-.073.072-.073.072zm.145-.29c0-.073-.072-.073 0 0-.072-.073-.072-.073 0 0 0-.073 0-.073 0 0 0-.073 0-.073 0 0zm0-.218c-.072 0 0-.072 0 0-.072 0 0 0 0 0h-.072s.072-.072 0-.072l.072-.073c0 .073-.072.073 0 .145v-.145c.073.073 0 .073 0 .145zm.654-1.525c0 .073 0 .073-.073.073 0-.073 0-.073.073-.073zm-.436.073s.073.072.073 0c0-.073 0-.073 0 0v-.073c.072.073.072 0 .145 0 0 0 0 .073.073.073-.073.072-.146.072-.218.072l-.073-.072c-.072.072-.072.145-.145.145s-.073-.073-.073 0c0 0-.072 0-.072.073v-.073c-.073 0 0 0-.073.073-.073-.073 0-.073.073-.146.145-.072.218 0 .29-.072zm.218-.654c0 .073 0 .073 0 0 0 .073-.073.073-.073.073v-.073s0 .145.073 0zm-.145.145c-.073 0-.145.073-.218.073.073 0 .145-.073.218-.073-.073 0-.073 0 0 0zm-.29-.87c.072 0 .072 0 0 0l.072.072c0-.073 0 0-.073 0 .073 0 0-.073 0-.073zm.29 0h-.073v-.073c0 .072-.072.072-.072 0h-.073c0-.073.073 0 .073-.073 0 .073 0 .073.072.145v-.145c0 .073.073.145.073 0v.145c0-.072 0-.072 0 0zm.072-.291v.072h-.072v-.145c0 .073-.073.073-.073.073-.072-.073-.072-.073-.145-.073 0-.072.073 0 .145 0V18.3c.073 0 .073 0 .073.072 0 0 .072-.072.072.073zm-.072-.218s-.073-.073-.073 0c0-.073 0-.073.073 0-.073-.073 0-.073 0 0zm0-.073c0 .073 0 .073 0 0zm-.073.146c-.072-.073 0-.073 0 0zm.145-.146s-.072 0 0 0zm0-.072c0-.073 0 0 0 0zm.073.218c0-.073-.073 0 0 0 0-.073-.073-.073-.073-.073v-.073l.073.073v.073zm.145-.073v-.073c0 .073 0 0 .073 0 0-.072 0 0-.073.073.073 0 .073 0 0 0zm-.072-.508c0-.073 0 0 0 0zm-.073 0c0 .072 0 0 0 0 0 .072 0 .072 0 0v.072h-.073c0-.072 0 0 .073-.072zm-.145-.146c.072.073.072.073 0 0 .072.073 0 .073 0 0zm.072.218c-.072 0-.072 0 0 0-.072 0 0 0 0 0zm-.072.145c.072 0 .072-.072.072-.072l.073-.073c.073 0 .073-.072.073-.072 0-.073 0 0 0 0h.072v.072h-.072s-.073 0 0 .073l.072-.073s-.072 0-.072.073v.072h-.146s-.072 0-.072-.072v.072h-.073v-.072c.145 0 .218.145.073.072l.072.073-.072-.073s0 .073 0 0c0 .073 0 0 0 0zm0-.363v.146c0-.073 0 0-.073 0 .073-.073.073-.073.073-.146zm-.073.29h-.072.072zm-.145-.144s.073 0 0 0v.072-.072zm0 .58c0-.072 0-.072 0 0zm0-.145s-.073 0 0 0c-.073 0 0 0 0 0zm0 .218c-.073 0-.073 0 0 0-.073 0 0 .073 0 .073s0-.073-.073-.073h.073c-.073-.072 0-.072 0 0zm-.073-1.452h.073-.073zm.073.072c0-.072 0-.072 0 0 0-.072 0 0 0 0zm2.614-.435s0 .072 0 0c0 .072 0 .072 0 0 0 0 0-.073 0 0zm-.145 0c0 .072 0 0 0 0 .072.145-.073.072 0 0zm-.29-.073s0 .073.072.073c0 .145-.073 0-.073-.073-.072 0 0 .073 0 0zm-.291-.145c0 .073 0 0 0 0 .072 0 .072.145 0 .073-.073 0 0-.073 0-.073zm.726-.508s0 .072 0 0c0 .072 0 0 0 0zm-.073.072c-.072 0 0 0 0 0zm-.29 0s-.073.073 0 0c-.073 0 0-.072 0 0zm-.073 0c-.072 0-.072 0 0 0h-.072c0-.072 0 0 .072 0zm-.072-.218c-.073 0-.073.073-.145.073 0-.145.145-.145.145-.073zm-.073.073c0 .073-.072.073 0 0-.072.073-.072 0 0 0zm-.145-.218c0 .073 0 .073 0 0zm-.073.073s.073 0 0 0h.073v.072h-.073c.073 0 .073-.072 0-.072l.073.072c-.073 0-.073 0-.073-.072zm-.072 0c-.073 0-.073 0 0 0-.073 0-.073 0 0 0-.073 0-.073 0 0 0zm0 .218c.072.072 0 .072 0 0 0 .072 0 0 0 0zm-.073-.363c0 .072.073-.073.073.072l-.073.073v-.145c0 .072 0 .072 0 0-.073.072-.073 0 0 0 0 .072 0 0 0 0zm0 .072c0 .073-.073-.072-.073 0h-.072v-.072c0 .072.072.072.145.072-.073 0-.073 0 0 0zm-.145-.072c0 .072 0 .072 0 0zm0 .363s0 .072 0 0c0 0 0-.073 0 0zm.29-1.017v.073c0-.073-.072 0 0 0v-.073c-.072 0-.072 0 0 0zm-.145 0c.073.073 0 .073 0 0v.073s-.073.072-.073 0c0 .072.073.072 0 .072h-.072v-.072c.072 0 .072-.073.145-.073zm.29-1.017c-.072 0-.072 0 0 0 0-.072 0-.072 0 0zm0-.798v.072s.073.073 0 .073c0-.073 0 .073-.072 0 .072-.073.072-.145.072-.145zm-.145.145s.073 0 .073.073c-.073 0-.073.072-.073.072v-.145zm-.29-.726s-.073-.073 0-.145c.072 0 .145.072.218 0 .072.145-.073.145-.073.145h-.145l.072.072c-.072 0-.072 0-.072.073h-.145v.073h-.073c0-.073-.073-.073-.073-.146 0 0 0-.072.073 0v-.072c.073.072.145 0 .218 0zm-.073.944c0-.073 0-.145.073-.073-.073 0 0 .073-.073.073zm0-.145c-.072-.073 0-.073-.072-.146 0-.072 0-.072.072-.072v.072-.072c.073.072 0 .072 0 .218v-.073c-.072 0 0 0 0 .073zm0-.364h.073v.073s0-.073-.073-.073zm-.218 1.525s0 .073 0 0c-.072.073-.072 0 0 0-.072 0 0 0 0 0zm-.072-1.742c0 .072-.073 0 0 0zm0 1.888c0 .072 0 .072 0 0 0 .072 0 0 0 0zm0 .29c0 .073 0 .073 0 0 0 .073 0 .073 0 0zm0-.29s.072 0 0 0c.072 0 .072 0 0 0zm0-.436s.072 0 0 0c.072 0 .072 0 0 0 .072.073 0 .073 0 0zm.072-.654s0 .073 0 0c0 .073 0 0 0 0zm.073-1.307s.073 0 .073-.072h.072s-.072 0-.145.072zm.218-.145c.072 0 .072 0 0 0 .072 0 .072 0 0 0 .072 0 .072 0 0 0zm.218-.072c-.073 0-.073.072-.146.072.073-.072.146-.072.146-.072zm.072-.364c0 .073 0 .073 0 0 0 .073 0 .073-.072.073 0 0 0-.072.072-.072zm-.653.146c.072 0 .218.072.29 0 0 0 .073.072.073 0-.073-.073 0-.073 0 0v-.073c.072.073.072 0 .145 0 0 0 0 .073.073.073-.073.072-.146.072-.218.145h-.073l-.072.072h-.073s-.073 0-.073.073v-.072.072c-.145-.145-.072-.218-.072-.29zm0-.509c-.073 0-.073 0 0 0zm-.073.581c.073.073 0 .073.073.073 0 0 0 .072-.073.072v-.145zm-.363.073c.073 0 .145 0 .145-.073h.073c0 .073-.073 0-.073 0 0 .073-.072 0-.072.073-.073-.073-.073.072-.146 0 .073.072.073 0 .073 0zm-.073 4.575v.072c-.072 0-.072 0 0-.072-.072 0-.072-.073 0 0zm-.217-6.245c.072 0 0 0 0 0zm0 4.502h.145l-.073.073s-.072 0-.072-.073zm.072 1.743s.073 0 0 0c.073.072 0 .145 0 .145v-.145zm0-.29s0-.073 0 0c0-.073 0-.073 0 0zm-.072 0c0-.073 0-.073 0 0zm.217.58c0-.073 0-.073 0 0h-.145c0-.073 0 0-.072-.073h.072s0-.072.073-.072c.072.072.072.072.072.145zm0-1.96v-.073.073zm0 1.524c.073 0 .073 0 0 0 .073 0 .073 0 0 0 .073 0 .073 0 0 0zm.146-1.597c0 .073 0 .073 0 0 0 .073 0 .073 0 0h-.073v-.145c.073 0 .145.072.218 0 0 0 .072.072.072 0-.072-.073 0-.073 0 0v-.073c.073.073.073 0 .146 0v.073s-.073 0-.073.072c0 0 .073-.072.073 0-.073.073-.073.073-.146.073h-.072s-.073.073-.145 0c.072.073.072 0 0 0zm.29.218c-.073 0 0 0 0 0zm-.218 1.38s0-.073 0 0l.073.072c-.073 0-.073-.073-.073-.073zm0 .653c.073 0 .073 0 0 0 .073.072 0 0 0 0zm.073-.073c-.073 0-.073 0 0 0zm.218.218s0-.073 0 0c0 0 0-.073 0 0 0-.073 0 0 0 0 0 .073-.073 0 0 0-.073.073-.073.073-.146 0v-.073h-.072v-.072c0-.073.072 0 .072 0-.072-.073-.072 0-.072-.073v-.072c0-.073.072 0 .072-.073l.073.073V16.7c.145.218.073.29.073.363zm-.146-1.162c.073.073 0 .073 0 .146v-.146.146l-.072-.073c.072 0 .072 0 .072-.073-.072 0 0-.072 0 0zm0-.145c.073 0 .073-.073 0 0 .073 0 .073 0 0 0 .073 0 .073 0 0 0zm0 .145s0-.072 0 0c0-.072 0 0 0 0zm.073.218c-.073 0 0 .073-.073.073 0-.073 0-.073.073-.073zm.073.363c-.073 0-.073.073-.146.073.073 0 .073-.145.146-.073zm-.146-1.234s.073-.073 0 0c.073-.073.146-.073.146-.073s-.073.073-.146.073zm.073.798c.073.073.073 0 .073 0 .072.146-.073.073-.073 0zm.145.509c0-.073 0-.073 0 0v-.073.073c0-.073 0-.073 0 0zm0-.073s0 .073 0 0c0 .073 0 .073 0 0 0 .073 0 0 0 0zm0 .654v-.073.073zm0-.436c0 .073.073.073.073.073-.073 0-.073-.073-.073-.073 0-.073.073-.073 0 0 0 0 0-.073 0 0zm.073-.508c0-.073 0-.073 0 0v-.146s.073 0 .073.073c-.073 0-.073 0-.073.073zm.145.218c0 .072-.072 0-.072 0h.072zm-.145.145v.072-.072c-.073 0 0 0 0 0zm.363-.218c0 .073 0 .073 0 0zm-.073.073c.073 0 .073 0 0 0 0 .072.073.072.073.145h-.073c0-.073-.072-.073-.072-.073 0-.072 0-.072.072-.072h-.072.072zm.073.29c-.073 0 0 0 0 0l-.073.073h-.072v-.146c0 .073-.073.073-.073.073-.072-.073-.072-.073-.145-.073 0-.072.073-.072.145 0v-.072c.073 0 .073 0 .073.072 0 0 .072 0 .145.073zm-.145-.218c-.073 0 0 0 0 0zm0-.072s-.073 0-.073.072c0-.072 0-.072.073-.072zm-.073.217c0-.072 0 0 0 0-.072-.145 0-.072 0 0zm-.072-.435c0-.073.072-.073 0 0 .072 0 0 0 0 0zm.072-.363v.145c0-.073 0 .072-.072 0 .072 0 0-.073.072-.145zm-.072-.218h-.146s.073-.073.146 0zm-.073-.799c.073 0 .073 0 0 0 .073 0 .073 0 0 0 .073.073 0 .073 0 0l-.145.145h.072c-.072 0-.072.073-.145.073v.072c-.073 0-.073 0-.145.073 0-.072-.073-.072-.073-.145h.145s-.072 0-.072.072c.072 0 .072-.145.145-.072 0 0 0-.073.073-.073v-.072l.145-.073zm-.073-.29c.073 0 .073 0 0 0 .073 0 .073 0 0 0zm.146-.073c0-.073-.073 0-.073 0v-.145l.073.145c.072 0 .072 0 0 0zm0-.073s.072 0 0 0c.072 0 .072 0 0 0 .072 0 0 0 0 0zm.217-.145c-.072 0 0-.072 0 0l-.072-.072s0 .072.072.072c-.072.073-.145 0 0 0-.072.073-.145.073-.145.073s.073 0 0-.073h-.145v-.072c0-.073.073 0 .073 0-.073-.073-.073 0-.146-.073h.073s.073 0 .073.072c0 0-.073-.072 0-.072 0 .073.072.072.072.072h.073c.072 0 .072 0 .072.073zm-.072-.218c.072 0 .072 0 0 0 .072.073.072.073 0 0 .072.073.072.073 0 0zm.145.436s-.073 0-.073.073c0-.073 0-.073.073-.073zm-.073-.145s-.072-.073 0-.073c.073 0 .073.073 0 .073zm0-1.162c.073.073.073 0 .146 0-.073.145-.218.145-.146 0zm.073.799c0-.073 0-.073 0 0 .073-.073.073-.073 0 0zm.508 0h-.072v-.146c0 .073-.073.073-.145.146-.073-.073-.073-.073-.218-.073h.435v.073zm0-.146h-.145c.073-.072.145-.072.145 0zm0-.217c.073 0 0 0 0 0v-.073c.073.073 0 0 .073 0 0 .073 0 .073-.073.073.073 0 0 0 0 0zm.218-.146s-.072 0 0 0c-.072 0-.072 0 0 0-.072-.072 0 0 0-.072v.072zm0-.072c.073-.073.073-.073 0 0zm.218.145s-.073 0 0 0c-.145 0-.073-.073 0 0v-.073.073c0-.073 0-.073 0 0zm.363.145l-.073-.072c0-.073.073.072.073-.073v.145zm.29-.072s0 .072 0 0h.073c0 .072-.145.072-.072 0zm.218 0c-.072-.073 0-.146 0-.073s.073.073 0 .073z" fill="#F0D878"/></mask><g mask="url(#a)"><path d="M41.462 2.759h-53.879v24.107h53.879V2.76z" fill="url(#paint0_linear_97_27049)"/></g><path d="M37.688 12.49c-.075 0-.075.075 0 0-.075.075 0 .075 0 0zm-.003-.727s-.072 0 0 .072c0-.072.073-.072 0-.072zm.872 2.469c0 .072-.072.072-.072.072.072 0 .144 0 .072-.072zm-.797-.072c0 .072 0 0 0 0 0-.073 0-.073-.072-.073 0 .072.072.072.072.072zm-.874 3.703c-.073 0-.073 0-.073.073 0-.073 0 0 .073-.073zm.947-5.373c-.079 0 0 .078 0 0zm-.438 4.5v-.071c-.072.072 0 .072 0 .072zm2.035-.507s-.074.073-.074.146c.073-.073.073-.073.073-.146zm.072-.001c0 .072 0 .072 0 0 0 0 .072 0 0 0 0-.072 0 0 0 0zm-.797-1.742c-.075 0-.075 0 0 0-.075.075 0 0 0 0s-.075 0 0 0zm-.002-.58s-.072 0 0 0c0 .072 0 .072 0 0-.144.143 0 .072 0 0zm-.147.361c-.144-.072-.072.072 0 0zm.438 1.236s-.072-.073-.072 0h.072zm-.22-.073s.072.072.072 0c-.072-.072-.072-.072-.072 0zm.146-1.307c-.073 0-.146 0-.146.073 0-.073.146 0 .146-.073zm-.216.073c-.072 0-.072 0-.072.072.072 0 .072 0 .072-.072zm-.8 4.287c0-.078 0 0 0 0s.079 0 0 0zm-1.161-.076s0 .072-.072.072c.072-.072.144 0 .072-.072zm1.307.435s.073 0 .073-.073c-.072 0-.072.073-.072.073zm-.362.364c0 .074.072 0 .145.074 0-.073-.073-.073-.145-.073zm-.51-1.452s.072.073.072 0l-.072-.072s.072 0 0 .072c0 0 0-.072 0 0zm.219-.218s-.075.075 0 0c-.075.075 0 .075 0 0zm.291.072c.143-.072.071-.143 0 0zm.143.798s.072 0 .072-.072c-.072 0-.072 0-.072.073zm-.143 1.453v.072c.071 0 0-.072.071-.072.072 0 0 .072-.072 0zm-.145-2.25c-.075.075.075.075 0 0zm-.73 1.887c.073.073.073 0 .073 0h-.073zm.875-.072c-.219 0-.073.146 0 0zm-.654-2.176s0-.075 0 0c-.075-.075-.075-.075 0 0zm.29 2.031s-.073 0-.073.072c.073 0 .145-.072.073-.072.072 0 0 0 0 0zm-.001.653c-.146.073-.218.073-.29.146h.072c.073 0 0 0 .072-.073 0 .073.146 0 .146.073-.073.072 0-.073 0-.146zm.289 0c.073.072.073 0 .073.072 0-.072-.073-.072 0-.072h-.073c-.072-.073-.072 0-.218 0v.145c.073 0 0-.073.073-.073s0 .073.073.073c-.073-.073 0-.073.072-.145z" fill="#F0D878"/><path d="M37.903 20.185c0-.072 0-.072-.072-.072s0 .072.072.072zm-.072-1.015s-.072 0-.072.073c.072 0 .072 0 .072-.073zm-.365.726c-.072-.072-.072 0-.072 0 0 .072.072.072.072 0zm.076.072c.072-.072 0-.072 0-.072v.072zm1.452.872c-.072 0-.145 0-.145.072.073 0 .145 0 .145-.073zm-.437-1.89c.072 0 0 0 0 0 .072-.071.072 0 .072-.071 0-.072-.072.072-.072.072zm-2.252-1.668h.072s0-.073-.072 0zm2.4 1.016c-.075 0-.075 0 0 0-.075.075 0 .075 0 0zm.073.146s-.075 0 0 0c-.075.075 0 .075 0 0zm.216.072c-.073.073-.073.145-.145.218-.073.072-.073.145-.145.145 0 .073-.073.145-.146.218-.072.073-.145.073-.145.218a.567.567 0 01.29-.29c.073-.073.146-.218.218-.364 0 0 .073 0 .073-.072-.073-.146.145-.29.145-.363-.072.072-.145.217-.145.29zm-.437.072h.072s0-.072-.072 0c.072-.072 0-.072 0 0zm.217-.291c.073.073 0 .073.073.146.073 0 0-.073 0-.146.073 0 .073-.072.073-.072.145 0 .145-.146.145-.146 0-.072-.073 0-.073 0-.072-.072.073-.072 0-.145 0 0 .073.073.073 0v-.072c0 .072-.218-.145-.073 0-.072.072-.072.145-.145.218.073.217 0 .217-.073.217h.073c0 .073 0 0-.073 0zm-1.594-.943c0 .073 0 0 0 0 .073-.073.146 0 .146-.073-.073-.072-.073 0-.146-.072v.145s-.073-.073 0 0zm1.886 3.559c0-.073-.073 0-.073.072 0 .073 0-.072.073-.072zm-1.089-3.34c-.073 0-.073 0-.073.072 0 0 .073 0 .073-.072zm-.869-.217c0-.074 0 0 0 0 0-.074-.074-.074 0 0zm1.012.291c0-.078 0 0 0 0 .079 0 0 0 0 0zm.073.724c-.073 0-.073.073-.073.073h.073c-.073 0 0 0 0-.073zM36.96 20.33c.073.073.073-.071.073-.071s-.072 0-.072.072zm1.092-1.669s-.08 0 0 0c0 .079-.08 0 0 0z" fill="#F0D878"/><path d="M12.2 6.535c-.145-.29-.29-.508-.581-.726-.145-.145-.29-.218-.508-.29-.29-.145-.581-.218-.872-.29-.218-.073-.435-.073-.726-.073h-.29c-.363 0-.726.145-1.017.218-.363.145-.726.435-.871.798a.22.22 0 000 .29c.145.219.363.582.653.8.218.145.509.29.726.435.218.073.436.145.654.145.363.073.726 0 1.162-.072.29-.073.508-.218.799-.363.29-.145.58-.363.798-.509.145-.145.145-.29.073-.363zm-.145.218a3.99 3.99 0 00-.654.509c-.218.145-.508.29-.799.363-.58.145-1.234.145-1.742-.073a3.392 3.392 0 01-.727-.363 2.952 2.952 0 01-.653-.726v-.145a1.58 1.58 0 01.799-.727c.29-.145.58-.217.944-.217-.073.798.072 1.67.29 1.742.218 0 .508-.871.654-1.67.29.073.58.145.871.29.218.073.363.219.508.364.218.145.363.363.436.653v.073c.073-.145.073-.145.073-.073z" fill="#A39041"/><path d="M12.056 6.607s0 .073-.072.073c-.218.145-.436.29-.654.508-.29.145-.508.29-.798.363-.581.146-1.235.146-1.743-.072a3.392 3.392 0 01-.726-.363 2.96 2.96 0 01-.654-.727v-.145c.145-.29.436-.58.799-.726.29-.145.58-.218.944-.218-.073.799.073 1.67.29 1.743.218 0 .509-.871.654-1.67.29.073.58.145.871.29.218.073.363.218.508.363.364.073.509.29.581.581z" fill="#fff"/><path d="M28.756 29.335c.944-1.888 1.816-3.849 2.76-5.736.072-.218.072-.436-.146-.509-.145-.072-.436-.072-.508.145-1.017 2.034-1.96 4.067-2.977 6.173h.871v-.073zm-2.251 0c.944-1.888 1.816-3.849 2.76-5.736.072-.218.072-.436-.146-.509-.145-.072-.436-.072-.508.145l-2.977 6.173h.871v-.073z" fill="#F0D878"/><defs><linearGradient id="paint0_linear_97_27049" x1="-12.427" y1="14.788" x2="41.422" y2="14.788" gradientUnits="userSpaceOnUse"><stop stop-color="#F0D878"/><stop offset=".156" stop-color="#F0D878"/><stop offset=".391" stop-color="#EDD576"/><stop offset=".57" stop-color="#E3CC6F"/><stop offset=".729" stop-color="#D3BD63"/><stop offset=".877" stop-color="#BCA853"/><stop offset="1" stop-color="#A39041"/></linearGradient></defs></svg>