<svg width="23" height="23" viewBox="0 0 23 23" fill="none" xmlns="http://www.w3.org/2000/svg">
<g clip-path="url(#clip0_110_163)">
<path d="M16.3516 1.4375C15.4419 1.43856 14.5422 1.62597 13.7077 1.98816C12.8733 2.35036 12.122 2.87967 11.5 3.54344C10.5885 2.57065 9.40566 1.89433 8.10496 1.60228C6.80426 1.31023 5.44581 1.41594 4.20595 1.90569C2.96608 2.39543 1.90208 3.24659 1.15206 4.34868C0.402047 5.45076 0.000656326 6.75286 0 8.08594C0 14.7056 10.677 21.2031 11.1406 21.4583C11.2524 21.5254 11.3804 21.5609 11.5108 21.5609C11.6412 21.5609 11.7691 21.5254 11.8809 21.4583C12.323 21.2031 23 14.7056 23 8.08594C22.9981 6.32325 22.297 4.6333 21.0506 3.38688C19.8042 2.14047 18.1143 1.4394 16.3516 1.4375ZM11.5 19.9956C9.64203 18.8097 1.4375 13.2681 1.4375 8.08594C1.43842 6.97904 1.79179 5.9012 2.44639 5.00861C3.10099 4.11602 4.02282 3.45506 5.07827 3.12153C6.13372 2.788 7.26795 2.79922 8.3166 3.15357C9.36524 3.50792 10.2738 4.18698 10.9106 5.09234C10.977 5.18652 11.065 5.26336 11.1672 5.31641C11.2695 5.36946 11.383 5.39715 11.4982 5.39715C11.6134 5.39715 11.7269 5.36946 11.8292 5.31641C11.9314 5.26336 12.0194 5.18652 12.0858 5.09234C12.7221 4.18542 13.6308 3.50489 14.6802 3.14955C15.7295 2.7942 16.8648 2.78254 17.9212 3.11625C18.9776 3.44996 19.9002 4.11167 20.555 5.00533C21.2097 5.89898 21.5627 6.97807 21.5625 8.08594C21.5625 13.2645 13.358 18.8061 11.5 19.9956Z" fill="#242424"/>
</g>
<defs>
<clipPath id="clip0_110_163">
<rect width="23" height="23" fill="white"/>
</clipPath>
</defs>
</svg>
