<svg width="26" height="26" viewBox="0 0 26 26" fill="none" xmlns="http://www.w3.org/2000/svg">
<path d="M24.6735 6.90778C24.3926 5.86354 23.5693 5.04038 22.5252 4.7592C20.6178 4.2373 12.988 4.2373 12.988 4.2373C12.988 4.2373 5.35845 4.2373 3.45103 4.73941C2.42702 5.0203 1.58363 5.86369 1.30274 6.90778C0.800781 8.81505 0.800781 12.7705 0.800781 12.7705C0.800781 12.7705 0.800781 16.7458 1.30274 18.6332C1.58392 19.6773 2.40694 20.5004 3.45117 20.7816C5.37853 21.3036 12.9883 21.3036 12.9883 21.3036C12.9883 21.3036 20.6178 21.3036 22.5252 20.8015C23.5695 20.5205 24.3926 19.6973 24.6738 18.6532C25.1756 16.7458 25.1756 12.7906 25.1756 12.7906C25.1756 12.7906 25.1957 8.81505 24.6735 6.90778ZM10.5588 16.4246V9.11631L16.9034 12.7705L10.5588 16.4246Z" fill="white"/>
</svg>
